<?xml version="1.0" encoding="utf-8"?>
<!-- Generator: Adobe Illustrator 16.0.0, SVG Export Plug-In . SVG Version: 6.00 Build 0)  -->
<!DOCTYPE svg PUBLIC "-//W3C//DTD SVG 1.1//EN" "http://www.w3.org/Graphics/SVG/1.1/DTD/svg11.dtd">
<svg version="1.1" xmlns="http://www.w3.org/2000/svg" xmlns:xlink="http://www.w3.org/1999/xlink" x="0px" y="0px"
	 width="5886.338px" height="4745.185px" viewBox="0 0 5886.338 4745.185" enable-background="new 0 0 5886.338 4745.185"
	 xml:space="preserve">
<g id="Layer_1">
</g>
<g id="Layer_6">
</g>
<g id="Layer_5">
</g>
<g id="Layer_2">
</g>
<g id="Layer_3">
</g>
<g id="Layer_4">
</g>
<g id="Layer_7">
</g>
<g id="Layer_8">
</g>
<g id="Layer_9">
</g>
<g id="Layer_11">
</g>
<g id="Layer_13">
</g>
<g id="Layer_14">
</g>
<g id="Layer_15">
</g>
<g id="Layer_17">
</g>
<g id="Layer_19">
</g>
<g id="Layer_18">
</g>
<g id="Layer_20">
</g>
<g id="Layer_51">
</g>
<g id="Layer_34">
</g>
<g id="Layer_52">
</g>
<g id="Layer_21">
</g>
<g id="Layer_22">
</g>
<g id="Layer_24">
</g>
<g id="Layer_23">
</g>
<g id="Layer_53">
</g>
<g id="Layer_25">
</g>
<g id="Layer_26">
</g>
<g id="Layer_27">
</g>
<g id="Layer_28">
</g>
<g id="Layer_29">
</g>
<g id="Layer_30">
</g>
<g id="Layer_31">
</g>
<g id="Layer_32">
</g>
<g id="Layer_33">
</g>
<g id="Layer_50">
</g>
<g id="Layer_16">
</g>
<g id="Layer_35">
</g>
<g id="Layer_36">
</g>
<g id="Layer_37">
</g>
<g id="Layer_38">
</g>
<g id="Layer_39">
</g>
<g id="Layer_40">
</g>
<g id="Layer_41">
</g>
<g id="Layer_42">
</g>
<g id="Layer_43">
</g>
<g id="Layer_44">
</g>
<g id="Layer_45">
</g>
<g id="Layer_46">
	<g>
		<g>
			<path fill="none" stroke="#CCCCCC" stroke-width="3" stroke-miterlimit="10" d="M1781.225,528.881h-4.312c-2.209,0-4-1.791-4-4
				v-56.667c0-2.209,1.791-4,4-4h4.312V528.881z"/>
			<path fill="none" stroke="#CCCCCC" stroke-width="3" stroke-miterlimit="10" d="M1781.225,664.551h-4.312c-2.209,0-4-1.791-4-4
				v-45.67c0-2.209,1.791-4,4-4h4.312V664.551z"/>
			<path fill="none" stroke="#CCCCCC" stroke-width="3" stroke-miterlimit="10" d="M1781.225,797.217h-4.312c-2.209,0-4-1.791-4-4
				v-45.67c0-2.209,1.791-4,4-4h4.312V797.217z"/>
			<path fill="none" stroke="#CCCCCC" stroke-width="3" stroke-miterlimit="10" d="M2407.578,243.207h-120v-5.323
				c0-2.209,1.791-4,4-4h112c2.209,0,4,1.791,4,4V243.207z"/>
			<g>
				<rect x="1834.746" y="465.717" fill="#FFFFFF" width="642.999" height="1138.999"/>
				<path fill="#CCCCCC" d="M2476.244,467.217v1135.999h-639.999V467.217H2476.244 M2479.244,464.217h-3h-639.999h-3v3v1135.999v3h3
					h639.999h3v-3V467.217V464.217L2479.244,464.217z"/>
			</g>
			<g>
				<path fill="#CCCCCC" d="M2413.311,245.303c32.264,0,61.709,11.053,82.914,31.123c20.696,19.588,32.094,46.18,32.094,74.877
					v1367.964c0,28.313-11.025,54.933-31.046,74.953c-20.021,20.021-46.64,31.047-74.954,31.047h-532.074
					c-28.314,0-54.933-11.025-74.954-31.047c-20.021-20.021-31.046-46.64-31.046-74.953V351.303
					c0-27.882,10.655-54.53,30.001-75.037c18.564-19.678,42.981-30.963,66.99-30.963H2413.311 M2413.311,241.303h-532.075
					c-51.743,0-100.991,49.248-100.991,110v1367.964c0,60.752,49.248,110,110,110h532.074c60.752,0,110-49.248,110-110V351.303
					C2532.318,290.551,2483.07,241.303,2413.311,241.303L2413.311,241.303z"/>
			</g>
			<circle fill="none" stroke="#CCCCCC" stroke-width="3" stroke-miterlimit="10" cx="2157.783" cy="1715.278" r="68.551"/>
			<path fill="none" stroke="#CCCCCC" stroke-width="3" stroke-miterlimit="10" d="M2225.334,379.339
				c0,8.284-6.717,14.999-15,14.999h-106.005c-8.283,0-14.998-6.715-14.998-14.999l0,0c0-8.284,6.715-14.999,14.998-14.999h106.005
				C2218.617,364.34,2225.334,371.055,2225.334,379.339L2225.334,379.339z"/>
			<path fill="none" stroke="#CCCCCC" stroke-width="2" stroke-miterlimit="10" d="M2185.58,1728.214c0,8.285-6.717,15-15,15
				h-24.666c-8.285,0-15-6.715-15-15v-24.666c0-8.285,6.715-15,15-15h24.666c8.283,0,15,6.715,15,15V1728.214z"/>
			<circle fill="none" stroke="#CCCCCC" stroke-width="3" stroke-miterlimit="10" cx="2157.246" cy="319.551" r="14"/>
		</g>
		<g>
			<rect x="1838.249" y="797.218" fill="#82C341" width="640" height="802.357"/>
		</g>
		<text transform="matrix(1 0 0 1 2353.9082 527.2397)" fill="#FFFFFF" font-family="'ProximaNova-Semibold'" font-size="35">LOGO</text>
		<g>
			<rect x="1836.246" y="1272.587" fill="#333333" width="644.3" height="326.988"/>
		</g>
		<g>
			<rect x="1835.633" y="464.214" fill="#333333" width="644.3" height="333.004"/>
		</g>
		<path fill="#4D4D4D" stroke="#CCCCCC" stroke-width="3" stroke-miterlimit="10" d="M2463.879,1548.987
			c0,11.046-10.123,20-22.612,20h-560.776c-12.488,0-22.612-8.954-22.612-20v-124.74c0-11.046,10.124-20,22.612-20h560.776
			c12.489,0,22.612,8.954,22.612,20V1548.987z"/>
		<g>
			<rect x="2142.242" y="1440.32" fill="#FFFFFF" width="10.451" height="35.83"/>
			<rect x="2159.87" y="1440.319" fill="#FFFFFF" width="10.451" height="35.83"/>
		</g>
		<g>
			<rect x="2277.086" y="1440.428" fill="#FFFFFF" width="9.5" height="32.566"/>
			<g>
				<path fill="#FFFFFF" d="M2248.521,1456.896l-22.32-13.826c-1.625-1.067-2.957-0.282-2.957,1.744v26.842
					c0,2.025,1.332,2.811,2.957,1.744l22.32-13.826c0,0,0.793-0.559,0.793-1.339S2248.521,1456.896,2248.521,1456.896z"/>
			</g>
			<g>
				<path fill="#FFFFFF" d="M2276.293,1455.373l-22.318-13.826c-1.627-1.068-2.958-0.283-2.958,1.743v26.841
					c0,2.027,1.331,2.812,2.958,1.745l22.318-13.826c0,0,0.793-0.559,0.793-1.339
					C2277.086,1455.932,2276.293,1455.373,2276.293,1455.373z"/>
			</g>
		</g>
		<g>
			<rect x="2028.912" y="1439.986" fill="#FFFFFF" width="9.5" height="32.566"/>
			<g>
				<path fill="#FFFFFF" d="M2066.977,1456.455l22.319-13.826c1.626-1.067,2.957-0.282,2.957,1.744v26.842
					c0,2.025-1.331,2.811-2.957,1.744l-22.319-13.826c0,0-0.793-0.559-0.793-1.339S2066.977,1456.455,2066.977,1456.455z"/>
			</g>
			<g>
				<path fill="#FFFFFF" d="M2039.205,1454.932l22.319-13.826c1.626-1.068,2.958-0.283,2.958,1.743v26.841
					c0,2.027-1.331,2.812-2.958,1.745l-22.319-13.826c0,0-0.793-0.559-0.793-1.339
					C2038.411,1455.49,2039.205,1454.932,2039.205,1454.932z"/>
			</g>
		</g>
		<g>
			<rect x="1893.879" y="1521.03" fill="#8CC63F" width="116.25" height="3.333"/>
			<rect x="2010.129" y="1521.03" fill="#FFFFFF" width="397.25" height="3.333"/>
			<circle fill="#CCCCCC" cx="2010.504" cy="1521.655" r="17.375"/>
		</g>
		<rect x="1836.025" y="496.548" fill="#4D4D4D" width="642.614" height="103.477"/>
		<text transform="matrix(1 0 0 1 1858.8789 550.2866)" fill="#8CC63F" font-family="'Helvetica'" font-size="19">Done</text>
		<g>
			<g>
				<g>
					<g>
						<path fill="#FFFFFF" d="M2320.243,1050.593c-13.483,0-24.46-10.978-24.46-24.462c0-13.49,10.977-24.464,24.46-24.464
							c13.487,0,24.46,10.974,24.46,24.464C2344.703,1039.615,2333.73,1050.593,2320.243,1050.593z M2358.146,957.964h-13.519
							l0.028,39.202c-6.601-5.57-15.118-8.94-24.412-8.94c-13.43,0-25.245,7.034-31.978,17.602
							c-6.767-10.718-18.684-17.878-32.271-17.878c-13.722,0-25.769,7.282-32.498,18.184c-6.73-10.896-18.75-18.184-32.465-18.184
							c-15.401,0-28.691,9.176-34.721,22.342c-4.711-5.104-11.066-8.695-18.367-9.865l-4.067-0.73
							c-6.607-1.327-11.403-7.191-11.403-13.947c0-7.848,6.381-14.225,14.227-14.225c5.139,0,9.896,2.785,12.414,7.275l3.319,5.912
							l11.827-6.639l-3.318-5.906c-4.922-8.763-14.207-14.202-24.242-14.202c-15.323,0-27.786,12.461-27.786,27.784
							c0,13.193,9.376,24.646,22.432,27.264l4.319,0.775c9.045,1.459,15.609,9.18,15.609,18.359c0,10.252-8.34,18.599-18.595,18.599
							c-6.792,0-13.042-3.703-16.312-9.665l-3.266-5.941l-11.886,6.521l3.264,5.941c5.651,10.306,16.458,16.702,28.199,16.702
							c11.698,0,21.926-6.3,27.551-15.659c6.954,9.482,18.168,15.659,30.802,15.659c7.66,0,15.049-2.26,21.369-6.542l5.615-3.8
							l-7.604-11.231l-5.614,3.807c-4.066,2.748-8.828,4.208-13.767,4.208c-13.572,0-24.615-11.049-24.615-24.622
							c0-13.565,11.043-24.612,24.615-24.612c11.215,0,20.691,7.553,23.645,17.838h-30.423v13.559h34.185
							c3.209,17.823,18.824,31.396,37.557,31.396c7.658,0,15.051-2.26,21.371-6.542l5.613-3.8l-7.603-11.231l-5.614,3.807
							c-4.067,2.748-8.828,4.208-13.768,4.208c-13.57,0-24.611-11.049-24.611-24.622c0-13.565,11.041-24.612,24.611-24.612
							c11.221,0,20.695,7.553,23.648,17.838h-30.428v13.559h33.75c3.205,17.677,18.695,31.118,37.278,31.118
							c20.899,0,37.902-16.999,37.902-37.895C2358.146,1025.482,2358.146,957.964,2358.146,957.964z"/>
					</g>
				</g>
				<g>
					<circle fill="#FFFFFF" cx="2320.061" cy="1027.195" r="4.708"/>
				</g>
			</g>
			<g>
				<g>
					<path fill="#FFFFFF" d="M2004.072,1004.456c-14.717,6.205-17.389,17.521-9.794,23.722c9.144,7.467,30.09,1.387,37.662,12.924
						c4.115,6.257,1.323,14.286,1.323,14.286s6.87-7.253,10.176-23.19c3.415-18.783,1.055-34.715,1.055-34.715
						S2025.347,995.48,2004.072,1004.456z"/>
				</g>
				<g>
					<path fill="#FFFFFF" d="M1983.744,1036.891c-9.108-9.27-2.437-18.174-2.437-18.174s-25.81,20.815-9.952,47.696
						c0,0,29.967-0.022,35.332-0.05c14.65-0.072,18.722-10.377,14.336-17.353
						C2015.383,1040.039,1993.031,1046.334,1983.744,1036.891z"/>
				</g>
				<g>
					<path fill="#FFFFFF" d="M2062.348,958.23h-112.996c-8.854,0-16.033,7.178-16.033,16.031v112.996
						c0,8.854,7.178,16.031,16.033,16.031h112.996c8.854,0,16.032-7.178,16.032-16.031V974.262
						C2078.38,965.408,2071.201,958.23,2062.348,958.23z M2055.949,1026.675c-3.851,34.187-21.526,50.694-47.894,51.267h-6.452
						h-36.858c-16.919-21.915-14.171-54.409,21.399-76.891c33.41-21.123,68.984-14.382,68.984-14.382
						S2058.729,1002.002,2055.949,1026.675z"/>
				</g>
			</g>
			<g>
				<path fill="#FFFFFF" d="M2144.342,1088.658c0-9.007,6.635-15.157,15.07-15.157c5.184,0,8.787,2.504,11.115,5.799l-3.076,1.714
					c-1.669-2.46-4.701-4.262-8.039-4.262c-6.415,0-11.291,4.922-11.291,11.906c0,6.941,4.876,11.906,11.291,11.906
					c3.338,0,6.37-1.758,8.039-4.262l3.119,1.714c-2.459,3.339-5.975,5.8-11.158,5.8
					C2150.977,1103.816,2144.342,1097.664,2144.342,1088.658z"/>
				<path fill="#FFFFFF" d="M2174.154,1103.288v-21.22h3.296v3.426c1.714-2.24,4.174-3.865,7.073-3.865v3.383
					c-0.395-0.088-0.791-0.133-1.318-0.133c-2.021,0-4.789,1.67-5.755,3.385v15.024H2174.154z"/>
				<path fill="#FFFFFF" d="M2186.104,1092.656c0-6.15,4.395-11.115,10.457-11.115c6.414,0,10.193,5.008,10.193,11.379v0.835
					h-17.179c0.264,3.998,3.075,7.337,7.645,7.337c2.417,0,4.877-0.967,6.546-2.68l1.582,2.152
					c-2.109,2.109-4.965,3.252-8.436,3.252C2190.629,1103.816,2186.104,1099.291,2186.104,1092.656z M2196.517,1084.265
					c-4.525,0-6.766,3.823-6.941,7.073h13.927C2203.459,1088.175,2201.35,1084.265,2196.517,1084.265z"/>
				<path fill="#FFFFFF" d="M2224.357,1103.288v-2.416c-1.758,1.934-4.174,2.944-7.029,2.944c-3.604,0-7.426-2.417-7.426-7.029
					c0-4.746,3.822-6.986,7.426-6.986c2.899,0,5.316,0.923,7.029,2.899v-3.822c0-2.855-2.285-4.481-5.359-4.481
					c-2.549,0-4.614,0.923-6.503,2.943l-1.538-2.285c2.285-2.372,5.009-3.514,8.479-3.514c4.481,0,8.216,2.021,8.216,7.161v14.586
					H2224.357z M2224.357,1098.807v-3.997c-1.273-1.758-3.515-2.637-5.844-2.637c-3.075,0-5.229,1.933-5.229,4.657
					c0,2.681,2.153,4.613,5.229,4.613C2220.843,1101.443,2223.084,1100.564,2224.357,1098.807z"/>
				<path fill="#FFFFFF" d="M2234.044,1098.852v-13.883h-3.515v-2.9h3.515v-5.8h3.295v5.8h4.306v2.9h-4.306v13.18
					c0,1.581,0.702,2.724,2.153,2.724c0.922,0,1.801-0.396,2.24-0.879l0.967,2.46c-0.835,0.792-2.021,1.363-3.955,1.363
					C2235.625,1103.816,2234.044,1102.015,2234.044,1098.852z"/>
				<path fill="#FFFFFF" d="M2245.185,1076.84c0-1.23,1.011-2.24,2.197-2.24c1.229,0,2.241,1.01,2.241,2.24
					s-1.012,2.197-2.241,2.197C2246.195,1079.037,2245.185,1078.07,2245.185,1076.84z M2245.756,1103.288v-21.22h3.295v21.22
					H2245.756z"/>
				<path fill="#FFFFFF" d="M2260.838,1103.288l-8.83-21.22h3.559l7.072,17.398l7.03-17.398h3.603l-8.831,21.22H2260.838z"/>
				<path fill="#FFFFFF" d="M2275.705,1076.84c0-1.23,1.01-2.24,2.196-2.24c1.23,0,2.241,1.01,2.241,2.24s-1.011,2.197-2.241,2.197
					C2276.715,1079.037,2275.705,1078.07,2275.705,1076.84z M2276.275,1103.288v-21.22h3.295v21.22H2276.275z"/>
				<path fill="#FFFFFF" d="M2286.178,1098.852v-13.883h-3.514v-2.9h3.514v-5.8h3.295v5.8h4.307v2.9h-4.307v13.18
					c0,1.581,0.703,2.724,2.154,2.724c0.922,0,1.801-0.396,2.24-0.879l0.966,2.46c-0.835,0.792-2.021,1.363-3.954,1.363
					C2287.76,1103.816,2286.178,1102.015,2286.178,1098.852z"/>
				<path fill="#FFFFFF" d="M2298.369,1108.604c0.484,0.22,1.273,0.352,1.802,0.352c1.45,0,2.417-0.483,3.163-2.241l1.406-3.206
					l-8.875-21.44h3.559l7.074,17.398l7.029-17.398h3.603l-10.632,25.526c-1.275,3.075-3.428,4.262-6.239,4.305
					c-0.703,0-1.802-0.132-2.417-0.308L2298.369,1108.604z"/>
			</g>
		</g>
		<text transform="matrix(1 0 0 1 1940.3789 550.2866)" fill="#FFFFFF" font-family="'Helvetica'" font-size="17">0.00.13</text>
		<text transform="matrix(1 0 0 1 2318.5039 550.2866)" fill="#FFFFFF" font-family="'Helvetica'" font-size="17">-2.30.10</text>
		<rect x="2018.995" y="543.989" fill="#8CC63F" width="7.75" height="3.333"/>
		<rect x="2026.745" y="543.989" fill="#FFFFFF" width="273.509" height="3.333"/>
		<circle fill="#CCCCCC" cx="2035.183" cy="544.989" r="12.312"/>
		<path fill="#8CC63F" d="M2414.538,533.711v9.541l3.017-3.722l4.441,4.592l3.028-3.029l-4.587-4.435l3.641-2.947H2414.538z
			 M2428.053,550.181l4.59,4.438l-3.681,2.982h9.54v-9.541l-2.982,3.682l-4.438-4.59L2428.053,550.181z"/>
	</g>
</g>
<g id="Layer_47">
</g>
<g id="Layer_48">
</g>
<g id="Layer_49">
</g>
<g id="Layer_54">
</g>
<g id="Layer_55">
	<g>
		<path fill="none" stroke="#CCCCCC" stroke-width="3" stroke-miterlimit="10" d="M348.142,2821.489h-4.312c-2.209,0-4-1.791-4-4
			v-56.666c0-2.209,1.791-4,4-4h4.312V2821.489z"/>
		<path fill="none" stroke="#CCCCCC" stroke-width="3" stroke-miterlimit="10" d="M348.142,2957.159h-4.312c-2.209,0-4-1.791-4-4
			v-45.67c0-2.209,1.791-4,4-4h4.312V2957.159z"/>
		<path fill="none" stroke="#CCCCCC" stroke-width="3" stroke-miterlimit="10" d="M348.142,3089.826h-4.312c-2.209,0-4-1.791-4-4
			v-45.671c0-2.209,1.791-4,4-4h4.312V3089.826z"/>
		<path fill="none" stroke="#CCCCCC" stroke-width="3" stroke-miterlimit="10" d="M974.496,2535.815h-120v-5.322
			c0-2.209,1.791-4,4-4h112c2.209,0,4,1.791,4,4V2535.815z"/>
		<g>
			<rect x="401.663" y="2758.325" fill="#F2F2F2" width="642.999" height="1139"/>
			<path fill="#CCCCCC" d="M1043.162,2759.825v1136H403.163v-1136H1043.162 M1046.162,2756.825h-3H403.163h-3v3v1136v3h3h639.999h3
				v-3v-1136V2756.825L1046.162,2756.825z"/>
		</g>
		<g>
			<path fill="#CCCCCC" d="M980.229,2537.911c32.263,0,61.709,11.053,82.914,31.123c20.696,19.588,32.094,46.18,32.094,74.877
				v1367.965c0,58.449-47.552,106-106,106H457.161c-58.448,0-106-47.551-106-106V2643.911c0-27.882,10.654-54.53,30.001-75.037
				c18.564-19.678,42.981-30.963,66.991-30.963H980.229 M980.229,2533.911H448.153c-51.744,0-100.992,49.248-100.992,110v1367.965
				c0,60.752,49.248,110,110,110h532.075c60.752,0,110-49.248,110-110V2643.911
				C1099.236,2583.159,1049.988,2533.911,980.229,2533.911L980.229,2533.911z"/>
		</g>
		<circle fill="none" stroke="#CCCCCC" stroke-width="3" stroke-miterlimit="10" cx="724.701" cy="4007.887" r="68.551"/>
		<path fill="none" stroke="#CCCCCC" stroke-width="3" stroke-miterlimit="10" d="M792.252,2671.948c0,8.283-6.717,14.999-15,14.999
			H671.247c-8.285,0-15-6.716-15-14.999l0,0c0-8.284,6.715-15,15-15h106.005C785.535,2656.948,792.252,2663.664,792.252,2671.948
			L792.252,2671.948z"/>
		<path fill="none" stroke="#CCCCCC" stroke-width="2" stroke-miterlimit="10" d="M752.498,4020.823c0,8.285-6.717,15-15,15h-24.667
			c-8.285,0-15-6.715-15-15v-24.666c0-8.285,6.715-15,15-15h24.667c8.283,0,15,6.715,15,15V4020.823z"/>
		<circle fill="none" stroke="#CCCCCC" stroke-width="3" stroke-miterlimit="10" cx="724.163" cy="2612.16" r="14"/>
	</g>
	<g>
		<rect x="403.163" y="2863.471" fill="#FFFFFF" width="639.999" height="1029.062"/>
	</g>
	<rect x="457.378" y="2966.159" fill="none" width="525.898" height="275"/>
	<text transform="matrix(1 0 0 1 457.3779 2984.1333)"><tspan x="0" y="0" font-family="'Helvetica'" font-size="25">Lorem ipsum dolor sit amet, quidam eirmod at </tspan><tspan x="0" y="30" font-family="'Helvetica'" font-size="25">eos. Semper maiestatis voluptatibus nec et. </tspan><tspan x="0" y="60" font-family="'Helvetica'" font-size="25">Labitur alterum ad vim. Ne civibus convenire </tspan><tspan x="0" y="90" font-family="'Helvetica'" font-size="25">per, ceteros suavitate definitionem in cum, </tspan><tspan x="0" y="120" font-family="'Helvetica'" font-size="25">decore singulis eos eu. No quas accusam nam.</tspan></text>
	<rect x="457.378" y="3647.135" fill="none" width="525.898" height="173.392"/>
	<text transform="matrix(1 0 0 1 457.3779 3665.1099)"><tspan x="0" y="0" font-family="'Helvetica'" font-size="25">Lorem ipsum dolor sit amet, quidam eirmod at </tspan><tspan x="0" y="30" font-family="'Helvetica'" font-size="25">eos. Semper maiestatis voluptatibus nec et. </tspan><tspan x="0" y="60" font-family="'Helvetica'" font-size="25">Labitur alterum ad vim. Ne civibus convenire </tspan><tspan x="0" y="90" font-family="'Helvetica'" font-size="25">per, ceteros suavitate definitionem in cum, </tspan><tspan x="0" y="120" font-family="'Helvetica'" font-size="25">decore singulis eos eu. No quas accusam nam.</tspan></text>
	<g>
		<rect x="404.25" y="2757.109" fill="#4D4D4D" width="639.999" height="106.362"/>
	</g>
	<rect x="901.05" y="2759.825" fill="#666666" width="138.898" height="100.931"/>
	<text transform="matrix(1 0 0 1 923.0503 2822.7788)" fill="#FFFFFF" font-family="'ProximaNova-Semibold'" font-size="35">LOGO</text>
	<g>
		<path fill="#FFFFFF" d="M504.378,2808.779h-60c-2.762,0-5,2.238-5,5s2.238,5,5,5h60c2.762,0,5-2.238,5-5
			S507.14,2808.779,504.378,2808.779z M444.378,2798.779h60c2.762,0,5-2.238,5-5s-2.238-5-5-5h-60c-2.762,0-5,2.238-5,5
			S441.616,2798.779,444.378,2798.779z M504.378,2828.779h-60c-2.762,0-5,2.238-5,5s2.238,5,5,5h60c2.762,0,5-2.238,5-5
			S507.14,2828.779,504.378,2828.779z"/>
	</g>
	<g>
		<rect x="471.378" y="3187.583" fill="#CCCCCC" width="488.809" height="380.837"/>
	</g>
	<g>
		<path fill="#FFFFFF" d="M744.213,3364.527l-8.129-22.393c-0.601-1.654-2.361-2.529-3.931-1.957l-54.032,19.719
			c-1.571,0.572-2.358,2.378-1.757,4.031l8.57,23.611v-12.657c0-5.709,4.565-10.354,10.176-10.354h14.276l17.028-11.953
			l9.854,11.953H744.213z M752.611,3371.695h-57.5c-1.671,0-3.027,1.428-3.027,3.187v37.437c0,1.76,1.355,3.186,3.027,3.186h57.5
			c1.672,0,3.027-1.426,3.027-3.186v-37.437C755.638,3373.123,754.283,3371.695,752.611,3371.695z M748.223,3407.539H700.56v-6.828
			l7.333-17.066l10.999,13.654l10.319-10.578l13.269-4.787l5.744,12.803V3407.539z"/>
	</g>
</g>
<g id="Layer_58">
</g>
<g id="Layer_56">
	<g>
		<path fill="none" stroke="#CCCCCC" stroke-width="3" stroke-miterlimit="10" d="M342.51,519.207h-4.312c-2.209,0-4-1.791-4-4
			V458.54c0-2.209,1.791-4,4-4h4.312V519.207z"/>
		<path fill="none" stroke="#CCCCCC" stroke-width="3" stroke-miterlimit="10" d="M342.51,654.876h-4.312c-2.209,0-4-1.791-4-4
			v-45.67c0-2.209,1.791-4,4-4h4.312V654.876z"/>
		<path fill="none" stroke="#CCCCCC" stroke-width="3" stroke-miterlimit="10" d="M342.51,787.543h-4.312c-2.209,0-4-1.791-4-4
			v-45.67c0-2.209,1.791-4,4-4h4.312V787.543z"/>
		<path fill="none" stroke="#CCCCCC" stroke-width="3" stroke-miterlimit="10" d="M968.864,233.533h-120v-5.323c0-2.209,1.791-4,4-4
			h112c2.209,0,4,1.791,4,4V233.533z"/>
		<g>
			<rect x="396.031" y="456.043" fill="#F2F2F2" width="643" height="1139"/>
			<path fill="#CCCCCC" d="M1037.53,457.543v1136h-640v-1136H1037.53 M1040.53,454.543h-3h-640h-3v3v1136v3h3h640h3v-3v-1136
				V454.543L1040.53,454.543z"/>
		</g>
		<g>
			<path fill="#CCCCCC" d="M974.597,235.628c32.263,0,61.709,11.053,82.914,31.123c20.696,19.588,32.094,46.18,32.094,74.877
				v1367.965c0,58.448-47.551,106-106,106H451.53c-58.448,0-106-47.552-106-106V341.628c0-27.881,10.655-54.53,30.001-75.037
				c18.564-19.677,42.981-30.963,66.99-30.963H974.597 M974.597,231.628H442.521c-51.743,0-100.991,49.249-100.991,110v1367.965
				c0,60.752,49.248,110,110,110h532.075c60.752,0,110-49.248,110-110V341.628C1093.604,280.877,1044.356,231.628,974.597,231.628
				L974.597,231.628z"/>
		</g>
		<circle fill="none" stroke="#CCCCCC" stroke-width="3" stroke-miterlimit="10" cx="719.069" cy="1705.605" r="68.552"/>
		<path fill="none" stroke="#CCCCCC" stroke-width="3" stroke-miterlimit="10" d="M786.62,369.665c0,8.284-6.717,15-15,15H665.615
			c-8.284,0-14.999-6.715-14.999-15l0,0c0-8.284,6.715-14.999,14.999-14.999H771.62C779.903,354.666,786.62,361.381,786.62,369.665
			L786.62,369.665z"/>
		<path fill="none" stroke="#CCCCCC" stroke-width="2" stroke-miterlimit="10" d="M746.866,1718.541c0,8.285-6.717,15-15,15H707.2
			c-8.285,0-15-6.715-15-15v-24.666c0-8.285,6.715-15,15-15h24.667c8.283,0,15,6.715,15,15V1718.541z"/>
		<circle fill="none" stroke="#CCCCCC" stroke-width="3" stroke-miterlimit="10" cx="718.531" cy="309.877" r="14"/>
	</g>
	<g>
		<rect x="397.531" y="454.252" fill="#999999" width="640" height="1139.29"/>
	</g>
	<text transform="matrix(1 0 0 1 456.1538 890.0723)"><tspan x="0" y="0" fill="#FFFFFF" font-family="'ProximaNova-Extrabld'" font-size="74">BILLBOARD</tspan><tspan x="0" y="88.8" fill="#FFFFFF" font-family="'ProximaNova-Extrabld'" font-size="74">HEADING</tspan></text>
	<rect x="879.827" y="465.252" fill="#666666" width="138.898" height="100.931"/>
	<text transform="matrix(1 0 0 1 899.8267 528.207)" fill="#FFFFFF" font-family="'ProximaNova-Semibold'" font-size="35">LOGO</text>
	<g>
		<path fill="#FFFFFF" d="M486.154,514.207h-60c-2.762,0-5,2.238-5,5s2.238,5,5,5h60c2.762,0,5-2.238,5-5
			S488.916,514.207,486.154,514.207z M426.154,504.207h60c2.762,0,5-2.238,5-5s-2.238-5-5-5h-60c-2.762,0-5,2.238-5,5
			S423.392,504.207,426.154,504.207z M486.154,534.207h-60c-2.762,0-5,2.238-5,5s2.238,5,5,5h60c2.762,0,5-2.238,5-5
			S488.916,534.207,486.154,534.207z"/>
	</g>
	<path fill="#FFFFFF" d="M465.184,1124.654c-1.019-1.009-2.67-1.009-3.689,0c-1.018,1.007-1.02,2.644,0,3.652l29.814,29.521
		c1.019,1.009,2.671,1.009,3.689,0l29.814-29.521c1.019-1.009,1.02-2.644,0-3.652c-1.019-1.009-2.67-1.009-3.689-0.001
		l-27.969,26.923L465.184,1124.654z"/>
	<text transform="matrix(1 0 0 1 456.1538 1034.5034)"><tspan x="0" y="0" fill="#FFFFFF" font-family="'ProximaNova-Semibold'" font-size="28">learn more</tspan><tspan x="134.958" y="0" fill="#FFFFFF" font-family="'ProximaNova-Semibold'" font-size="28" letter-spacing="1">	</tspan><tspan x="144" y="0" fill="#FFFFFF" font-family="'ProximaNova-Semibold'" font-size="28" letter-spacing="28">	</tspan><tspan x="180" y="0" fill="#FFFFFF" font-family="'ProximaNova-Semibold'" font-size="28">watch video</tspan></text>
	<g opacity="0.5">
		<g>
			<path fill="#1B9B2A" d="M438.369,1619.165c0,0,22.482-5.423,7.648-42.705c0,0-25.935-104.586-28.463-174.641
				c0,0-2.17-37.993,55.66-59.269c0,0,47.384-48.854,69.134-66.902c0,0,29.954-44.971,114.229-205.643
				c44.711-69.155,65.883-8.688,59.746,13.554c4.827,3.589-85.059,199.506-79.804,204.628c0,0,70.341-12.244,66.028,56.788
				c0,0,65.27-2.62,55.191,63.338c0,0,64.447,41.179,26.344,99.813c0,0-46.521,123.02-131.386,181.721l-28.473,29.27
				L438.369,1619.165z"/>
		</g>
	</g>
	<circle opacity="0.3" fill="#1B9B2A" stroke="#1B9B2A" stroke-miterlimit="10" cx="709.24" cy="1034.503" r="46.251"/>
	<g>
		<circle fill="#82C341" cx="266.338" cy="1969.896" r="71.909"/>
		<text transform="matrix(1 0 0 1 266.3379 1989.5034)" fill="#FFFFFF" font-family="'ProximaNova-Semibold'" font-size="60">1</text>
		<text transform="matrix(1 0 0 1 378.8379 1989.5034)"><tspan x="0" y="0" font-family="'ProximaNova-Semibold'" font-size="90">Billboard Section - </tspan><tspan x="0" y="120" font-family="'ProximaNova-Semibold'" font-size="90">Link to featured</tspan><tspan x="632.237" y="120" font-family="'ProximaNova-Semibold'" font-size="100"> </tspan><tspan x="658.037" y="120" font-family="'ProximaNova-Semibold'" font-size="90">video</tspan></text>
	</g>
	<circle fill="#82C341" cx="1892.475" cy="1969.896" r="61.408"/>
	<text transform="matrix(1 0 0 1 1875.6909 1988.4878)" fill="#FFFFFF" font-family="'ProximaNova-Semibold'" font-size="60">2</text>
	<text transform="matrix(1 0 0 1 1991.1909 1988.4878)" font-family="'ProximaNova-Semibold'" font-size="90">Featured video</text>
</g>
<g id="Layer_60">
</g>
<g id="Layer_57">
</g>
<g id="Layer_59">
	<g>
		<path fill="none" stroke="#CCCCCC" stroke-width="3" stroke-miterlimit="10" d="M3233.976,533.192h-4.312c-2.209,0-4-1.791-4-4
			v-56.667c0-2.209,1.791-4,4-4h4.312V533.192z"/>
		<path fill="none" stroke="#CCCCCC" stroke-width="3" stroke-miterlimit="10" d="M3233.976,668.861h-4.312c-2.209,0-4-1.791-4-4
			v-45.67c0-2.209,1.791-4,4-4h4.312V668.861z"/>
		<path fill="none" stroke="#CCCCCC" stroke-width="3" stroke-miterlimit="10" d="M3233.976,801.528h-4.312c-2.209,0-4-1.791-4-4
			v-45.67c0-2.209,1.791-4,4-4h4.312V801.528z"/>
		<path fill="none" stroke="#CCCCCC" stroke-width="3" stroke-miterlimit="10" d="M3860.33,247.518h-120v-5.323c0-2.209,1.791-4,4-4
			h112c2.209,0,4,1.791,4,4V247.518z"/>
		<g>
			<rect x="3287.497" y="470.028" fill="#F2F2F2" width="643" height="1139"/>
			<path fill="#CCCCCC" d="M3928.996,471.528v1136h-640v-1136H3928.996 M3931.996,468.528h-3h-640h-3v3v1136v3h3h640h3v-3v-1136
				V468.528L3931.996,468.528z"/>
		</g>
		<g>
			<path fill="#CCCCCC" d="M3866.062,249.613c32.263,0,61.709,11.053,82.914,31.123c20.696,19.588,32.094,46.18,32.094,74.877
				v1367.965c0,58.448-47.552,106-106,106h-532.075c-58.449,0-106-47.552-106-106V355.613c0-27.881,10.655-54.53,30.001-75.037
				c18.564-19.677,42.981-30.963,66.99-30.963H3866.062 M3866.062,245.613h-532.076c-51.743,0-100.991,49.249-100.991,110v1367.965
				c0,60.752,49.248,110,110,110h532.075c60.752,0,110-49.248,110-110V355.613C3985.07,294.862,3935.822,245.613,3866.062,245.613
				L3866.062,245.613z"/>
		</g>
		<circle fill="none" stroke="#CCCCCC" stroke-width="3" stroke-miterlimit="10" cx="3610.534" cy="1719.59" r="68.552"/>
		<path fill="none" stroke="#CCCCCC" stroke-width="3" stroke-miterlimit="10" d="M3678.086,383.65c0,8.284-6.717,15-15,15h-106.005
			c-8.284,0-14.999-6.715-14.999-15l0,0c0-8.284,6.715-14.999,14.999-14.999h106.005
			C3671.369,368.651,3678.086,375.366,3678.086,383.65L3678.086,383.65z"/>
		<path fill="none" stroke="#CCCCCC" stroke-width="2" stroke-miterlimit="10" d="M3638.332,1732.525c0,8.285-6.717,15-15,15
			h-24.667c-8.285,0-15-6.715-15-15v-24.666c0-8.285,6.715-15,15-15h24.667c8.283,0,15,6.715,15,15V1732.525z"/>
		<circle fill="none" stroke="#CCCCCC" stroke-width="3" stroke-miterlimit="10" cx="3609.997" cy="323.862" r="14"/>
	</g>
	<g>
		<rect x="3288.997" y="468.237" fill="#999999" width="640" height="1135.999"/>
	</g>
	<text transform="matrix(1 0 0 1 3347.6196 904.0571)"><tspan x="0" y="0" fill="#FFFFFF" font-family="'ProximaNova-Extrabld'" font-size="74">BILLBOARD</tspan><tspan x="0" y="88.8" fill="#FFFFFF" font-family="'ProximaNova-Extrabld'" font-size="74">HEADING</tspan></text>
	<rect x="3771.292" y="479.237" fill="#666666" width="138.898" height="100.931"/>
	<text transform="matrix(1 0 0 1 3791.2925 542.1919)" fill="#FFFFFF" font-family="'ProximaNova-Semibold'" font-size="35">LOGO</text>
	<g>
		<path fill="#FFFFFF" d="M3377.62,528.192h-60c-2.762,0-5,2.238-5,5s2.238,5,5,5h60c2.762,0,5-2.238,5-5
			S3380.381,528.192,3377.62,528.192z M3317.62,518.192h60c2.762,0,5-2.238,5-5s-2.238-5-5-5h-60c-2.762,0-5,2.238-5,5
			S3314.858,518.192,3317.62,518.192z M3377.62,548.192h-60c-2.762,0-5,2.238-5,5s2.238,5,5,5h60c2.762,0,5-2.238,5-5
			S3380.381,548.192,3377.62,548.192z"/>
	</g>
	<path fill="#FFFFFF" d="M3356.65,1138.639c-1.019-1.009-2.67-1.009-3.689,0c-1.018,1.007-1.02,2.644,0,3.652l29.814,29.521
		c1.019,1.009,2.671,1.009,3.689,0l29.814-29.521c1.019-1.009,1.02-2.644,0-3.652c-1.019-1.009-2.67-1.009-3.689-0.001
		l-27.969,26.923L3356.65,1138.639z"/>
	<text transform="matrix(1 0 0 1 3347.6196 1048.4883)"><tspan x="0" y="0" fill="#FFFFFF" font-family="'ProximaNova-Semibold'" font-size="28">learn more</tspan><tspan x="134.958" y="0" fill="#FFFFFF" font-family="'ProximaNova-Semibold'" font-size="28" letter-spacing="1">	</tspan><tspan x="144" y="0" fill="#FFFFFF" font-family="'ProximaNova-Semibold'" font-size="28" letter-spacing="28">	</tspan><tspan x="180" y="0" fill="#FFFFFF" font-family="'ProximaNova-Semibold'" font-size="28">watch video</tspan></text>
	<circle fill="#82C341" cx="3171.588" cy="1984.896" r="61.408"/>
	<text transform="matrix(1 0 0 1 3153.8037 2003.4878)" fill="#FFFFFF" font-family="'ProximaNova-Semibold'" font-size="60">3</text>
	<text transform="matrix(1 0 0 1 3270.3037 2003.4878)" font-family="'ProximaNova-Semibold'" font-size="60">Billboard Section - Link to campaign info</text>
	<g opacity="0.5">
		<g>
			<path fill="#1B9B2A" d="M3138.835,1615.847c0,0,22.482-5.423,7.648-42.705c0,0-25.935-104.586-28.463-174.641
				c0,0-2.17-37.993,55.66-59.269c0,0,47.384-48.854,69.134-66.902c0,0,29.954-44.971,114.229-205.643
				c44.711-69.155,65.883-8.688,59.746,13.554c4.827,3.589-85.059,199.506-79.804,204.628c0,0,70.341-12.244,66.028,56.788
				c0,0,65.27-2.62,55.191,63.338c0,0,64.447,41.179,26.344,99.813c0,0-46.521,123.02-131.386,181.721l-28.473,29.27
				L3138.835,1615.847z"/>
		</g>
	</g>
	<circle opacity="0.3" fill="#1B9B2A" stroke="#1B9B2A" stroke-miterlimit="10" cx="3405.966" cy="1043.988" r="43.597"/>
</g>
<g id="Layer_61">
	<g>
		<g>
			<path fill="none" stroke="#CCCCCC" stroke-width="3" stroke-miterlimit="10" d="M4790.576,2835.118h-4.312c-2.209,0-4-1.791-4-4
				v-56.667c0-2.209,1.791-4,4-4h4.312V2835.118z"/>
			<path fill="none" stroke="#CCCCCC" stroke-width="3" stroke-miterlimit="10" d="M4790.576,2970.788h-4.312c-2.209,0-4-1.791-4-4
				v-45.67c0-2.209,1.791-4,4-4h4.312V2970.788z"/>
			<path fill="none" stroke="#CCCCCC" stroke-width="3" stroke-miterlimit="10" d="M4790.576,3103.454h-4.312c-2.209,0-4-1.791-4-4
				v-45.67c0-2.209,1.791-4,4-4h4.312V3103.454z"/>
			<path fill="none" stroke="#CCCCCC" stroke-width="3" stroke-miterlimit="10" d="M5416.931,2549.444h-120v-5.323
				c0-2.209,1.791-4,4-4h112c2.209,0,4,1.791,4,4V2549.444z"/>
			<g>
				<rect x="4844.098" y="2771.954" fill="#F2F2F2" width="642.999" height="1138.999"/>
				<path fill="#CCCCCC" d="M5485.597,2773.454v1135.999h-639.999V2773.454H5485.597 M5488.597,2770.454h-3h-639.999h-3v3v1135.999
					v3h3h639.999h3v-3V2773.454V2770.454L5488.597,2770.454z"/>
			</g>
			<g>
				<path fill="#CCCCCC" d="M5422.663,2551.54c32.263,0,61.709,11.053,82.914,31.123c20.696,19.588,32.094,46.18,32.094,74.877
					v1367.964c0,28.313-11.026,54.933-31.046,74.953c-20.021,20.021-46.641,31.047-74.954,31.047h-532.075
					c-28.313,0-54.933-11.025-74.953-31.047c-20.021-20.021-31.047-46.64-31.047-74.953V2657.54
					c0-27.882,10.655-54.53,30.002-75.037c18.564-19.678,42.98-30.963,66.99-30.963H5422.663 M5422.663,2547.54h-532.075
					c-51.744,0-100.992,49.248-100.992,110v1367.964c0,60.752,49.248,110,110,110h532.075c60.752,0,110-49.248,110-110V2657.54
					C5541.671,2596.788,5492.423,2547.54,5422.663,2547.54L5422.663,2547.54z"/>
			</g>
			<circle fill="none" stroke="#CCCCCC" stroke-width="3" stroke-miterlimit="10" cx="5167.135" cy="4021.515" r="68.551"/>
			<path fill="none" stroke="#CCCCCC" stroke-width="3" stroke-miterlimit="10" d="M5234.687,2685.576
				c0,8.284-6.717,14.999-15,14.999h-106.005c-8.285,0-15-6.715-15-14.999l0,0c0-8.284,6.715-14.999,15-14.999h106.005
				C5227.97,2670.577,5234.687,2677.292,5234.687,2685.576L5234.687,2685.576z"/>
			<path fill="none" stroke="#CCCCCC" stroke-width="2" stroke-miterlimit="10" d="M5194.933,4034.451c0,8.285-6.717,15-15,15
				h-24.667c-8.285,0-15-6.715-15-15v-24.666c0-8.285,6.715-15,15-15h24.667c8.283,0,15,6.715,15,15V4034.451z"/>
			<circle fill="none" stroke="#CCCCCC" stroke-width="3" stroke-miterlimit="10" cx="5166.598" cy="2625.788" r="14"/>
		</g>
		<g>
			<rect x="4845.598" y="2770.163" fill="#999999" width="639.999" height="1135.999"/>
		</g>
		<text transform="matrix(1 0 0 1 4904.2207 3205.9829)"><tspan x="0" y="0" fill="#FFFFFF" font-family="'ProximaNova-Extrabld'" font-size="74">BILLBOARD</tspan><tspan x="0" y="88.8" fill="#FFFFFF" font-family="'ProximaNova-Extrabld'" font-size="74">HEADING</tspan></text>
		<rect x="5327.893" y="2781.163" fill="#666666" width="138.898" height="100.932"/>
		<text transform="matrix(1 0 0 1 5347.8926 2844.1177)" fill="#FFFFFF" font-family="'ProximaNova-Semibold'" font-size="35">LOGO</text>
		<g>
			<path fill="#FFFFFF" d="M4934.221,2830.118h-60c-2.762,0-5,2.238-5,5s2.238,5,5,5h60c2.762,0,5-2.238,5-5
				S4936.982,2830.118,4934.221,2830.118z M4874.221,2820.118h60c2.762,0,5-2.238,5-5s-2.238-5-5-5h-60c-2.762,0-5,2.238-5,5
				S4871.459,2820.118,4874.221,2820.118z M4934.221,2850.118h-60c-2.762,0-5,2.238-5,5s2.238,5,5,5h60c2.762,0,5-2.238,5-5
				S4936.982,2850.118,4934.221,2850.118z"/>
		</g>
		<path fill="#FFFFFF" d="M4913.25,3440.565c-1.018-1.009-2.67-1.009-3.689,0c-1.018,1.008-1.02,2.644,0,3.652l29.814,29.521
			c1.02,1.009,2.672,1.009,3.689,0l29.814-29.521c1.02-1.009,1.02-2.644,0-3.652c-1.018-1.009-2.67-1.009-3.689-0.002
			l-27.969,26.924L4913.25,3440.565z"/>
		<text transform="matrix(1 0 0 1 4904.2207 3350.4136)"><tspan x="0" y="0" fill="#FFFFFF" font-family="'ProximaNova-Semibold'" font-size="28">learn more</tspan><tspan x="134.957" y="0" fill="#FFFFFF" font-family="'ProximaNova-Semibold'" font-size="28" letter-spacing="1">	</tspan><tspan x="144" y="0" fill="#FFFFFF" font-family="'ProximaNova-Semibold'" font-size="28" letter-spacing="28">	</tspan><tspan x="180" y="0" fill="#FFFFFF" font-family="'ProximaNova-Semibold'" font-size="28">watch video</tspan></text>
		<g opacity="0.5">
			<g>
				<path fill="#1B9B2A" d="M4658.436,4055.837c0,0,22.482-5.422,7.648-42.705c0,0-25.935-104.586-28.463-174.641
					c0,0-2.17-37.992,55.66-59.268c0,0,47.383-48.854,69.134-66.903c0,0,29.954-44.971,114.229-205.643
					c44.711-69.154,65.883-8.688,59.746,13.555c4.827,3.588-85.06,199.506-79.804,204.627c0,0,70.34-12.244,66.027,56.788
					c0,0,65.271-2.619,55.191,63.338c0,0,64.447,41.18,26.344,99.814c0,0-46.521,123.02-131.387,181.721l-28.473,29.27
					L4658.436,4055.837z"/>
			</g>
		</g>
		<circle opacity="0.3" fill="#1B9B2A" stroke="#1B9B2A" stroke-miterlimit="10" cx="4939.22" cy="3457.151" r="69.251"/>
		<g>
			<circle fill="#82C341" cx="4724.028" cy="4257.42" r="61.408"/>
			<text transform="matrix(1 0 0 1 4710.2441 4276.0132)" fill="#FFFFFF" font-family="'ProximaNova-Semibold'" font-size="60">7</text>
			<text transform="matrix(1 0 0 1 4822.7441 4276.0132)" font-family="'ProximaNova-Semibold'" font-size="60">Billboard Section</text>
			<rect x="4822.744" y="4356.012" fill="none" width="712" height="352"/>
			<text transform="matrix(1 0 0 1 4822.7441 4396.0327)"><tspan x="0" y="0" font-family="'ProximaNova-Regular'" font-size="60">Pressing arrow symbol will </tspan><tspan x="0" y="72" font-family="'ProximaNova-Regular'" font-size="60">scroll the website down</tspan><tspan x="621.047" y="72" font-family="'ProximaNova-Regular'" font-size="60">-</tspan><tspan x="0" y="144" font-family="'ProximaNova-Regular'" font-size="60">wards.</tspan></text>
		</g>
	</g>
</g>
<g id="Layer_62">
</g>
<g id="Layer_63">
	<g>
		<g>
			<g>
				<path fill="none" stroke="#CCCCCC" stroke-width="3" stroke-miterlimit="10" d="M4769.565,523.917h-4.312c-2.209,0-4-1.791-4-4
					v-56.666c0-2.209,1.791-4,4-4h4.312V523.917z"/>
				<path fill="none" stroke="#CCCCCC" stroke-width="3" stroke-miterlimit="10" d="M4769.565,659.587h-4.312c-2.209,0-4-1.791-4-4
					v-45.67c0-2.209,1.791-4,4-4h4.312V659.587z"/>
				<path fill="none" stroke="#CCCCCC" stroke-width="3" stroke-miterlimit="10" d="M4769.565,792.254h-4.312c-2.209,0-4-1.791-4-4
					v-45.671c0-2.209,1.791-4,4-4h4.312V792.254z"/>
				<path fill="none" stroke="#CCCCCC" stroke-width="3" stroke-miterlimit="10" d="M5395.921,238.244h-120v-5.322
					c0-2.209,1.791-4,4-4h112c2.209,0,4,1.791,4,4V238.244z"/>
				<g>
					<rect x="4823.087" y="460.753" fill="#F2F2F2" width="643" height="1139"/>
					<path fill="#CCCCCC" d="M5464.587,462.253v1136h-640v-1136H5464.587 M5467.587,459.253h-3h-640h-3v3v1136v3h3h640h3v-3v-1136
						V459.253L5467.587,459.253z"/>
				</g>
				<g>
					<path fill="#CCCCCC" d="M5401.653,240.339c32.262,0,61.709,11.053,82.914,31.123c20.695,19.588,32.094,46.18,32.094,74.877
						v1367.965c0,58.449-47.553,106-106,106h-532.076c-58.447,0-106-47.551-106-106V346.339c0-27.882,10.656-54.53,30.002-75.037
						c18.564-19.678,42.982-30.963,66.99-30.963H5401.653 M5401.653,236.339h-532.076c-51.744,0-100.992,49.248-100.992,110
						v1367.965c0,60.752,49.248,110,110,110h532.076c60.752,0,110-49.248,110-110V346.339
						C5520.661,285.587,5471.413,236.339,5401.653,236.339L5401.653,236.339z"/>
				</g>
				<circle fill="none" stroke="#CCCCCC" stroke-width="3" stroke-miterlimit="10" cx="5146.125" cy="1710.316" r="68.552"/>
				<path fill="none" stroke="#CCCCCC" stroke-width="3" stroke-miterlimit="10" d="M5213.677,374.376
					c0,8.283-6.717,14.999-15,14.999h-106.006c-8.285,0-15-6.716-15-14.999l0,0c0-8.284,6.715-15,15-15h106.006
					C5206.96,359.376,5213.677,366.092,5213.677,374.376L5213.677,374.376z"/>
				<path fill="none" stroke="#CCCCCC" stroke-width="2" stroke-miterlimit="10" d="M5173.923,1723.251c0,8.285-6.717,15-15,15
					h-24.668c-8.285,0-15-6.715-15-15v-24.666c0-8.285,6.715-15,15-15h24.668c8.283,0,15,6.715,15,15V1723.251z"/>
				<circle fill="none" stroke="#CCCCCC" stroke-width="3" stroke-miterlimit="10" cx="5145.587" cy="314.588" r="14"/>
			</g>
			<g>
				<rect x="4824.587" y="458.963" fill="#E6E6E6" width="640" height="1135.999"/>
			</g>
			<text transform="matrix(1 0 0 1 4883.21 894.7832)"><tspan x="0" y="0" fill="#333333" font-family="'ProximaNova-Extrabld'" font-size="74">CAMPAIGN</tspan><tspan x="0" y="88.8" fill="#333333" font-family="'ProximaNova-Extrabld'" font-size="74">HEADING</tspan></text>
			<rect x="5306.882" y="469.963" fill="#666666" width="138.898" height="100.931"/>
			<text transform="matrix(1 0 0 1 5326.8828 532.918)" fill="#FFFFFF" font-family="'ProximaNova-Semibold'" font-size="35">LOGO</text>
			<g>
				<path fill="#333333" d="M4913.21,518.917h-60c-2.762,0-5,2.238-5,5s2.238,5,5,5h60c2.762,0,5-2.238,5-5
					S4915.972,518.917,4913.21,518.917z M4853.21,508.917h60c2.762,0,5-2.238,5-5s-2.238-5-5-5h-60c-2.762,0-5,2.238-5,5
					S4850.448,508.917,4853.21,508.917z M4913.21,538.917h-60c-2.762,0-5,2.238-5,5s2.238,5,5,5h60c2.762,0,5-2.238,5-5
					S4915.972,538.917,4913.21,538.917z"/>
			</g>
			<text transform="matrix(1 0 0 1 4883.21 1039.2144)" fill="#333333" font-family="'ProximaNova-Semibold'" font-size="28">watch video</text>
			<rect x="4883.21" y="1121.841" fill="none" width="467" height="275"/>
			<text transform="matrix(1 0 0 1 4883.2109 1139.8159)"><tspan x="0" y="0" font-family="'Helvetica'" font-size="25">Lorem ipsum dolor sit amet, quidam </tspan><tspan x="0" y="30" font-family="'Helvetica'" font-size="25">eirmod at eos. Semper maiestatis vo</tspan><tspan x="405.727" y="30" font-family="'Helvetica'" font-size="25">-</tspan><tspan x="0" y="60" font-family="'Helvetica'" font-size="25">luptatibus nec et. Labitur alterum ad vim. </tspan><tspan x="0" y="90" font-family="'Helvetica'" font-size="25">Ne civibus convenire per, ceteros suavi</tspan><tspan x="434.93" y="90" font-family="'Helvetica'" font-size="25">-</tspan><tspan x="0" y="120" font-family="'Helvetica'" font-size="25">tate definitionem in cum, decore singulis </tspan><tspan x="0" y="150" font-family="'Helvetica'" font-size="25">eos eu. No quas accusam nam.</tspan></text>
		</g>
		<circle fill="#82C341" cx="4699.019" cy="1966.299" r="61.408"/>
		<text transform="matrix(1 0 0 1 4681.2344 1984.8921)" fill="#FFFFFF" font-family="'ProximaNova-Semibold'" font-size="60">4</text>
		<text transform="matrix(1 0 0 1 4797.7344 1984.8921)" font-family="'ProximaNova-Semibold'" font-size="60">Campaign Page - Scrolling</text>
		<g opacity="0.5">
			<g>
				<path fill="#1B9B2A" d="M4629.267,1820.349c0,0,22.482-5.423,7.648-42.705c0,0-25.934-104.586-28.463-174.641
					c0,0-2.17-37.993,55.66-59.269c0,0,47.385-48.854,69.135-66.902c0,0,29.953-44.971,114.229-205.643
					c44.711-69.155,65.883-8.688,59.746,13.554c4.826,3.589-85.059,199.506-79.805,204.628c0,0,70.342-12.244,66.029,56.788
					c0,0,65.27-2.62,55.189,63.338c0,0,64.447,41.179,26.344,99.813c0,0-46.521,123.02-131.385,181.721l-28.475,29.27
					L4629.267,1820.349z"/>
			</g>
		</g>
		<g opacity="0.3">
			<g>
				<path fill="#1B9B2A" d="M4863.338,762.66c5.882,49.857,1.865,99.956-4.751,149.522c0.535-3.988,1.071-7.975,1.607-11.963
					c-8.215,60.96-20.484,121.832-21.849,183.473c-1.33,60.104,3.839,120.341-3.008,180.259c-1.277,11.182,5.563,24.203,13.18,31.82
					c8.401,8.401,19.934,13.18,31.82,13.18s23.419-4.779,31.82-13.18c9.172-9.172,11.761-19.401,13.18-31.82
					c4.962-43.419,3.721-87.135,3.056-130.737c-0.332-21.791-0.443-43.589,0.447-65.369c0.866-21.156,3.585-42.254,6.391-63.228
					c-0.536,3.987-1.071,7.975-1.607,11.962c11.34-83.992,29.752-168.836,19.714-253.92c-0.536-3.988-1.071-7.975-1.607-11.963
					c-2.138-7.623-5.996-14.242-11.572-19.857c-8.401-8.401-19.934-13.18-31.82-13.18s-23.419,4.779-31.82,13.18
					C4868.926,738.432,4862.021,751.502,4863.338,762.66L4863.338,762.66z"/>
			</g>
		</g>
	</g>
</g>
<g id="Layer_64">
	<circle opacity="0.3" fill="#1B9B2A" stroke="#1B9B2A" stroke-miterlimit="10" cx="474.378" cy="2811.29" r="54.595"/>
	<g opacity="0.5">
		<g>
			<path fill="#1B9B2A" d="M205.488,3393.904c0,0,22.482-5.423,7.648-42.705c0,0-25.935-104.586-28.463-174.641
				c0,0-2.17-37.993,55.66-59.269c0,0,47.384-48.854,69.134-66.902c0,0,29.954-44.971,114.229-205.643
				c44.711-69.155,65.883-8.688,59.746,13.554c4.827,3.589-85.059,199.506-79.804,204.628c0,0,70.341-12.244,66.028,56.788
				c0,0,65.27-2.62,55.191,63.338c0,0,64.447,41.179,26.344,99.813c0,0-46.521,123.02-131.386,181.721l-28.473,29.27
				L205.488,3393.904z"/>
		</g>
	</g>
</g>
<g id="Layer_65">
	<circle fill="#82C341" cx="281.354" cy="4249.533" r="61.408"/>
	<text transform="matrix(1 0 0 1 264.5703 4268.1245)" fill="#FFFFFF" font-family="'ProximaNova-Semibold'" font-size="60">5</text>
	<text transform="matrix(1 0 0 1 380.0703 4268.1245)" font-family="'ProximaNova-Semibold'" font-size="60">Push menu button</text>
	<rect x="380.07" y="4348.125" fill="none" width="955.174" height="352"/>
	<text transform="matrix(1 0 0 1 380.0703 4388.144)"><tspan x="0" y="0" font-family="'ProximaNova-Regular'" font-size="60">Tapping on this symbol will activate </tspan><tspan x="0" y="72" font-family="'ProximaNova-Regular'" font-size="60">the menu to appear.</tspan></text>
</g>
<g id="Layer_66">
	<g>
		<g>
			<g>
				<path fill="none" stroke="#CCCCCC" stroke-width="3" stroke-miterlimit="10" d="M3230.245,2829.376h-4.312c-2.209,0-4-1.791-4-4
					v-56.666c0-2.209,1.791-4,4-4h4.312V2829.376z"/>
				<path fill="none" stroke="#CCCCCC" stroke-width="3" stroke-miterlimit="10" d="M3230.245,2965.046h-4.312c-2.209,0-4-1.791-4-4
					v-45.67c0-2.209,1.791-4,4-4h4.312V2965.046z"/>
				<path fill="none" stroke="#CCCCCC" stroke-width="3" stroke-miterlimit="10" d="M3230.245,3097.713h-4.312c-2.209,0-4-1.791-4-4
					v-45.671c0-2.209,1.791-4,4-4h4.312V3097.713z"/>
				<path fill="none" stroke="#CCCCCC" stroke-width="3" stroke-miterlimit="10" d="M3856.599,2543.703h-120v-5.322
					c0-2.209,1.791-4,4-4h112c2.209,0,4,1.791,4,4V2543.703z"/>
				<g>
					<rect x="3283.766" y="2766.212" fill="#F2F2F2" width="642.999" height="1139"/>
					<path fill="#CCCCCC" d="M3925.265,2767.712v1136h-639.999v-1136H3925.265 M3928.265,2764.712h-3h-639.999h-3v3v1136v3h3
						h639.999h3v-3v-1136V2764.712L3928.265,2764.712z"/>
				</g>
				<g>
					<path fill="#CCCCCC" d="M3862.332,2545.798c32.263,0,61.709,11.053,82.914,31.123c20.696,19.588,32.094,46.18,32.094,74.877
						v1367.965c0,58.449-47.552,106-106,106h-532.075c-58.448,0-106-47.551-106-106V2651.798c0-27.882,10.655-54.53,30.001-75.037
						c18.564-19.678,42.981-30.963,66.991-30.963H3862.332 M3862.332,2541.798h-532.075c-51.744,0-100.992,49.248-100.992,110
						v1367.965c0,60.752,49.248,110,110,110h532.075c60.752,0,110-49.248,110-110V2651.798
						C3981.339,2591.046,3932.091,2541.798,3862.332,2541.798L3862.332,2541.798z"/>
				</g>
				<circle fill="none" stroke="#CCCCCC" stroke-width="3" stroke-miterlimit="10" cx="3606.804" cy="4015.775" r="68.551"/>
				<path fill="none" stroke="#CCCCCC" stroke-width="3" stroke-miterlimit="10" d="M3674.355,2679.835
					c0,8.283-6.717,14.999-15,14.999H3553.35c-8.285,0-15-6.716-15-14.999l0,0c0-8.284,6.715-15,15-15h106.005
					C3667.638,2664.835,3674.355,2671.551,3674.355,2679.835L3674.355,2679.835z"/>
				<path fill="none" stroke="#CCCCCC" stroke-width="2" stroke-miterlimit="10" d="M3634.601,4028.71c0,8.285-6.717,15-15,15
					h-24.667c-8.285,0-15-6.715-15-15v-24.666c0-8.285,6.715-15,15-15h24.667c8.283,0,15,6.715,15,15V4028.71z"/>
				<circle fill="none" stroke="#CCCCCC" stroke-width="3" stroke-miterlimit="10" cx="3606.266" cy="2620.047" r="14"/>
			</g>
			<g>
				<rect x="3285.266" y="2871.359" fill="#FFFFFF" width="639.999" height="1029.062"/>
			</g>
			<rect x="3339.481" y="2974.046" fill="none" width="525.898" height="275"/>
			<text transform="matrix(1 0 0 1 3339.4805 2992.021)"><tspan x="0" y="0" font-family="'Helvetica'" font-size="25">Lorem ipsum dolor sit amet, quidam eirmod at </tspan><tspan x="0" y="30" font-family="'Helvetica'" font-size="25">eos. Semper maiestatis voluptatibus nec et. </tspan><tspan x="0" y="60" font-family="'Helvetica'" font-size="25">Labitur alterum ad vim. Ne civibus convenire </tspan><tspan x="0" y="90" font-family="'Helvetica'" font-size="25">per, ceteros suavitate definitionem in cum, </tspan><tspan x="0" y="120" font-family="'Helvetica'" font-size="25">decore singulis eos eu. No quas accusam nam.</tspan></text>
			<rect x="3339.481" y="3655.023" fill="none" width="525.898" height="173.392"/>
			<text transform="matrix(1 0 0 1 3339.4805 3672.9976)"><tspan x="0" y="0" font-family="'Helvetica'" font-size="25">Lorem ipsum dolor sit amet, quidam eirmod at </tspan><tspan x="0" y="30" font-family="'Helvetica'" font-size="25">eos. Semper maiestatis voluptatibus nec et. </tspan><tspan x="0" y="60" font-family="'Helvetica'" font-size="25">Labitur alterum ad vim. Ne civibus convenire </tspan><tspan x="0" y="90" font-family="'Helvetica'" font-size="25">per, ceteros suavitate definitionem in cum, </tspan><tspan x="0" y="120" font-family="'Helvetica'" font-size="25">decore singulis eos eu. No quas accusam nam.</tspan></text>
			<g>
				<rect x="3286.353" y="2764.997" fill="#4D4D4D" width="639.999" height="106.362"/>
			</g>
			<rect x="3783.153" y="2767.712" fill="#666666" width="138.898" height="100.931"/>
			<text transform="matrix(1 0 0 1 3805.1533 2830.6675)" fill="#FFFFFF" font-family="'ProximaNova-Semibold'" font-size="35">LOGO</text>
			<g>
				<path fill="#FFFFFF" d="M3386.481,2816.667h-60c-2.762,0-5,2.238-5,5s2.238,5,5,5h60c2.762,0,5-2.238,5-5
					S3389.243,2816.667,3386.481,2816.667z M3326.481,2806.667h60c2.762,0,5-2.238,5-5s-2.238-5-5-5h-60c-2.762,0-5,2.238-5,5
					S3323.719,2806.667,3326.481,2806.667z M3386.481,2836.667h-60c-2.762,0-5,2.238-5,5s2.238,5,5,5h60c2.762,0,5-2.238,5-5
					S3389.243,2836.667,3386.481,2836.667z"/>
			</g>
			<g>
				<rect x="3353.481" y="3195.471" fill="#CCCCCC" width="488.809" height="380.837"/>
			</g>
			<g>
				<path fill="#FFFFFF" d="M3626.316,3372.415l-8.129-22.393c-0.601-1.654-2.361-2.529-3.931-1.957l-54.032,19.719
					c-1.571,0.572-2.358,2.378-1.757,4.031l8.57,23.611v-12.657c0-5.709,4.565-10.354,10.176-10.354h14.276l17.028-11.953
					l9.854,11.953H3626.316z M3634.714,3379.583h-57.5c-1.671,0-3.027,1.428-3.027,3.187v37.437c0,1.76,1.355,3.186,3.027,3.186
					h57.5c1.672,0,3.027-1.426,3.027-3.186v-37.437C3637.741,3381.01,3636.386,3379.583,3634.714,3379.583z M3630.326,3415.426
					h-47.663v-6.828l7.333-17.066l10.999,13.654l10.319-10.578l13.269-4.787l5.744,12.803V3415.426z"/>
			</g>
		</g>
		<circle opacity="0.3" fill="#1B9B2A" stroke="#1B9B2A" stroke-miterlimit="10" cx="3852.6" cy="2817.046" r="54.595"/>
		<g opacity="0.5">
			<g>
				<path fill="#1B9B2A" d="M3568.13,3412.009c0,0,22.482-5.423,7.648-42.705c0,0-25.935-104.586-28.463-174.641
					c0,0-2.17-37.993,55.66-59.269c0,0,47.384-48.854,69.134-66.902c0,0,29.954-44.971,114.229-205.643
					c44.711-69.155,65.883-8.688,59.746,13.554c4.827,3.589-85.059,199.506-79.805,204.628c0,0,70.342-12.244,66.029,56.788
					c0,0,65.27-2.62,55.19,63.338c0,0,64.447,41.179,26.344,99.813c0,0-46.521,123.02-131.386,181.721l-28.474,29.27
					L3568.13,3412.009z"/>
			</g>
		</g>
		<circle fill="#82C341" cx="3163.457" cy="4257.42" r="61.408"/>
		<text transform="matrix(1 0 0 1 3146.6733 4276.0122)" fill="#FFFFFF" font-family="'ProximaNova-Semibold'" font-size="60">6</text>
		<text transform="matrix(1 0 0 1 3262.1733 4276.0122)" font-family="'ProximaNova-Semibold'" font-size="60">Link to home page </text>
		<rect x="3262.173" y="4356.012" fill="none" width="835.043" height="352"/>
		<text transform="matrix(1 0 0 1 3262.1733 4396.0317)"><tspan x="0" y="0" font-family="'ProximaNova-Regular'" font-size="60">Tapping on the company logo </tspan><tspan x="0" y="72" font-family="'ProximaNova-Regular'" font-size="60">will take you to the home page. </tspan><tspan x="0" y="144" font-family="'ProximaNova-Regular'" font-size="60">This will action is universal </tspan><tspan x="0" y="216" font-family="'ProximaNova-Regular'" font-size="60">throughout the entire website.</tspan></text>
	</g>
</g>
<g id="Layer_67">
	<circle fill="#82C341" cx="1750.64" cy="4249.533" r="61.408"/>
	<text transform="matrix(1 0 0 1 1733.856 4268.1245)" fill="#FFFFFF" font-family="'ProximaNova-Semibold'" font-size="60">5</text>
	<text transform="matrix(1 0 0 1 1849.356 4268.1245)" font-family="'ProximaNova-Semibold'" font-size="60">Close Push menu</text>
	<rect x="1849.356" y="4348.125" fill="none" width="1016.982" height="352"/>
	<text transform="matrix(1 0 0 1 1849.356 4388.144)"><tspan x="0" y="0" font-family="'ProximaNova-Regular'" font-size="60">Notice how the content is pushed to </tspan><tspan x="0" y="72" font-family="'ProximaNova-Regular'" font-size="60">the right when the menu appears. </tspan><tspan x="0" y="144" font-family="'ProximaNova-Regular'" font-size="60">Tapping the x button will close the </tspan><tspan x="0" y="216" font-family="'ProximaNova-Regular'" font-size="60">menu. The menu will be pushed off </tspan><tspan x="0" y="288" font-family="'ProximaNova-Regular'" font-size="60">the screen. </tspan></text>
	<g>
		<g>
			<path fill="none" stroke="#CCCCCC" stroke-width="3" stroke-miterlimit="10" d="M1809.056,2837.308h-4.312c-2.209,0-4-1.791-4-4
				v-56.667c0-2.209,1.791-4,4-4h4.312V2837.308z"/>
			<path fill="none" stroke="#CCCCCC" stroke-width="3" stroke-miterlimit="10" d="M1809.056,2972.977h-4.312c-2.209,0-4-1.791-4-4
				v-45.67c0-2.209,1.791-4,4-4h4.312V2972.977z"/>
			<path fill="none" stroke="#CCCCCC" stroke-width="3" stroke-miterlimit="10" d="M1809.056,3105.645h-4.312c-2.209,0-4-1.791-4-4
				v-45.67c0-2.209,1.791-4,4-4h4.312V3105.645z"/>
			<path fill="none" stroke="#CCCCCC" stroke-width="3" stroke-miterlimit="10" d="M2435.409,2551.634h-120v-5.323
				c0-2.209,1.791-4,4-4h112c2.209,0,4,1.791,4,4V2551.634z"/>
			<g>
				<rect x="1862.576" y="2774.144" fill="#FFFFFF" width="642.999" height="1138.999"/>
				<path fill="#CCCCCC" d="M2504.075,2775.644v1135.999h-639.999V2775.644H2504.075 M2507.075,2772.644h-3h-639.999h-3v3v1135.999
					v3h3h639.999h3v-3V2775.644V2772.644L2507.075,2772.644z"/>
			</g>
			<g>
				<path fill="#CCCCCC" d="M2441.142,2553.729c32.263,0,61.708,11.054,82.915,31.124c20.695,19.588,32.093,46.179,32.093,74.876
					v1367.965c0,58.449-47.551,106-106,106h-532.074c-58.449,0-106-47.551-106-106V2659.729c0-27.881,10.655-54.529,30.001-75.037
					c18.564-19.677,42.981-30.963,66.99-30.963H2441.142 M2441.142,2549.729h-532.075c-51.743,0-100.991,49.249-100.991,110
					v1367.965c0,60.752,49.248,110,110,110h532.074c60.752,0,110-49.248,110-110V2659.729
					C2560.149,2598.978,2510.901,2549.729,2441.142,2549.729L2441.142,2549.729z"/>
			</g>
			<circle fill="none" stroke="#CCCCCC" stroke-width="3" stroke-miterlimit="10" cx="2185.614" cy="4023.706" r="68.551"/>
			<path fill="none" stroke="#CCCCCC" stroke-width="3" stroke-miterlimit="10" d="M2253.165,2687.766c0,8.284-6.717,15-15,15
				H2132.16c-8.284,0-14.999-6.716-14.999-15l0,0c0-8.283,6.715-14.999,14.999-14.999h106.005
				C2246.448,2672.767,2253.165,2679.483,2253.165,2687.766L2253.165,2687.766z"/>
			<path fill="none" stroke="#CCCCCC" stroke-width="2" stroke-miterlimit="10" d="M2213.411,4036.641c0,8.285-6.717,15-15,15
				h-24.666c-8.285,0-15-6.715-15-15v-24.666c0-8.285,6.715-15,15-15h24.666c8.283,0,15,6.715,15,15V4036.641z"/>
			<circle fill="none" stroke="#CCCCCC" stroke-width="3" stroke-miterlimit="10" cx="2185.077" cy="2627.979" r="14"/>
		</g>
		<g>
			<rect x="1866.079" y="2775.644" fill="#1A1A1A" width="449.331" height="1135.999"/>
		</g>
		<text transform="matrix(1 0 0 1 1933.7383 3076.6616)"><tspan x="0" y="0" fill="#FFFFFF" font-family="'ProximaNova-Extrabld'" font-size="49">PORTFOLIO</tspan><tspan x="0" y="105.799" fill="#FFFFFF" font-family="'ProximaNova-Extrabld'" font-size="49">OUR STORY</tspan><tspan x="0" y="211.6" fill="#FFFFFF" font-family="'ProximaNova-Extrabld'" font-size="49">WHAT WE DO</tspan><tspan x="0" y="317.399" fill="#FFFFFF" font-family="'ProximaNova-Extrabld'" font-size="49">NEWS</tspan><tspan x="0" y="423.199" fill="#FFFFFF" font-family="'ProximaNova-Extrabld'" font-size="49">CONTACT US</tspan></text>
		<rect x="1906.739" y="2871.975" fill="#666666" width="316.673" height="84.686"/>
		<text transform="matrix(1 0 0 1 1941.7383 2928.3149)" fill="#FFFFFF" font-family="'ProximaNova-Extrabld'" font-size="45">MINI LOGO</text>
		<g>
			<rect x="2315.41" y="3073.18" fill="#CCCCCC" width="188.666" height="473.516"/>
		</g>
		<g>
			<path fill="#FFFFFF" d="M2402.203,2825.344h-60c-2.762,0-5,2.238-5,5s2.238,5,5,5h60c2.762,0,5-2.238,5-5
				S2404.964,2825.344,2402.203,2825.344z M2342.203,2815.344h60c2.762,0,5-2.238,5-5s-2.238-5-5-5h-60c-2.762,0-5,2.238-5,5
				S2339.441,2815.344,2342.203,2815.344z M2402.203,2845.344h-60c-2.762,0-5,2.238-5,5s2.238,5,5,5h60c2.762,0,5-2.238,5-5
				S2404.964,2845.344,2402.203,2845.344z"/>
		</g>
		<g opacity="0.5">
			<g>
				<path fill="#1B9B2A" d="M1953.425,3404.458c0,0,22.776-4.01,10.297-42.145c0,0-19.361-106-17.514-176.076
					c0,0,0.204-38.055,59.249-55.682c0,0,50.339-45.803,73.173-62.459c0,0,32.7-43.016,126.834-198.117
					c48.937-66.231,66.295-4.561,58.784,17.254c4.594,3.883-97.338,193.812-92.413,199.252c0,0,70.967-7.833,62.357,60.796
					c0,0,65.306,1.456,51.133,66.657c0,0,61.752,45.118,20.066,101.262c0,0-54.104,119.879-142.466,173.172l-30.243,27.437
					L1953.425,3404.458z"/>
				<g>
					<path fill="#1B9B2A" d="M1954.754,3409.28c8.984-1.662,15.12-10.564,16.92-18.909c2.745-12.724-2.442-25.129-4.556-37.563
						c-6.695-39.394-11.945-79.139-14.646-119.014c-0.802-11.84-1.302-23.702-1.383-35.569c-0.027-4.026,0.022-8.053,0.12-12.078
						c0.014-0.58,0.314-2.944,0.077-1.275c1.503-10.562,7.411-19.862,14.889-27.343c7.183-7.184,16.067-12.391,25.258-16.572
						c6.667-3.034,14.327-3.945,19.808-8.902c12.024-10.875,24.163-21.625,36.436-32.219c7.578-6.539,15.219-13.009,23.002-19.303
						c3.854-3.116,9.406-6.104,12.375-10.055c1.627-2.164,3.197-4.373,4.765-6.582c11.783-16.604,22.978-33.632,34.081-50.694
						c25.268-38.827,49.712-78.191,73.879-117.711c8.117-13.272,15.571-26.579,26.546-37.762
						c5.399-5.501,12.728-12.06,20.864-12.547c11.63-0.698,15.985,14.663,17.34,23.683c0.842,5.6,0.671,11.669-1.104,17.041
						c-0.561,1.697,0.093,3.619,1.286,4.864c-0.671-0.701-1.3-3.153-1.324-2.79c0.012-0.191,0.271-1.428-0.035-0.184
						c-0.28,1.143-0.693,2.256-1.101,3.357c-1.4,3.781-2.326,5.759-4.148,9.805c-5.084,11.294-10.549,22.418-16.009,33.533
						c-14.307,29.126-28.998,58.062-43.333,87.174c-6.093,12.373-12.145,24.77-17.914,37.299c-3.458,7.511-7.312,15.18-9.576,23.162
						c-0.856,3.018-1.125,6.822,2.039,8.676c1.996,1.17,4.855,0.487,7.042,0.434c9.742-0.24,19.068,1.095,28.224,4.602
						c7.917,3.031,14.836,8.475,19.295,15.695c6.548,10.604,6.742,23.754,5.319,35.749c-0.327,2.759,2.523,4.938,5,5
						c3.765,0.093,4.939,0.37,8.274,0.994c6.679,1.251,13.178,3.384,19.139,6.661c19.625,10.793,23.207,32.165,18.898,52.672
						c-0.504,2.398,0.375,4.234,2.298,5.646c0.135,0.1,0.269,0.201,0.402,0.304c-1.616-1.233,0.02,0.028,0.376,0.318
						c1.598,1.296,3.137,2.663,4.646,4.061c4.661,4.312,8.966,9.062,12.723,14.182c10.571,14.407,16.495,31.919,12.608,49.757
						c-2.589,11.885-10.115,21.14-15.348,31.803c-5.236,10.672-10.951,21.108-16.936,31.375
						c-20.739,35.586-45.315,69.311-74.925,98.049c-8.342,8.098-17.15,15.746-26.43,22.75c-4.432,3.344-9,6.506-13.652,9.536
						c-2.698,1.757-5.556,3.249-7.947,5.418c-9.538,8.653-19.077,17.307-28.615,25.96c-0.186,0.169-0.373,0.338-0.559,0.506
						c2.02-0.26,4.04-0.521,6.059-0.781c-41.342-25.681-82.684-51.361-124.025-77.041c-18.411-11.437-36.821-22.873-55.232-34.309
						c-5.495-3.414-10.511,5.24-5.047,8.635c41.342,25.68,82.684,51.36,124.025,77.041c18.411,11.436,36.821,22.873,55.232,34.309
						c1.972,1.225,4.419,0.706,6.059-0.781c9.094-8.251,18.188-16.502,27.282-24.752c5.42-4.917,12.107-8.305,18.11-12.631
						c9.378-6.758,18.27-14.184,26.766-22.016c30.921-28.501,56.387-62.967,78.011-98.896c6.746-11.21,13.104-22.665,18.982-34.354
						c1.327-2.639,2.627-5.293,3.876-7.969c0.156-0.334,0.311-0.668,0.463-1.004c1.236-2.734,3.707-5.33,5.27-7.941
						c1.732-2.896,3.193-5.944,4.512-9.047c13.779-32.421-2.207-66.094-27.33-87.67c-1.393-1.197-2.831-2.357-4.311-3.445
						c0.766,1.883,1.532,3.765,2.298,5.646c2.773-13.195,3.497-27.272-1.747-39.973c-3.999-9.686-11.011-17.377-19.863-22.889
						c-9.94-6.189-22.606-9.834-34.345-10.124c1.667,1.667,3.333,3.333,5,5c1.622-13.674,0.601-27.857-6.255-40.066
						c-5.113-9.106-13.658-15.913-23.167-19.975c-11.602-4.956-25.328-7.12-37.936-5.755c1.439,0.825,2.878,1.65,4.317,2.477
						c0.134,0.175,0.513,2.209,0.51,1.788c-0.009-1.261-0.256,1.327-0.024,0.159c0.229-1.156,0.616-2.287,0.998-3.4
						c1.288-3.758,2.581-6.692,3.971-9.879c4.951-11.348,10.363-22.498,15.775-33.631c14.189-29.182,28.876-58.119,43.291-87.19
						c7.268-14.657,14.55-29.321,21.343-44.206c2.119-4.643,4.223-9.316,5.996-14.104c1.166-3.148,2.44-7.014-0.228-9.801
						c0.429,1.621,0.857,3.243,1.286,4.865c6.876-20.816-4.722-61.311-33.241-52.01c-9.402,3.065-17.167,10.334-23.74,17.426
						c-10.524,11.355-17.876,24.91-25.906,38.039c-13.933,22.783-27.988,45.492-42.213,68.095
						c-22.333,35.484-44.341,71.788-69.571,105.348c-0.026,0.035-0.053,0.07-0.08,0.105c2.292-3.024-0.771,0.113-1.723,0.837
						c-3.62,2.75-7.175,5.585-10.705,8.451c-7.844,6.367-15.528,12.933-23.171,19.54c-11.847,10.241-23.558,20.643-35.17,31.15
						c-0.427,0.386-0.854,0.773-1.281,1.161c-0.998,0.905,2.504-1.196-1.42,0.048c-6.292,1.995-12.432,4.519-18.366,7.403
						c-8.85,4.303-17.115,10.037-24.078,17.002c-8.09,8.093-14.541,18.711-16.602,30.077c-0.625,3.442-0.646,6.755-0.693,10.255
						c-0.155,11.678,0.264,23.361,0.913,35.019c1.329,23.882,3.866,47.696,6.909,71.417c2.273,17.718,4.869,35.396,7.786,53.02
						c0.648,3.917,1.314,7.83,2.011,11.738c1.378,7.723,4.105,14.527,3.631,22.559c-0.291,4.928-2.275,9.371-5.972,12.44
						c-1.345,1.117-2.231,1.572-4.292,1.954C1945.761,3400.809,1948.452,3410.446,1954.754,3409.28z"/>
				</g>
			</g>
		</g>
		<g>
			<path fill="#FFFFFF" d="M2287.495,2828.982l-10.461-11.956l10.461-11.957c1.778-1.778,1.778-4.661,0-6.439
				c-1.778-1.777-4.661-1.776-6.439,0.001l-10.059,11.496l-10.06-11.496c-1.776-1.777-4.659-1.778-6.439-0.001
				c-1.776,1.778-1.776,4.661,0,6.439l10.463,11.957l-10.463,11.956c-1.776,1.777-1.776,4.66,0,6.439
				c1.778,1.777,4.661,1.777,6.439,0l10.06-11.498l10.059,11.498c1.78,1.777,4.663,1.777,6.441,0
				C2289.273,2833.642,2289.273,2830.759,2287.495,2828.982z"/>
		</g>
		<circle opacity="0.3" fill="#1B9B2A" stroke="#1B9B2A" stroke-miterlimit="10" cx="2270.997" cy="2817.025" r="48.846"/>
		<rect x="2337.203" y="3638.767" fill="none" width="166.873" height="173.392"/>
		<text transform="matrix(1 0 0 1 2337.2031 3656.7417)"><tspan x="0" y="0" font-family="'Helvetica'" font-size="25">Lorem ipsum </tspan><tspan x="0" y="30" font-family="'Helvetica'" font-size="25">dolor sit amet, </tspan><tspan x="0" y="60" font-family="'Helvetica'" font-size="25">quidam eirmod </tspan><tspan x="0" y="90" font-family="'Helvetica'" font-size="25">at eos. </tspan><tspan x="0" y="120" font-family="'Helvetica'" font-size="25">Semper mai</tspan><tspan x="134.766" y="120" font-family="'Helvetica'" font-size="25">-</tspan><tspan x="0" y="150" font-family="'Helvetica'" font-size="25">estatis vo</tspan><tspan x="105.604" y="150" font-family="'Helvetica'" font-size="25">-</tspan></text>
		<rect x="2337.203" y="2827.623" fill="none" width="166.873" height="173.392"/>
		<text transform="matrix(1 0 0 1 2337.2031 2845.5972)"><tspan x="0" y="0" font-family="'Helvetica'" font-size="25">Lorem ipsum </tspan><tspan x="0" y="30" font-family="'Helvetica'" font-size="25">dolor sit amet, </tspan><tspan x="0" y="60" font-family="'Helvetica'" font-size="25">quidam eirmod </tspan><tspan x="0" y="90" font-family="'Helvetica'" font-size="25">at eos. </tspan><tspan x="0" y="120" font-family="'Helvetica'" font-size="25">Semper mai</tspan><tspan x="134.766" y="120" font-family="'Helvetica'" font-size="25">-</tspan><tspan x="0" y="150" font-family="'Helvetica'" font-size="25">estatis vo</tspan><tspan x="105.604" y="150" font-family="'Helvetica'" font-size="25">-</tspan></text>
	</g>
</g>
</svg>
