<?xml version="1.0" encoding="UTF-8"?>
<svg width="311px" height="276px" viewBox="0 0 311 276" version="1.1" xmlns="http://www.w3.org/2000/svg" xmlns:xlink="http://www.w3.org/1999/xlink">
    <!-- Generator: Sketch 49 (51002) - http://www.bohemiancoding.com/sketch -->
    <title>Group</title>
    <desc>Created with Sketch.</desc>
    <defs></defs>
    <g id="About-Me" stroke="none" stroke-width="1" fill="none" fill-rule="evenodd">
        <g id="About---Wireframe" transform="translate(-337.000000, -2048.000000)" fill="#F56308">
            <g id="Images" transform="translate(337.000000, 1408.000000)">
                <g id="Group" transform="translate(0.000000, 640.000000)">
                    <circle id="Oval" cx="31" cy="6" r="6"></circle>
                    <circle id="Oval-Copy-30" cx="156" cy="6" r="6"></circle>
                    <circle id="Oval-Copy-31" cx="156" cy="30" r="6"></circle>
                    <circle id="Oval-Copy-14" cx="31" cy="54" r="6"></circle>
                    <circle id="Oval-Copy-32" cx="156" cy="54" r="6"></circle>
                    <circle id="Oval-Copy-19" cx="31" cy="78" r="6"></circle>
                    <circle id="Oval-Copy-33" cx="156" cy="78" r="6"></circle>
                    <circle id="Oval-Copy-24" cx="31" cy="102" r="6"></circle>
                    <circle id="Oval-Copy-34" cx="156" cy="102" r="6"></circle>
                    <circle id="Oval-Copy-29" cx="31" cy="126" r="6"></circle>
                    <circle id="Oval-Copy-35" cx="156" cy="126" r="6"></circle>
                    <circle id="Oval" cx="31" cy="150" r="6"></circle>
                    <circle id="Oval-Copy-5" cx="31" cy="174" r="6"></circle>
                    <circle id="Oval-Copy-30" cx="156" cy="150" r="6"></circle>
                    <circle id="Oval-Copy-31" cx="156" cy="174" r="6"></circle>
                    <circle id="Oval-Copy-14" cx="31" cy="198" r="6"></circle>
                    <circle id="Oval-Copy-32" cx="156" cy="198" r="6"></circle>
                    <circle id="Oval-Copy-19" cx="31" cy="222" r="6"></circle>
                    <circle id="Oval-Copy-33" cx="156" cy="222" r="6"></circle>
                    <circle id="Oval-Copy-24" cx="31" cy="246" r="6"></circle>
                    <circle id="Oval-Copy-34" cx="156" cy="246" r="6"></circle>
                    <circle id="Oval-Copy-29" cx="31" cy="270" r="6"></circle>
                    <circle id="Oval-Copy-5" cx="31" cy="30" r="6"></circle>
                    <circle id="Oval" cx="31" cy="6" r="6"></circle>
                    <circle id="Oval-Copy-14" cx="31" cy="54" r="6"></circle>
                    <circle id="Oval-Copy-19" cx="31" cy="78" r="6"></circle>
                    <circle id="Oval-Copy-24" cx="31" cy="102" r="6"></circle>
                    <circle id="Oval-Copy-29" cx="31" cy="126" r="6"></circle>
                    <circle id="Oval" cx="31" cy="150" r="6"></circle>
                    <circle id="Oval-Copy-5" cx="31" cy="174" r="6"></circle>
                    <circle id="Oval-Copy-14" cx="31" cy="198" r="6"></circle>
                    <circle id="Oval-Copy-19" cx="31" cy="222" r="6"></circle>
                    <circle id="Oval-Copy-24" cx="31" cy="246" r="6"></circle>
                    <circle id="Oval-Copy-29" cx="31" cy="270" r="6"></circle>
                    <circle id="Oval-Copy-5" cx="6" cy="30" r="6"></circle>
                    <circle id="Oval" cx="6" cy="6" r="6"></circle>
                    <circle id="Oval-Copy-14" cx="6" cy="54" r="6"></circle>
                    <circle id="Oval-Copy-19" cx="6" cy="78" r="6"></circle>
                    <circle id="Oval-Copy-24" cx="6" cy="102" r="6"></circle>
                    <circle id="Oval-Copy-29" cx="6" cy="126" r="6"></circle>
                    <circle id="Oval" cx="6" cy="150" r="6"></circle>
                    <circle id="Oval-Copy-5" cx="6" cy="174" r="6"></circle>
                    <circle id="Oval-Copy-14" cx="6" cy="198" r="6"></circle>
                    <circle id="Oval-Copy-19" cx="6" cy="222" r="6"></circle>
                    <circle id="Oval-Copy-24" cx="6" cy="246" r="6"></circle>
                    <circle id="Oval-Copy-29" cx="6" cy="270" r="6"></circle>
                    <circle id="Oval-Copy" cx="56" cy="6" r="6"></circle>
                    <circle id="Oval-Copy-6" cx="56" cy="30" r="6"></circle>
                    <circle id="Oval-Copy-13" cx="56" cy="54" r="6"></circle>
                    <circle id="Oval-Copy-18" cx="56" cy="78" r="6"></circle>
                    <circle id="Oval-Copy-23" cx="56" cy="102" r="6"></circle>
                    <circle id="Oval-Copy-28" cx="56" cy="126" r="6"></circle>
                    <circle id="Oval-Copy" cx="56" cy="150" r="6"></circle>
                    <circle id="Oval-Copy-6" cx="56" cy="174" r="6"></circle>
                    <circle id="Oval-Copy-13" cx="56" cy="198" r="6"></circle>
                    <circle id="Oval-Copy-18" cx="56" cy="222" r="6"></circle>
                    <circle id="Oval-Copy-23" cx="56" cy="246" r="6"></circle>
                    <circle id="Oval-Copy-28" cx="56" cy="270" r="6"></circle>
                    <circle id="Oval-Copy-2" cx="81" cy="6" r="6"></circle>
                    <circle id="Oval-Copy-7" cx="81" cy="30" r="6"></circle>
                    <circle id="Oval-Copy-12" cx="81" cy="54" r="6"></circle>
                    <circle id="Oval-Copy-17" cx="81" cy="78" r="6"></circle>
                    <circle id="Oval-Copy-22" cx="81" cy="102" r="6"></circle>
                    <circle id="Oval-Copy-27" cx="81" cy="126" r="6"></circle>
                    <circle id="Oval-Copy-2" cx="81" cy="150" r="6"></circle>
                    <circle id="Oval-Copy-7" cx="81" cy="174" r="6"></circle>
                    <circle id="Oval-Copy-12" cx="81" cy="198" r="6"></circle>
                    <circle id="Oval-Copy-17" cx="81" cy="222" r="6"></circle>
                    <circle id="Oval-Copy-22" cx="81" cy="246" r="6"></circle>
                    <circle id="Oval-Copy-27" cx="81" cy="270" r="6"></circle>
                    <circle id="Oval-Copy-3" cx="106" cy="6" r="6"></circle>
                    <circle id="Oval-Copy-8" cx="106" cy="30" r="6"></circle>
                    <circle id="Oval-Copy-11" cx="106" cy="54" r="6"></circle>
                    <circle id="Oval-Copy-16" cx="106" cy="78" r="6"></circle>
                    <circle id="Oval-Copy-21" cx="106" cy="102" r="6"></circle>
                    <circle id="Oval-Copy-26" cx="106" cy="126" r="6"></circle>
                    <circle id="Oval-Copy-3" cx="106" cy="150" r="6"></circle>
                    <circle id="Oval-Copy-8" cx="106" cy="174" r="6"></circle>
                    <circle id="Oval-Copy-11" cx="106" cy="198" r="6"></circle>
                    <circle id="Oval-Copy-16" cx="106" cy="222" r="6"></circle>
                    <circle id="Oval-Copy-21" cx="106" cy="246" r="6"></circle>
                    <circle id="Oval-Copy-26" cx="106" cy="270" r="6"></circle>
                    <circle id="Oval-Copy-4" cx="131" cy="6" r="6"></circle>
                    <circle id="Oval-Copy-9" cx="131" cy="30" r="6"></circle>
                    <circle id="Oval-Copy-10" cx="131" cy="54" r="6"></circle>
                    <circle id="Oval-Copy-15" cx="131" cy="78" r="6"></circle>
                    <circle id="Oval-Copy-20" cx="131" cy="102" r="6"></circle>
                    <circle id="Oval-Copy-25" cx="131" cy="126" r="6"></circle>
                    <circle id="Oval-Copy-4" cx="131" cy="150" r="6"></circle>
                    <circle id="Oval-Copy-9" cx="131" cy="174" r="6"></circle>
                    <circle id="Oval-Copy-10" cx="131" cy="198" r="6"></circle>
                    <circle id="Oval-Copy-15" cx="131" cy="222" r="6"></circle>
                    <circle id="Oval-Copy-20" cx="131" cy="246" r="6"></circle>
                    <circle id="Oval-Copy-25" cx="131" cy="270" r="6"></circle>
                    <circle id="Oval-Copy-35" cx="156" cy="270" r="6"></circle>
                    <circle id="Oval" cx="180" cy="6" r="6"></circle>
                    <circle id="Oval-Copy-5" cx="180" cy="30" r="6"></circle>
                    <circle id="Oval-Copy" cx="205" cy="6" r="6"></circle>
                    <circle id="Oval-Copy-6" cx="205" cy="30" r="6"></circle>
                    <circle id="Oval-Copy-2" cx="230" cy="6" r="6"></circle>
                    <circle id="Oval-Copy-7" cx="230" cy="30" r="6"></circle>
                    <circle id="Oval-Copy-3" cx="255" cy="6" r="6"></circle>
                    <circle id="Oval-Copy-8" cx="255" cy="30" r="6"></circle>
                    <circle id="Oval-Copy-4" cx="280" cy="6" r="6"></circle>
                    <circle id="Oval-Copy-30" cx="305" cy="6" r="6"></circle>
                    <circle id="Oval-Copy-9" cx="280" cy="30" r="6"></circle>
                    <circle id="Oval-Copy-31" cx="305" cy="30" r="6"></circle>
                    <circle id="Oval-Copy-14" cx="180" cy="54" r="6"></circle>
                    <circle id="Oval-Copy-13" cx="205" cy="54" r="6"></circle>
                    <circle id="Oval-Copy-12" cx="230" cy="54" r="6"></circle>
                    <circle id="Oval-Copy-11" cx="255" cy="54" r="6"></circle>
                    <circle id="Oval-Copy-10" cx="280" cy="54" r="6"></circle>
                    <circle id="Oval-Copy-32" cx="305" cy="54" r="6"></circle>
                    <circle id="Oval-Copy-19" cx="180" cy="78" r="6"></circle>
                    <circle id="Oval-Copy-18" cx="205" cy="78" r="6"></circle>
                    <circle id="Oval-Copy-17" cx="230" cy="78" r="6"></circle>
                    <circle id="Oval-Copy-16" cx="255" cy="78" r="6"></circle>
                    <circle id="Oval-Copy-15" cx="280" cy="78" r="6"></circle>
                    <circle id="Oval-Copy-33" cx="305" cy="78" r="6"></circle>
                    <circle id="Oval-Copy-24" cx="180" cy="102" r="6"></circle>
                    <circle id="Oval-Copy-23" cx="205" cy="102" r="6"></circle>
                    <circle id="Oval-Copy-22" cx="230" cy="102" r="6"></circle>
                    <circle id="Oval-Copy-21" cx="255" cy="102" r="6"></circle>
                    <circle id="Oval-Copy-20" cx="280" cy="102" r="6"></circle>
                    <circle id="Oval-Copy-34" cx="305" cy="102" r="6"></circle>
                    <circle id="Oval-Copy-29" cx="180" cy="126" r="6"></circle>
                    <circle id="Oval-Copy-28" cx="205" cy="126" r="6"></circle>
                    <circle id="Oval-Copy-27" cx="230" cy="126" r="6"></circle>
                    <circle id="Oval-Copy-26" cx="255" cy="126" r="6"></circle>
                    <circle id="Oval-Copy-25" cx="280" cy="126" r="6"></circle>
                    <circle id="Oval-Copy-35" cx="305" cy="126" r="6"></circle>
                    <circle id="Oval" cx="180" cy="150" r="6"></circle>
                    <circle id="Oval-Copy-5" cx="180" cy="174" r="6"></circle>
                    <circle id="Oval-Copy" cx="205" cy="150" r="6"></circle>
                    <circle id="Oval-Copy-6" cx="205" cy="174" r="6"></circle>
                    <circle id="Oval-Copy-2" cx="230" cy="150" r="6"></circle>
                    <circle id="Oval-Copy-7" cx="230" cy="174" r="6"></circle>
                    <circle id="Oval-Copy-3" cx="255" cy="150" r="6"></circle>
                    <circle id="Oval-Copy-8" cx="255" cy="174" r="6"></circle>
                    <circle id="Oval-Copy-4" cx="280" cy="150" r="6"></circle>
                    <circle id="Oval-Copy-30" cx="305" cy="150" r="6"></circle>
                    <circle id="Oval-Copy-9" cx="280" cy="174" r="6"></circle>
                    <circle id="Oval-Copy-31" cx="305" cy="174" r="6"></circle>
                    <circle id="Oval-Copy-14" cx="180" cy="198" r="6"></circle>
                    <circle id="Oval-Copy-13" cx="205" cy="198" r="6"></circle>
                    <circle id="Oval-Copy-12" cx="230" cy="198" r="6"></circle>
                    <circle id="Oval-Copy-11" cx="255" cy="198" r="6"></circle>
                    <circle id="Oval-Copy-10" cx="280" cy="198" r="6"></circle>
                    <circle id="Oval-Copy-32" cx="305" cy="198" r="6"></circle>
                    <circle id="Oval-Copy-19" cx="180" cy="222" r="6"></circle>
                    <circle id="Oval-Copy-18" cx="205" cy="222" r="6"></circle>
                    <circle id="Oval-Copy-17" cx="230" cy="222" r="6"></circle>
                    <circle id="Oval-Copy-16" cx="255" cy="222" r="6"></circle>
                    <circle id="Oval-Copy-15" cx="280" cy="222" r="6"></circle>
                    <circle id="Oval-Copy-33" cx="305" cy="222" r="6"></circle>
                    <circle id="Oval-Copy-24" cx="180" cy="246" r="6"></circle>
                    <circle id="Oval-Copy-23" cx="205" cy="246" r="6"></circle>
                    <circle id="Oval-Copy-22" cx="230" cy="246" r="6"></circle>
                    <circle id="Oval-Copy-21" cx="255" cy="246" r="6"></circle>
                    <circle id="Oval-Copy-20" cx="280" cy="246" r="6"></circle>
                    <circle id="Oval-Copy-34" cx="305" cy="246" r="6"></circle>
                    <circle id="Oval-Copy-29" cx="180" cy="270" r="6"></circle>
                    <circle id="Oval-Copy-28" cx="205" cy="270" r="6"></circle>
                    <circle id="Oval-Copy-27" cx="230" cy="270" r="6"></circle>
                    <circle id="Oval-Copy-26" cx="255" cy="270" r="6"></circle>
                    <circle id="Oval-Copy-25" cx="280" cy="270" r="6"></circle>
                    <circle id="Oval-Copy-35" cx="305" cy="270" r="6"></circle>
                </g>
            </g>
        </g>
    </g>
</svg>