<svg width="100" height="100" viewBox="0 0 100 100" xmlns="http://www.w3.org/2000/svg">
  <title>
    L.J.B
  </title>
  <path d="M0 0h100v100H0V0zm18.95 43.72V58h9.42l.32-2.56h-6.76V43.72h-2.98zm15.72 11.06V58h2.86v-3.22h-2.86zm11.92-1.7h-2.98c.08 1.813.58 3.147 1.5 4 .92.853 2.26 1.28 4.02 1.28.8 0 1.527-.11 2.18-.33.653-.22 1.21-.55 1.67-.99.46-.44.817-.99 1.07-1.65.253-.66.38-1.423.38-2.29v-9.38h-2.98v9.2c0 .92-.187 1.63-.56 2.13-.373.5-.973.75-1.8.75-.453 0-.83-.06-1.13-.18-.3-.12-.547-.297-.74-.53a2.27 2.27 0 0 1-.43-.86 6.735 6.735 0 0 1-.2-1.15zm14.64 1.7V58h2.86v-3.22h-2.86zm9.8-11.06V58h5.48c1 0 1.84-.113 2.52-.34.68-.227 1.23-.533 1.65-.92.42-.387.72-.847.9-1.38.18-.533.27-1.1.27-1.7 0-.293-.03-.587-.09-.88a3.063 3.063 0 0 0-.32-.86 3.034 3.034 0 0 0-.64-.79 5.222 5.222 0 0 0-1.05-.71c.667-.347 1.12-.767 1.36-1.26s.36-1.02.36-1.58c0-.547-.077-1.053-.23-1.52a2.724 2.724 0 0 0-.83-1.22c-.4-.347-.943-.62-1.63-.82-.687-.2-1.557-.3-2.61-.3h-5.14zm5.48 5.66h-2.6v-3.32h2.16c.907 0 1.55.123 1.93.37.38.247.57.663.57 1.25 0 .547-.147.967-.44 1.26-.293.293-.833.44-1.62.44zm-.1 6.28h-2.5v-3.88h2.8c.84 0 1.427.16 1.76.48.333.32.5.787.5 1.4 0 .307-.04.58-.12.82-.08.24-.22.45-.42.63-.2.18-.463.317-.79.41-.327.093-.737.14-1.23.14z" fill="#000" fill-rule="evenodd"/>
</svg>
