<?xml version="1.0" encoding="utf-8"?>
<!-- Generator: Adobe Illustrator 16.0.0, SVG Export Plug-In . SVG Version: 6.00 Build 0)  -->
<!DOCTYPE svg PUBLIC "-//W3C//DTD SVG 1.1//EN" "http://www.w3.org/Graphics/SVG/1.1/DTD/svg11.dtd">
<svg version="1.1" xmlns="http://www.w3.org/2000/svg" xmlns:xlink="http://www.w3.org/1999/xlink" x="0px" y="0px" width="458px"
	 height="440px" viewBox="0 0 458 440" enable-background="new 0 0 458 440" xml:space="preserve">
<g id="Layer_2" display="none">
</g>
<g id="Layer_3" display="none">
	<polyline display="inline" fill="#FFFFFF" points="240.001,168.669 232.001,201.335 289.625,201.75 288.875,208.78 287.875,214.25 
		286.75,221 285.335,226.002 283.25,229.5 280.875,232.75 277.875,235.75 274.668,238.002 261.334,244.669 249.335,250.002 
		236.668,253.336 220.25,255 220.25,270.5 220.25,282.75 220.25,300 227.625,300 233.75,299.25 237.125,298.75 240.625,297.625 
		247.5,295.814 259.625,292 271.25,288.625 284,284.5 290.668,281.336 299.335,276.669 305.335,272.669 311.335,268.669 
		318.001,262.002 324.668,252.002 330.001,241.336 334.001,231.721 338.668,217.946 342.001,203.335 345.335,189.335 
		346.75,180.875 347.625,173.875 348.25,168.669 	"/>
</g>
<g id="Layer_12">
</g>
<g id="Layer_10">
</g>
<g id="Layer_4">
	<path fill="#FFFFFF" d="M157.625,136.875"/>
</g>
<g id="Layer_8">
</g>
<g id="Layer_11">
	<g>
		<rect x="40" y="38.63" fill="none" width="379.945" height="361.37"/>
	</g>
</g>
<g id="Layer_9">
	<path fill="#FFFFFF" d="M233.5,10.315c-117.913,0-213.5,93.573-213.5,209c0,115.428,95.587,209,213.5,209
		s213.499-93.572,213.499-209C446.999,103.888,351.413,10.315,233.5,10.315z M211.998,284.125v11.631h-16.373H182h-24.539
		l-34.127-0.066L149.5,134.763h51l-23.947,120.859l35.445,0.128l-0.045,12.329L211.998,284.125z M288.521,282.666
		c-41.144,19.334-68.503,13.148-68.503,13.148L220,255.666c71.667,5.333,68.5-53.166,68.5-53.166h-57l9-32l109.063-0.25
		C352.229,218.252,329.664,263.332,288.521,282.666z"/>
</g>
</svg>
