<svg width="46" height="31" viewBox="0 0 46 31" xmlns="http://www.w3.org/2000/svg">
  <title>
    Quotation Mark
  </title>
  <g id="Main-Design" fill="none" fill-rule="evenodd">
    <g id="Case-Study---Bluvalt" transform="translate(-849 -1649)" fill="#D8D8D8" fill-rule="nonzero">
      <g id="Goal-Setting" transform="translate(169 1548)">
        <g id="Quote" transform="translate(680 101)">
          <path d="M8.015 14.82h4.53c3.834.684 6.04 3.306 6.04 7.638 0 4.789-3.484 8.209-8.711 8.209C3.484 30.667 0 25.993 0 18.924 0 8.55 6.04.798 20.444 0v5.244C12.081 6.27 8.364 9.234 8.015 14.82zm25.556 0h4.53c3.833.684 6.04 3.306 6.04 7.638 0 4.789-3.484 8.209-8.712 8.209-6.389 0-9.873-4.674-9.873-11.743C25.556 8.55 31.596.798 46 0v5.244c-8.364 1.026-12.08 3.99-12.43 9.576z" id="“"/>
        </g>
      </g>
    </g>
  </g>
</svg>
