<?xml version="1.0" encoding="UTF-8"?>
<svg width="296px" height="21px" viewBox="0 0 296 21" version="1.1" xmlns="http://www.w3.org/2000/svg" xmlns:xlink="http://www.w3.org/1999/xlink">
    <!-- Generator: Sketch 58 (84663) - https://sketch.com -->
    <title>0123456789–£#&amp;*?!”</title>
    <desc>Created with Sketch.</desc>
    <g id="inspect" stroke="none" stroke-width="1" fill="none" fill-rule="evenodd">
        <g id="Case-Study---Bluvalt---inspect" transform="translate(-962.000000, -4770.000000)" fill="#484848" fill-rule="nonzero">
            <g id="Type" transform="translate(167.000000, 4642.000000)">
                <g id="Group-19">
                    <g id="Group-18" transform="translate(795.000000, 67.000000)">
                        <path d="M9.192,81.336 C14.3377241,81.336 17.8067943,77.0361938 17.9248878,71.4928848 L17.928,71.144 C17.928,65.46 14.428,61.064 9.248,61.064 C4.1297931,61.064 0.634154578,65.3638062 0.515136783,70.9071152 L0.512,71.256 C0.512,76.94 3.956,81.336 9.192,81.336 Z M9.248,77.444 C6.7091,77.444 5.02196,74.9153375 4.93918981,71.4670404 L4.936,71.144 C4.936,67.56 6.616,64.956 9.192,64.956 C11.7036,64.956 13.416675,67.51128 13.500759,70.9349559 L13.504,71.256 C13.504,74.812 11.852,77.444 9.248,77.444 Z M24.284,79.04 C24.284,80.216 25.236,81.168 26.412,81.168 C27.588,81.168 28.54,80.216 28.54,79.04 L28.54,63.248 C28.54,62.1231304 27.668983,61.203206 26.5640611,61.125339 L26.356,61.12 C25.768,61.12 25.152,61.26 24.34,61.484 L21.568,62.296 C20.7,62.548 20.14,63.276 20.14,64.144 C20.14,65.152 21.008,65.992 22.016,65.992 C22.24,65.992 22.548,65.936 22.772,65.88 L24.284,65.488 L24.284,79.04 Z M32.32,78.956 C32.32,80.244 33.3,81 34.644,81 L45.284,81 C46.32,81 47.16,80.188 47.16,79.152 C47.16,78.116 46.32,77.276 45.284,77.276 L38.452,77.276 L41.644,74.812 C45.0107879,72.2054545 46.6925363,70.5994013 46.7913688,67.5173428 L46.796,67.168 C46.796,63.5 44.108,61.12 40.048,61.12 C37.08,61.12 35.232,62.184 33.664,64.004 C33.356,64.368 33.16,64.872 33.16,65.348 C33.16,66.44 34.028,67.308 35.12,67.308 C35.7309091,67.308 36.2029752,67.0534545 36.4941247,66.7757686 L36.576,66.692 C37.668,65.516 38.536,64.984 39.768,64.984 C41.308,64.984 42.4,65.88 42.4,67.532 C42.4,69.098 41.5147857,70.1693214 39.2673457,72.0263635 L33.44,76.8 C32.712,77.388 32.32,78.116 32.32,78.956 Z M57.268,81.336 C61.5430638,81.336 64.2088565,78.734345 64.3203592,75.1585673 L64.324,74.868 C64.324,71.228 61.72,69.828 59.06,69.38 L62.896,65.712 L63.1941357,65.4170335 C63.80544,64.7907378 64.184,64.2261333 64.184,63.304 C64.184,62.128 63.26,61.4 62,61.4 L52.452,61.4 C51.444,61.4 50.604,62.24 50.604,63.248 C50.604,64.256 51.444,65.096 52.452,65.096 L58.472,65.096 L54.664,68.932 C53.992,69.604 53.74,70.108 53.74,70.696 C53.74,71.704 54.58,72.544 55.588,72.544 L56.26,72.544 C58.668,72.544 60.096,73.44 60.096,75.036 L60.096,75.092 C60.096,76.548 58.948,77.472 57.324,77.472 C55.784,77.472 54.608,76.968 53.488,76.016 C53.152,75.736 52.732,75.484 52.116,75.484 C50.996,75.484 50.044,76.436 50.044,77.556 C50.044,78.172 50.38,78.76 50.772,79.096 C52.368,80.468 54.468,81.336 57.268,81.336 Z M77.092,79.124 C77.092,80.272 77.988,81.168 79.136,81.168 C80.284,81.168 81.208,80.272 81.208,79.124 L81.208,76.772 L82.244,76.772 C83.224,76.772 84.008,76.016 84.008,75.036 C84.008,74.056 83.224,73.272 82.244,73.272 L81.208,73.272 L81.208,63.136 C81.208,61.988 80.284,61.092 79.136,61.092 C77.95475,61.092 77.3395156,61.5349688 76.5981582,62.3747637 L67.936,72.432 C67.292,73.188 66.928,73.888 66.928,74.784 C66.928,75.932 67.88,76.772 69.028,76.772 L77.092,76.772 L77.092,79.124 Z M71.884,73.272 L77.092,67.168 L77.092,73.272 L71.884,73.272 Z M93.92,81.336 C98.144,81.336 101.105166,78.8103324 101.224271,74.8118156 L101.228,74.504 C101.228,70.08 98.232,68.232 94.368,68.232 C93.276,68.232 92.576,68.372 91.792,68.568 L92.016,65.18 L98.624,65.18 C99.66,65.18 100.528,64.34 100.528,63.304 C100.528,62.268 99.66,61.4 98.624,61.4 L90.112,61.4 C89.076,61.4 88.264,62.212 88.208,63.248 L87.816,69.884 C87.76,70.612 88.012,71.2 88.6,71.62 C89.468,72.236 89.944,72.488 90.56,72.488 C91.148,72.488 91.876,71.984 93.528,71.984 C95.572,71.984 97,72.964 97,74.644 L97,74.7 C97,76.436 95.656,77.416 93.836,77.416 C92.562,77.416 91.4811429,77.078 90.3692449,76.3347449 L90.112,76.156 C89.776,75.904 89.44,75.764 88.936,75.764 C87.816,75.764 86.892,76.716 86.892,77.836 C86.892,78.564 87.256,79.124 87.76,79.488 C89.328,80.608 91.204,81.336 93.92,81.336 Z M112.372,81.336 C116.541143,81.336 119.71614,78.6759883 119.843995,74.8035904 L119.848,74.504 C119.848,70.416 116.852,68.26 112.96,68.26 C111.028,68.26 109.88,68.876 108.9,69.52 C109.18,66.944 110.412,64.984 112.848,64.984 C114.024,64.984 114.836,65.264 115.732,65.768 C116.04,65.936 116.432,66.076 116.796,66.076 C117.916,66.076 118.84,65.208 118.84,64.088 C118.84,63.22 118.392,62.632 117.72,62.24 C116.544,61.54 114.948,61.064 112.988,61.064 C107.235186,61.064 104.48591,65.5557759 104.394367,71.4536969 L104.392,71.816 C104.392,75.708 105.288,77.808 106.716,79.236 C108.088,80.608 109.824,81.336 112.372,81.336 Z M112.204,77.64 C110.149379,77.64 108.877826,76.4653983 108.792576,74.8974626 L108.788,74.672 C108.788,73.02 110.02,71.844 112.148,71.844 C114.202621,71.844 115.474174,72.9663971 115.559424,74.5307325 L115.564,74.756 C115.564,76.436 114.332,77.64 112.204,77.64 Z M124.44,79.236 C124.44,80.468 125.504,81.168 126.652,81.168 C127.492,81.168 128.164,80.748 128.724,79.712 L136.592,65.432 C136.956,64.76 137.208,63.976 137.208,63.332 C137.208,62.1 136.452,61.4 135.248,61.4 L124.608,61.4 C123.572,61.4 122.732,62.24 122.732,63.276 C122.732,64.312 123.572,65.124 124.608,65.124 L132.112,65.124 L124.832,77.892 C124.608,78.284 124.44,78.872 124.44,79.236 Z M146.868,81.28 C151.11566,81.28 154.290472,79.2415899 154.423647,75.7422811 L154.428,75.456 C154.428,73.132 153.252,71.872 151.264,70.836 C152.713,69.9505 153.67341,68.7564167 153.750928,66.8101615 L153.756,66.496 C153.756,63.472 151.012,61.12 146.868,61.12 C142.816089,61.12 140.102647,63.3953975 139.98405,66.2971986 L139.98,66.552 C139.98,68.652 140.96,69.912 142.472,70.836 C140.476741,71.7527407 139.390233,73.0849108 139.312488,75.3075614 L139.308,75.624 C139.308,79.04 142.528,81.28 146.868,81.28 Z M146.868,69.408 C145.225692,69.408 144.152911,68.4501598 144.072819,67.1567767 L144.068,66.944 C144.068,65.74 145.104,64.676 146.868,64.676 C148.56144,64.676 149.583955,65.6823872 149.663047,66.8281203 L149.668,67.028 C149.668,68.4 148.576,69.408 146.868,69.408 Z M146.868,77.724 C144.816,77.724 143.571107,76.7086071 143.484804,75.4309974 L143.48,75.232 C143.48,73.72 144.908,72.824 146.868,72.824 C148.828,72.824 150.256,73.72 150.256,75.232 L150.256,75.288 C150.256,76.66 148.996,77.724 146.868,77.724 Z M164.004,81.336 C169.479931,81.336 172.467924,77.144365 172.56933,70.9669488 L172.572,70.584 C172.572,66.72 171.648,64.592 170.248,63.192 C168.764,61.708 167.224,61.064 164.592,61.064 C160.258286,61.064 157.241143,63.8583557 157.119799,67.6835961 L157.116,67.98 C157.116,71.956 159.86,74.308 164.116,74.308 C165.824,74.308 167.14,73.776 168.092,72.964 C167.812,75.596 166.524,77.416 164.116,77.416 C162.986667,77.416 162.139667,77.1807222 161.229926,76.6885995 L160.98,76.548 C160.644,76.352 160.28,76.212 159.86,76.212 C158.74,76.212 157.816,77.052 157.816,78.172 C157.816,78.956 158.236,79.572 158.824,79.936 C160.28,80.832 161.82,81.336 164.004,81.336 Z M164.816,70.724 C162.761379,70.724 161.489826,69.6016029 161.404576,67.9616609 L161.4,67.728 C161.4,65.992 162.604,64.76 164.732,64.76 C166.813655,64.76 168.08614,65.9346017 168.171423,67.5781439 L168.176,67.812 C168.176,69.492 166.944,70.724 164.816,70.724 Z M177.304,74.308 L185.648,74.308 C186.74,74.308 187.636,73.412 187.636,72.32 C187.636,71.228 186.74,70.332 185.648,70.332 L177.304,70.332 C176.212,70.332 175.316,71.228 175.316,72.32 C175.316,73.412 176.212,74.308 177.304,74.308 Z M190.38,79.432 C190.38,80.3 191.08,81 192.116,81 L203.848,81 C204.884,81 205.724,80.188 205.724,79.152 C205.724,78.116 204.884,77.276 203.848,77.276 L197.044,77.276 L197.044,73.524 L201.804,73.524 C202.784,73.524 203.596,72.74 203.596,71.76 C203.596,70.78 202.784,69.968 201.804,69.968 L197.044,69.968 L197.044,67.812 C197.044,66.916 197.324,66.188 197.772,65.74 C198.192,65.32 198.696,65.124 199.368,65.124 C200.292,65.124 200.964,65.488 201.692,66.244 C201.972,66.524 202.476,66.888 203.232,66.888 C204.408,66.888 205.36,65.964 205.36,64.788 C205.36,64.088 205.08,63.64 204.688,63.248 C203.456,61.988 201.804,61.12 199.312,61.12 C197.156,61.12 195.504,61.764 194.356,62.912 C193.264,64.004 192.676,65.684 192.676,67.7 L192.676,69.968 L192.172,69.968 C191.192,69.968 190.38,70.78 190.38,71.76 C190.38,72.74 191.192,73.524 192.172,73.524 L192.676,73.524 L192.676,77.472 L191.556,77.836 C190.8,78.088 190.38,78.732 190.38,79.432 Z M209.756,79.068 C209.56,80.244 210.456,81.168 211.548,81.168 C212.556,81.168 213.2,80.44 213.34,79.684 L213.844,76.8 L217.624,76.8 L217.232,79.068 C217.036,80.132 217.932,81.168 219.024,81.168 C219.92,81.168 220.676,80.552 220.816,79.684 L221.32,76.8 L222.916,76.8 C223.896,76.8 224.708,75.988 224.708,75.008 C224.708,74.028 223.896,73.216 222.916,73.216 L221.936,73.216 L222.636,69.072 L223.896,69.072 C224.876,69.072 225.688,68.26 225.688,67.28 C225.688,66.3 224.876,65.488 223.896,65.488 L223.252,65.488 L223.616,63.332 C223.784,62.268 222.916,61.232 221.824,61.232 C220.928,61.232 220.172,61.82 220.032,62.716 L219.556,65.488 L215.776,65.488 L216.14,63.332 C216.308,62.268 215.44,61.232 214.348,61.232 C213.452,61.232 212.696,61.82 212.556,62.716 L212.08,65.488 L210.484,65.488 C209.504,65.488 208.692,66.3 208.692,67.28 C208.692,68.26 209.504,69.072 210.484,69.072 L211.464,69.072 L210.764,73.216 L209.504,73.216 C208.524,73.216 207.712,74.028 207.712,75.008 C207.712,75.988 208.524,76.8 209.504,76.8 L210.148,76.8 L209.756,79.068 Z M214.46,73.216 L215.16,69.072 L218.94,69.072 L218.24,73.216 L214.46,73.216 Z M242.936,81.28 C244,81.28 244.812,80.468 244.812,79.404 C244.812,78.816 244.56,78.396 244.168,78.004 L242.376,76.24 C243.048,75.288 243.692,74.28 244.252,73.3 C244.42,73.02 244.504,72.712 244.504,72.404 C244.504,71.424 243.692,70.612 242.712,70.612 C241.872,70.612 241.312,71.2 241.116,71.592 C240.696,72.348 240.276,73.048 239.828,73.72 L237.252,71.172 C239.579733,70.2517333 241.227191,68.7820133 241.334435,66.3075787 L241.34,65.992 C241.34,63.248 239.156,61.064 235.824,61.064 C232.134,61.064 229.991587,63.4120635 229.891659,66.0244112 L229.888,66.272 C229.888,67.616 230.28,68.848 231.26,70.192 C228.884,71.272 227.549429,72.9508214 227.457133,75.3037819 L227.452,75.624 C227.452,79.096 230.28,81.28 234.032,81.28 C236.356,81.28 238.26,80.384 239.856,79.012 L241.508,80.664 C241.956,81.112 242.348,81.28 242.936,81.28 Z M234.984,68.904 C234.23,68.046 233.886429,67.4294286 233.841194,66.6507551 L233.836,66.412 C233.836,65.236 234.592,64.424 235.74,64.424 C236.832,64.424 237.588,65.124 237.588,66.244 L237.588,66.3 C237.588,67.56 236.692,68.26 234.984,68.904 Z M234.536,77.752 C232.94,77.752 231.792,76.828 231.792,75.456 L231.792,75.4 C231.792,74.42 232.324,73.496 233.64,72.796 L237.392,76.576 C236.496,77.304 235.544,77.752 234.536,77.752 Z M251,69.52 C250.916,70.22 251.336,70.752 252.008,70.752 C252.68,70.752 253.1,70.192 253.016,69.492 L252.708,67.224 L254.612,68.68 C254.892,68.904 255.116,69.016 255.396,69.016 C255.984,69.016 256.488,68.54 256.488,67.952 C256.488,67.448 256.152,67.084 255.732,66.916 L253.464,65.964 L255.732,65.012 C256.124,64.844 256.488,64.508 256.488,64.004 C256.488,63.416 256.012,62.912 255.424,62.912 C255.144,62.912 254.892,63.024 254.612,63.248 L252.708,64.704 L253.016,62.408 C253.1,61.708 252.68,61.176 252.008,61.176 C251.336,61.176 250.916,61.736 251,62.436 L251.308,64.704 L249.404,63.248 C249.124,63.024 248.9,62.912 248.62,62.912 C248.032,62.912 247.528,63.388 247.528,63.976 C247.528,64.48 247.864,64.844 248.284,65.012 L250.552,65.964 L248.284,66.916 C247.892,67.056 247.528,67.42 247.528,67.924 C247.528,68.512 248.004,69.016 248.592,69.016 C248.872,69.016 249.124,68.904 249.404,68.68 L251.308,67.224 L251,69.52 Z M265.112,74.504 C265.924,74.504 266.512,73.86 266.624,73.132 L266.708,72.628 C269.6837,72.0274 272.100433,70.628275 272.219409,67.2627822 L272.224,66.944 C272.224,63.22 269.48,61.148 265.448,61.148 C262.984,61.148 261.108,61.932 259.624,63.164 C259.12,63.584 258.896,64.144 258.896,64.676 C258.896,65.74 259.792,66.636 260.856,66.636 C261.332,66.636 261.78,66.44 262.116,66.188 C263.124,65.432 264.16,65.068 265.364,65.068 C266.920333,65.068 267.8595,65.7365972 267.935062,66.901285 L267.94,67.112 C267.94,68.484 266.82,69.24 264.384,69.548 C263.488,69.66 262.956,70.304 263.096,71.228 L263.376,73.132 C263.488,73.888 264.076,74.504 264.888,74.504 L265.112,74.504 Z M262.452,78.732 L262.452,78.788 C262.452,80.132 263.488,81.168 264.888,81.168 C266.232,81.168 267.240538,80.2132224 267.31907,78.947755 L267.324,78.732 C267.324,77.388 266.288,76.352 264.888,76.352 C263.488,76.352 262.452,77.388 262.452,78.732 Z M276.508,73.272 C276.592,74.028 277.096,74.504 277.796,74.504 C278.496,74.504 279,74.028 279.084,73.272 L280.288,62.744 C280.372,61.932 279.924,61.316 279.168,61.316 L276.424,61.316 C275.668,61.316 275.22,61.932 275.304,62.744 L276.508,73.272 Z M275.36,78.732 L275.36,78.788 C275.36,80.132 276.396,81.168 277.796,81.168 C279.14,81.168 280.148538,80.2132224 280.22707,78.947755 L280.232,78.732 C280.232,77.388 279.196,76.352 277.796,76.352 C276.396,76.352 275.36,77.388 275.36,78.732 Z M283.004,69.464 C283.004,69.968 283.312,70.416 284.068,70.416 C285.104,70.416 286.364,69.912 287.204,69.072 C288.24,68.036 288.856,66.524 288.856,64.48 L288.856,64.368 C288.856,62.436 287.932,61.232 286.364,61.232 C285.022333,61.232 284.117826,62.1320347 284.04478,63.3652966 L284.04,63.584 C284.04,64.788 285.02,65.628 286,65.88 C286.056,67.224 285.272,68.204 283.844,68.54 C283.368,68.652 283.004,68.96 283.004,69.464 Z M290.116,69.464 C290.116,68.96 290.48,68.652 290.956,68.54 C292.384,68.204 293.168,67.224 293.112,65.88 C292.132,65.628 291.152,64.788 291.152,63.584 L291.152,63.528 C291.152,62.212 292.076,61.232 293.476,61.232 C294.985926,61.232 295.898672,62.3484664 295.964212,64.1563534 L295.968,64.48 C295.968,66.524 295.352,68.036 294.316,69.072 C293.476,69.912 292.216,70.416 291.18,70.416 C290.424,70.416 290.116,69.968 290.116,69.464 Z" id="0123456789–£#&amp;*?!”"></path>
                    </g>
                </g>
            </g>
        </g>
    </g>
</svg>