<?xml version="1.0" encoding="UTF-8"?>
<svg width="416px" height="26px" viewBox="0 0 416 26" version="1.1" xmlns="http://www.w3.org/2000/svg" xmlns:xlink="http://www.w3.org/1999/xlink">
    <!-- Generator: Sketch 58 (84663) - https://sketch.com -->
    <title>abcdefghijklmnopqrstuvwxyz</title>
    <desc>Created with Sketch.</desc>
    <g id="inspect" stroke="none" stroke-width="1" fill="none" fill-rule="evenodd">
        <g id="Case-Study---Bluvalt---inspect" transform="translate(-962.000000, -4709.000000)" fill="#484848" fill-rule="nonzero">
            <g id="Type" transform="translate(167.000000, 4642.000000)">
                <g id="Group-19">
                    <g id="Group-18" transform="translate(795.000000, 67.000000)">
                        <path d="M5.16,21.28 C7.232,21.28 8.66,20.524 9.696,19.376 L9.696,19.404 C9.696,20.3 10.508,21.168 11.74,21.168 C12.888,21.168 13.812,20.272 13.812,19.124 L13.812,12.292 C13.812,10.276 13.308,8.624 12.188,7.504 C11.124,6.44 9.444,5.824 7.12,5.824 C5.132,5.824 3.676,6.104 2.332,6.608 C1.66,6.86 1.184,7.504 1.184,8.26 C1.184,9.24 1.968,9.996 2.948,9.996 C3.1048,9.996 3.24368,9.97808 3.421984,9.927904 L3.564,9.884 C4.376,9.632 5.328,9.464 6.504,9.464 C8.632,9.464 9.724,10.444 9.724,12.208 L9.724,12.46 C8.66,12.096 7.568,11.844 6.056,11.844 C2.58466667,11.844 0.127269841,13.2848571 0.0122188209,16.4009966 L0.008,16.688 C0.008,19.656 2.332,21.28 5.16,21.28 Z M6.448,18.34 C5.13565217,18.34 4.20757656,17.7251645 4.12935514,16.6670236 L4.124,16.464 C4.124,15.12 5.244,14.392 7.064,14.392 C8.1,14.392 9.052,14.616 9.78,14.952 L9.78,15.708 C9.78,17.248 8.436,18.34 6.448,18.34 Z M17.48,19.04 C17.48,20.216 18.432,21.168 19.608,21.168 C20.7328696,21.168 21.652794,20.296983 21.730661,19.2165655 L21.736,19.04 C22.744,20.244 24.144,21.28 26.412,21.28 C29.89688,21.28 33.112848,18.6446624 33.2400928,13.8219946 L33.244,13.468 C33.244,8.456 29.912,5.712 26.412,5.712 C24.2,5.712 22.772,6.748 21.736,8.148 L21.736,2.52 C21.736,1.344 20.784,0.392 19.608,0.392 C18.432,0.392 17.48,1.344 17.48,2.52 L17.48,19.04 Z M25.32,17.668 C23.394125,17.668 21.7835781,16.1176367 21.6847997,13.7551393 L21.68,13.468 C21.68,10.976 23.332,9.324 25.32,9.324 C27.245875,9.324 28.8826992,10.8743633 28.98312,13.2368607 L28.988,13.524 C28.988,16.044 27.308,17.668 25.32,17.668 Z M43.464,21.336 C45.928,21.336 47.524,20.552 48.784,19.404 C49.148,19.068 49.4,18.62 49.4,18.06 C49.4,17.052 48.616,16.24 47.608,16.24 C47.104,16.24 46.684,16.464 46.46,16.632 C45.648,17.276 44.78,17.668 43.66,17.668 C41.4064242,17.668 39.9427107,15.930303 39.8560702,13.7314542 L39.852,13.468 C39.852,11.256 41.364,9.38 43.492,9.38 C44.5258462,9.38 45.2733964,9.69015385 45.9769012,10.2003477 L46.152,10.332 C46.404,10.528 46.824,10.752 47.384,10.752 C48.448,10.752 49.316,9.912 49.316,8.848 C49.316,8.18066667 48.9866111,7.70155556 48.7160417,7.45380093 L48.644,7.392 C47.384,6.328 45.788,5.712 43.52,5.712 C39.0163077,5.712 35.7784867,9.10561243 35.6556207,13.2777046 L35.652,13.58 C35.652,17.864 38.956,21.336 43.464,21.336 Z M67.18,2.52 C67.18,1.344 66.228,0.392 65.052,0.392 C63.876,0.392 62.924,1.344 62.924,2.52 L62.924,7.952 C61.916,6.748 60.516,5.712 58.248,5.712 C54.76312,5.712 51.547152,8.3473376 51.4199072,13.1700054 L51.416,13.524 C51.416,18.536 54.748,21.28 58.248,21.28 C60.46,21.28 61.888,20.244 62.924,18.844 L62.924,19.04 C62.924,20.216 63.876,21.168 65.052,21.168 C66.228,21.168 67.18,20.216 67.18,19.04 L67.18,2.52 Z M59.34,9.324 C61.265875,9.324 62.8764219,10.8743633 62.9752003,13.2368607 L62.98,13.524 C62.98,16.016 61.328,17.668 59.34,17.668 C57.414125,17.668 55.7773008,16.1176367 55.67688,13.7551393 L55.672,13.468 C55.672,10.948 57.352,9.324 59.34,9.324 Z M74.432,12.32 C74.768,10.388 75.916,9.128 77.68,9.128 C79.472,9.128 80.592,10.416 80.844,12.32 L74.432,12.32 Z M83.308,19.516 C83.616,19.236 83.868,18.816 83.868,18.256 C83.868,17.304 83.168,16.576 82.216,16.576 C81.824,16.576 81.560625,16.66175 81.2945703,16.83325 L81.18,16.912 C80.312,17.556 79.332,17.92 78.156,17.92 C76.252,17.92 74.908,16.912 74.488,14.98 L82.916,14.98 C84.036,14.98 84.904,14.168 84.904,12.936 C84.904,9.828 82.692,5.712 77.68,5.712 C73.3976471,5.712 70.3801922,9.10300346 70.2635071,13.2728929 L70.26,13.58 C70.26,18.172 73.592,21.336 78.1,21.336 C80.284,21.336 81.992,20.636 83.308,19.516 Z M88.88,19.04 C88.88,20.216 89.832,21.168 91.008,21.168 C92.184,21.168 93.136,20.216 93.136,19.04 L93.136,9.632 L94.928,9.632 C95.908,9.632 96.692,8.876 96.692,7.896 C96.692,6.916 95.908,6.16 94.928,6.16 L93.08,6.16 L93.08,5.572 C93.08,4.452 93.64,3.948 94.62,3.948 L94.984,3.948 C95.936,3.948 96.72,3.136 96.72,2.184 C96.72,1.232 95.992,0.588 95.264,0.476 C94.788,0.392 94.2,0.364 93.528,0.364 C92.016,0.364 90.868,0.756 90.084,1.54 C89.3,2.324 88.88,3.528 88.88,5.18 L88.88,6.132 L88.712,6.132 C87.732,6.132 86.948,6.916 86.948,7.896 C86.948,8.876 87.732,9.632 88.712,9.632 L88.88,9.632 L88.88,19.04 Z M105.288,25.536 C108.2,25.536 110.356,24.92 111.756,23.52 C113.016,22.26 113.66,20.3 113.66,17.612 L113.66,7.952 C113.66,6.776 112.708,5.824 111.532,5.824 C110.40713,5.824 109.487206,6.69501701 109.409339,7.77543454 L109.404,7.952 C108.256,6.692 106.884,5.712 104.56,5.712 C101.18775,5.712 98.0302639,8.12809375 97.9001656,12.4345571 L97.896,12.768 C97.896,17.22 101.06,19.768 104.56,19.768 C106.828,19.768 108.2,18.844 109.46,17.332 L109.46,18.06 C109.46,20.748 108.088,22.148 105.176,22.148 C103.58,22.148 102.264,21.812 101.032,21.252 C100.836,21.168 100.612,21.112 100.332,21.112 C99.38,21.112 98.596,21.896 98.596,22.848 C98.596,23.632 99.072,24.22 99.8,24.5 C101.564,25.2 103.3,25.536 105.288,25.536 Z M105.792,16.24 C103.786839,16.24 102.253686,14.9288658 102.156859,12.9663939 L102.152,12.712 C102.152,10.668 103.72,9.24 105.792,9.24 C107.797161,9.24 109.356537,10.5773569 109.455055,12.5161438 L109.46,12.768 C109.46,14.812 107.864,16.24 105.792,16.24 Z M117.468,19.04 C117.468,20.216 118.42,21.168 119.596,21.168 C120.772,21.168 121.724,20.216 121.724,19.04 L121.724,12.628 C121.724,10.612 122.76,9.576 124.384,9.576 C126.008,9.576 126.96,10.612 126.96,12.628 L126.96,19.04 C126.96,20.216 127.912,21.168 129.088,21.168 C130.264,21.168 131.216,20.216 131.216,19.04 L131.216,11.284 C131.216,7.84 129.34,5.712 126.12,5.712 C123.964,5.712 122.704,6.86 121.724,8.12 L121.724,2.52 C121.724,1.344 120.772,0.392 119.596,0.392 C118.42,0.392 117.468,1.344 117.468,2.52 L117.468,19.04 Z M134.856,2.464 C134.856,3.696 135.892,4.48 137.236,4.48 C138.58,4.48 139.616,3.696 139.616,2.464 L139.616,2.408 C139.616,1.176 138.58,0.42 137.236,0.42 C135.950435,0.42 134.946669,1.11168998 134.861815,2.25002679 L134.856,2.464 Z M135.108,19.04 C135.108,20.216 136.06,21.168 137.236,21.168 C138.412,21.168 139.364,20.216 139.364,19.04 L139.364,7.952 C139.364,6.776 138.412,5.824 137.236,5.824 C136.06,5.824 135.108,6.776 135.108,7.952 L135.108,19.04 Z M143.312,2.464 C143.312,3.696 144.348,4.48 145.692,4.48 C147.036,4.48 148.072,3.696 148.072,2.464 L148.072,2.408 C148.072,1.176 147.036,0.42 145.692,0.42 C144.406435,0.42 143.402669,1.11168998 143.317815,2.25002679 L143.312,2.464 Z M143.284,25.564 C146.084,25.564 147.82,24.052 147.82,20.748 L147.82,7.952 C147.82,6.776 146.868,5.824 145.692,5.824 C144.516,5.824 143.564,6.776 143.564,7.952 L143.564,20.72 C143.564,21.6687059 143.191958,22.0717509 142.634626,22.1158852 L142.5,22.12 C141.604,22.12 140.848,22.792 140.848,23.828 C140.848,24.9528696 141.770253,25.5141399 143.051161,25.5608196 L143.284,25.564 Z M151.824,19.04 C151.824,20.216 152.776,21.168 153.952,21.168 C155.128,21.168 156.08,20.216 156.08,19.04 L156.08,16.604 L157.788,15.064 L161.512,20.188 C162.016,20.888 162.52,21.168 163.36,21.168 C164.424,21.168 165.348,20.384 165.348,19.236 C165.348,18.76 165.18,18.368 164.816,17.864 L160.812,12.46 L164.172,9.576 C164.76,9.016 165.152,8.456 165.152,7.728 C165.152,6.748 164.424,5.824 163.276,5.824 C162.583,5.824 162.10175,6.12986111 161.551877,6.63374769 L156.08,11.816 L156.08,2.52 C156.08,1.344 155.128,0.392 153.952,0.392 C152.776,0.392 151.824,1.344 151.824,2.52 L151.824,19.04 Z M168.484,19.04 C168.484,20.216 169.436,21.168 170.612,21.168 C171.788,21.168 172.74,20.216 172.74,19.04 L172.74,2.52 C172.74,1.344 171.788,0.392 170.612,0.392 C169.436,0.392 168.484,1.344 168.484,2.52 L168.484,19.04 Z M176.744,19.04 C176.744,20.216 177.696,21.168 178.872,21.168 C180.048,21.168 181,20.216 181,19.04 L181,12.628 C181,10.612 181.98,9.576 183.576,9.576 C185.172,9.576 186.068,10.612 186.068,12.628 L186.068,19.04 C186.068,20.216 187.02,21.168 188.196,21.168 C189.372,21.168 190.324,20.216 190.324,19.04 L190.324,12.628 C190.324,10.612 191.304,9.576 192.9,9.576 C194.496,9.576 195.392,10.612 195.392,12.628 L195.392,19.04 C195.392,20.216 196.344,21.168 197.52,21.168 C198.696,21.168 199.648,20.216 199.648,19.04 L199.648,11.228 C199.648,7.616 197.744,5.712 194.58,5.712 C192.536,5.712 190.968,6.552 189.652,8.092 C188.868,6.58 187.384,5.712 185.424,5.712 C183.268,5.712 181.98,6.86 181,8.12 L181,7.952 C181,6.776 180.048,5.824 178.872,5.824 C177.696,5.824 176.744,6.776 176.744,7.952 L176.744,19.04 Z M203.344,19.04 C203.344,20.216 204.296,21.168 205.472,21.168 C206.648,21.168 207.6,20.216 207.6,19.04 L207.6,12.628 C207.6,10.612 208.636,9.576 210.26,9.576 C211.884,9.576 212.836,10.612 212.836,12.628 L212.836,19.04 C212.836,20.216 213.788,21.168 214.964,21.168 C216.14,21.168 217.092,20.216 217.092,19.04 L217.092,11.284 C217.092,7.84 215.216,5.712 211.996,5.712 C209.84,5.712 208.58,6.86 207.6,8.12 L207.6,7.952 C207.6,6.776 206.648,5.824 205.472,5.824 C204.296,5.824 203.344,6.776 203.344,7.952 L203.344,19.04 Z M228.152,21.336 C232.739774,21.336 236.168553,17.9668295 236.296307,13.7671902 L236.3,13.468 C236.3,9.156 232.856,5.712 228.208,5.712 C223.620226,5.712 220.191447,9.08117052 220.063693,13.2808098 L220.06,13.58 C220.06,17.892 223.504,21.336 228.152,21.336 Z M228.208,17.668 C225.927273,17.668 224.357421,15.8513168 224.264373,13.7242736 L224.26,13.468 C224.26,11.256 225.716,9.38 228.152,9.38 C230.432727,9.38 232.002579,11.1966832 232.095627,13.3237264 L232.1,13.58 C232.1,15.792 230.644,17.668 228.208,17.668 Z M239.38,23.52 C239.38,24.696 240.332,25.648 241.508,25.648 C242.684,25.648 243.636,24.696 243.636,23.52 L243.636,19.04 C244.644,20.244 246.044,21.28 248.312,21.28 C251.79688,21.28 255.012848,18.6446624 255.140093,13.8219946 L255.144,13.468 C255.144,8.456 251.812,5.712 248.312,5.712 C246.1,5.712 244.672,6.748 243.636,8.148 L243.636,7.952 C243.636,6.776 242.684,5.824 241.508,5.824 C240.332,5.824 239.38,6.776 239.38,7.952 L239.38,23.52 Z M247.22,17.668 C245.294125,17.668 243.683578,16.1176367 243.5848,13.7551393 L243.58,13.468 C243.58,10.976 245.232,9.324 247.22,9.324 C249.145875,9.324 250.782699,10.8743633 250.88312,13.2368607 L250.888,13.524 C250.888,16.044 249.208,17.668 247.22,17.668 Z M273.372,7.952 C273.372,6.776 272.42,5.824 271.244,5.824 C270.11913,5.824 269.199206,6.69501701 269.121339,7.77543454 L269.116,7.952 C268.108,6.748 266.708,5.712 264.44,5.712 C260.95512,5.712 257.739152,8.3473376 257.611907,13.1700054 L257.608,13.524 C257.608,18.536 260.94,21.28 264.44,21.28 C266.652,21.28 268.08,20.244 269.116,18.844 L269.116,23.52 C269.116,24.696 270.068,25.648 271.244,25.648 C272.42,25.648 273.372,24.696 273.372,23.52 L273.372,7.952 Z M265.532,9.324 C267.457875,9.324 269.068422,10.8743633 269.1672,13.2368607 L269.172,13.524 C269.172,16.016 267.52,17.668 265.532,17.668 C263.606125,17.668 261.969301,16.1176367 261.86888,13.7551393 L261.864,13.468 C261.864,10.948 263.544,9.324 265.532,9.324 Z M277.18,19.04 C277.18,20.216 278.132,21.168 279.308,21.168 C280.484,21.168 281.436,20.216 281.436,19.04 L281.436,15.064 C281.436,12.1375484 282.563575,10.4960083 284.590335,9.93636548 L284.796,9.884 C285.664,9.688 286.392,9.016 286.392,7.896 C286.392,6.692 285.636,5.824 284.32,5.824 C283.06,5.824 282.052,7.168 281.436,8.624 L281.436,7.952 C281.436,6.776 280.484,5.824 279.308,5.824 C278.132,5.824 277.18,6.776 277.18,7.952 L277.18,19.04 Z M294.148,21.28 C297.31678,21.28 299.765989,19.8408566 299.883578,16.6765613 L299.888,16.38 C299.888,13.802303 297.738325,12.7565583 295.736904,12.0589846 L294.333315,11.5802725 C293.174616,11.1763932 292.3,10.7933913 292.3,10.136 L292.3,10.08 C292.3,9.492 292.832,9.044 293.868,9.044 C294.764,9.044 295.912,9.408 297.116,9.996 C297.396,10.136 297.592,10.192 297.9,10.192 C298.852,10.192 299.608,9.464 299.608,8.512 C299.608,7.784 299.216,7.224 298.6,6.916 C297.144,6.188 295.52,5.768 293.952,5.768 C291.005538,5.768 288.590727,7.3895332 288.468828,10.2958878 L288.464,10.584 C288.464,13.4103529 290.706059,14.4166817 292.758047,15.0366625 L294.126562,15.4459375 C295.233,15.7885 296.052,16.135 296.052,16.828 L296.052,16.884 C296.052,17.556 295.492,18.004 294.26,18.004 C293.056,18.004 291.628,17.556 290.2,16.66 C289.976,16.52 289.668,16.436 289.36,16.436 C288.408,16.436 287.68,17.164 287.68,18.116 C287.68,18.788 288.044,19.292 288.492,19.572 C290.312,20.748 292.3,21.28 294.148,21.28 Z M307.728,21.252 C308.652,21.252 309.38,21.14 310.164,20.832 C310.752,20.608 311.256,19.992 311.256,19.236 C311.256,18.256 310.444,17.472 309.492,17.472 C309.408,17.472 309.128,17.5 308.988,17.5 C308.036,17.5 307.616,17.024 307.616,16.044 L307.616,9.632 L309.492,9.632 C310.5,9.632 311.312,8.82 311.312,7.812 C311.312,6.804 310.5,5.992 309.492,5.992 L307.616,5.992 L307.616,4.116 C307.616,2.94 306.664,1.988 305.488,1.988 C304.312,1.988 303.36,2.94 303.36,4.116 L303.36,5.992 L303.22,5.992 C302.212,5.992 301.4,6.804 301.4,7.812 C301.4,8.82 302.212,9.632 303.22,9.632 L303.36,9.632 L303.36,16.744 C303.36,20.216 305.124,21.252 307.728,21.252 Z M327.916,7.952 C327.916,6.776 326.964,5.824 325.788,5.824 C324.612,5.824 323.66,6.776 323.66,7.952 L323.66,14.364 C323.66,16.38 322.624,17.416 321,17.416 C319.376,17.416 318.424,16.38 318.424,14.364 L318.424,7.952 C318.424,6.776 317.472,5.824 316.296,5.824 C315.12,5.824 314.168,6.776 314.168,7.952 L314.168,15.708 C314.168,19.152 316.044,21.28 319.264,21.28 C321.42,21.28 322.68,20.132 323.66,18.872 L323.66,19.04 C323.66,20.216 324.612,21.168 325.788,21.168 C326.964,21.168 327.916,20.216 327.916,19.04 L327.916,7.952 Z M340.572,19.46 L345.164,8.848 C345.248,8.652 345.388,8.204 345.388,7.84 C345.388,6.692 344.464,5.824 343.344,5.824 C342.224,5.824 341.636,6.552 341.356,7.28 L338.08,16.044 L334.86,7.336 C334.552,6.468 333.936,5.824 332.788,5.824 C331.64,5.824 330.716,6.804 330.716,7.812 C330.716,8.204 330.828,8.568 330.94,8.848 L335.532,19.46 C336.008,20.58 336.792,21.308 337.94,21.308 L338.164,21.308 C339.312,21.308 340.096,20.552 340.572,19.46 Z M352.892,21.28 L353.032,21.28 C354.068,21.28 354.936,20.692 355.328,19.46 L357.736,11.9 L360.116,19.46 C360.508,20.692 361.376,21.28 362.412,21.28 L362.552,21.28 C363.588,21.28 364.456,20.692 364.904,19.376 L368.684,8.652 C368.74,8.456 368.824,8.064 368.824,7.784 C368.824,6.72 368.012,5.824 366.836,5.824 C365.716,5.824 365.072,6.552 364.792,7.448 L362.44,15.12 L360.06,7.504 C359.752,6.496 358.968,5.796 357.876,5.796 L357.624,5.796 C356.532,5.796 355.748,6.496 355.44,7.504 L353.088,15.092 L350.792,7.476 C350.484,6.496 349.784,5.824 348.72,5.824 C347.46,5.824 346.676,6.776 346.676,7.756 C346.676,8.12 346.788,8.54 346.872,8.792 L350.54,19.376 C350.988,20.692 351.856,21.28 352.892,21.28 Z M370.476,19.376 C370.476,20.44 371.344,21.224 372.464,21.224 C373.22,21.224 373.808,20.748 374.312,20.132 L377.336,16.156 L380.36,20.132 C380.92,20.832 381.508,21.224 382.348,21.224 C383.412,21.224 384.308,20.468 384.308,19.264 C384.308,18.704 384.084,18.2 383.608,17.64 L379.856,13.328 L383.496,9.072 C383.832,8.652 384.084,8.204 384.084,7.616 C384.084,6.552 383.216,5.768 382.096,5.768 C381.34,5.768 380.752,6.244 380.248,6.86 L377.42,10.556 L374.648,6.86 C374.088,6.16 373.5,5.768 372.66,5.768 C371.596,5.768 370.7,6.524 370.7,7.728 C370.7,8.288 370.924,8.792 371.4,9.352 L374.9,13.384 L371.064,17.92 C370.7,18.34 370.476,18.788 370.476,19.376 Z M390.16,25.564 C392.628375,25.564 393.887992,24.4866289 395.109836,21.6445699 L400.464,8.792 C400.548,8.596 400.66,8.12 400.66,7.784 C400.66,6.664 399.736,5.824 398.644,5.824 C397.552,5.824 396.936,6.552 396.6,7.448 L393.464,16.156 L390.216,7.42 C389.852,6.412 389.236,5.824 388.172,5.824 C386.996,5.824 386.072,6.664 386.072,7.868 C386.072,8.148 386.184,8.568 386.296,8.848 L391.42,20.72 L391.28,21.056 C390.888,21.812 390.524,21.952 389.768,21.952 C389.46,21.952 389.236,21.896 388.872,21.784 C388.704,21.728 388.508,21.672 388.172,21.672 C387.304,21.672 386.492,22.372 386.492,23.408 C386.492,24.444 387.22,24.948 387.836,25.172 C388.536,25.424 389.208,25.564 390.16,25.564 Z M404.58,21 C403.376,21 402.508,20.3 402.508,19.292 L402.508,19.208 C402.508,18.4584615 402.74658,17.947503 403.311831,17.3007374 L410.432,9.436 L404.496,9.436 C403.544,9.436 402.76,8.68 402.76,7.728 C402.76,6.776 403.544,5.992 404.496,5.992 L413.82,5.992 C415.024,5.992 415.892,6.692 415.892,7.7 L415.892,7.784 C415.892,8.53353846 415.65342,9.04449704 415.088169,9.69126263 L407.94,17.556 L414.156,17.556 C415.108,17.556 415.892,18.34 415.892,19.292 C415.892,20.244 415.108,21 414.156,21 L404.58,21 Z" id="abcdefghijklmnopqrstuvwxyz"></path>
                    </g>
                </g>
            </g>
        </g>
    </g>
</svg>