<?xml version="1.0" encoding="UTF-8"?>
<svg width="413px" height="26px" viewBox="0 0 413 26" version="1.1" xmlns="http://www.w3.org/2000/svg" xmlns:xlink="http://www.w3.org/1999/xlink">
    <!-- Generator: Sketch 58 (84663) - https://sketch.com -->
    <title>abcdefghijklmnopqrstuvwxyz</title>
    <desc>Created with Sketch.</desc>
    <g id="inspect" stroke="none" stroke-width="1" fill="none" fill-rule="evenodd">
        <g id="Case-Study---Bluvalt---inspect" transform="translate(-965.000000, -4992.000000)" fill="#484848" fill-rule="nonzero">
            <g id="Type" transform="translate(167.000000, 4642.000000)">
                <g id="Group-21" transform="translate(3.000000, 294.000000)">
                    <g id="Group-20" transform="translate(1.000000, 56.000000)">
                        <g id="Group-18" transform="translate(793.000000, 0.000000)">
                            <path d="M6.384,21.308 C8.652,21.308 10.192,20.356 11.2,19.152 L11.2,19.712 C11.2,20.468 11.872,21.14 12.852,21.14 C13.776,21.14 14.504,20.44 14.504,19.516 L14.504,12.236 C14.504,10.304 14,8.736 12.908,7.672 C11.872,6.608 10.22,6.02 8.008,6.02 C6.076,6.02 4.648,6.356 3.248,6.888 C2.744,7.084 2.324,7.616 2.324,8.232 C2.324,9.016 2.968,9.632 3.752,9.632 C3.92,9.632 4.088,9.604 4.284,9.548 C5.208,9.184 6.272,8.96 7.56,8.96 C9.94,8.96 11.228,10.08 11.228,12.18 L11.228,12.544 C10.08,12.18 8.904,11.928 7.252,11.928 C3.72809756,11.928 1.27022725,13.420445 1.15242745,16.4573365 L1.148,16.744 C1.148,19.712 3.612,21.308 6.384,21.308 Z M7.336,18.844 C5.77446154,18.844 4.54946154,18.0932604 4.45754074,16.7660244 L4.452,16.548 C4.452,15.008 5.74,14.084 7.924,14.084 C9.268,14.084 10.416,14.336 11.284,14.672 L11.284,15.68 C11.284,17.556 9.576,18.844 7.336,18.844 Z M18.564,19.46 C18.564,20.384 19.32,21.14 20.244,21.14 C21.196,21.14 21.952,20.384 21.952,19.46 L21.952,18.704 C22.988,20.076 24.528,21.308 26.992,21.308 C30.422,21.308 33.717544,18.6457712 33.8479938,13.9274412 L33.852,13.58 C33.852,8.652 30.464,5.908 26.992,5.908 C24.584,5.908 23.044,7.14 21.952,8.68 L21.952,2.1 C21.952,1.148 21.196,0.42 20.244,0.42 C19.292,0.42 18.564,1.148 18.564,2.1 L18.564,19.46 Z M26.18,18.368 C23.9496,18.368 21.9834286,16.5712457 21.8728967,13.8761143 L21.868,13.58 C21.868,10.752 23.884,8.848 26.18,8.848 C28.4104,8.848 30.2973029,10.6183314 30.4033051,13.3376209 L30.408,13.636 C30.408,16.548 28.504,18.368 26.18,18.368 Z M44.184,21.336 C46.536,21.336 48.0971157,20.5706281 49.3787547,19.4051754 L49.56,19.236 C49.868,18.984 50.036,18.62 50.036,18.172 C50.036,17.36 49.392,16.688 48.58,16.688 C48.237,16.688 47.936875,16.8380625 47.7358984,16.988125 L47.656,17.052 C46.732,17.836 45.696,18.368 44.352,18.368 C41.8224,18.368 40.03264,16.3862857 39.932433,13.8602606 L39.928,13.58 C39.928,11.004 41.748,8.876 44.212,8.876 C45.556,8.876 46.508,9.408 47.376,10.136 C47.6,10.304 47.964,10.472 48.384,10.472 C49.252,10.472 49.952,9.8 49.952,8.932 C49.952,8.372 49.644,7.952 49.42,7.756 C48.16,6.664 46.564,5.908 44.24,5.908 C39.8736154,5.908 36.6653683,9.30161243 36.543589,13.3944582 L36.54,13.692 C36.54,17.892 39.788,21.336 44.184,21.336 Z M67.592,2.1 C67.592,1.148 66.836,0.42 65.884,0.42 C64.96,0.42 64.204,1.148 64.204,2.1 L64.204,8.512 C63.14,7.112 61.6,5.908 59.164,5.908 C55.70656,5.908 52.4373584,8.5702288 52.3079733,13.2885588 L52.304,13.636 C52.304,18.536 55.692,21.308 59.164,21.308 C61.572,21.308 63.112,20.076 64.204,18.536 L64.204,19.46 C64.204,20.412 64.96,21.14 65.912,21.14 C66.836,21.14 67.592,20.412 67.592,19.46 L67.592,2.1 Z M59.976,8.848 C62.1792,8.848 64.1445943,10.6183314 64.255104,13.3376209 L64.26,13.636 C64.26,16.464 62.244,18.368 59.976,18.368 C57.7456,18.368 55.8322743,16.5976686 55.7247621,13.8783791 L55.72,13.58 C55.72,10.64 57.652,8.848 59.976,8.848 Z M74.396,12.572 C74.704,10.276 76.16,8.68 78.232,8.68 C80.472,8.68 81.76,10.388 81.984,12.572 L74.396,12.572 Z M83.944,19.376 C84.196,19.124 84.392,18.76 84.392,18.34 C84.392,17.556 83.804,16.968 83.048,16.968 C82.656,16.968 82.432,17.08 82.18,17.276 C81.228,18.06 80.108,18.564 78.68,18.564 C76.496,18.564 74.788,17.22 74.424,14.812 L83.692,14.812 C84.56,14.812 85.288,14.14 85.288,13.188 C85.288,9.772 82.964,5.908 78.26,5.908 C74.114902,5.908 71.1539639,9.24517801 71.0394423,13.3601866 L71.036,13.664 C71.036,18.228 74.34,21.336 78.624,21.336 C80.92,21.336 82.6,20.58 83.944,19.376 Z M89.516,19.46 C89.516,20.384 90.272,21.14 91.196,21.14 C92.148,21.14 92.904,20.384 92.904,19.46 L92.904,9.128 L95.48,9.128 C96.264,9.128 96.908,8.512 96.908,7.728 C96.908,6.944 96.292,6.328 95.48,6.328 L92.848,6.328 L92.848,5.516 C92.848,3.976 93.52,3.276 94.808,3.276 C95.032,3.276 95.312,3.304 95.508,3.332 C96.292,3.36 96.936,2.716 96.936,1.932 C96.936,1.176 96.376,0.616 95.76,0.532 C95.284,0.448 94.724,0.392 94.052,0.392 C92.596,0.392 91.504,0.784 90.72,1.568 C89.936,2.352 89.516,3.584 89.516,5.208 L89.516,6.3 L88.928,6.3 C88.144,6.3 87.5,6.944 87.5,7.728 C87.5,8.512 88.144,9.128 88.928,9.128 L89.516,9.128 L89.516,19.46 Z M105.588,25.536 C108.248,25.536 110.32,24.892 111.664,23.548 C112.896,22.316 113.54,20.468 113.54,17.976 L113.54,7.756 C113.54,6.804 112.784,6.048 111.832,6.048 C110.908,6.048 110.152,6.804 110.152,7.728 L110.152,8.428 C109.004,7.056 107.464,5.908 104.972,5.908 C101.59975,5.908 98.3885729,8.37778472 98.2562375,12.5813404 L98.252,12.908 C98.252,17.248 101.5,19.824 104.972,19.824 C107.408,19.824 108.948,18.704 110.18,17.108 L110.18,18.256 C110.18,21.224 108.528,22.792 105.504,22.792 C103.796,22.792 102.312,22.372 100.968,21.616 C100.8,21.532 100.604,21.476 100.352,21.476 C99.568,21.476 98.924,22.12 98.924,22.876 C98.924,23.52 99.288,23.996 99.876,24.22 C101.668,25.088 103.516,25.536 105.588,25.536 Z M105.868,16.94 C103.614424,16.94 101.782108,15.3866042 101.673128,13.0968015 L101.668,12.824 C101.668,10.388 103.516,8.764 105.868,8.764 C108.148727,8.764 110.087181,10.3173958 110.202569,12.6071985 L110.208,12.88 C110.208,15.288 108.22,16.94 105.868,16.94 Z M117.796,19.46 C117.796,20.412 118.552,21.14 119.476,21.14 C120.428,21.14 121.184,20.412 121.184,19.46 L121.184,12.656 C121.184,10.36 122.556,8.988 124.516,8.988 C126.532,8.988 127.68,10.304 127.68,12.6 L127.68,19.46 C127.68,20.412 128.436,21.14 129.388,21.14 C130.34,21.14 131.068,20.412 131.068,19.46 L131.068,11.564 C131.068,8.148 129.136,5.908 125.804,5.908 C123.508,5.908 122.136,7.112 121.184,8.484 L121.184,2.1 C121.184,1.176 120.428,0.42 119.476,0.42 C118.524,0.42 117.796,1.176 117.796,2.1 L117.796,19.46 Z M135.1,2.408 C135.1,3.416 135.94,4.088 137.032,4.088 C138.124,4.088 138.964,3.416 138.964,2.408 L138.964,2.24 C138.964,1.232 138.124,0.588 137.032,0.588 C135.94,0.588 135.1,1.232 135.1,2.24 L135.1,2.408 Z M135.352,19.46 C135.352,20.412 136.108,21.14 137.032,21.14 C137.984,21.14 138.74,20.412 138.74,19.46 L138.74,7.756 C138.74,6.804 137.984,6.048 137.032,6.048 C136.08,6.048 135.352,6.804 135.352,7.756 L135.352,19.46 Z M142.66,25.564 C145.152,25.564 146.748,24.192 146.748,21.196 L146.748,7.756 C146.748,6.804 145.992,6.048 145.04,6.048 C144.088,6.048 143.36,6.804 143.36,7.756 L143.36,21.196 C143.36,22.316 142.856,22.792 142.1,22.792 L141.954313,22.768375 C141.9355,22.76575 141.918,22.764 141.904,22.764 C141.176,22.764 140.56,23.324 140.56,24.164 C140.56,25.088 141.344,25.536 142.408,25.564 L142.66,25.564 Z M143.108,2.408 C143.108,3.416 143.948,4.088 145.04,4.088 C146.132,4.088 146.972,3.416 146.972,2.408 L146.972,2.24 C146.972,1.232 146.132,0.588 145.04,0.588 C143.948,0.588 143.108,1.232 143.108,2.24 L143.108,2.408 Z M151.172,19.46 C151.172,20.412 151.928,21.14 152.852,21.14 C153.804,21.14 154.56,20.412 154.56,19.46 L154.56,16.884 L156.8,14.756 L161.028,20.384 C161.448,20.916 161.84,21.14 162.512,21.14 C163.38,21.14 164.108,20.524 164.108,19.6 C164.108,19.208 163.968,18.9 163.66,18.48 L159.18,12.628 L163.1,9.016 C163.576,8.568 163.856,8.148 163.856,7.588 C163.856,6.776 163.268,6.048 162.372,6.048 C161.8428,6.048 161.44968,6.2748 161.049756,6.646752 L154.56,13.02 L154.56,2.1 C154.56,1.176 153.804,0.42 152.852,0.42 C151.9,0.42 151.172,1.176 151.172,2.1 L151.172,19.46 Z M167.608,19.46 C167.608,20.412 168.364,21.14 169.288,21.14 C170.24,21.14 170.996,20.412 170.996,19.46 L170.996,2.1 C170.996,1.176 170.24,0.42 169.288,0.42 C168.336,0.42 167.608,1.176 167.608,2.1 L167.608,19.46 Z M175.42,19.46 C175.42,20.412 176.176,21.14 177.1,21.14 C178.052,21.14 178.808,20.412 178.808,19.46 L178.808,12.656 C178.808,10.388 180.096,8.988 181.972,8.988 C183.848,8.988 184.968,10.276 184.968,12.572 L184.968,19.46 C184.968,20.412 185.724,21.14 186.676,21.14 C187.6,21.14 188.356,20.412 188.356,19.46 L188.356,12.656 C188.356,10.276 189.672,8.988 191.52,8.988 C193.424,8.988 194.516,10.248 194.516,12.6 L194.516,19.46 C194.516,20.412 195.272,21.14 196.224,21.14 C197.176,21.14 197.904,20.412 197.904,19.46 L197.904,11.564 C197.904,7.952 195.944,5.908 192.724,5.908 C190.484,5.908 188.916,6.944 187.74,8.512 C186.956,6.944 185.444,5.908 183.316,5.908 C181.048,5.908 179.76,7.14 178.808,8.456 L178.808,7.756 C178.808,6.804 178.052,6.048 177.1,6.048 C176.148,6.048 175.42,6.804 175.42,7.756 L175.42,19.46 Z M202.02,19.46 C202.02,20.412 202.776,21.14 203.7,21.14 C204.652,21.14 205.408,20.412 205.408,19.46 L205.408,12.656 C205.408,10.36 206.78,8.988 208.74,8.988 C210.756,8.988 211.904,10.304 211.904,12.6 L211.904,19.46 C211.904,20.412 212.66,21.14 213.612,21.14 C214.564,21.14 215.292,20.412 215.292,19.46 L215.292,11.564 C215.292,8.148 213.36,5.908 210.028,5.908 C207.732,5.908 206.36,7.112 205.408,8.484 L205.408,7.756 C205.408,6.804 204.652,6.048 203.7,6.048 C202.748,6.048 202.02,6.804 202.02,7.756 L202.02,19.46 Z M226.408,21.336 C230.884231,21.336 234.202324,17.969321 234.328288,13.8775112 L234.332,13.58 C234.332,9.352 231,5.908 226.464,5.908 C222.015231,5.908 218.697666,9.27467899 218.571712,13.3929043 L218.568,13.692 C218.568,17.892 221.9,21.336 226.408,21.336 Z M226.464,18.368 C223.905111,18.368 222.060806,16.3301142 221.960319,13.8496572 L221.956,13.58 C221.956,11.004 223.692,8.876 226.408,8.876 C228.994111,8.876 230.839173,10.9138858 230.939681,13.4200736 L230.944,13.692 C230.944,16.24 229.208,18.368 226.464,18.368 Z M237.776,23.94 C237.776,24.892 238.532,25.62 239.456,25.62 C240.408,25.62 241.164,24.892 241.164,23.94 L241.164,18.704 C242.2,20.076 243.74,21.308 246.204,21.308 C249.634,21.308 252.929544,18.6457712 253.059994,13.9274412 L253.064,13.58 C253.064,8.652 249.676,5.908 246.204,5.908 C243.796,5.908 242.256,7.14 241.164,8.68 L241.164,7.756 C241.164,6.804 240.408,6.048 239.456,6.048 C238.504,6.048 237.776,6.804 237.776,7.756 L237.776,23.94 Z M245.392,18.368 C243.1616,18.368 241.195429,16.5712457 241.084897,13.8761143 L241.08,13.58 C241.08,10.752 243.096,8.848 245.392,8.848 C247.6224,8.848 249.509303,10.6183314 249.615305,13.3376209 L249.62,13.636 C249.62,16.548 247.716,18.368 245.392,18.368 Z M271.096,7.756 C271.096,6.804 270.34,6.048 269.388,6.048 C268.464,6.048 267.708,6.804 267.708,7.728 L267.708,8.512 C266.644,7.112 265.104,5.908 262.668,5.908 C259.21056,5.908 255.941358,8.5702288 255.811973,13.2885588 L255.808,13.636 C255.808,18.536 259.196,21.308 262.668,21.308 C265.076,21.308 266.616,20.076 267.708,18.536 L267.708,23.94 C267.708,24.892 268.464,25.62 269.416,25.62 C270.34,25.62 271.096,24.892 271.096,23.94 L271.096,7.756 Z M263.48,8.848 C265.6832,8.848 267.648594,10.6183314 267.759104,13.3376209 L267.764,13.636 C267.764,16.464 265.748,18.368 263.48,18.368 C261.2496,18.368 259.336274,16.5976686 259.228762,13.8783791 L259.224,13.58 C259.224,10.64 261.156,8.848 263.48,8.848 Z M275.352,19.46 C275.352,20.412 276.108,21.14 277.032,21.14 C277.984,21.14 278.74,20.384 278.74,19.46 L278.74,15.092 C278.74,11.592 280.392,9.744 282.8,9.324 C283.556,9.184 284.144,8.596 284.144,7.7 C284.144,6.72 283.528,6.02 282.464,6.02 C280.98,6.02 279.524,7.42 278.74,9.268 L278.74,7.756 C278.74,6.804 277.984,6.048 277.032,6.048 C276.08,6.048 275.352,6.804 275.352,7.756 L275.352,19.46 Z M291.984,21.28 C294.985026,21.28 297.348071,19.8179619 297.46728,16.8679847 L297.472,16.576 C297.472,14.0772121 295.322325,13.0609587 293.274481,12.3898812 L291.866848,11.935392 C290.56944,11.49904 289.548,11.0376 289.548,10.164 L289.548,10.108 C289.548,9.268 290.304,8.652 291.62,8.652 C292.656,8.652 293.888,9.044 295.092,9.66 C295.316,9.772 295.484,9.828 295.764,9.828 C296.548,9.828 297.164,9.24 297.164,8.456 C297.164,7.868 296.828,7.42 296.352,7.168 C294.924,6.412 293.272,5.964 291.704,5.964 C288.843459,5.964 286.566072,7.5809233 286.445059,10.2473781 L286.44,10.528 C286.44,13.356 288.876,14.252 291.06,14.868 L292.07024,15.177568 C293.36048,15.58704 294.364,16.0216 294.364,16.94 L294.364,16.996 C294.364,17.976 293.524,18.592 292.068,18.592 C290.724,18.592 289.24,18.116 287.812,17.164 C287.616,17.052 287.364,16.968 287.084,16.968 C286.3,16.968 285.712,17.584 285.712,18.34 C285.712,18.9 285.992,19.32 286.356,19.516 C288.064,20.692 290.108,21.28 291.984,21.28 Z M305.62,21.252 C306.516,21.252 307.216,21.112 307.944,20.86 C308.42,20.664 308.84,20.16 308.84,19.544 C308.84,18.76 308.168,18.144 307.412,18.144 C307.3,18.144 306.964,18.228 306.572,18.228 C305.424,18.228 304.752,17.696 304.752,16.38 L304.752,9.128 L307.412,9.128 C308.224,9.128 308.896,8.484 308.896,7.672 C308.896,6.86 308.224,6.216 307.412,6.216 L304.752,6.216 L304.752,3.696 C304.752,2.772 303.996,2.016 303.072,2.016 C302.12,2.016 301.364,2.772 301.364,3.696 L301.364,6.216 L300.804,6.216 C299.992,6.216 299.348,6.86 299.348,7.672 C299.348,8.484 299.992,9.128 300.804,9.128 L301.364,9.128 L301.364,16.912 C301.364,20.16 303.128,21.252 305.62,21.252 Z M325.304,7.756 C325.304,6.804 324.52,6.048 323.596,6.048 C322.644,6.048 321.888,6.804 321.888,7.756 L321.888,14.56 C321.888,16.856 320.516,18.2 318.556,18.2 C316.54,18.2 315.392,16.912 315.392,14.616 L315.392,7.756 C315.392,6.804 314.636,6.048 313.684,6.048 C312.76,6.048 312.004,6.804 312.004,7.756 L312.004,15.624 C312.004,19.068 313.936,21.308 317.268,21.308 C319.564,21.308 320.936,20.104 321.888,18.704 L321.888,19.46 C321.888,20.412 322.672,21.14 323.596,21.14 C324.548,21.14 325.304,20.384 325.304,19.46 L325.304,7.756 Z M337.624,19.796 L342.552,8.484 C342.636,8.316 342.748,7.98 342.748,7.672 C342.748,6.748 342.02,6.048 341.096,6.048 C340.2,6.048 339.752,6.636 339.5,7.224 L335.636,17.08 L331.828,7.28 C331.548,6.58 331.072,6.048 330.148,6.048 C329.224,6.048 328.468,6.832 328.468,7.672 C328.468,7.98 328.58,8.26 328.664,8.512 L333.592,19.796 C333.984,20.692 334.6,21.28 335.524,21.28 L335.692,21.28 C336.616,21.28 337.232,20.664 337.624,19.796 Z M350.476,21.252 L350.588,21.252 C351.4,21.252 352.1,20.776 352.408,19.796 L355.32,11.004 L358.204,19.796 C358.512,20.776 359.212,21.252 360.052,21.252 L360.164,21.252 C360.976,21.252 361.676,20.776 362.04,19.74 L366.072,8.372 C366.128,8.204 366.212,7.868 366.212,7.616 C366.212,6.776 365.54,6.048 364.616,6.048 C363.72,6.048 363.188,6.636 362.964,7.364 L360.08,16.352 L357.168,7.392 C356.916,6.608 356.3,6.048 355.432,6.048 L355.236,6.048 C354.368,6.048 353.752,6.608 353.5,7.392 L350.616,16.352 L347.76,7.392 C347.508,6.608 346.948,6.048 346.108,6.048 C345.1,6.048 344.456,6.804 344.456,7.616 C344.456,7.896 344.54,8.26 344.624,8.484 L348.6,19.74 C348.936,20.776 349.636,21.252 350.476,21.252 Z M368.34,19.712 C368.34,20.552 369.04,21.196 369.908,21.196 C370.524,21.196 371,20.804 371.392,20.328 L374.976,15.708 L378.56,20.328 C378.98,20.888 379.456,21.196 380.128,21.196 C380.968,21.196 381.696,20.58 381.696,19.628 C381.696,19.18 381.5,18.788 381.136,18.34 L376.992,13.44 L380.996,8.652 C381.276,8.316 381.472,7.98 381.472,7.504 C381.472,6.664 380.772,6.02 379.876,6.02 C379.288,6.02 378.812,6.384 378.42,6.888 L375.032,11.228 L371.7,6.86 C371.28,6.328 370.804,6.02 370.132,6.02 C369.292,6.02 368.564,6.636 368.564,7.588 C368.564,8.036 368.76,8.428 369.124,8.876 L373.016,13.496 L368.816,18.536 C368.508,18.872 368.34,19.236 368.34,19.712 Z M387.576,25.564 C389.956,25.564 391.3,24.444 392.56,21.42 L397.964,8.456 C398.02,8.288 398.104,7.924 398.104,7.644 C398.104,6.748 397.376,6.048 396.48,6.048 C395.612,6.048 395.136,6.636 394.856,7.336 L391.16,17.164 L387.184,7.336 C386.876,6.552 386.4,6.048 385.532,6.048 C384.58,6.048 383.852,6.748 383.852,7.7 C383.852,7.924 383.936,8.26 384.048,8.512 L389.536,20.776 L389.424,21.084 C388.864,22.232 388.332,22.652 387.324,22.652 C386.848,22.652 386.54,22.568 386.148,22.456 C385.98,22.4 385.812,22.344 385.532,22.344 C384.804,22.344 384.16,22.904 384.16,23.744 C384.16,24.5018667 384.647822,24.9182578 385.122636,25.1069985 L385.224,25.144 C385.924,25.424 386.624,25.564 387.576,25.564 Z M401.968,21 C401.016,21 400.316,20.412 400.316,19.628 L400.316,19.572 C400.316,18.928 400.54,18.508 401.072,17.948 L408.94,8.988 L401.968,8.988 C401.184,8.988 400.568,8.372 400.568,7.616 C400.568,6.832 401.184,6.216 401.968,6.216 L411.712,6.216 C412.636,6.216 413.336,6.776 413.336,7.56 L413.336,7.644 C413.336,8.288 413.112,8.708 412.608,9.268 L404.712,18.228 L411.992,18.228 C412.776,18.228 413.392,18.844 413.392,19.628 C413.392,20.384 412.776,21 411.992,21 L401.968,21 Z" id="abcdefghijklmnopqrstuvwxyz"></path>
                        </g>
                    </g>
                </g>
            </g>
        </g>
    </g>
</svg>