<?xml version="1.0" encoding="UTF-8"?>
<svg width="519px" height="96px" viewBox="0 0 519 96" version="1.1" xmlns="http://www.w3.org/2000/svg" xmlns:xlink="http://www.w3.org/1999/xlink">
    <!-- Generator: Sketch 58 (84663) - https://sketch.com -->
    <title>arabic-medium</title>
    <desc>Created with Sketch.</desc>
    <g id="inspect" stroke="none" stroke-width="1" fill="none" fill-rule="evenodd">
        <g id="Case-Study---Bluvalt---inspect" transform="translate(-168.000000, -5607.000000)" fill="#484848" fill-rule="nonzero">
            <g id="Type" transform="translate(167.000000, 4642.000000)">
                <g id="Arabic-Type" transform="translate(0.000000, 754.000000)">
                    <path d="M520,213.10047 L520,239.860463 C520,241.120745 519.118133,242.002943 517.900316,242.002943 C516.682499,242.002943 515.842625,241.120745 515.842625,239.860463 L515.842625,213.10047 C515.842625,211.882198 516.682499,211 517.900316,211 C519.118133,211 520,211.882198 520,213.10047 Z M509.501578,231.080497 C509.501578,239.146303 506.855975,242.002943 500.262966,242.002943 L499.50708,241.876914 L499.50708,236.919804 L500.262966,236.793776 C504.336354,236.793776 505.344203,236.037607 505.344203,232.886901 L505.344203,213.520564 C505.344203,211.966216 506.100089,211 507.443887,211 C508.745691,211 509.501578,211.966216 509.501578,213.520564 L509.501578,231.080497 Z M500.220973,236.793776 L500.934865,236.919804 L500.934865,241.876914 L500.220973,242.002943 C494.551825,242.002943 492.704102,240.280557 492.200178,235.995597 C489.344607,237.171861 486.86698,238.264105 483.969415,239.314341 C478.594223,241.372802 474.562829,242.002943 469.733554,242.002943 L468.977668,241.876914 L468.977668,236.919804 L469.733554,236.793776 C475.696658,236.793776 479.224128,236.205644 483.507484,234.987372 C485.859131,234.315221 488.546727,233.391014 490.982361,232.592835 C485.859131,230.744421 483.00356,228.896008 478.720204,228.896008 C477.124444,228.896008 475.864633,229.316102 474.730803,229.736196 C473.638968,230.15629 472.505138,229.904233 472.169188,228.643951 C471.791245,227.551706 472.29517,226.58549 473.345012,225.787311 C474.310867,225.115161 476.326564,224.148944 478.762198,224.148944 C484.809289,224.148944 487.496885,227.635725 495.601667,229.484139 C496.987459,229.778205 497.617364,230.660403 497.617364,231.878675 C497.617364,233.433024 496.819484,234.105174 495.391698,234.693306 C495.223724,234.777325 495.013755,234.819334 494.84578,234.903353 C495.559673,236.373682 497.071446,236.793776 500.220973,236.793776 Z M469.691561,236.793776 L470.405454,237.045833 L470.405454,241.876914 L469.691561,242.002943 L466.458047,242.002943 C465.324217,248.220335 461.544785,252.169219 455.79165,252.169219 C453.85994,252.169219 452.348167,251.875153 451.340319,251.41305 C450.122502,250.866928 449.366615,249.900711 449.492596,248.59842 C449.618578,247.12809 450.752407,246.287902 452.138199,246.623977 C453.104054,246.876034 454.279877,247.12809 455.497694,247.12809 C459.529088,247.12809 462.426653,245.573742 463.350514,241.750886 L458.101303,241.750886 C453.314022,241.750886 451.256331,239.230322 451.256331,234.819334 C451.256331,229.778205 454.321871,225.745302 459.193139,225.745302 C464.526337,225.745302 466.793996,230.786431 466.793996,236.583729 L466.793996,236.793776 L469.691561,236.793776 Z M454.573833,234.483259 C454.573833,236.331673 455.581681,237.003823 458.689214,237.003823 L463.518489,237.003823 L463.518489,236.079616 C463.518489,234.063165 462.552634,230.702412 458.941176,230.702412 C456.295574,230.702412 454.573833,232.29877 454.573833,234.483259 Z M446.175095,228.980026 C446.511045,230.072271 446.846994,231.752647 446.846994,233.391014 C446.846994,239.272331 443.991423,242.002943 439.582086,242.002943 C436.642528,242.002943 434.752812,241.036726 433.996925,239.062284 C433.073064,240.952707 431.099361,242.002943 427.949834,242.002943 C424.758314,242.002943 422.78461,241.036726 421.98673,238.978265 C421.020875,241.036726 418.711223,242.002943 414.889797,242.002943 L414.133911,241.876914 L414.133911,236.919804 L414.889797,236.793776 C419.299134,236.793776 420.39097,236.079616 420.39097,233.138958 L420.39097,230.534374 C420.39097,229.316102 421.18885,228.475913 422.280686,228.475913 C423.330528,228.475913 424.170402,229.316102 424.170402,230.534374 L424.170402,233.096948 C424.170402,235.869569 425.220244,236.793776 428.201796,236.793776 C431.351323,236.793776 432.443159,235.869569 432.443159,233.096948 L432.443159,230.534374 C432.443159,229.316102 433.241039,228.475913 434.332875,228.475913 C435.382717,228.475913 436.222591,229.316102 436.222591,230.534374 L436.222591,233.096948 C436.222591,235.869569 437.062465,236.793776 439.666073,236.793776 C442.143701,236.793776 443.025568,235.911579 443.025568,233.391014 C443.025568,232.25676 442.689619,230.82844 442.47965,229.736196 C442.227688,228.517923 442.857594,227.425678 444.033417,227.29965 C445.125253,227.173622 445.797152,227.803763 446.175095,228.980026 Z M414.847803,236.793776 L415.561696,236.919804 L415.561696,241.876914 L414.847803,242.002943 C410.606441,242.002943 408.2128,240.78467 407.456914,238.096068 C406.701028,240.74266 404.391375,242.002943 400.192006,242.002943 L399.478113,241.876914 L399.478113,236.919804 L400.192006,236.793776 C404.265394,236.793776 405.693179,235.869569 405.693179,231.752647 L405.693179,229.484139 C405.693179,228.223857 406.407072,227.341659 407.582895,227.341659 C408.758718,227.341659 409.430617,228.181848 409.430617,229.44213 L409.430617,231.752647 C409.430617,235.869569 410.816409,236.793776 414.847803,236.793776 Z M407.540901,245.783789 C408.842706,245.783789 409.892548,246.834024 409.892548,248.136316 C409.892548,249.396598 408.842706,250.488843 407.540901,250.530852 C406.239097,250.488843 405.189255,249.396598 405.189255,248.136316 C405.189255,246.834024 406.239097,245.783789 407.540901,245.783789 Z M385.158265,215.705054 C383.982442,215.705054 383.016587,214.696828 383.016587,213.520564 C383.016587,212.344301 383.982442,211.378085 385.158265,211.378085 C386.334089,211.378085 387.341937,212.344301 387.341937,213.520564 C387.341937,214.696828 386.376082,215.705054 385.158265,215.705054 Z M390.239502,215.705054 C389.063678,215.705054 388.097823,214.696828 388.097823,213.520564 C388.097823,212.344301 389.105672,211.378085 390.239502,211.378085 C391.415325,211.378085 392.465167,212.344301 392.465167,213.520564 C392.465167,214.696828 391.457319,215.705054 390.239502,215.705054 Z M400.192006,236.793776 L400.905899,236.919804 L400.905899,241.876914 L400.192006,242.002943 C394.900801,241.960933 392.423173,239.482378 391.751274,235.029381 C391.121369,236.961814 389.483615,238.180087 386.376082,238.180087 C381.588802,238.180087 379.86706,235.449475 379.86706,231.248534 C379.86706,226.753528 382.638644,223.938897 391.541306,221.460342 L391.541306,220.536135 C391.541306,219.317863 392.297192,218.561693 393.515009,218.561693 C394.732826,218.561693 395.446719,219.317863 395.446719,220.536135 L395.446719,231.248534 C395.446719,235.701532 396.37058,236.793776 400.192006,236.793776 Z M387.299943,232.97092 C389.483615,232.97092 390.911401,232.592835 391.541306,231.920685 L391.541306,225.787311 C385.368234,227.509697 383.226556,228.811989 383.226556,230.618393 C383.226556,232.214751 384.52836,232.97092 387.299943,232.97092 Z M367.058985,213.10047 L367.058985,239.860463 C367.058985,241.120745 366.177118,242.002943 364.959301,242.002943 C363.741484,242.002943 362.90161,241.120745 362.90161,239.860463 L362.90161,213.10047 C362.90161,211.882198 363.741484,211 364.959301,211 C366.177118,211 367.058985,211.882198 367.058985,213.10047 Z M356.560563,231.080497 C356.560563,239.146303 353.914961,242.002943 347.321952,242.002943 L346.566065,241.876914 L346.566065,236.919804 L347.321952,236.793776 C351.395339,236.793776 352.403188,236.037607 352.403188,232.886901 L352.403188,213.520564 C352.403188,211.966216 353.159074,211 354.502872,211 C355.804677,211 356.560563,211.966216 356.560563,213.520564 L356.560563,231.080497 Z M347.279958,236.793776 L347.993851,236.919804 L347.993851,241.876914 L347.279958,242.002943 C343.584513,242.002943 341.232867,241.078736 340.225018,238.894246 C339.385144,240.868689 337.537422,242.002943 334.765839,242.002943 C331.82628,242.002943 329.978558,241.036726 329.222672,239.062284 C328.298811,240.952707 326.325107,242.002943 323.175581,242.002943 C319.98406,242.002943 318.010357,241.036726 317.212477,238.978265 C316.246622,241.036726 313.936969,242.002943 310.115543,242.002943 L309.359657,241.876914 L309.359657,236.919804 L310.115543,236.793776 C314.524881,236.793776 315.616717,236.079616 315.616717,233.138958 L315.616717,230.534374 C315.616717,229.316102 316.414597,228.475913 317.506433,228.475913 C318.556275,228.475913 319.396149,229.316102 319.396149,230.534374 L319.396149,233.096948 C319.396149,235.869569 320.445991,236.793776 323.427543,236.793776 C326.577069,236.793776 327.668905,235.869569 327.668905,233.096948 L327.668905,230.534374 C327.668905,229.316102 328.466785,228.475913 329.558621,228.475913 C330.608463,228.475913 331.448337,229.316102 331.448337,230.534374 L331.448337,233.096948 C331.448337,235.869569 332.288211,236.793776 334.89182,236.793776 C337.411441,236.793776 338.251315,235.869569 338.251315,233.138958 L338.251315,230.534374 C338.251315,229.316102 339.049195,228.475913 340.141031,228.475913 C341.190873,228.475913 342.030747,229.316102 342.030747,230.534374 L342.030747,233.138958 C342.030747,235.743541 343.20657,236.793776 347.279958,236.793776 Z M310.07355,236.793776 L310.787442,236.919804 L310.787442,241.876914 L310.07355,242.002943 C304.404402,242.002943 302.556679,240.280557 302.052755,235.995597 C299.197184,237.171861 296.719557,238.264105 293.821992,239.314341 C288.4468,241.372802 284.415406,242.002943 279.586132,242.002943 L278.830245,241.876914 L278.830245,236.919804 L279.586132,236.793776 C285.549235,236.793776 289.076705,236.205644 293.360061,234.987372 C295.711708,234.315221 298.399304,233.391014 300.834938,232.592835 C295.711708,230.744421 292.856137,228.896008 288.572781,228.896008 C286.977021,228.896008 285.71721,229.316102 284.583381,229.736196 C283.491545,230.15629 282.357715,229.904233 282.021766,228.643951 C281.643822,227.551706 282.147747,226.58549 283.197589,225.787311 C284.163444,225.115161 286.179141,224.148944 288.614775,224.148944 C294.661866,224.148944 297.349462,227.635725 305.454244,229.484139 C306.840036,229.778205 307.469941,230.660403 307.469941,231.878675 C307.469941,233.433024 306.672061,234.105174 305.244275,234.693306 C305.076301,234.777325 304.866332,234.819334 304.698357,234.903353 C305.41225,236.373682 306.924023,236.793776 310.07355,236.793776 Z M274.420908,213.10047 L274.420908,231.038487 C274.420908,235.407466 275.302775,236.793776 279.544138,236.793776 L280.258031,236.919804 L280.258031,241.876914 L279.544138,242.002943 C272.657173,242.002943 270.263533,238.978265 270.263533,231.458581 L270.263533,213.10047 C270.263533,211.882198 271.103406,211 272.321223,211 C273.53904,211 274.420908,211.882198 274.420908,213.10047 Z M256.153653,242.002943 L255.43976,241.876914 L255.43976,236.919804 L256.153653,236.793776 C260.017073,236.793776 261.360871,235.197419 261.360871,231.500591 C261.360871,230.282318 261.192896,228.853998 260.982927,227.341659 C260.772959,225.955349 261.69682,225.115161 262.788656,225.115161 C263.880492,225.115161 264.552391,225.787311 264.804353,227.089603 C265.056315,228.559932 265.182296,230.198299 265.182296,231.500591 C265.182296,238.264105 261.864795,242.002943 256.153653,242.002943 Z M259.30318,250.572862 C258.001376,250.530852 256.951533,249.438608 256.951533,248.178326 C256.951533,246.876034 258.001376,245.825799 259.30318,245.825799 C260.604984,245.825799 261.654826,246.876034 261.654826,248.178326 C261.654826,249.438608 260.604984,250.530852 259.30318,250.572862 Z M256.153653,236.793776 L256.867546,236.919804 L256.867546,241.876914 L256.153653,242.002943 C251.912291,242.002943 249.51865,240.78467 248.762764,238.096068 C248.006878,240.74266 245.697225,242.002943 241.497856,242.002943 L240.783963,241.876914 L240.783963,236.919804 L241.497856,236.793776 C245.571244,236.793776 246.999029,235.869569 246.999029,231.752647 L246.999029,229.484139 C246.999029,228.223857 247.712922,227.341659 248.888745,227.341659 C250.064568,227.341659 250.736467,228.181848 250.736467,229.44213 L250.736467,231.752647 C250.736467,235.869569 252.122259,236.793776 256.153653,236.793776 Z M246.369124,245.111639 C247.46096,245.111639 248.468808,246.035846 248.468808,247.1701 C248.468808,248.304354 247.502953,249.31258 246.369124,249.31258 C245.235294,249.31258 244.269439,248.304354 244.269439,247.1701 C244.269439,246.035846 245.235294,245.111639 246.369124,245.111639 Z M251.282385,245.111639 C252.374221,245.111639 253.38207,246.035846 253.38207,247.1701 C253.38207,248.304354 252.416215,249.31258 251.282385,249.31258 C250.106562,249.31258 249.182701,248.304354 249.182701,247.1701 C249.182701,246.035846 250.148556,245.111639 251.282385,245.111639 Z M226.464115,215.705054 C225.288292,215.705054 224.322437,214.696828 224.322437,213.520564 C224.322437,212.344301 225.288292,211.378085 226.464115,211.378085 C227.639939,211.378085 228.647787,212.344301 228.647787,213.520564 C228.647787,214.696828 227.681932,215.705054 226.464115,215.705054 Z M231.545352,215.705054 C230.369528,215.705054 229.403673,214.696828 229.403673,213.520564 C229.403673,212.344301 230.411522,211.378085 231.545352,211.378085 C232.721175,211.378085 233.771017,212.344301 233.771017,213.520564 C233.771017,214.696828 232.763169,215.705054 231.545352,215.705054 Z M241.497856,236.793776 L242.211749,236.919804 L242.211749,241.876914 L241.497856,242.002943 C236.206651,241.960933 233.729023,239.482378 233.057124,235.029381 C232.427219,236.961814 230.789465,238.180087 227.681932,238.180087 C222.894652,238.180087 221.17291,235.449475 221.17291,231.248534 C221.17291,226.753528 223.944494,223.938897 232.847156,221.460342 L232.847156,220.536135 C232.847156,219.317863 233.603042,218.561693 234.820859,218.561693 C236.038676,218.561693 236.752569,219.317863 236.752569,220.536135 L236.752569,231.248534 C236.752569,235.701532 237.67643,236.793776 241.497856,236.793776 Z M228.605793,232.97092 C230.789465,232.97092 232.217251,232.592835 232.847156,231.920685 L232.847156,225.787311 C226.674084,227.509697 224.532406,228.811989 224.532406,230.618393 C224.532406,232.214751 225.83421,232.97092 228.605793,232.97092 Z M217.351485,228.980026 C217.687434,230.072271 218.023384,231.752647 218.023384,233.391014 C218.023384,239.272331 215.167813,242.002943 210.758476,242.002943 C207.818917,242.002943 205.929201,241.036726 205.173315,239.062284 C204.249454,240.952707 202.27575,242.002943 199.126224,242.002943 C195.934703,242.002943 193.961,241.036726 193.16312,238.978265 C192.197265,241.036726 189.887612,242.002943 186.066187,242.002943 L185.3103,241.876914 L185.3103,236.919804 L186.066187,236.793776 C190.475524,236.793776 191.56736,236.079616 191.56736,233.138958 L191.56736,230.534374 C191.56736,229.316102 192.36524,228.475913 193.457076,228.475913 C194.506918,228.475913 195.346792,229.316102 195.346792,230.534374 L195.346792,233.096948 C195.346792,235.869569 196.396634,236.793776 199.378186,236.793776 C202.527713,236.793776 203.619549,235.869569 203.619549,233.096948 L203.619549,230.534374 C203.619549,229.316102 204.417429,228.475913 205.509265,228.475913 C206.559107,228.475913 207.398981,229.316102 207.398981,230.534374 L207.398981,233.096948 C207.398981,235.869569 208.238854,236.793776 210.842463,236.793776 C213.320091,236.793776 214.201958,235.911579 214.201958,233.391014 C214.201958,232.25676 213.866009,230.82844 213.65604,229.736196 C213.404078,228.517923 214.033983,227.425678 215.209807,227.29965 C216.301643,227.173622 216.973542,227.803763 217.351485,228.980026 Z M186.024193,236.793776 L186.738086,236.919804 L186.738086,241.876914 L186.024193,242.002943 C180.355045,242.002943 178.507323,240.280557 178.003398,235.995597 C175.147827,237.171861 172.6702,238.264105 169.772635,239.314341 C164.397443,241.372802 160.366049,242.002943 155.536775,242.002943 L154.780888,241.876914 L154.780888,236.919804 L155.536775,236.793776 C161.499879,236.793776 165.027348,236.205644 169.310705,234.987372 C171.662351,234.315221 174.349947,233.391014 176.785581,232.592835 C171.662351,230.744421 168.80678,228.896008 164.523424,228.896008 C162.927664,228.896008 161.667853,229.316102 160.534024,229.736196 C159.442188,230.15629 158.308358,229.904233 157.972409,228.643951 C157.594466,227.551706 158.09839,226.58549 159.148232,225.787311 C160.114087,225.115161 162.129784,224.148944 164.565418,224.148944 C170.612509,224.148944 173.300105,227.635725 181.404887,229.484139 C182.790679,229.778205 183.420584,230.660403 183.420584,231.878675 C183.420584,233.433024 182.622704,234.105174 181.194919,234.693306 C181.026944,234.777325 180.816975,234.819334 180.649001,234.903353 C181.362893,236.373682 182.874666,236.793776 186.024193,236.793776 Z M150.371551,213.10047 L150.371551,231.038487 C150.371551,235.407466 151.253419,236.793776 155.494781,236.793776 L156.208674,236.919804 L156.208674,241.876914 L155.494781,242.002943 C148.607816,242.002943 146.214176,238.978265 146.214176,231.458581 L146.214176,213.10047 C146.214176,211.882198 147.05405,211 148.271867,211 C149.489684,211 150.371551,211.882198 150.371551,213.10047 Z M132.104296,242.002943 L131.390404,241.876914 L131.390404,236.919804 L132.104296,236.793776 C135.967716,236.793776 137.311514,235.197419 137.311514,231.500591 C137.311514,230.282318 137.143539,228.853998 136.933571,227.341659 C136.723602,225.955349 137.647463,225.115161 138.739299,225.115161 C139.831135,225.115161 140.503034,225.787311 140.754996,227.089603 C141.006958,228.559932 141.13294,230.198299 141.13294,231.500591 C141.13294,238.264105 137.815438,242.002943 132.104296,242.002943 Z M135.253823,250.572862 C133.952019,250.530852 132.902177,249.438608 132.902177,248.178326 C132.902177,246.876034 133.952019,245.825799 135.253823,245.825799 C136.555627,245.825799 137.60547,246.876034 137.60547,248.178326 C137.60547,249.438608 136.555627,250.530852 135.253823,250.572862 Z M117.070556,215.705054 C115.894733,215.705054 114.928878,214.696828 114.928878,213.520564 C114.928878,212.344301 115.894733,211.378085 117.070556,211.378085 C118.246379,211.378085 119.254228,212.344301 119.254228,213.520564 C119.254228,214.696828 118.288373,215.705054 117.070556,215.705054 Z M122.151792,215.705054 C120.975969,215.705054 120.010114,214.696828 120.010114,213.520564 C120.010114,212.344301 121.017963,211.378085 122.151792,211.378085 C123.327616,211.378085 124.377458,212.344301 124.377458,213.520564 C124.377458,214.696828 123.369609,215.705054 122.151792,215.705054 Z M132.104296,236.793776 L132.818189,236.919804 L132.818189,241.876914 L132.104296,242.002943 C126.813092,241.960933 124.335464,239.482378 123.663565,235.029381 C123.03366,236.961814 121.395906,238.180087 118.288373,238.180087 C113.501092,238.180087 111.779351,235.449475 111.779351,231.248534 C111.779351,226.753528 114.550935,223.938897 123.453597,221.460342 L123.453597,220.536135 C123.453597,219.317863 124.209483,218.561693 125.4273,218.561693 C126.645117,218.561693 127.35901,219.317863 127.35901,220.536135 L127.35901,231.248534 C127.35901,235.701532 128.282871,236.793776 132.104296,236.793776 Z M119.212234,232.97092 C121.395906,232.97092 122.823691,232.592835 123.453597,231.920685 L123.453597,225.787311 C117.280524,227.509697 115.138846,228.811989 115.138846,230.618393 C115.138846,232.214751 116.440651,232.97092 119.212234,232.97092 Z M92.3782669,225.493246 C97.9214338,225.493246 100.27308,230.492365 100.27308,236.163635 L100.27308,237.802002 C100.27308,246.371921 96.1576988,252.169219 89.1867465,252.169219 C87.2550368,252.169219 85.743264,251.875153 84.7354155,251.41305 C83.5175985,250.866928 82.7617121,249.900711 82.8876932,248.59842 C83.0136742,247.12809 84.1475038,246.287902 85.5332956,246.623977 C86.4991504,246.876034 87.6749737,247.12809 88.8927907,247.12809 C93.8900396,247.12809 96.9555789,244.733554 97.1655474,238.516162 L97.1655474,238.390134 C96.4516547,240.322566 94.6039324,241.876914 91.3284246,241.876914 C86.4571567,241.876914 84.3154786,239.230322 84.3154786,234.693306 C84.3154786,229.526149 87.4650053,225.493246 92.3782669,225.493246 Z M91.9163363,236.835786 C95.1498503,236.835786 96.2416862,236.163635 96.7456105,235.323447 C96.7036168,233.475033 95.7797556,230.450356 92.1263047,230.450356 C89.4387086,230.450356 87.63298,232.004704 87.63298,234.231202 C87.63298,236.121626 88.6828222,236.835786 91.9163363,236.835786 Z M78.9822801,213.10047 L78.9822801,239.860463 C78.9822801,241.120745 78.1004127,242.002943 76.8825957,242.002943 C75.6647787,242.002943 74.8249049,241.120745 74.8249049,239.860463 L74.8249049,213.10047 C74.8249049,211.882198 75.6647787,211 76.8825957,211 C78.1004127,211 78.9822801,211.882198 78.9822801,213.10047 Z M69.2397443,229.484139 C70.625536,229.778205 71.2554414,230.660403 71.2554414,231.878675 C71.2554414,233.433024 70.4575613,234.105174 69.0297759,234.693306 C64.7044259,236.373682 61.5129056,237.886021 57.6074925,239.314341 C52.2323003,241.372802 48.2009062,242.002943 43.371632,242.002943 L42.6157456,241.876914 L42.6157456,236.919804 L43.371632,236.793776 C49.3347358,236.793776 52.8622057,236.205644 57.1455619,234.987372 C59.4972085,234.315221 62.1848046,233.391014 64.6204385,232.592835 C59.4972085,230.744421 56.6416377,228.896008 52.3582814,228.896008 C50.7625212,228.896008 49.5027106,229.316102 48.368881,229.736196 C47.2770451,230.15629 46.1432155,229.904233 45.807266,228.643951 C45.4293228,227.551706 45.933247,226.58549 46.9830892,225.787311 C47.9489441,225.115161 49.9646412,224.148944 52.4002751,224.148944 C58.4473663,224.148944 61.1349624,227.635725 69.2397443,229.484139 Z M43.3296383,236.793776 L44.043531,236.919804 L44.043531,241.876914 L43.3296383,242.002943 C39.2142568,242.002943 37.3245408,240.826679 35.7707743,238.012049 C34.8049195,240.574623 32.5372603,242.17098 27.9599482,242.17098 C25.3563395,242.17098 23.2146614,241.750886 22.0388381,241.204764 C20.7370337,240.574623 20.1911158,239.314341 20.5270653,237.97004 C20.9050085,236.625738 22.0808318,235.995597 23.4246298,236.289663 C24.474472,236.54172 26.4481754,236.877795 28.5478599,236.877795 C32.2433045,236.877795 33.7550773,235.953588 34.3429889,234.735315 C34.0910268,234.105174 33.8390646,233.349005 33.5451088,232.592835 L30.14362,223.0567 C29.5977021,221.62838 30.4795695,220.368098 31.7393802,220.158051 C32.9152035,219.990013 33.797071,220.704173 34.1330205,221.838427 L37.1985598,230.618393 C39.0042884,235.995597 39.6761874,236.793776 43.3296383,236.793776 Z M6.75313537,219.569919 C5.57731208,219.569919 4.61145724,218.561693 4.61145724,217.38543 C4.61145724,216.209167 5.57731208,215.24295 6.75313537,215.24295 C7.92895865,215.24295 8.93680719,216.209167 8.93680719,217.38543 C8.93680719,218.561693 7.97095234,219.569919 6.75313537,219.569919 Z M11.8343717,219.569919 C10.6585484,219.569919 9.69269358,218.561693 9.69269358,217.38543 C9.69269358,216.209167 10.7005421,215.24295 11.8343717,215.24295 C13.010195,215.24295 14.0600372,216.209167 14.0600372,217.38543 C14.0600372,218.561693 13.0521887,219.569919 11.8343717,219.569919 Z M1,233.853118 C1,227.047594 4.10753297,223.0567 9.39873776,223.0567 C14.6479489,223.0567 17.7554818,227.047594 17.7554818,233.853118 C17.7554818,239.440369 15.0678858,242.002943 9.2727567,242.002943 C3.60360871,242.002943 1,239.440369 1,233.853118 Z M4.48547617,233.68508 C4.48547617,235.995597 5.74528684,236.793776 9.35674407,236.793776 C13.010195,236.793776 14.2700057,235.995597 14.2700057,233.68508 C14.2700057,230.11428 12.464277,228.055819 9.35674407,228.055819 C6.29120479,228.055819 4.48547617,230.11428 4.48547617,233.68508 Z M262.368719,285.692726 C262.368719,293.758532 259.723117,296.615172 253.130108,296.615172 L252.374221,296.489144 L252.374221,291.532034 L253.130108,291.406006 C257.203495,291.406006 258.211344,290.649836 258.211344,287.499131 L258.211344,268.132794 C258.211344,266.578446 258.96723,265.61223 260.311028,265.61223 C261.612833,265.61223 262.368719,266.578446 262.368719,268.132794 L262.368719,285.692726 Z M253.088114,291.406006 L253.802007,291.532034 L253.802007,296.489144 L253.088114,296.615172 C248.510802,296.615172 246.32713,295.396899 243.051622,291.532034 C242.463711,294.724749 240.322033,296.615172 235.114815,296.615172 L230.285541,296.615172 L229.529655,296.489144 L229.529655,291.532034 L230.285541,291.406006 L235.030828,291.406006 C239.482159,291.406006 240.657982,290.775865 240.825957,289.179507 C238.390323,285.944783 236.122664,283.214171 233.813011,280.273513 C233.183105,279.433325 232.595194,278.509118 232.595194,277.248835 C232.595194,275.48444 233.813011,274.728271 235.28279,273.846073 L248.25884,266.032324 C249.686625,265.192135 251.114411,265.57022 251.534347,266.956531 C251.912291,268.006766 251.45036,269.09901 250.148556,269.85518 L237.046525,277.542901 C238.642285,279.475334 240.951938,282.458002 243.513553,285.608707 C247.46096,290.313761 248.930739,291.406006 253.088114,291.406006 Z M230.243547,291.406006 L230.95744,291.532034 L230.95744,296.489144 L230.243547,296.615172 C227.76592,296.615172 225.960191,296.111059 224.784368,295.060824 C223.9025,301.362235 220.081075,304.849016 213.19411,304.849016 C205.635246,304.849016 201.981795,301.320226 201.981795,293.380448 C201.981795,290.35577 202.6117,287.919225 203.241605,286.532914 C203.74553,285.39866 204.669391,284.768519 205.719233,285.062585 C206.811069,285.356651 207.272999,286.280858 206.853063,287.58315 C206.433126,288.927451 205.971195,290.817874 205.971195,292.414231 C205.971195,297.749426 208.112873,299.59784 213.446072,299.59784 C218.947245,299.59784 220.794967,297.665407 220.794967,292.372222 L220.794967,268.132794 C220.794967,266.578446 221.550854,265.61223 222.894652,265.61223 C224.23845,265.61223 224.952342,266.578446 224.952342,268.132794 L224.952342,285.986792 C224.952342,290.35577 226.338134,291.406006 230.243547,291.406006 Z M189.17372,267.7127 L189.17372,294.472692 C189.17372,295.732975 188.291852,296.615172 187.074035,296.615172 C185.856218,296.615172 185.016344,295.732975 185.016344,294.472692 L185.016344,267.7127 C185.016344,266.494427 185.856218,265.61223 187.074035,265.61223 C188.291852,265.61223 189.17372,266.494427 189.17372,267.7127 Z M175.525771,282.415992 C178.129379,284.852538 179.011247,286.784971 179.011247,289.599601 C179.011247,294.346664 176.071689,296.615172 170.066591,296.615172 C165.699248,296.615172 164.103487,296.489144 162.717696,296.06905 C161.331904,295.690965 160.408043,294.64073 160.408043,292.918344 C160.408043,291.574043 160.82798,290.523808 161.919816,289.515582 C164.313456,287.331093 168.134881,284.264406 170.066591,282.500011 C167.840926,280.567579 164.775386,277.962995 160.072093,274.014111 C159.064245,273.173923 158.812283,271.95565 159.400194,271.031443 C160.156081,269.939199 161.499879,269.85518 162.591715,270.695368 C166.665102,274.014111 170.27656,277.248835 172.964156,279.811409 C174.097985,278.593136 174.811878,277.248835 174.769884,274.350186 L174.769884,267.7127 C174.769884,266.494427 175.609758,265.61223 176.827575,265.61223 C178.045392,265.61223 178.927259,266.494427 178.927259,267.7127 L178.927259,273.552008 C178.927259,277.542901 178.087386,280.105475 175.525771,282.415992 Z M175.567764,289.305535 C175.609758,287.667168 174.811878,286.364877 172.754187,284.642491 C170.696496,286.448896 167.169027,289.347545 164.691399,291.321987 C165.573266,291.406006 167.127033,291.406006 170.150579,291.406006 C173.216118,291.406006 175.525771,291.027921 175.567764,289.305535 Z M167.043046,303.714762 C168.134881,303.630743 168.638806,304.218875 168.638806,305.017054 C168.638806,305.731214 168.34485,306.193317 167.54697,306.319345 C166.287159,306.571402 164.187475,306.739439 161.541872,306.991496 C160.49203,307.075515 159.946112,306.529392 159.904118,305.689204 C159.862125,304.849016 160.366049,304.344903 161.247916,304.260884 L161.499879,304.218875 C161.121935,303.8828 160.743992,303.336677 160.743992,302.45448 C160.743992,299.891906 162.675702,298.589614 164.81738,298.631624 C165.489279,298.631624 166.077191,298.757652 166.539121,298.967699 C167.253014,299.303774 167.588964,299.849897 167.54697,300.480038 C167.504976,301.362235 166.959058,301.782329 166.119184,301.614292 C165.699248,301.530273 165.321304,301.488263 164.81738,301.488263 C163.725544,301.488263 162.88567,301.656301 162.88567,302.706536 C162.88567,303.630743 163.263614,303.8828 164.523424,303.8828 C165.405292,303.8828 166.371147,303.756771 167.043046,303.714762 Z M155.200825,284.096369 C156.586617,284.390435 157.216522,285.272632 157.216522,286.490905 C157.216522,288.045253 156.418642,288.717404 154.990857,289.305535 C150.665507,290.985912 147.473987,292.49825 143.568574,293.92657 C138.193381,295.985031 134.161987,296.615172 129.332713,296.615172 L128.576827,296.489144 L128.576827,291.532034 L129.332713,291.406006 C135.295817,291.406006 138.823287,290.817874 143.106643,289.599601 C145.45829,288.927451 148.145886,288.003244 150.58152,287.205065 C145.45829,285.356651 142.602719,283.508237 138.319362,283.508237 C136.723602,283.508237 135.463792,283.928331 134.329962,284.348425 C133.238126,284.768519 132.104296,284.516463 131.768347,283.256181 C131.390404,282.163936 131.894328,281.19772 132.94417,280.399541 C133.910025,279.72739 135.925722,278.761174 138.361356,278.761174 C144.408447,278.761174 147.096043,282.247955 155.200825,284.096369 Z M119.380209,278.467108 C118.204385,278.467108 117.238531,277.458882 117.238531,276.282619 C117.238531,275.106356 118.204385,274.140139 119.380209,274.140139 C120.556032,274.140139 121.563881,275.106356 121.563881,276.282619 C121.563881,277.458882 120.598026,278.467108 119.380209,278.467108 Z M124.461445,278.467108 C123.285622,278.467108 122.319767,277.458882 122.319767,276.282619 C122.319767,275.106356 123.327616,274.140139 124.461445,274.140139 C125.637268,274.140139 126.687111,275.106356 126.687111,276.282619 C126.687111,277.458882 125.679262,278.467108 124.461445,278.467108 Z M129.290719,291.406006 L130.004612,291.532034 L130.004612,296.489144 L129.290719,296.615172 C125.049357,296.615172 122.655716,295.396899 121.89983,292.708297 C121.143944,295.35489 118.834291,296.615172 114.634922,296.615172 L113.921029,296.489144 L113.921029,291.532034 L114.634922,291.406006 C118.70831,291.406006 120.136095,290.481799 120.136095,286.364877 L120.136095,284.096369 C120.136095,282.836087 120.849988,281.953889 122.025811,281.953889 C123.201634,281.953889 123.873533,282.794077 123.873533,284.054359 L123.873533,286.364877 C123.873533,290.481799 125.259325,291.406006 129.290719,291.406006 Z M114.634922,291.406006 L115.348815,291.532034 L115.348815,296.489144 L114.634922,296.615172 C110.393559,296.615172 107.999919,295.396899 107.244033,292.708297 C106.488146,295.35489 104.178493,296.615172 99.9791245,296.615172 L99.2652318,296.489144 L99.2652318,291.532034 L99.9791245,291.406006 C104.052512,291.406006 105.480298,290.481799 105.480298,286.364877 L105.480298,284.096369 C105.480298,282.836087 106.19419,281.953889 107.370014,281.953889 C108.545837,281.953889 109.217736,282.794077 109.217736,284.054359 L109.217736,286.364877 C109.217736,290.481799 110.603528,291.406006 114.634922,291.406006 Z M104.850392,299.723868 C105.942228,299.723868 106.950077,300.648075 106.950077,301.782329 C106.950077,302.916583 105.984222,303.924809 104.850392,303.924809 C103.716563,303.924809 102.750708,302.916583 102.750708,301.782329 C102.750708,300.648075 103.716563,299.723868 104.850392,299.723868 Z M109.763654,299.723868 C110.85549,299.723868 111.863338,300.648075 111.863338,301.782329 C111.863338,302.916583 110.897484,303.924809 109.763654,303.924809 C108.587831,303.924809 107.66397,302.916583 107.66397,301.782329 C107.66397,300.648075 108.629824,299.723868 109.763654,299.723868 Z M94.8558945,267.7127 L94.8558945,285.650717 C94.8558945,290.019695 95.737762,291.406006 99.9791245,291.406006 L100.693017,291.532034 L100.693017,296.489144 L99.9791245,296.615172 C93.0921596,296.615172 90.6985193,293.590495 90.6985193,286.070811 L90.6985193,267.7127 C90.6985193,266.494427 91.5383931,265.61223 92.75621,265.61223 C93.974027,265.61223 94.8558945,266.494427 94.8558945,267.7127 Z M85.1133587,284.096369 C86.4991504,284.390435 87.1290557,285.272632 87.1290557,286.490905 C87.1290557,288.045253 86.3311757,288.717404 84.9033902,289.305535 C80.5780403,290.985912 77.3865199,292.49825 73.4811069,293.92657 C68.1059147,295.985031 64.0745206,296.615172 59.2452464,296.615172 L58.48936,296.489144 L58.48936,291.532034 L59.2452464,291.406006 C65.2083502,291.406006 68.7358201,290.817874 73.0191763,289.599601 C75.3708229,288.927451 78.058419,288.003244 80.4940529,287.205065 C75.3708229,285.356651 72.515252,283.508237 68.2318958,283.508237 C66.6361356,283.508237 65.3763249,283.928331 64.2424953,284.348425 C63.1506594,284.768519 62.0168298,284.516463 61.6808803,283.256181 C61.3029371,282.163936 61.8068614,281.19772 62.8567036,280.399541 C63.8225585,279.72739 65.8382555,278.761174 68.2738895,278.761174 C74.3209807,278.761174 77.0085767,282.247955 85.1133587,284.096369 Z M76.0007282,297.49737 C77.3025326,297.49737 78.3523748,298.547605 78.3523748,299.849897 C78.3523748,301.110179 77.3025326,302.202423 76.0007282,302.244433 C74.6989239,302.202423 73.6490816,301.110179 73.6490816,299.849897 C73.6490816,298.547605 74.6989239,297.49737 76.0007282,297.49737 Z M54.0800227,267.7127 L54.0800227,285.650717 C54.0800227,290.019695 54.9618901,291.406006 59.2032527,291.406006 L59.9171454,291.532034 L59.9171454,296.489144 L59.2032527,296.615172 C52.3162877,296.615172 49.9226475,293.590495 49.9226475,286.070811 L49.9226475,267.7127 C49.9226475,266.494427 50.7625212,265.61223 51.9803382,265.61223 C53.1981552,265.61223 54.0800227,266.494427 54.0800227,267.7127 Z M25.3983332,279.391315 C24.2225099,279.391315 23.2566551,278.383089 23.2566551,277.206826 C23.2566551,276.030563 24.2225099,275.064346 25.3983332,275.064346 C26.5741565,275.064346 27.582005,276.030563 27.582005,277.206826 C27.582005,278.383089 26.6161502,279.391315 25.3983332,279.391315 Z M30.4795695,279.391315 C29.3037463,279.391315 28.3378914,278.383089 28.3378914,277.206826 C28.3378914,276.030563 29.3457399,275.064346 30.4795695,275.064346 C31.6553928,275.064346 32.7052351,276.030563 32.7052351,277.206826 C32.7052351,278.383089 31.6973865,279.391315 30.4795695,279.391315 Z M44.8414111,285.986792 C44.8414111,293.800542 40.7260296,296.615172 27.9599482,296.615172 C15.6977911,296.615172 11.7503843,293.96858 11.7503843,286.406886 C11.7503843,284.852538 11.9603528,283.466228 12.2543086,282.500011 C12.5902581,281.281738 13.4301319,280.44155 14.5219678,280.609588 C15.6557974,280.735616 16.0757343,281.827861 15.8657658,282.920105 C15.6557974,283.718284 15.5298163,284.6845 15.5298163,285.650717 C15.5298163,290.271752 18.007444,291.406006 28.253904,291.406006 C38.4583704,291.406006 41.0199854,290.229742 41.0199854,285.902773 C41.0199854,284.72651 40.7680233,283.340199 40.4320738,281.701833 C40.1801117,280.399541 41.1459665,279.517343 42.2378024,279.475334 C43.3296383,279.475334 43.9595437,280.105475 44.2534995,281.365757 C44.589449,282.836087 44.8414111,284.558472 44.8414111,285.986792 Z M7.25705963,267.628681 L7.25705963,285.902773 C7.25705963,287.163056 6.37519217,288.045253 5.15737519,288.045253 C3.93955822,288.045253 3.09968444,287.163056 3.09968444,285.902773 L3.09968444,267.628681 C3.09968444,266.410408 3.93955822,265.528211 5.15737519,265.528211 C6.37519217,265.528211 7.25705963,266.410408 7.25705963,267.628681 Z M5.15737519,296.615172 C3.77158346,296.615172 2.63775386,295.480918 2.63775386,294.094608 C2.63775386,292.708297 3.77158346,291.616053 5.15737519,291.616053 C6.50117323,291.616053 7.67699652,292.708297 7.67699652,294.094608 C7.67699652,295.480918 6.50117323,296.615172 5.15737519,296.615172 Z" id="arabic-medium"></path>
                </g>
            </g>
        </g>
    </g>
</svg>