<?xml version="1.0" encoding="UTF-8"?>
<svg width="514px" height="116px" viewBox="0 0 514 116" version="1.1" xmlns="http://www.w3.org/2000/svg" xmlns:xlink="http://www.w3.org/1999/xlink">
    <!-- Generator: Sketch 58 (84663) - https://sketch.com -->
    <title>arabic-bold</title>
    <desc>Created with Sketch.</desc>
    <g id="inspect" stroke="none" stroke-width="1" fill="none" fill-rule="evenodd">
        <g id="Case-Study---Bluvalt---inspect" transform="translate(-169.000000, -5451.000000)" fill="#484848" fill-rule="nonzero">
            <g id="Type" transform="translate(167.000000, 4642.000000)">
                <g id="Arabic-Type" transform="translate(0.000000, 754.000000)">
                    <path d="M447.223663,73.8043118 C450.245218,76.5456053 451.252403,78.8059701 451.252403,82.0281924 C451.252403,87.9436153 448.326771,90.7330017 440.60502,90.7330017 C435.952785,90.7330017 433.938416,90.5887231 432.403658,90.2039801 C430.341327,89.6749585 429.334142,88.2802653 429.334142,85.6832504 C429.334142,83.8076285 429.957637,82.4129353 431.492395,81.1144279 C434.034338,78.854063 437.631427,75.920398 439.837641,73.9966833 C437.391621,72.0248756 434.13026,69.4278607 429.286181,65.5804312 C427.847345,64.5223881 427.463656,62.8872305 428.231035,61.5406302 C429.142297,60.0016584 431.012783,59.8092869 432.643464,60.9635158 C436.95997,64.2819237 440.892787,67.6484245 443.914342,70.3416252 C445.017449,69.1873964 445.640944,67.7927032 445.640944,65.1475954 L445.592983,57.9817579 C445.592983,56.2504146 446.648129,55 448.374732,55 C450.101334,55 451.204442,56.2504146 451.204442,57.9817579 L451.204442,64.2338308 C451.204442,68.5621891 450.197257,71.2072968 447.223663,73.8043118 Z M446.744052,81.3548922 C446.792013,79.7197347 445.88075,78.4212272 443.530652,76.6898839 C441.42036,78.4693201 438.015116,81.2106136 435.233368,83.3747927 C436.384436,83.4228856 438.159,83.4228856 440.844826,83.4228856 C444.202109,83.4228856 446.69609,83.0381426 446.744052,81.3548922 Z M404.250443,90.7330017 L403.435103,90.5887231 L403.435103,83.5671642 L404.250443,83.4228856 C408.423066,83.4228856 409.861902,81.8358209 409.861902,78.1807629 C409.861902,76.6898839 409.622096,75.1028192 409.38229,73.5157546 C409.094523,71.6401327 410.293552,70.5339967 411.780349,70.5339967 C413.315107,70.5339967 414.178408,71.5439469 414.562098,73.3233831 C414.849865,74.8623549 414.945787,76.7860697 414.945787,78.1807629 C414.945787,85.9237148 411.060931,90.7330017 404.250443,90.7330017 Z M404.873939,99.1973466 C403.578987,99.1973466 402.427918,97.9950249 402.427918,96.6484245 C402.427918,95.3499171 403.578987,94.1956882 404.873939,94.1956882 C406.264813,94.1956882 407.415881,95.3499171 407.415881,96.6484245 C407.415881,97.9950249 406.312774,99.1973466 404.873939,99.1973466 Z M410.677242,99.1973466 C409.286367,99.1973466 408.231221,97.9950249 408.231221,96.6484245 C408.231221,95.3499171 409.334329,94.1956882 410.677242,94.1956882 C412.020155,94.1956882 413.219184,95.3499171 413.219184,96.6484245 C413.219184,97.9950249 412.068116,99.1973466 410.677242,99.1973466 Z M404.250443,83.4228856 L405.065783,83.7114428 L405.065783,90.5887231 L404.250443,90.7330017 L400.701316,90.7330017 C399.310441,97.946932 394.945974,102.563847 388.183447,102.563847 C385.977232,102.563847 384.010824,102.179104 382.763833,101.650083 C381.133153,100.92869 380.173929,99.6782753 380.317813,97.8988391 C380.413735,95.7827529 381.948493,94.628524 383.818979,95.013267 C385.06597,95.3018242 386.456844,95.5903814 387.89568,95.5903814 C392.451992,95.5903814 395.665391,93.9552239 396.720537,90.3001658 L390.629467,90.3001658 C384.970048,90.3001658 382.524027,87.1741294 382.524027,81.9800995 C382.524027,75.9684909 385.929271,70.8225539 392.020342,70.8225539 C398.303257,70.8225539 400.989083,76.4975124 401.132966,83.4228856 L404.250443,83.4228856 Z M386.792573,81.3548922 C386.792573,83.0381426 387.847719,83.6633499 391.396846,83.6633499 L396.81646,83.6633499 L396.81646,82.9900498 C396.81646,80.7296849 395.569469,77.5074627 391.636652,77.5074627 C388.663059,77.5074627 386.792573,79.1907131 386.792573,81.3548922 Z M376.432957,74.9104478 C378.351404,75.3432836 379.310628,76.5456053 379.310628,78.3250415 C379.310628,80.5854063 378.255482,81.4510779 376.337035,82.3167496 C371.876645,84.1442786 368.03975,86.0199005 363.915088,87.6069652 C357.440328,90.1558872 352.692171,90.7330017 347.224596,90.7330017 L346.361295,90.5887231 L346.313334,83.5671642 L347.224596,83.4228856 C354.706541,83.4228856 358.591397,82.8457711 363.243632,81.5953566 C365.545768,81.0182421 368.279556,80.1044776 370.821499,79.3349917 C365.929458,77.5555556 362.476253,75.7280265 357.680134,75.7280265 C355.857609,75.7280265 354.418774,76.1127695 353.075861,76.5936982 C351.445181,77.1708126 349.910423,76.6898839 349.622656,74.7180763 C349.334888,73.2271973 350.054306,72.0248756 351.397219,71.0630182 C352.64421,70.1492537 354.946347,69.2354892 357.632173,69.2354892 C364.442661,69.2354892 367.847905,72.8905473 376.432957,74.9104478 Z M367.128487,91.3101161 C368.759168,91.3101161 370.102081,92.6567164 370.102081,94.2437811 C370.102081,95.8789386 368.807129,97.2736318 367.128487,97.2736318 C365.545768,97.2736318 364.154894,95.8789386 364.154894,94.2437811 C364.154894,92.6567164 365.545768,91.3101161 367.128487,91.3101161 Z M347.128674,83.4228856 L347.944014,83.5671642 L347.944014,90.5887231 L347.128674,90.7330017 C342.332556,90.7330017 340.222264,89.0978441 338.4477,85.7313433 C337.392554,88.8573798 334.80265,90.9253731 329.574881,90.9253731 C326.69721,90.9253731 324.395073,90.4925373 323.05216,89.86733 C321.229635,89.0016584 320.462256,87.3665008 320.845946,85.4908789 C321.181674,83.4709784 322.860315,82.4610282 324.730802,82.8457711 C326.217598,83.1824212 328.040123,83.4709784 330.294299,83.4709784 C334.131193,83.4709784 335.857796,82.6053068 336.577214,81.4510779 C336.289447,80.7777778 336.00168,80.0082919 335.713912,79.238806 L331.781095,68.8026534 C330.917794,66.7827529 332.260707,64.9552239 334.035271,64.8109453 C335.522068,64.6666667 336.577214,65.5804312 337.104787,67.0713101 L340.941681,77.4593698 C342.716245,82.5572139 343.339741,83.4228856 347.128674,83.4228856 Z M307.033125,74.9104478 C308.951572,75.3432836 309.910796,76.5456053 309.910796,78.3250415 C309.910796,80.5854063 308.85565,81.4510779 306.937203,82.3167496 C302.476813,84.1442786 298.639918,86.0199005 294.515256,87.6069652 C288.040496,90.1558872 283.292339,90.7330017 277.824764,90.7330017 L276.961463,90.5887231 L276.913502,83.5671642 L277.824764,83.4228856 C285.306709,83.4228856 289.191565,82.8457711 293.8438,81.5953566 C296.145936,81.0182421 298.879724,80.1044776 301.421667,79.3349917 C296.529626,77.5555556 293.076421,75.7280265 288.280302,75.7280265 C286.457777,75.7280265 285.018942,76.1127695 283.676029,76.5936982 C282.045349,77.1708126 280.510591,76.6898839 280.222824,74.7180763 C279.935056,73.2271973 280.654474,72.0248756 281.997387,71.0630182 C283.244378,70.1492537 285.546515,69.2354892 288.232341,69.2354892 C295.042829,69.2354892 298.448073,72.8905473 307.033125,74.9104478 Z M277.728842,83.4228856 L278.544182,83.5671642 L278.544182,90.5887231 L277.728842,90.7330017 C275.234861,90.7330017 273.364374,90.1558872 272.069422,89.0497512 C270.966315,96.3598673 266.505925,100.25539 258.400485,100.25539 C249.383783,100.25539 245.259121,96.0232172 245.259121,86.3565506 C245.259121,83.0381426 245.930578,80.2968491 246.649995,78.7578773 C247.22553,77.3150912 248.280676,76.3532338 249.719511,76.5456053 C251.206308,76.8341625 252.069609,78.0364842 251.542036,79.9121061 C251.062424,81.3548922 250.582812,83.4228856 250.582812,85.1542289 C250.582812,90.9253731 252.836988,92.9452736 258.784175,92.9452736 C264.779323,92.9452736 266.745731,90.7330017 266.745731,85.1542289 L266.745731,58.318408 C266.745731,56.2985075 267.752916,55 269.575441,55 C271.350005,55 272.35719,56.2985075 272.35719,58.318408 L272.35719,77.5555556 C272.35719,82.2686567 273.891947,83.4228856 277.728842,83.4228856 Z M222.90921,70.5820896 C229.527853,70.5820896 232.357563,76.641791 232.357563,83.4709784 L232.357563,85.4427861 C232.357563,95.6384743 227.513483,102.563847 219.216199,102.563847 C217.009984,102.563847 215.043576,102.179104 213.796585,101.650083 C212.165905,100.92869 211.206681,99.6782753 211.350565,97.8988391 C211.446487,95.7827529 212.981245,94.628524 214.851731,95.013267 C216.098722,95.3018242 217.489596,95.5903814 218.928431,95.5903814 C224.827657,95.5903814 228.136979,92.8490879 228.328823,86.1160862 L228.328823,86.0679934 C227.609406,88.2321725 225.403191,90.3963516 221.518335,90.3963516 C215.762993,90.3963516 213.269012,87.1260365 213.269012,81.8358209 C213.269012,75.7761194 216.770178,70.5820896 222.90921,70.5820896 Z M222.333675,83.5671642 C225.930764,83.5671642 227.129794,82.9900498 227.705328,82.1243781 C227.657367,80.1525705 226.410376,77.3150912 222.477559,77.3150912 C219.503966,77.3150912 217.537557,78.9021559 217.537557,81.0182421 C217.537557,82.893864 218.640664,83.5671642 222.333675,83.5671642 Z M207.465709,57.9817579 L207.465709,87.7512438 C207.465709,89.4825871 206.362601,90.7330017 204.635999,90.7330017 C202.909396,90.7330017 201.85425,89.4825871 201.85425,87.7512438 L201.85425,57.9817579 C201.85425,56.2504146 202.909396,55 204.635999,55 C206.362601,55 207.465709,56.2504146 207.465709,57.9817579 Z M195.139685,74.9104478 C197.058132,75.3432836 198.017356,76.5456053 198.017356,78.3250415 C198.017356,80.5854063 196.96221,81.4510779 195.043762,82.3167496 C190.583372,84.1442786 186.746478,86.0199005 182.621816,87.6069652 C176.147056,90.1558872 171.398899,90.7330017 165.931324,90.7330017 L165.068023,90.5887231 L165.020062,83.5671642 L165.931324,83.4228856 C173.413269,83.4228856 177.298124,82.8457711 181.950359,81.5953566 C184.252496,81.0182421 186.986283,80.1044776 189.528226,79.3349917 C184.636185,77.5555556 181.18298,75.7280265 176.386862,75.7280265 C174.564337,75.7280265 173.125502,76.1127695 171.782588,76.5936982 C170.151908,77.1708126 168.61715,76.6898839 168.329383,74.7180763 C168.041616,73.2271973 168.761034,72.0248756 170.103947,71.0630182 C171.350938,70.1492537 173.653075,69.2354892 176.338901,69.2354892 C183.149389,69.2354892 186.554633,72.8905473 195.139685,74.9104478 Z M165.835402,83.4228856 L166.650742,83.5671642 L166.650742,90.5887231 L165.835402,90.7330017 C161.039283,90.7330017 158.928991,89.0978441 157.154428,85.7313433 C156.099282,88.8573798 153.509378,90.9253731 148.281609,90.9253731 C145.403938,90.9253731 143.101801,90.4925373 141.758888,89.86733 C139.936363,89.0016584 139.168984,87.3665008 139.552673,85.4908789 C139.888402,83.4709784 141.567043,82.4610282 143.437529,82.8457711 C144.924326,83.1824212 146.746851,83.4709784 149.001026,83.4709784 C152.837921,83.4709784 154.564524,82.6053068 155.283941,81.4510779 C154.996174,80.7777778 154.708407,80.0082919 154.42064,79.238806 L150.487823,68.8026534 C149.624522,66.7827529 150.967435,64.9552239 152.741999,64.8109453 C154.228795,64.6666667 155.283941,65.5804312 155.811514,67.0713101 L159.648409,77.4593698 C161.422973,82.5572139 162.046468,83.4228856 165.835402,83.4228856 Z M116.435383,90.7330017 L115.620043,90.5887231 L115.620043,83.5671642 L116.435383,83.4228856 C120.608006,83.4228856 122.046841,81.8358209 122.046841,78.1807629 C122.046841,76.6898839 121.807036,75.1028192 121.56723,73.5157546 C121.279463,71.6401327 122.478492,70.5339967 123.965289,70.5339967 C125.500047,70.5339967 126.363348,71.5439469 126.747037,73.3233831 C127.034805,74.8623549 127.130727,76.7860697 127.130727,78.1807629 C127.130727,85.9237148 123.245871,90.7330017 116.435383,90.7330017 Z M117.058878,99.1973466 C115.763926,99.1973466 114.612858,97.9950249 114.612858,96.6484245 C114.612858,95.3499171 115.763926,94.1956882 117.058878,94.1956882 C118.449753,94.1956882 119.600821,95.3499171 119.600821,96.6484245 C119.600821,97.9950249 118.497714,99.1973466 117.058878,99.1973466 Z M122.862182,99.1973466 C121.471307,99.1973466 120.416161,97.9950249 120.416161,96.6484245 C120.416161,95.3499171 121.519268,94.1956882 122.862182,94.1956882 C124.205095,94.1956882 125.404124,95.3499171 125.404124,96.6484245 C125.404124,97.9950249 124.253056,99.1973466 122.862182,99.1973466 Z M108.042176,68.8507463 C106.459457,68.8507463 105.068583,67.5041459 105.068583,65.8689884 C105.068583,64.2819237 106.459457,62.8872305 108.042176,62.8872305 C109.672856,62.8872305 111.015769,64.2819237 111.015769,65.8689884 C111.015769,67.5041459 109.720817,68.8507463 108.042176,68.8507463 Z M116.435383,83.4228856 L117.250723,83.5671642 L117.250723,90.5887231 L116.435383,90.7330017 C111.543342,90.7330017 108.809555,89.1940299 107.898292,85.8756219 C106.98703,89.1940299 104.301204,90.7330017 99.4571242,90.7330017 L98.6417841,90.5887231 L98.6417841,83.5671642 L99.4571242,83.4228856 C103.965475,83.4228856 105.500233,82.4610282 105.500233,78.1807629 L105.500233,75.920398 C105.452272,74.092869 106.411496,72.9386401 108.042176,72.9386401 C109.672856,72.9386401 110.584119,74.0447761 110.584119,75.7761194 L110.584119,78.1807629 C110.584119,82.4610282 112.070915,83.4228856 116.435383,83.4228856 Z M94.3252776,57.9817579 L94.3252776,77.5074627 C94.3252776,81.6434494 94.948773,83.4228856 99.4571242,83.4228856 L100.272464,83.5671642 L100.272464,90.5887231 L99.4571242,90.7330017 C91.4955678,90.7330017 88.7138192,86.8374793 88.7138192,78.4693201 L88.7138192,57.9817579 C88.7138192,56.2504146 89.7689652,55 91.4955678,55 C93.2221704,55 94.3252776,56.2504146 94.3252776,57.9817579 Z M82.6227489,75.199005 C83.0543996,76.5456053 83.3901278,78.4693201 83.3901278,80.344942 C83.3901278,87.4145937 79.9369226,90.7330017 74.6611925,90.7330017 C71.3039097,90.7330017 69.0497341,89.5306799 68.0905104,87.2222222 C67.0833256,89.4825871 64.8291499,90.7330017 61.3279836,90.7330017 C57.7308948,90.7330017 55.428758,89.5787728 54.4215732,87.1260365 C53.2705048,89.5787728 50.6326397,90.7330017 46.2681721,90.7330017 L45.4048708,90.5887231 L45.4048708,83.5671642 L46.2681721,83.4228856 C51.0163292,83.4228856 52.1673976,82.7014925 52.1673976,79.7197347 L52.1673976,77.2669983 C52.1673976,75.4875622 53.318466,74.4295191 54.7573015,74.4295191 C56.196137,74.4295191 57.3472054,75.4875622 57.3472054,77.2189055 L57.3472054,79.6716418 C57.3472054,82.4610282 58.4503126,83.4228856 61.6637119,83.4228856 C64.8771111,83.4228856 66.0281795,82.5091211 66.0281795,79.6716418 L66.0281795,77.2669983 C66.0281795,75.4875622 67.1312867,74.4295191 68.5701222,74.4295191 C70.0569189,74.4295191 71.1600261,75.4875622 71.1600261,77.2189055 L71.1600261,79.6716418 C71.1600261,82.5091211 72.0233274,83.4228856 74.7571149,83.4228856 C77.2990576,83.4228856 78.2103201,82.5091211 78.2103201,80.0563847 C78.2103201,78.9021559 77.8745918,77.5555556 77.682747,76.4013267 C77.2990576,74.7180763 78.3062424,73.1791045 79.9369226,73.0829187 C81.2798358,72.986733 82.2390594,73.8043118 82.6227489,75.199005 Z M46.2202109,83.4228856 L47.035551,83.5671642 L47.035551,90.5887231 L46.2202109,90.7330017 C41.3761314,90.7330017 38.6423439,89.0497512 37.7790426,85.4427861 C35.8126341,89.2902156 30.8726323,90.7330017 20.7528226,90.7330017 C6.31650649,90.7330017 2,87.6069652 2,78.5174129 C2,76.8341625 2.19184473,75.199005 2.52757301,74.092869 C3.00718485,72.3615257 4.06233088,71.3034826 5.59708874,71.3996683 C7.17980778,71.5439469 7.75534198,72.986733 7.51553606,74.4776119 C7.32369133,75.3432836 7.17980778,76.3532338 7.17980778,77.3631841 C7.17980778,82.2686567 9.91359522,83.4228856 21.2324344,83.4228856 C32.5512737,83.4228856 35.3330223,82.4610282 35.3330223,77.6036484 L35.3330223,75.920398 C35.3330223,74.092869 36.292246,72.9386401 37.9229262,72.9386401 C39.5536064,72.9386401 40.4648689,74.092869 40.4648689,75.8723051 L40.4648689,77.7960199 C40.4648689,82.4129353 41.9516656,83.4228856 46.2202109,83.4228856 Z M20.7528226,94.628524 C22.3835028,94.628524 23.726416,95.9751244 23.726416,97.5621891 C23.726416,99.1973466 22.431464,100.59204 20.7528226,100.59204 C19.1701036,100.59204 17.7792293,99.1973466 17.7792293,97.5621891 C17.7792293,95.9751244 19.1701036,94.628524 20.7528226,94.628524 Z M516,115.693201 L516,145.462687 C516,147.19403 514.896893,148.444444 513.17029,148.444444 C511.443688,148.444444 510.388542,147.19403 510.388542,145.462687 L510.388542,115.693201 C510.388542,113.961857 511.443688,112.711443 513.17029,112.711443 C514.896893,112.711443 516,113.961857 516,115.693201 Z M503.673976,135.315091 C503.673976,144.981758 500.316693,148.396352 493.026593,148.444444 L492.163292,148.300166 L492.163292,141.278607 L493.026593,141.134328 C497.055333,141.134328 498.110479,140.31675 498.110479,136.998342 L498.110479,116.029851 C498.110479,114.00995 499.069702,112.711443 500.892227,112.711443 C502.714752,112.711443 503.673976,114.00995 503.673976,116.029851 L503.673976,135.315091 Z M492.978632,141.134328 L493.793972,141.278607 L493.793972,148.300166 L492.978632,148.444444 C486.359989,148.444444 484.345619,146.376451 483.818046,141.470978 C480.74853,142.817579 477.822898,144.164179 474.801344,145.318408 C468.326584,147.86733 463.578427,148.444444 458.110852,148.444444 L457.247551,148.300166 L457.199589,141.278607 L458.110852,141.134328 C465.592796,141.134328 469.477652,140.557214 474.129887,139.306799 C476.432024,138.729685 479.165811,137.81592 481.707754,137.046434 C476.815713,135.266998 473.362508,133.439469 468.56639,133.439469 C466.743865,133.439469 465.305029,133.824212 463.962116,134.305141 C462.331436,134.882255 460.796678,134.401327 460.508911,132.429519 C460.221144,130.93864 460.940562,129.736318 462.283475,128.774461 C463.530466,127.860697 465.832602,126.946932 468.518429,126.946932 C475.328917,126.946932 478.734161,130.60199 487.319212,132.621891 C489.23766,133.054726 490.196883,134.257048 490.196883,136.036484 C490.196883,138.200663 489.23766,139.114428 487.415135,139.932007 C488.374358,140.845771 490.100961,141.134328 492.978632,141.134328 Z M478.014743,149.021559 C479.645423,149.021559 480.988336,150.368159 480.988336,151.955224 C480.988336,153.590381 479.693384,154.985075 478.014743,154.985075 C476.432024,154.985075 475.04115,153.590381 475.04115,151.955224 C475.04115,150.368159 476.432024,149.021559 478.014743,149.021559 Z M458.01493,141.134328 L458.83027,141.278607 L458.83027,148.300166 L458.01493,148.444444 C453.650462,148.444444 451.636092,146.472637 450.34114,143.827529 C449.285994,146.616915 446.792013,148.636816 442.139778,148.636816 C438.446767,148.636816 436.096669,147.242123 434.801717,145.029851 C434.082299,147.145937 432.49958,148.444444 428.806569,148.444444 L427.943268,148.300166 L427.943268,141.278607 L428.806569,141.134328 C431.012783,141.134328 432.595502,140.99005 433.458804,140.220564 L433.458804,139.451078 C433.458804,132.429519 438.111039,128.101161 443.338808,128.101161 C448.518615,128.101161 450.676869,131.94859 452.35551,135.411277 L453.602501,137.960199 C454.561724,139.9801 455.568909,141.134328 458.01493,141.134328 Z M442.475506,141.374793 C446.120556,141.374793 447.943081,140.749585 448.662499,139.932007 C447.223663,136.661692 445.736867,134.930348 442.667351,134.930348 C440.125408,134.930348 437.727349,136.565506 437.727349,138.970149 C437.727349,140.797678 439.022301,141.374793 442.475506,141.374793 Z M428.758608,141.134328 L429.573948,141.278607 L429.573948,148.300166 L428.758608,148.444444 C423.866567,148.444444 421.13278,146.905473 420.221517,143.587065 C419.310255,146.905473 416.624428,148.444444 411.780349,148.444444 L410.965009,148.300166 L410.965009,141.278607 L411.780349,141.134328 C416.2887,141.134328 417.823458,140.172471 417.823458,135.892206 L417.823458,133.631841 C417.775497,131.804312 418.734721,130.650083 420.365401,130.650083 C421.996081,130.650083 422.907343,131.756219 422.907343,133.487562 L422.907343,135.892206 C422.907343,140.172471 424.39414,141.134328 428.758608,141.134328 Z M417.247924,151.907131 C418.638798,151.907131 419.789867,153.109453 419.789867,154.456053 C419.789867,155.850746 418.686759,157.053068 417.247924,157.053068 C415.85705,157.053068 414.705981,155.850746 414.705981,154.456053 C414.705981,153.109453 415.85705,151.907131 417.247924,151.907131 Z M423.195111,151.907131 C424.585985,151.907131 425.785014,153.109453 425.785014,154.456053 C425.785014,155.850746 424.633946,157.053068 423.195111,157.053068 C421.756275,157.053068 420.653168,155.850746 420.653168,154.456053 C420.653168,153.109453 421.804236,151.907131 423.195111,151.907131 Z M411.780349,141.134328 L412.595689,141.278607 L412.595689,148.300166 L411.780349,148.444444 L410.677242,148.444444 C404.730055,148.444444 401.27685,148.107794 397.871606,144.885572 C391.732574,147.674959 388.950826,149.839138 388.950826,153.06136 C388.950826,156.043118 391.348885,158.063018 398.734907,158.063018 C402.811608,158.063018 405.73724,157.437811 407.895493,156.956882 C409.861902,156.475954 411.444621,157.58209 411.588504,159.746269 C411.780349,161.525705 410.821125,162.920398 409.238406,163.593698 C407.128114,164.45937 403.578987,165.325041 398.255295,165.325041 C389.094709,165.325041 384.442475,161.381426 384.442475,153.830846 C384.442475,147.53068 387.464029,144.404643 393.651022,141.230514 C392.068303,139.547264 390.197817,137.47927 388.854903,135.747927 C387.464029,133.920398 387.08034,132.189055 387.559951,129.59204 C387.991602,127.379768 389.52636,125.840796 391.828497,125.263682 C393.842866,124.782753 396.288887,124.494196 399.502286,124.494196 C406.025007,124.494196 408.950639,126.898839 408.950639,132.237148 C408.950639,135.651741 407.847532,138.344942 403.674909,141.038143 C405.161706,141.134328 407.319959,141.134328 410.533358,141.134328 L411.780349,141.134328 Z M404.586172,133.776119 C404.586172,131.852405 403.099375,131.179104 398.734907,131.179104 C395.713353,131.179104 393.267332,131.467662 391.97238,131.996683 C394.226556,134.545605 397.487916,137.81592 399.022674,139.066335 C402.955491,137.238806 404.586172,135.651741 404.586172,133.776119 Z M379.550434,115.500829 L379.550434,134.930348 C379.550434,136.661692 378.447327,137.912106 376.720724,137.912106 C374.994121,137.912106 373.938975,136.661692 373.938975,134.930348 L373.938975,115.500829 C373.938975,113.769486 374.994121,112.519071 376.720724,112.519071 C378.447327,112.519071 379.550434,113.769486 379.550434,115.500829 Z M376.768685,148.396352 C374.994121,148.396352 373.507325,147.001658 373.507325,145.222222 C373.507325,143.442786 374.994121,142 376.768685,142 C378.495288,142 379.934123,143.442786 379.934123,145.222222 C379.934123,147.001658 378.495288,148.396352 376.768685,148.396352 Z M341.037604,122.762852 C355.042269,126.610282 358.831203,131.660033 358.831203,138.248756 C358.831203,145.126036 355.47392,148.444444 349.8145,148.444444 C346.265373,148.444444 343.243818,147.53068 340.510031,146.087894 C338.927312,147.19403 336.577214,148.444444 330.054493,148.444444 L329.239153,148.300166 L329.239153,141.278607 L330.054493,141.134328 C331.97294,141.134328 333.411776,141.134328 334.562844,141.086235 C333.267892,139.114428 332.932164,136.998342 332.932164,134.689884 C332.932164,130.409619 334.131193,127.475954 336.864981,126.177446 C336.769059,125.74461 336.81702,125.263682 336.912942,124.782753 C337.344593,123.003317 339.023234,122.233831 341.037604,122.762852 Z M340.941681,130.409619 C337.968088,130.409619 336.864981,132.429519 336.864981,134.641791 C336.864981,136.709784 337.680321,138.344942 340.89372,139.739635 C340.941681,139.739635 340.989643,139.787728 341.037604,139.787728 C343.339741,138.922056 344.970421,137.47927 344.970421,135.026534 C344.970421,132.381426 343.915275,130.409619 340.941681,130.409619 Z M350.246151,141.134328 C353.0279,141.134328 354.322852,140.220564 354.322852,138.15257 C354.322852,135.315091 352.212559,133.295191 348.615471,131.804312 C348.807315,132.718076 348.903238,133.776119 348.903238,134.882255 C348.903238,137.575456 347.944014,139.499171 346.649062,140.941957 C347.848092,141.086235 349.095083,141.134328 350.246151,141.134328 Z M321.661286,126.562189 C320.078567,126.562189 318.687692,125.215589 318.687692,123.580431 C318.687692,121.993367 320.078567,120.598673 321.661286,120.598673 C323.291966,120.598673 324.634879,121.993367 324.634879,123.580431 C324.634879,125.215589 323.339927,126.562189 321.661286,126.562189 Z M330.054493,141.134328 L330.869833,141.278607 L330.869833,148.300166 L330.054493,148.444444 C325.162452,148.444444 322.428665,146.905473 321.517402,143.587065 C320.60614,146.905473 317.920314,148.444444 313.076234,148.444444 L312.260894,148.300166 L312.260894,141.278607 L313.076234,141.134328 C317.584585,141.134328 319.119343,140.172471 319.119343,135.892206 L319.119343,133.631841 C319.071382,131.804312 320.030606,130.650083 321.661286,130.650083 C323.291966,130.650083 324.203229,131.756219 324.203229,133.487562 L324.203229,135.892206 C324.203229,140.172471 325.690025,141.134328 330.054493,141.134328 Z M307.944387,115.693201 L307.944387,135.218905 C307.944387,139.354892 308.567883,141.134328 313.076234,141.134328 L313.891574,141.278607 L313.891574,148.300166 L313.076234,148.444444 C305.114678,148.444444 302.332929,144.548922 302.332929,136.180763 L302.332929,115.693201 C302.332929,113.961857 303.388075,112.711443 305.114678,112.711443 C306.84128,112.711443 307.944387,113.961857 307.944387,115.693201 Z M295.618363,136.13267 C295.618363,145.318408 291.062051,148.444444 276.81758,148.444444 C263.532332,148.444444 259.599515,145.174129 259.599515,136.517413 C259.599515,134.930348 259.79136,133.439469 260.079127,132.381426 C260.510777,130.650083 261.565923,129.640133 263.100681,129.736318 C264.539517,129.880597 265.210973,131.034826 265.019128,132.429519 C264.923206,133.247098 264.731361,134.208955 264.731361,135.266998 C264.731361,139.9801 267.225343,141.134328 277.297191,141.134328 C287.464962,141.134328 290.054866,140.31675 290.054866,137.14262 L290.054866,116.077944 C290.054866,114.058043 291.157973,112.711443 292.836615,112.711443 C294.515256,112.711443 295.618363,114.00995 295.618363,115.981758 L295.618363,136.13267 Z M274.131753,124.253731 C274.131753,121.897181 275.666511,120.069652 280.366707,118.578773 C281.901465,118.097844 283.052533,118.626866 283.052533,120.117745 C283.052533,121.175788 282.476999,121.849088 281.27797,122.185738 C278.016609,123.195688 277.057385,123.628524 277.057385,124.109453 C277.057385,124.494196 278.160493,124.638474 280.07894,125.07131 C282.812727,125.648425 283.72399,126.802653 283.72399,129.207297 C283.72399,132.237148 281.853504,134.208955 276.625735,134.208955 C275.282822,134.208955 274.227676,134.112769 273.412336,133.872305 C272.309228,133.583748 271.733694,132.862355 271.733694,131.852405 C271.733694,130.457711 272.692918,129.688226 274.035831,129.92869 C274.80321,130.024876 275.61855,130.072968 276.721657,130.072968 C279.743212,130.072968 280.846319,129.784411 280.846319,129.25539 C280.846319,128.774461 279.503406,128.485904 277.105347,127.956882 C274.995055,127.427861 274.131753,126.273632 274.131753,124.253731 Z M245.307082,132.621891 C247.22553,133.054726 248.184753,134.257048 248.184753,136.036484 C248.184753,138.296849 247.129607,139.162521 245.21116,140.028192 C240.75077,141.855721 236.913875,143.731343 232.789213,145.318408 C226.314454,147.86733 221.566297,148.444444 216.098722,148.444444 L215.23542,148.300166 L215.187459,141.278607 L216.098722,141.134328 C223.580666,141.134328 227.465522,140.557214 232.117757,139.306799 C234.419894,138.729685 237.153681,137.81592 239.695624,137.046434 C234.803583,135.266998 231.350378,133.439469 226.55426,133.439469 C224.731735,133.439469 223.292899,133.824212 221.949986,134.305141 C220.319306,134.882255 218.784548,134.401327 218.496781,132.429519 C218.209014,130.93864 218.928431,129.736318 220.271345,128.774461 C221.518335,127.860697 223.820472,126.946932 226.506298,126.946932 C233.316786,126.946932 236.72203,130.60199 245.307082,132.621891 Z M216.002799,141.134328 L216.818139,141.278607 L216.818139,148.300166 L216.002799,148.444444 C213.508818,148.444444 211.638332,147.86733 210.34338,146.761194 C209.240272,154.07131 204.779882,157.966833 196.674442,157.966833 C187.65774,157.966833 183.533078,153.73466 183.533078,144.067993 C183.533078,140.749585 184.204535,138.008292 184.923953,136.46932 C185.499487,135.026534 186.554633,134.064677 187.993468,134.257048 C189.480265,134.545605 190.343566,135.747927 189.815993,137.623549 C189.336381,139.066335 188.85677,141.134328 188.85677,142.865672 C188.85677,148.636816 191.110945,150.656716 197.058132,150.656716 C203.05328,150.656716 205.019688,148.444444 205.019688,142.865672 L205.019688,116.029851 C205.019688,114.00995 206.026873,112.711443 207.849398,112.711443 C209.623962,112.711443 210.631147,114.00995 210.631147,116.029851 L210.631147,135.266998 C210.631147,139.9801 212.165905,141.134328 216.002799,141.134328 Z M161.902585,128.101161 C167.274237,128.101161 170.63152,132.477612 170.63152,138.825871 C170.63152,144.981758 167.274237,148.636816 161.039283,148.636816 C156.86666,148.636816 154.612485,147.19403 153.557339,144.452736 C152.214426,147.290216 150.200056,148.444444 146.794812,148.444444 L145.931511,148.300166 L145.931511,141.278607 L146.794812,141.134328 C149.048988,141.134328 150.104134,140.845771 151.447047,137.864013 L152.454232,135.555556 C153.941028,132.28524 156.578893,128.101161 161.902585,128.101161 Z M160.943361,141.374793 C164.732294,141.374793 166.027246,140.605307 166.027246,138.970149 C165.931324,136.80597 164.54045,134.930348 161.470934,134.930348 C158.353457,134.930348 156.482971,136.421227 155.523747,139.066335 L155.379864,139.451078 C155.955398,140.6534 157.490156,141.374793 160.943361,141.374793 Z M138.353644,120.839138 C137.010731,120.839138 135.859662,119.684909 135.859662,118.386401 C135.859662,116.991708 136.914808,115.789386 138.353644,115.789386 C139.744518,115.789386 140.895586,116.943615 140.895586,118.386401 C140.895586,119.684909 139.696557,120.839138 138.353644,120.839138 Z M135.140244,126.898839 C133.74937,126.898839 132.502379,125.696517 132.502379,124.253731 C132.502379,122.762852 133.74937,121.512438 135.140244,121.512438 C136.675002,121.512438 137.874032,122.762852 137.874032,124.253731 C137.874032,125.696517 136.627041,126.898839 135.140244,126.898839 Z M138.737333,124.253731 C138.737333,122.762852 139.888402,121.512438 141.423159,121.512438 C142.909956,121.512438 144.156947,122.762852 144.156947,124.253731 C144.156947,125.696517 142.861995,126.898839 141.423159,126.898839 C139.936363,126.898839 138.737333,125.696517 138.737333,124.253731 Z M146.746851,141.134328 L147.562191,141.278607 L147.562191,148.300166 L146.746851,148.444444 C141.85481,148.444444 139.121023,146.905473 138.20976,143.587065 C137.298498,146.905473 134.612671,148.444444 129.768592,148.444444 L128.953252,148.300166 L128.953252,141.278607 L129.768592,141.134328 C134.276943,141.134328 135.811701,140.172471 135.811701,135.892206 L135.811701,133.631841 C135.76374,131.804312 136.722964,130.650083 138.353644,130.650083 C139.984324,130.650083 140.895586,131.756219 140.895586,133.487562 L140.895586,135.892206 C140.895586,140.172471 142.382383,141.134328 146.746851,141.134328 Z M124.636745,115.693201 L124.636745,135.218905 C124.636745,139.354892 125.260241,141.134328 129.768592,141.134328 L130.583932,141.278607 L130.583932,148.300166 L129.768592,148.444444 C121.807036,148.444444 119.025287,144.548922 119.025287,136.180763 L119.025287,115.693201 C119.025287,113.961857 120.080433,112.711443 121.807036,112.711443 C123.533638,112.711443 124.636745,113.961857 124.636745,115.693201 Z M109.528973,112.519071 C111.303536,112.519071 112.310721,113.817579 112.310721,115.837479 L112.310721,135.315091 C112.310721,141.278607 110.823925,144.645108 107.706448,146.280265 C108.809555,147.434494 109.43305,148.925373 109.43305,151.041459 C109.43305,157.822554 103.533825,162.391376 93.4140151,162.391376 C82.7186713,162.391376 77.6347859,157.870647 77.6347859,147.963516 C77.6347859,144.597015 78.4980872,141.951907 79.2175049,140.412935 C79.8410003,138.922056 80.8481851,138.008292 82.2870206,138.200663 C83.7738173,138.441128 84.6850798,139.835821 84.0615844,141.615257 C83.5819726,143.00995 82.9584772,145.029851 82.9584772,147.242123 C83.0543996,153.06136 85.8841094,155.08126 93.9895493,155.08126 C101.135766,155.08126 104.924699,153.446103 104.924699,150.897181 C104.924699,149.117745 103.246058,148.396352 99.6969301,148.059701 C97.6825604,147.819237 96.6753756,146.376451 96.6753756,144.404643 C96.7233368,142.288557 98.2101334,140.941957 100.176542,141.038143 C100.800037,141.086235 101.903145,141.134328 102.622562,141.134328 C105.835962,141.134328 106.699263,140.31675 106.699263,136.998342 L106.699263,115.837479 C106.699263,113.817579 107.706448,112.519071 109.528973,112.519071 Z M90.2965382,165.757877 C91.7353737,165.757877 92.9344033,166.960199 92.9344033,168.354892 C92.9344033,169.749585 91.7833349,171 90.2965382,171 C88.9056639,171 87.7066343,169.749585 87.7066343,168.354892 C87.7066343,166.960199 88.9056639,165.757877 90.2965382,165.757877 Z M96.3876085,165.757877 C97.826444,165.757877 99.0734347,166.960199 99.0734347,168.354892 C99.0734347,169.749585 97.8744052,171 96.3876085,171 C94.948773,171 93.7977046,169.749585 93.7977046,168.354892 C93.7977046,166.960199 94.9967342,165.757877 96.3876085,165.757877 Z M63.3423533,135.315091 C63.3423533,144.981758 59.9850704,148.396352 52.6949706,148.444444 L51.8316693,148.300166 L51.8316693,141.278607 L52.6949706,141.134328 C56.72371,141.134328 57.778856,140.31675 57.778856,136.998342 L57.778856,116.029851 C57.778856,114.00995 58.7380797,112.711443 60.5606046,112.711443 C62.3831296,112.711443 63.3423533,114.00995 63.3423533,116.029851 L63.3423533,135.315091 Z M52.6470094,141.134328 L53.4623495,141.278607 L53.4623495,148.300166 L52.6470094,148.444444 C48.4743865,148.444444 46.0763273,146.809287 45.213026,143.875622 C42.6710833,147.19403 37.5392367,148.444444 28.4745731,148.444444 C15.1893254,148.444444 11.2565084,145.174129 11.2565084,136.517413 C11.2565084,134.930348 11.4483531,133.439469 11.7361202,132.381426 C12.1677708,130.650083 13.2229169,129.640133 14.7576747,129.736318 C16.1965102,129.880597 16.8679668,131.034826 16.676122,132.429519 C16.5801997,133.247098 16.388355,134.208955 16.388355,135.266998 C16.388355,139.9801 18.8823365,141.134328 28.9541849,141.134328 C39.1219558,141.134328 41.7118597,140.31675 41.7118597,137.14262 L41.7118597,116.077944 C41.7118597,114.058043 42.8149669,112.711443 44.4936083,112.711443 C46.1722497,112.711443 47.2753569,114.00995 47.2753569,115.981758 L47.2753569,135.266998 C47.2753569,139.9801 48.8101148,141.134328 52.6470094,141.134328 Z M25.0693291,133.872305 C23.9662219,133.583748 23.3906877,132.862355 23.3906877,131.852405 C23.3906877,130.457711 24.3499114,129.688226 25.6928245,129.92869 C26.4602034,130.024876 27.2755435,130.072968 28.3786507,130.072968 C31.4002053,130.072968 32.5033125,129.784411 32.5033125,129.25539 C32.5033125,128.774461 31.1603994,128.485904 28.7623402,127.956882 C26.6520481,127.427861 25.7887469,126.273632 25.7887469,124.253731 C25.7887469,121.897181 27.3235047,120.069652 32.0237007,118.578773 C33.5584585,118.097844 34.7095269,118.626866 34.7095269,120.117745 C34.7095269,121.175788 34.1339927,121.849088 32.9349631,122.185738 C29.6736027,123.195688 28.714379,123.628524 28.714379,124.109453 C28.714379,124.494196 29.8174862,124.638474 31.7359336,125.07131 C34.469721,125.648425 35.3809835,126.802653 35.3809835,129.207297 C35.3809835,132.237148 33.5104973,134.208955 28.2827284,134.208955 C26.9398152,134.208955 25.8846692,134.112769 25.0693291,133.872305 Z M4.63786507,148.396352 C3.39087431,148.396352 2.33572828,147.386401 2.33572828,146.135987 C2.33572828,144.885572 3.39087431,143.875622 4.63786507,143.875622 C5.83689465,143.875622 6.89204068,144.885572 6.89204068,146.135987 C6.89204068,147.386401 5.83689465,148.396352 4.63786507,148.396352 Z" id="arabic-bold"></path>
                </g>
            </g>
        </g>
    </g>
</svg>