<?xml version="1.0" encoding="UTF-8"?>
<svg width="108px" height="105px" viewBox="0 0 108 105" version="1.1" xmlns="http://www.w3.org/2000/svg" xmlns:xlink="http://www.w3.org/1999/xlink">
    <!-- Generator: Sketch 59.1 (86144) - https://sketch.com -->
    <title>Bandwidth</title>
    <desc>Created with Sketch.</desc>
    <g id="inspect" stroke="none" stroke-width="1" fill="none" fill-rule="evenodd">
        <g id="Case-Study---Bluvalt---Inspect" transform="translate(-1162.000000, -8501.000000)" fill="#131A32" fill-rule="nonzero">
            <g id="Group-30" transform="translate(169.000000, 8099.000000)">
                <g id="Group-28">
                    <g id="Group-25" transform="translate(0.000000, 401.000000)">
                        <path d="M1067.79812,61.802637 C1068.75881,61.802637 1069.53761,62.5814337 1069.53761,63.5421281 L1069.53761,63.5421281 L1069.53761,99.3582493 L1082.2185,86.6599645 L1082.25329,86.6773594 C1082.94345,86.0863207 1083.97224,86.1260585 1084.61476,86.7685727 C1085.25727,87.4110868 1085.29701,88.4398808 1084.70597,89.1300418 L1084.70597,89.1300418 L1069.05055,104.785461 C1068.72393,105.114769 1068.27932,105.3 1067.81551,105.3 C1067.3517,105.3 1066.90709,105.114769 1066.58047,104.785461 L1066.58047,104.785461 L1050.92505,89.1300418 C1050.33401,88.4398808 1050.37375,87.4110868 1051.01627,86.7685727 C1051.65878,86.1260585 1052.68757,86.0863207 1053.37774,86.6773594 L1053.37774,86.6773594 L1066.05863,99.3582493 L1066.05863,63.5421281 C1066.05863,62.5814337 1066.83742,61.802637 1067.79812,61.802637 Z M1026.05033,60.0530598 C1026.51414,60.0530598 1026.95875,60.2382907 1027.28537,60.5675983 L1027.28537,60.5675983 L1042.92339,76.223018 C1043.51443,76.913179 1043.47469,77.9419729 1042.83218,78.5844871 C1042.18967,79.2270013 1041.16087,79.2667391 1040.47071,78.6757004 L1040.47071,78.6757004 L1027.78982,65.9948105 L1027.78982,101.810932 C1027.78982,102.771626 1027.01102,103.550423 1026.05033,103.550423 C1025.08964,103.550423 1024.31084,102.771626 1024.31084,101.810932 L1024.31084,101.810932 L1024.31084,65.9948105 L1011.61255,78.6757004 C1010.92239,79.2667391 1009.8936,79.2270013 1009.25109,78.5844871 C1008.60857,77.9419729 1008.56883,76.913179 1009.15987,76.223018 L1009.15987,76.223018 L1024.81529,60.5675983 C1025.14191,60.2382907 1025.58652,60.0530598 1026.05033,60.0530598 Z M1064.31913,34.9622897 C1065.01752,34.3796216 1066.04688,34.4333351 1066.68082,35.0855263 C1067.31477,35.7377176 1067.33927,36.7681842 1066.73703,37.4497619 C1065.41501,39.4501767 1053.88219,57.6974381 1051.72522,59.8022223 C1049.00645,62.5209873 1044.59846,62.5209873 1041.8797,59.8022222 C1039.16093,57.0834571 1039.16093,52.6754679 1041.8797,49.9567028 C1043.98448,47.8519186 1062.24914,36.266908 1064.31913,34.9622897 Z M1059.53553,42.1463878 C1052.69933,46.5646952 1045.37608,51.4004804 1044.34978,52.4267801 C1043.6965,53.0793267 1043.32944,53.9648059 1043.32944,54.88816 C1043.32944,55.811514 1043.6965,56.6969932 1044.34978,57.3495398 C1045.70671,58.6984233 1047.89821,58.6984233 1049.25514,57.3495398 C1050.29884,56.3058452 1055.11723,48.9999827 1059.53553,42.1463878 Z M1009.0555,16.7150283 C1030.06232,-4.23834278 1064.06445,-4.23834278 1085.07126,16.7150283 L1085.07126,16.7150283 L1085.19303,16.7150283 L1085.19303,16.8367927 C1095.24119,26.9314317 1100.8719,40.601544 1100.84852,54.8446727 C1100.84852,55.8053671 1100.06965,56.5841638 1099.10896,56.5841638 L1099.10896,56.5841638 L1083.45354,56.5841638 C1082.49284,56.5841638 1081.71404,55.8053671 1081.71404,54.8446727 C1081.71404,53.8839783 1082.49284,53.1051816 1083.45354,53.1051816 L1083.45354,53.1051816 L1097.36946,53.1051816 C1096.95574,40.9144381 1092.12074,29.2906364 1083.76664,20.4027494 L1083.76664,20.4027494 L1073.97331,30.1960842 C1073.5482,30.6924934 1072.8807,30.9087222 1072.24527,30.75587 C1071.60983,30.6030178 1071.11369,30.1068823 1070.96084,29.4714452 C1070.80799,28.8360081 1071.02422,28.1685158 1071.52063,27.7434017 L1071.52063,27.7434017 L1081.31396,17.950067 C1072.43169,9.62666842 1060.8294,4.81144176 1048.66371,4.39943152 L1048.66371,4.39943152 L1048.66371,18.3153601 C1048.66371,19.2760545 1047.88492,20.0548512 1046.92422,20.0548512 C1045.96353,20.0548512 1045.18473,19.2760545 1045.18473,18.3153601 L1045.18473,18.3153601 L1045.18473,4.39943152 C1032.99399,4.81315256 1021.37019,9.64815941 1012.4823,18.0022517 L1012.4823,18.0022517 L1022.27563,27.7955865 C1022.86667,28.4857474 1022.82694,29.5145414 1022.18442,30.1570556 C1021.54191,30.7995698 1020.51311,30.8393076 1019.82295,30.2482689 L1019.82295,30.2482689 L1010.02962,20.4549341 C1001.70622,29.3372072 996.890992,40.9394927 996.478982,53.1051816 L996.478982,53.1051816 L1010.39491,53.1051816 C1011.35561,53.1051816 1012.1344,53.8839783 1012.1344,54.8446727 C1012.1344,55.8053671 1011.35561,56.5841638 1010.39491,56.5841638 L1010.39491,56.5841638 L994.739491,56.5841638 C993.778797,56.5841638 993,55.8053671 993,54.8446727 C993.050311,40.5615494 998.783486,26.8857988 1008.93374,16.8367927 L1008.93374,16.8367927 L1008.93374,16.7150283 Z" id="Bandwidth"></path>
                    </g>
                </g>
            </g>
        </g>
    </g>
</svg>