<?xml version="1.0" encoding="UTF-8"?>
<svg width="663px" height="532px" viewBox="0 0 663 532" version="1.1" xmlns="http://www.w3.org/2000/svg" xmlns:xlink="http://www.w3.org/1999/xlink">
    <!-- Generator: Sketch 59.1 (86144) - https://sketch.com -->
    <title>Bluvalt-value_for_money</title>
    <desc>Created with Sketch.</desc>
    <defs>
        <linearGradient x1="35.463362%" y1="34.8939083%" x2="63.9323263%" y2="72.5531277%" id="linearGradient-1">
            <stop stop-color="#D5CBE5" offset="0%"></stop>
            <stop stop-color="#BBABD3" offset="100%"></stop>
        </linearGradient>
        <linearGradient x1="93.386755%" y1="29.166018%" x2="-4.1448525%" y2="77.4150312%" id="linearGradient-2">
            <stop stop-color="#735EA8" offset="0%"></stop>
            <stop stop-color="#2D2B6E" offset="99.97%"></stop>
        </linearGradient>
        <linearGradient x1="55.3452208%" y1="14.4618658%" x2="45.1492202%" y2="77.4424114%" id="linearGradient-3">
            <stop stop-color="#57A6DB" offset="0%"></stop>
            <stop stop-color="#3467AD" offset="99.97%"></stop>
        </linearGradient>
        <linearGradient x1="81.7849267%" y1="0.817763795%" x2="21.4346272%" y2="96.171152%" id="linearGradient-4">
            <stop stop-color="#5463AD" offset="0%"></stop>
            <stop stop-color="#2B3B80" offset="99.97%"></stop>
        </linearGradient>
        <linearGradient x1="4.11155499%" y1="46.1602127%" x2="92.8335522%" y2="53.5228974%" id="linearGradient-5">
            <stop stop-color="#57A6DB" offset="0%"></stop>
            <stop stop-color="#3467AD" offset="99.97%"></stop>
        </linearGradient>
        <linearGradient x1="44.2475605%" y1="3.12667216%" x2="55.3315082%" y2="98.1084192%" id="linearGradient-6">
            <stop stop-color="#57A6DB" offset="0%"></stop>
            <stop stop-color="#3467AD" offset="99.97%"></stop>
        </linearGradient>
        <linearGradient x1="52.4101517%" y1="24.2130776%" x2="50.1540735%" y2="70.7111595%" id="linearGradient-7">
            <stop stop-color="#6DC38D" offset="0%"></stop>
            <stop stop-color="#016F80" offset="100%"></stop>
        </linearGradient>
        <linearGradient x1="68.9754841%" y1="-0.416887417%" x2="40.5428294%" y2="101.128477%" id="linearGradient-8">
            <stop stop-color="#6DC38D" offset="0%"></stop>
            <stop stop-color="#016F80" offset="100%"></stop>
        </linearGradient>
        <linearGradient x1="50.9986444%" y1="7.14829506%" x2="49.1099093%" y2="73.1427975%" id="linearGradient-9">
            <stop stop-color="#6DC38D" offset="0%"></stop>
            <stop stop-color="#016F80" offset="100%"></stop>
        </linearGradient>
        <linearGradient x1="49.7292597%" y1="109.956426%" x2="50.4555115%" y2="4.962249%" id="linearGradient-10">
            <stop stop-color="#6DC38D" offset="0%"></stop>
            <stop stop-color="#016F80" offset="100%"></stop>
        </linearGradient>
        <linearGradient x1="43.0460438%" y1="16.4354714%" x2="50.4000136%" y2="71.8192427%" id="linearGradient-11">
            <stop stop-color="#6DC38D" offset="0%"></stop>
            <stop stop-color="#016F80" offset="100%"></stop>
        </linearGradient>
        <linearGradient x1="52.1254225%" y1="43.2609276%" x2="48.8158583%" y2="57.8733799%" id="linearGradient-12">
            <stop stop-color="#6DC38D" offset="0%"></stop>
            <stop stop-color="#016F80" offset="100%"></stop>
        </linearGradient>
        <linearGradient x1="47.9270177%" y1="27.9491071%" x2="49.8066667%" y2="68.1276786%" id="linearGradient-13">
            <stop stop-color="#6DC38D" offset="0%"></stop>
            <stop stop-color="#016F80" offset="100%"></stop>
        </linearGradient>
        <linearGradient x1="33.1891067%" y1="64.307086%" x2="53.7119737%" y2="54.0278662%" id="linearGradient-14">
            <stop stop-color="#FFFFFF" offset="0%"></stop>
            <stop stop-color="#FFFFFF" stop-opacity="0" offset="100%"></stop>
        </linearGradient>
    </defs>
    <g id="inspect" stroke="none" stroke-width="1" fill="none" fill-rule="evenodd">
        <g id="Case-Study---Bluvalt---Inspect" transform="translate(-720.000000, -7179.000000)" fill-rule="nonzero">
            <g id="Group-27" transform="translate(56.000000, 6952.000000)">
                <g id="Bluvalt-value_for_money" transform="translate(664.000000, 227.000000)">
                    <g id="Group">
                        <path d="M5.76066351,392.765942 C36.4492891,517.64591 202.880095,487.084567 306.990995,491.932229 C410.159242,496.77989 557.632227,546.415725 637.443602,381.48986 C717.254976,216.563995 596.385782,39.5189772 452.369194,24.7652257 C308.352607,10.0114742 266.352133,120.137691 177.952133,194.644136 C89.5521327,269.150581 -24.9279621,267.885974 5.76066351,392.765942 Z" id="Shape" fill="url(#linearGradient-1)"></path>
                        <g transform="translate(39.800948, 0.000000)" id="Shape">
                            <path d="M174.286256,491.932229 L174.286256,393.925165 C174.286256,390.025959 171.144076,386.969825 167.37346,386.969825 L7.22701422,386.969825 C3.35165877,386.969825 0.314218009,390.131343 0.314218009,393.925165 L0.314218009,451.675564 C41.5815166,488.138407 109.243128,492.24838 174.286256,491.932229 Z" fill="url(#linearGradient-2)"></path>
                            <path d="M515.422275,0.526919696 L355.275829,0.526919696 C351.400474,0.526919696 348.363033,3.68843787 348.363033,7.48225969 L348.363033,288.751994 L348.363033,499.519872 C406.702844,505.105221 469.232227,506.264444 522.335071,471.803896 L522.335071,7.58764363 C522.335071,3.68843787 519.29763,0.526919696 515.422275,0.526919696 Z" fill="url(#linearGradient-3)"></path>
                            <path d="M267.190047,491.932229 C292.222749,493.091452 319.769194,496.885274 348.363033,499.625256 L348.363033,288.857378 C348.363033,284.958172 345.220853,281.902038 341.450237,281.902038 L181.303791,281.902038 C177.428436,281.902038 174.390995,285.063556 174.390995,288.857378 L174.390995,393.925165 L174.390995,491.932229 C207.174408,491.826845 239.434123,490.562237 267.190047,491.932229 Z" fill="url(#linearGradient-4)"></path>
                        </g>
                        <path d="M500.968246,425.540347 C448.912796,428.385713 430.164455,410.786595 365.121327,412.683506 C300.078199,414.580417 266.980569,441.874857 205.393839,443.771768 C159.518009,445.14176 104.425118,447.670974 40.1151659,421.430373 L40.1151659,451.57018 C102.120853,506.475212 224.246919,487.927639 306.990995,491.826845 C382.927014,495.409899 482.953081,523.231259 562.240758,471.803896 L562.240758,394.135933 C546.425118,409.521988 525.267773,424.27574 500.968246,425.540347 Z" id="Shape" fill="#131A32" opacity="0.15"></path>
                        <g transform="translate(196.684121, 281.375118)" fill="#131A32" id="Shape" opacity="0.15">
                            <path d="M10.490287,105.489323 L0.0163533537,105.489323 L0.0163533537,210.451727 C5.77701686,210.557111 11.6424197,210.557111 17.4030832,210.557111 L17.4030832,112.550047 C17.4030832,108.650841 14.3656425,105.489323 10.490287,105.489323 Z"></path>
                            <path d="M184.462325,0.526919696 L173.988391,0.526919696 L173.988391,216.458611 C179.749055,217.090915 185.509718,217.723219 191.375121,218.250138 L191.375121,7.48225969 C191.47986,3.58305394 188.33768,0.526919696 184.462325,0.526919696 Z"></path>
                        </g>
                    </g>
                    <g id="Group" transform="translate(244.000000, 73.000000)">
                        <path d="M78.2013793,20.9952447 C76.7337931,28.2386041 77.6772414,32.2277006 78.8303448,34.6421537 C79.9834483,37.0566069 81.8703448,38.1063691 81.9751724,40.8357509 C82.08,43.5651327 80.1931034,46.8193957 81.3462069,48.1840866 C82.4993103,49.5487775 84.3862069,48.4990152 85.2248276,49.8637061 C86.0634483,51.228397 88.7889655,60.8862096 92.5627586,61.7260194 C96.3365517,62.5658292 100.948966,57.0020893 102.835862,58.0518516 C104.722759,58.9966376 107.028966,68.4444977 107.028966,68.4444977 L129.462069,61.7260194 C129.462069,61.7260194 124.325517,55.6373984 121.809655,47.449253 C119.398621,39.2611076 124.64,32.437653 120.551724,20.8902685 C116.463448,9.34288389 109.964138,4.09407271 96.8606897,5.56373984 C83.7572414,7.03340697 79.7737931,13.7518853 78.2013793,20.9952447 Z" id="Shape" fill="#B7845F"></path>
                        <g opacity="0.1" transform="translate(77.345760, 5.149509)" fill="#131A32" id="Shape">
                            <path d="M44.7783784,42.1947674 C42.3673439,34.006622 47.6087232,27.1831675 43.5204473,15.6357829 C39.4321715,4.08839832 32.9328611,-1.16041285 19.8294129,0.30925428 C6.72596459,1.77892141 2.42803355,8.60237593 0.855619758,15.8457353 C-0.507138863,22.4592374 0.22665424,26.4483339 1.2749301,28.8627871 C7.45975769,31.3822164 13.3301025,30.6473829 17.523206,34.7414556 C22.1356198,39.3604094 22.1356198,48.3883646 20.2487232,55.2118191 C22.5549301,53.9521045 24.5466542,52.2724849 25.6997577,52.797366 C27.5866542,53.742152 29.8928611,63.1900121 29.8928611,63.1900121 L52.3259646,56.4715338 C52.4307922,56.4715338 47.1894129,50.2779366 44.7783784,42.1947674 Z"></path>
                        </g>
                        <path d="M56.2924138,151.060786 C52.937931,150.745857 55.4537931,141.717902 58.4937931,138.98852 C61.5337931,136.259138 74.1131034,136.679043 77.6772414,137.728805 C81.3462069,138.778567 85.5393103,140.878092 91.2,140.878092 L91.8289655,148.856285 C91.8289655,148.856285 83.6524138,147.806523 78.9351724,146.546808 C74.1131034,145.287093 65.4124138,144.55226 63.4206897,145.706998 C61.2193103,146.861737 59.6468966,151.375714 56.2924138,151.060786 Z" id="Shape" fill="#B7845F"></path>
                        <path d="M56.2924138,151.060786 C52.937931,150.745857 55.4537931,141.717902 58.4937931,138.98852 C61.5337931,136.259138 74.1131034,136.679043 77.6772414,137.728805 C81.3462069,138.778567 85.5393103,140.878092 91.2,140.878092 L91.8289655,148.856285 C91.8289655,148.856285 83.6524138,147.806523 78.9351724,146.546808 C74.1131034,145.287093 65.4124138,144.55226 63.4206897,145.706998 C61.2193103,146.861737 59.6468966,151.375714 56.2924138,151.060786 Z" id="Shape" fill="#131A32" opacity="0.1"></path>
                        <path d="M99.062069,138.043734 C95.2882759,138.778567 86.4827586,137.203924 85.4344828,138.883544 C84.3862069,140.668139 83.862069,146.75676 83.862069,146.75676 L101.892414,146.021927 L99.062069,138.043734 Z" id="Shape" fill="#273356"></path>
                        <path d="M0.524137931,166.177362 C-1.46758621,154.525001 4.92689655,143.187569 35.3268966,149.591118 C65.8317241,155.994668 84.7006897,161.663384 93.0868966,162.818123 C101.473103,163.972861 96.2317241,142.347759 93.0868966,134.474542 C89.942069,126.601325 83.5475862,113.269345 84.0717241,103.40158 C84.5958621,93.5338151 98.8524138,80.0968585 103.77931,69.3892837 C108.706207,58.6817089 126.422069,55.7423746 132.187586,64.9802823 C137.953103,74.3231662 144.137931,100.987127 144.137931,118.518156 C144.137931,118.518156 150.532414,210.68728 95.3931034,210.68728 C40.2537931,210.68728 2.62068966,177.829723 0.524137931,166.177362 Z" id="Shape" fill="#131A32"></path>
                        <path d="M89.6275862,162.923099 L29.3517241,150.011023 C27.5696552,149.591118 26.3117241,147.806523 26.6262069,146.021927 L27.0455172,143.71245 L90.6758621,157.254383 L89.6275862,162.923099 Z" id="Shape" fill="url(#linearGradient-5)"></path>
                        <path d="M22.4331034,144.237331 L4.19310345,87.865099 C3.56413793,86.0805032 4.61241379,84.085955 6.39448276,83.4560976 L6.39448276,83.4560976 C7.02344828,83.2461452 7.65241379,83.5610739 7.86206897,84.1909312 L27.5696552,144.972165 L25.3682759,145.706998 C24.2151724,146.126903 22.8524138,145.497046 22.4331034,144.237331 Z" id="Shape" fill="url(#linearGradient-6)"></path>
                        <g transform="translate(0.000000, 146.966713)" id="Shape">
                            <path d="M17.4013793,0.839809788 C2.3062069,1.67961958 -0.943448276,10.3926461 0.524137931,19.2106489 C1.78206897,26.3490321 16.5627586,41.5705845 40.6731034,52.173183 C27.8841379,38.0013929 16.7724138,20.7852922 17.4013793,0.839809788 Z" fill="#273356"></path>
                            <path d="M38.8910345,3.35923915 C37.737931,3.1492867 36.5848276,2.83435803 35.3268966,2.62440559 C27.9889655,1.04976223 22.1186207,0.629857341 17.2965517,0.839809788 C16.7724138,20.7852922 27.7793103,37.8964167 40.5682759,52.173183 C52.8331034,57.6319467 67.5089655,61.8309956 84.0717241,63.1956865 C59.9613793,46.7144194 44.2372414,21.7300783 38.8910345,3.35923915 Z" fill="#131A32"></path>
                            <path d="M95.8124138,15.1165762 C95.1834483,15.6414573 94.24,15.956386 93.1917241,15.7464335 C89.7324138,15.3265286 84.4910345,14.0668139 77.3627586,12.3871944 C85.5393103,31.9127719 103.569655,44.8248474 128.623448,46.2945145 C134.493793,38.0013929 138.267586,27.713723 140.573793,17.4260531 C125.478621,30.0231999 109.544828,27.8186992 95.8124138,15.1165762 Z" fill="#131A32"></path>
                            <path d="M77.3627586,12.3871944 C67.9282759,10.0777175 55.1393103,6.82345452 38.8910345,3.35923915 C44.2372414,21.7300783 59.9613793,46.7144194 84.2813793,63.1956865 C87.9503448,63.5106152 91.7241379,63.7205676 95.497931,63.7205676 C110.802759,63.7205676 121.390345,56.5821844 128.623448,46.2945145 C103.569655,44.8248474 85.5393103,31.9127719 77.3627586,12.3871944 Z" fill="#273356"></path>
                        </g>
                        <path d="M4.61241379,198.824967 C4.61241379,205.123541 12.9986207,209.427566 21.9089655,209.427566 C30.8193103,209.427566 30.7144828,206.593208 35.222069,206.278279 C39.7296552,205.96335 43.1889655,209.007661 50.0027586,207.433018 C56.9213793,205.96335 59.2275862,195.570704 51.1558621,193.261227 C43.0841379,190.846774 37.8427586,193.891085 33.6496552,193.891085 C29.4565517,193.891085 26.6262069,190.426869 21.5944828,190.426869 C16.5627586,190.531846 4.61241379,192.63137 4.61241379,198.824967 Z" id="Shape" fill="#131A32"></path>
                        <g transform="translate(73.379310, 0.000000)" id="Shape">
                            <path d="M12.6841379,7.03340697 C12.6841379,7.03340697 12.5793103,7.13838319 12.6841379,7.03340697 C6.8137931,11.2324559 0.524137931,22.6748643 0.524137931,22.6748643 C4.82206897,27.0838656 16.7724138,32.5426293 24.6344828,35.7968922 C21.9089655,27.9236754 18.8689655,19.9454825 16.6675862,15.0116 C15.3048276,12.1772419 13.942069,9.44786011 12.6841379,7.03340697 Z" fill="#131A32"></path>
                            <path d="M50.6317241,3.04431048 C45.8096552,0.209952447 41.1972414,0.104976223 37.0041379,1.3646909 C33.1255172,0.734833564 29.3517241,0.944786011 25.9972414,1.57464335 C27.0455172,5.45876362 27.9889655,10.0777175 29.0372414,15.6414573 C30.8193103,25.4042461 31.2386207,32.8575579 31.2386207,38.6312502 C31.5531034,38.7362264 31.7627586,38.8412027 31.7627586,38.8412027 C31.7627586,38.8412027 35.1172414,33.9073202 38.5765517,27.6087468 L40.8827586,37.1615831 L31.7627586,61.6210432 C29.3517241,66.4499494 29.3517241,73.5883326 32.7062069,75.7928333 C32.7062069,75.7928333 44.8662069,73.1684277 51.0510345,73.1684277 C57.2358621,73.1684277 59.9613793,81.6715018 62.8965517,78.5222151 C65.8317241,75.3729284 77.677639,63.5106152 77.677639,55.1125173 C77.782069,46.504467 57.1310345,6.82345452 50.6317241,3.04431048 Z" fill="#016F80"></path>
                            <path d="M29.0372414,15.6414573 C28.0937931,10.0777175 27.0455172,5.45876362 25.9972414,1.57464335 C20.4413793,2.62440559 15.8289655,4.9338825 12.5793103,7.13838319 C13.8372414,9.55283633 15.2,12.2822181 16.5627586,15.2215524 C18.7641379,20.1554349 21.8041379,28.0286517 24.5296552,36.0068446 C27.6744828,37.2665593 30.0855172,38.2113453 31.1337931,38.6312502 C31.3434483,32.8575579 30.8193103,25.4042461 29.0372414,15.6414573 Z" fill="#273356"></path>
                        </g>
                        <path d="M126.212414,4.9338825 C126.736552,11.4424084 126.736552,19.4206013 124.954483,26.8739132 C120.866207,43.2502041 107.553103,56.6871607 105.246897,61.5160669 C102.835862,66.3449732 101.158621,73.5883326 106.190345,75.6878571 C111.222069,77.7873816 118.350345,73.0634515 124.535172,73.0634515 C130.72,73.0634515 135.961379,89.3347661 138.896552,86.1854794 C141.831724,83.0361927 151.895172,66.4499494 151.895172,57.9468753 C151.790345,50.283611 134.17931,13.9618377 126.212414,4.9338825 Z" id="Shape" fill="#273356"></path>
                        <path d="M124.011034,3.04431048 C119.188966,0.209952447 114.576552,0.104976223 110.383448,1.3646909 C106.504828,0.734833564 102.731034,0.944786011 99.3765517,1.57464335 L99.3765517,1.57464335 C99.4813793,2.09952447 99.5862069,2.51942936 99.7958621,3.04431048 L99.7958621,3.04431048 C99.9006897,3.5691916 100.005517,4.09407271 100.215172,4.61895383 L100.215172,4.72393005 C100.32,5.24881117 100.424828,5.77369229 100.529655,6.29857341 L100.529655,6.40354963 C100.634483,6.92843075 100.73931,7.45331186 100.844138,7.97819298 C100.844138,8.0831692 100.844138,8.18814543 100.948966,8.29312165 C101.053793,8.81800277 101.158621,9.34288389 101.263448,9.76278878 C101.263448,9.867765 101.263448,9.97274123 101.368276,10.0777175 C101.473103,10.6025986 101.577931,11.1274797 101.682759,11.6523608 C101.787586,11.9672895 101.787586,12.2822181 101.892414,12.4921706 C102.102069,13.5419328 102.311724,14.5916951 102.521379,15.6414573 C102.731034,16.7961958 102.94069,17.845958 103.045517,18.8957202 C103.045517,19.0006964 103.045517,19.2106489 103.150345,19.3156251 C103.255172,20.3653873 103.464828,21.3101734 103.569655,22.2549594 C103.569655,22.4649118 103.569655,22.569888 103.674483,22.7798405 C103.77931,23.7246265 103.884138,24.6694125 103.988966,25.5092223 C103.988966,25.6141985 103.988966,25.7191747 103.988966,25.9291272 C104.093793,26.8739132 104.198621,27.713723 104.303448,28.658509 L104.303448,28.658509 C104.408276,29.4983188 104.408276,30.3381286 104.513103,31.1779384 C104.513103,31.2829146 104.513103,31.3878908 104.513103,31.492867 C104.513103,32.3326768 104.617931,33.0675104 104.617931,33.8023439 C104.617931,33.9073202 104.617931,34.0122964 104.617931,34.1172726 C104.617931,34.8521062 104.617931,35.5869397 104.722759,36.2167971 C104.722759,36.3217733 104.722759,36.4267495 104.722759,36.4267495 C104.722759,37.1615831 104.722759,37.7914404 104.722759,38.526274 C104.617931,45.8746096 103.569655,50.3885873 102.94069,53.4328977 C101.997241,58.1568278 101.682759,62.2509005 104.093793,64.5603774 C104.408276,63.5106152 104.722759,62.4608529 105.246897,61.5160669 C107.657931,56.6871607 120.866207,43.2502041 124.954483,26.8739132 C126.841379,19.4206013 126.841379,11.4424084 126.212414,4.9338825 C125.373793,3.98909649 124.64,3.35923915 124.011034,3.04431048 Z" id="Shape" fill="#131A32"></path>
                        <path d="M143.613793,107.810581 C140.049655,150.955809 127.575172,181.188962 99.4813793,187.487535 C68.137931,194.415966 36.7944828,186.647725 21.0703448,176.77996 C11.4262069,170.691339 5.13655172,160.928551 3.66896552,152.950358 C0.314482759,156.414573 -0.419310345,161.348455 0.419310345,166.282338 C2.41103448,177.934699 40.1489655,210.792257 95.3931034,210.792257 C150.637241,210.792257 144.137931,118.623132 144.137931,118.623132 C144.242759,115.158917 144.033103,111.589726 143.613793,107.810581 Z" id="Shape" fill="#131A32" opacity="0.6"></path>
                        <path d="M138.162759,24.3544838 C141.622069,46.8193957 135.542069,52.6980642 128.518621,58.6817089 C121.495172,64.6653536 113.318621,63.7205676 104.722759,74.8480473 C105.142069,75.162976 105.561379,75.4779047 106.085517,75.6878571 C111.117241,77.7873816 118.245517,73.0634515 124.430345,73.0634515 C130.615172,73.0634515 135.856552,89.3347661 138.791724,86.1854794 C141.726897,83.0361927 151.790345,66.4499494 151.790345,57.9468753 C151.790345,53.2229453 145.186207,37.6864642 138.162759,24.3544838 Z" id="Shape" fill="#131A32" opacity="0.6"></path>
                    </g>
                    <g id="Group" transform="translate(209.000000, 258.000000)">
                        <path d="M35.5333333,1.9 C37.05,1.9 38.35,3.2 38.1333333,4.6 C37.05,12 31.9583333,22.3 24.05,22.3 C16.1416667,22.3 11.05,12 9.96666667,4.6 C9.75,3.2 10.9416667,1.9 12.5666667,1.9 L35.5333333,1.9 Z" id="Shape" fill="#016F80"></path>
                        <path d="M15.925,12.1 C10.4,13.5 -0.216666667,9.1 0.758333333,4.1 C1.73333333,-0.9 6.93333333,-0.7 9.75,1.9 C12.5666667,4.5 21.45,10.7 15.925,12.1 Z M8.45,3.9 C7.04166667,2.6 4.55,2.6 4.00833333,5 C3.575,7.4 8.775,9.6 11.4833333,8.9 C14.1916667,8.2 9.85833333,5.2 8.45,3.9 Z" id="Shape" fill="#016F80"></path>
                        <path d="M35.5333333,1.9 L29.9,1.9 C28.6,8.1 23.9416667,15.4 15.6,17.8 C17.875,20.5 20.6916667,22.3 24.05,22.3 C31.9583333,22.3 37.05,12 38.1333333,4.6 C38.35,3.2 37.05,1.9 35.5333333,1.9 Z" id="Shape" fill="#131A32" opacity="0.15"></path>
                    </g>
                    <g id="Group" transform="translate(86.000000, 354.000000)">
                        <path d="M28.1452991,2.4 C30.8860399,-0.2 35.9458689,-0.3 36.8945869,4.6 C37.8433048,9.5 27.5128205,13.9 22.1367521,12.6 C16.7606838,11.3 25.4045584,5 28.1452991,2.4 Z M26.4586895,9.4 C29.0940171,10.1 34.1538462,7.9 33.7321937,5.5 C33.3105413,3.1 30.7806268,3.1 29.4102564,4.4 C28.039886,5.7 23.8233618,8.7 26.4586895,9.4 Z" id="Shape" fill="#016F80"></path>
                        <path d="M28.1452991,2.4 C30.8860399,-0.2 35.9458689,-0.3 36.8945869,4.6 C37.8433048,9.5 27.5128205,13.9 22.1367521,12.6 C16.7606838,11.3 25.4045584,5 28.1452991,2.4 Z M26.4586895,9.4 C29.0940171,10.1 34.1538462,7.9 33.7321937,5.5 C33.3105413,3.1 30.7806268,3.1 29.4102564,4.4 C28.039886,5.7 23.8233618,8.7 26.4586895,9.4 Z" id="Shape" fill="#131A32" opacity="0.15"></path>
                        <path d="M3.05698006,2.4 C1.58119658,2.4 0.316239316,3.7 0.527065527,5.1 C1.58119658,12.5 6.53561254,22.8 14.2307692,22.8 C21.9259259,22.8 26.8803419,12.5 27.9344729,5.1 C28.1452991,3.7 26.985755,2.4 25.4045584,2.4 L3.05698006,2.4 Z" id="Shape" fill="#016F80"></path>
                        <path d="M25.4045584,2.4 L19.9230769,2.4 C18.6581197,8.6 14.1253561,15.9 6.00854701,18.3 C8.22222222,21 10.962963,22.8 14.2307692,22.8 C21.9259259,22.8 26.8803419,12.5 27.9344729,5.1 C28.1452991,3.7 26.8803419,2.4 25.4045584,2.4 Z" id="Shape" fill="#131A32" opacity="0.15"></path>
                    </g>
                    <g id="Group" transform="translate(68.000000, 374.000000)">
                        <polygon id="Shape" fill="#BF8673" points="119.894937 0.215384615 0.123645027 0.215384615 0.123645027 4.95384615 4.0109589 10.8769231 116.007624 10.8769231 119.894937 4.95384615"></polygon>
                        <polygon id="Shape" fill="#131A32" opacity="0.15" points="0.123645027 4.95384615 4.0109589 10.8769231 116.007624 10.8769231 119.894937 4.95384615"></polygon>
                    </g>
                    <path d="M432.049402,262.908668 C431.824957,261.223568 431.93718,257.537411 430.366065,256.378905 C429.019396,255.431036 426.774947,256.484223 425.5405,257.116136 C422.510493,258.48528 419.704932,260.275699 416.787148,261.960799 C416.674925,261.960799 416.674925,262.066118 416.674925,262.066118 C416.113813,262.171437 415.664923,262.592712 415.664923,263.224624 C415.328256,265.962912 414.767144,269.227794 415.103811,271.860763 C415.328256,273.335226 416.113813,273.861819 417.572705,273.967138 C420.378267,274.177776 423.74494,273.335226 426.438279,272.597994 C428.346061,272.0714 431.48829,271.755444 432.610514,269.965025 C433.620516,268.069287 432.386069,264.804406 432.049402,262.908668 Z" id="Shape" fill="#131A32" opacity="0.2"></path>
                    <path d="M427.83871,194.536513 C424.845161,191.750528 422.987097,188.073027 421.335484,184.284086 C421.129032,183.726889 420.612903,183.50401 420.096774,183.61545 C419.580645,182.612495 417.929032,182.835374 417.825806,184.284086 C417.412903,188.964542 417.309677,193.644998 417,198.214014 C417,198.771211 417.412903,199.439848 417.929032,199.551287 C422.470968,200.442803 427.012903,200.888561 431.658065,201 C432.380645,201 433,200.331363 433,199.551287 C433,196.319544 429.8,196.319544 427.83871,194.536513 Z" id="Shape" fill="#131A32" opacity="0.2"></path>
                    <path d="M469.703242,235.6 C469.602158,233.6 470.006494,230.9 469.298906,229 C469.096738,228.5 468.591318,228 467.984814,228 C466.064218,228.2 464.345791,229.5 462.728447,230.5 C461.919775,231 457.47208,235 456.764492,234.5 C456.157988,234.1 455.551484,234.3 455.147148,234.7 C454.843896,234.8 454.641729,235.1 454.540645,235.5 C454.035225,237.3 453.934141,239 454.035225,240.8 C454.035225,241.5 454.540645,242 455.248232,242 C458.078584,242 460.807851,242 463.638203,241.7 C465.053379,241.6 468.186982,241.9 469.298906,240.7 C470.511913,239.8 469.804326,237 469.703242,235.6 Z" id="Shape" fill="#131A32" opacity="0.2"></path>
                    <path d="M539.62705,285.076534 C533.260314,284.243935 529.350914,290.384356 526.893577,294.755504 C526.893577,294.859579 526.78188,294.859579 526.78188,294.963654 C526.558486,295.171803 526.335091,295.484028 526.335091,295.796253 C526.223394,297.045152 526.111697,298.294052 526,299.438876 C526,300.1674 526.670183,300.79185 527.452063,300.79185 C532.255039,300.895925 537.058016,300.895925 541.749296,301 C542.642873,301 543.089661,300.37555 543.201358,299.647026 C543.759844,295.900328 545.88209,285.909134 539.62705,285.076534 Z" id="Shape" fill="#131A32" opacity="0.2"></path>
                    <path d="M549.568652,192.816041 C546.719696,187.779592 542.287985,184.779155 537.539725,181.993035 C537.117657,181.778718 536.695589,181.778718 536.379039,181.885876 C535.956971,180.814292 534.2687,180.599975 533.95215,181.885876 C533.424565,184.671997 533.002497,187.458117 533.002497,190.244237 C533.002497,192.494565 532.896981,195.602161 534.057667,197.638172 C534.901802,199.13839 536.168005,199.567024 537.750758,199.674183 C540.916266,199.995658 544.398324,200.102817 547.563831,199.8885 C552.206575,199.459866 551.36244,195.923636 549.568652,192.816041 Z" id="Shape" fill="#131A32" opacity="0.2"></path>
                    <path d="M556.471035,222.423608 C554.970455,220.457629 552.719586,219.112485 550.5759,217.767341 C547.896294,216.111779 545.109503,214.352744 542.429896,212.697183 C542.001159,212.490237 541.679607,212.386765 541.358054,212.490237 C540.714948,211.662456 539,211.869402 539,213.214546 C539,216.318724 539.214369,219.422903 539.643106,222.527081 C539.964658,224.493061 539.857474,227.493766 541.25087,229.252801 C542.322712,230.701418 544.252029,230.597945 545.966977,230.80489 C548.860952,231.011835 552.183664,231.218781 555.077639,230.494472 C558.936273,229.356274 558.507536,225.217369 556.471035,222.423608 Z" id="Shape" fill="#131A32" opacity="0.2"></path>
                    <path d="M422.465972,207.001117 C420.205216,207.109424 418.396612,208.734029 416.92712,210.250328 C416.022818,211.225091 415.118516,212.308161 414.327251,213.391232 C413.309911,214.90753 412.744722,217.506899 410.82308,217.940127 C410.597004,218.048434 410.370929,218.156741 410.144853,218.265048 C409.466626,218.373355 408.901437,218.806583 409.014475,219.456425 C409.240551,221.189338 409.579664,222.92225 411.049155,224.005321 C412.970798,225.413312 415.90978,224.980084 418.170536,224.76347 C420.205216,224.655163 424.048501,224.76347 425.744068,223.355479 C427.213559,222.164101 426.987484,219.023197 426.987484,217.290285 C426.987484,214.690916 426.761408,206.89281 422.465972,207.001117 Z" id="Shape" fill="#131A32" opacity="0.2"></path>
                    <path d="M497.821091,189.595606 C497.606914,187.26596 496.857294,183.716023 495.143878,181.941054 C493.644638,180.387957 491.931222,181.05357 490.217805,181.830119 C485.612998,183.826958 482.293254,187.931573 480.794014,192.812737 C480.472749,192.923672 480.36566,193.145543 480.258572,193.589285 C480.044395,195.475189 479.401864,197.472029 481.543634,198.359513 C484.113759,199.468869 487.326415,198.914191 489.89654,198.359513 C491.824133,197.915771 495.143878,198.914191 496.750206,197.250158 C498.356534,195.475189 498.035268,191.703381 497.821091,189.595606 Z" id="Shape" fill="#131A32" opacity="0.2"></path>
                    <path d="M483.460084,292.839302 C480.945824,290.487361 476.231586,289.771552 473.088761,288.748969 C472.984001,288.748969 472.87924,288.748969 472.774479,288.646711 C472.355436,287.624128 470.46974,287.828645 470.36498,289.158003 C470.155458,292.123493 470.050697,295.088984 470.050697,298.054475 C470.050697,299.690608 469.631654,301.940291 471.203066,303.065132 C472.669718,304.189973 475.3935,303.985457 477.069673,303.985457 C479.688694,303.985457 482.412476,303.576423 484.926736,302.860615 C485.555301,302.656099 485.974344,302.144807 485.974344,301.531257 C486.079105,298.565767 485.974344,295.088984 483.460084,292.839302 Z" id="Shape" fill="#131A32" opacity="0.2"></path>
                    <g id="Group" transform="translate(300.000000, 293.000000)">
                        <path d="M69.4390244,1.36741833 C82.7560976,25.9809483 63.5203252,41.1277359 62.0406504,58.2730581 C60.5609756,75.4183802 78.2113821,122.015789 78.2113821,122.015789 L56.2276423,122.015789 C56.2276423,122.015789 46.8211382,88.2510753 48.300813,62.059755 C49.7804878,35.8684347 60.5609756,34.3958303 64.6829268,24.6135299 C68.804878,14.8312296 65.2113821,5.46967332 69.4390244,1.36741833 Z" id="Shape" fill="url(#linearGradient-7)"></path>
                        <path d="M56.2276423,122.015789 L67.8536585,122.015789 L70.7073171,100.347468 C66.0569106,85.8317967 61.195122,67.7398004 62.0406504,58.3782441 C62.2520325,56.0641515 62.7804878,53.750059 63.5203252,51.5411525 C62.2520325,48.9115018 61.195122,46.2818512 60.6666667,43.6522005 C59.8211382,39.0240154 60.2439024,34.3958303 60.9837398,30.5039474 C56.1219512,36.3943648 49.4634146,41.9692241 48.4065041,62.059755 C46.8211382,88.2510753 56.2276423,122.015789 56.2276423,122.015789 Z" id="Shape" fill="#131A32" opacity="0.1"></path>
                        <path d="M68.1707317,56.8004537 C80.4308943,50.3841062 85.7154472,44.8092468 87.195122,36.8151089 C88.6747967,28.820971 85.1869919,25.034274 85.1869919,25.034274 C85.1869919,25.034274 85.6097561,35.0269465 80.7479675,39.8655036 C75.9918699,44.7040608 69.1219512,49.3322459 68.1707317,56.8004537 Z" id="Shape" fill="url(#linearGradient-8)"></path>
                        <path d="M80.8536585,39.8655036 C65.7398374,43.1262704 61.6178862,60.1664065 61.5121951,90.880726 C61.4065041,121.174301 72.6097561,150.83676 69.9674797,165.878362 L87.8292683,165.878362 C87.8292683,165.878362 89.4146341,135.795159 86.7723577,116.651302 C84.0243902,97.6126316 72.6097561,87.9355172 72.6097561,67.3190563 C72.6097561,46.5974093 80.8536585,39.8655036 80.8536585,39.8655036 Z" id="Shape" fill="#6DC38D"></path>
                        <path d="M69.9674797,165.773176 L87.8292683,165.773176 C87.8292683,165.773176 89.4146341,135.689973 86.7723577,116.546116 C84.5528455,100.55784 76.097561,91.196284 73.4552846,76.3650544 C71.9756098,84.4643784 68.9105691,99.6111661 63.203252,113.600907 C66.1626016,135.269229 71.9756098,154.623457 69.9674797,165.773176 Z" id="Shape" fill="#131A32" opacity="0.1"></path>
                        <path d="M97.4471545,14.7260436 C108.96748,31.6609936 107.804878,47.7544555 105.585366,59.0093603 C103.365854,70.264265 99.0325203,73.7354038 95.5447154,88.5666334 C92.0569106,103.292677 91.6341463,165.878362 91.6341463,165.878362 L76.097561,165.878362 C76.097561,165.878362 75.7804878,110.971257 78.4227642,85.4110526 C81.0650407,59.7456624 84.8699187,52.9085708 87.5121951,48.5959437 C90.1544715,44.2833167 95.0162602,40.1810617 96.9186992,30.8195054 C98.8211382,21.3527632 97.4471545,14.7260436 97.4471545,14.7260436 Z" id="Shape" fill="url(#linearGradient-9)"></path>
                        <path d="M17.8617886,231.935186 C17.8617886,235.827069 33.0813008,238.877464 64.6829268,238.877464 C96.2845528,238.877464 111.504065,235.721883 111.504065,231.935186 C111.504065,228.148489 105.691057,224.992908 64.6829268,224.992908 C23.6747967,224.992908 17.8617886,228.043303 17.8617886,231.935186 Z" id="Shape" fill="#131A32" opacity="0.1"></path>
                        <path d="M95.1219512,69.0020327 C85.504065,81.5191697 84.4471545,93.7207486 83.601626,104.344537 C83.1788618,109.603838 82.7560976,114.442396 81.3821138,118.860209 C80.4308943,122.015789 78.7398374,125.276556 76.4146341,128.432137 C73.9837398,131.692904 70.9186992,134.848485 67.3252033,137.583321 C69.5447154,149.25897 71.2357724,159.146456 69.9674797,165.983548 L76.097561,165.983548 L87.8292683,165.983548 L91.6341463,165.983548 C91.6341463,165.983548 92.0569106,103.503049 95.5447154,88.6718194 C99.0325203,73.9457759 103.365854,70.369451 105.585366,59.1145463 C105.796748,58.2730581 105.902439,57.4315699 106.00813,56.5900817 C102.731707,59.7456624 99.0325203,63.9531034 95.1219512,69.0020327 Z" id="Shape" fill="#131A32" opacity="0.1"></path>
                        <path d="M111.504065,45.440363 C111.504065,45.440363 122.178862,65.7412659 99.7723577,97.8230036 C99.7723577,97.8230036 122.178862,84.7799365 123.97561,71.6316833 C125.772358,58.3782441 119.747967,48.4907577 111.504065,45.440363 Z" id="Shape" fill="url(#linearGradient-10)"></path>
                        <path d="M83.3902439,165.773176 C79.902439,140.949274 82.5447154,121.489859 91.5284553,106.343072 C100.512195,91.196284 116.577236,88.8821915 118.902439,71.6316833 C121.227642,54.3811751 111.504065,45.440363 111.504065,45.440363 C111.504065,45.440363 132.95935,49.75299 128.626016,78.468775 C124.292683,107.18456 106.430894,111.917931 99.7723577,129.378811 C93.1138211,146.839691 93.9593496,165.878362 93.9593496,165.878362 L83.3902439,165.878362 L83.3902439,165.773176 L83.3902439,165.773176 Z" id="Shape" fill="#6DC38D"></path>
                        <path d="M9.72357724,55.5382214 C14.3739837,73.6302178 7.92682927,85.5162387 11.203252,109.709025 C14.3739837,133.90181 28.2195122,143.158181 27.5853659,165.773176 L49.5691057,165.773176 C49.5691057,165.773176 37.8373984,142.63225 31.3902439,120.543185 C24.9430894,98.4541198 24.4146341,82.3606579 20.2926829,69.0020327 C16.1707317,55.6434074 6.55284553,45.0196189 6.55284553,29.6624592 C3.27642276,45.440363 9.72357724,55.5382214 9.72357724,55.5382214 Z" id="Shape" fill="url(#linearGradient-11)"></path>
                        <path d="M49.4634146,165.773176 C49.4634146,165.773176 37.7317073,142.63225 31.2845528,120.543185 C29.9105691,115.915 28.8536585,111.707559 28.0081301,107.605304 C25.3658537,116.335744 20.9268293,124.750626 17.2276423,130.851416 C22.195122,142.10632 27.902439,151.152319 27.4796748,165.878362 L49.4634146,165.773176 L49.4634146,165.773176 Z" id="Shape" fill="#131A32" opacity="0.1"></path>
                        <path d="M8.66666667,28.5054129 C5.49593496,46.1766652 16.0650407,55.6434074 20.1869919,69.0020327 C22.6178862,76.9961706 23.7804878,85.9369828 25.7886179,96.4555853 C25.7886179,96.4555853 19.6585366,78.8895191 16.1707317,71.3161252 C12.6829268,63.7427314 2.00813008,57.3263838 0.317073171,46.7025953 C-1.37398374,36.0788067 8.66666667,28.5054129 8.66666667,28.5054129 Z" id="Shape" fill="#6DC38D"></path>
                        <path d="M73.4552846,165.773176 C73.4552846,119.912069 54.4308943,96.3503993 53.2682927,73.3146597 C52.1056911,50.2789201 66.6910569,37.7617831 51.4715447,0.210372051 C40.902439,20.3009029 44.7073171,52.9085708 44.7073171,66.8983122 C44.7073171,80.8880535 38.8943089,94.5622368 42.3821138,117.913534 C45.8699187,141.264832 51.7886179,165.773176 51.7886179,165.773176 L73.4552846,165.773176 Z" id="Shape" fill="url(#linearGradient-12)"></path>
                        <path d="M54.5365854,165.773176 L41.4308943,165.773176 C41.4308943,165.773176 30.0162602,142.10632 28.8536585,115.704628 C28.3252033,104.660095 30.1219512,88.9873775 32.3414634,74.576892 C37.5203252,81.2036116 44.3902439,87.7251452 49.5691057,97.8230036 C58.4471545,115.283884 59.6097561,150.626388 54.5365854,165.773176 Z" id="Shape" fill="#6DC38D"></path>
                        <path d="M36.9918699,27.1379946 C36.9918699,27.1379946 34.8780488,40.0758757 35.6178862,55.2226633 C36.3577236,70.369451 40.4796748,80.3621234 49.4634146,97.8230036 C44.2845528,87.8303312 37.4146341,81.2036116 32.2357724,74.576892 C28.4308943,69.6331488 25.5772358,64.6894056 25.2601626,58.1678721 C24.5203252,43.0210844 36.9918699,27.1379946 36.9918699,27.1379946 Z" id="Shape" fill="url(#linearGradient-13)"></path>
                        <path d="M49.4634146,97.8230036 C44.2845528,87.8303312 37.4146341,81.2036116 32.2357724,74.576892 C31.7073171,78.1532169 31.1788618,81.8347278 30.6504065,85.5162387 C42.804878,103.608235 50.203252,123.803952 48.195122,136.531461 C46.7154472,145.998203 41.5365854,151.678249 35.300813,150.31083 C38.3658537,159.777573 41.3252033,165.773176 41.3252033,165.773176 L54.4308943,165.773176 C59.6097561,150.626388 58.4471545,115.283884 49.4634146,97.8230036 Z" id="Shape" fill="#131A32" opacity="0.1"></path>
                        <g opacity="0.1" transform="translate(86.666667, 89.408122)" fill="#131A32" id="Shape">
                            <path d="M0.845528455,76.3650544 L7.29268293,76.3650544 C7.29268293,76.3650544 6.55284553,57.3263838 13.1056911,39.8655036 C18.8130081,24.929088 32.7642276,19.3542287 39.3170732,0.105186025 C23.2520325,21.7735073 -3.48780488,14.7260436 0.845528455,76.3650544 Z"></path>
                        </g>
                        <path d="M17.8617886,167.771711 C17.8617886,206.374982 29.9105691,232.987046 64.6829268,232.987046 C99.4552846,232.987046 111.504065,206.374982 111.504065,167.771711 C111.504065,159.567201 86.1382114,159.567201 64.6829268,159.567201 C43.2276423,159.567201 17.8617886,159.567201 17.8617886,167.771711 Z" id="Shape" fill="#BF8673"></path>
                        <path d="M64.6829268,159.567201 C43.2276423,159.567201 17.8617886,159.567201 17.8617886,167.771711 C17.8617886,171.768779 17.9674797,175.660662 18.2845528,179.342173 C21.5609756,174.293244 44.8130081,174.293244 64.6829268,174.293244 C84.5528455,174.293244 107.804878,174.293244 111.081301,179.342173 C111.398374,175.660662 111.504065,171.768779 111.504065,167.771711 C111.504065,159.567201 86.1382114,159.567201 64.6829268,159.567201 Z" id="Shape" fill="#C99988"></path>
                        <path d="M75.2520325,216.683212 C44.8130081,216.683212 33.7154472,193.963031 33.0813008,160.619061 C24.097561,161.670921 17.8617886,163.669456 17.8617886,167.771711 C17.8617886,206.374982 29.9105691,232.987046 64.6829268,232.987046 C87.9349593,232.987046 101.04065,221.101025 107.170732,201.641611 C100.512195,211.213539 90.1544715,216.683212 75.2520325,216.683212 Z" id="Shape" fill="#131A32" opacity="0.1"></path>
                    </g>
                    <path d="M558,224.483895 C554.405405,225.264139 545.675676,226.239443 543.518919,225.946852 C539.410811,222.533287 539,212 539,212 L554.405405,212 C554.302703,212 553.994595,219.314782 558,224.483895 Z" id="Shape" fill="#EBE84E"></path>
                    <path d="M551,194.314018 C547.422913,194.880572 538.633501,195.258275 536.487249,194.786146 C532.603555,191.292397 533.012365,181 533.012365,181 L548.240533,181.944257 C548.240533,182.038682 547.422913,189.120607 551,194.314018 Z" id="Shape" fill="#F48BA1"></path>
                    <path d="M411,268.483895 C414.594595,269.264139 423.324324,270.239443 425.481081,269.946852 C429.589189,266.533287 430,256 430,256 L414.594595,256 C414.697297,256 415.005405,263.412313 411,268.483895 Z" id="Shape" fill="#EBE84E"></path>
                    <path d="M471.345455,238.116459 C471.345455,238.116459 458.036364,239.804818 454,238.51372 C457.927273,235.931523 455.636364,226 455.636364,226 L472,226 L471.345455,238.116459 Z" id="Shape" fill="#EBE84E"></path>
                    <path d="M417,193.25593 C417,193.25593 430.584906,195.767391 435,194.762806 C431.150943,191.849512 434.320755,182.004584 434.320755,182.004584 L417.45283,181 L417,193.25593 Z" id="Shape" fill="#C0D959"></path>
                    <path d="M543.345455,295.116459 C543.345455,295.116459 530.036364,296.804818 526,295.51372 C529.927273,292.931523 527.636364,283 527.636364,283 L544,283 L543.345455,295.116459 Z" id="Shape" fill="#F48BA1"></path>
                    <polygon id="Rectangle-path" fill="#EBE84E" points="475 239 491 239 491 255 475 255"></polygon>
                    <polygon id="Rectangle-path" fill="#EBE84E" transform="translate(474.253272, 268.914429) rotate(-86.000287) translate(-474.253272, -268.914429) " points="465.999787 260.670975 482.508167 260.669565 482.506757 277.157884 465.998377 277.159293"></polygon>
                    <polygon id="Rectangle-path" fill="#F48BA1" transform="translate(523.717932, 205.487116) rotate(-3.999713) translate(-523.717932, -205.487116) " points="515.474478 197.233631 531.962796 197.232221 531.961386 213.740602 515.473068 213.742011"></polygon>
                    <polygon id="Rectangle-path" fill="#F48BA1" points="454 202 470 202 470 218 454 218"></polygon>
                    <polygon id="Rectangle-path" fill="#F48BA1" points="524 230 540 230 540 246 524 246"></polygon>
                    <polygon id="Rectangle-path" fill="#8AD6F1" transform="translate(489.873691, 221.995595) rotate(-86.000287) translate(-489.873691, -221.995595) " points="481.620206 213.752141 498.128586 213.750731 498.127176 230.239049 481.618796 230.240459"></polygon>
                    <path d="M527,259 C527,259 525.135252,270.134812 527,274.465017 C521.198561,275.496018 512.703597,274.774317 511.460432,274.465017 C510.42446,270.134812 511.460432,259 511.460432,259 L527,259 Z" id="Shape" fill="#C0D959"></path>
                    <path d="M488.870051,284 C488.870051,284 487.740101,296.230836 490,300.719217 C483.785278,302.29015 474.519693,302.065731 473.163754,301.841312 C471.69482,297.240722 472.033805,285.122095 472.033805,285.122095 L488.870051,284 Z" id="Shape" fill="#8AD6F1"></path>
                    <path d="M409,205 C409,205 410.864748,216.134812 409,220.465017 C414.801439,221.496018 423.296403,220.774317 424.539568,220.465017 C425.57554,216.134812 424.539568,205 424.539568,205 L409,205 Z" id="Shape" fill="#8AD6F1"></path>
                    <path d="M479,181 C479,181 480.864748,192.134812 479,196.465017 C484.801439,197.496018 493.296403,196.774317 494.539568,196.465017 C495.57554,192.134812 494.539568,181 494.539568,181 L479,181 Z" id="Shape" fill="#EBE84E"></path>
                    <polygon id="Rectangle-path" fill="#C0D959" transform="translate(541.941754, 261.963491) rotate(-3.999713) translate(-541.941754, -261.963491) " points="533.6983 253.710006 550.186618 253.708596 550.185208 270.216976 533.69689 270.218386"></polygon>
                    <polygon id="Rectangle-path" fill="#C0D959" transform="translate(427.392016, 236.766339) rotate(-3.999713) translate(-427.392016, -236.766339) " points="419.148561 228.512854 435.63688 228.511444 435.63547 245.019824 419.147152 245.021234"></polygon>
                    <g id="Group" transform="translate(133.000000, 302.000000)">
                        <path d="M36.8780488,22.7985149 L27.8634146,22.7985149 C27.2487805,17.1784158 26.8390244,13.3609901 26.8390244,13.3609901 L20.5902439,13.3609901 L20.5902439,8.27108911 C21.9219512,7.63485149 22.8439024,6.25633663 22.8439024,4.55970297 C22.8439024,2.33287129 21.102439,0.424158416 18.8487805,0.424158416 C16.595122,0.424158416 14.8536585,2.22683168 14.8536585,4.55970297 C14.8536585,6.15029703 15.7756098,7.63485149 17.1073171,8.27108911 L17.1073171,13.3609901 L10.8585366,13.3609901 C10.8585366,13.3609901 10.4487805,17.1784158 9.83414634,22.7985149 L0.512195122,22.7985149 L8.09268293,40.2950495 C6.65853659,54.3983168 5.22439024,69.2438614 5.22439024,72.1069307 C5.22439024,77.8330693 9.42439024,83.8773267 13.2146341,83.8773267 C17.004878,83.8773267 20.795122,83.8773267 24.5853659,83.8773267 C28.3756098,83.8773267 32.5756098,78.3632673 32.5756098,72.1069307 C32.5756098,69.9861386 31.8585366,62.2452475 31.0390244,53.1258416 L41.0780488,29.3729703 C42.4097561,26.2978218 40.1560976,22.7985149 36.8780488,22.7985149 Z M35.6487805,30.8575248 L30.0146341,43.900396 C29.4,38.1742574 28.8878049,32.4481188 28.3756098,27.570297 L33.6,27.570297 C35.2390244,27.570297 36.3658537,29.2669307 35.6487805,30.8575248 Z" id="Shape" fill="#63637E"></path>
                        <path d="M32.4731707,70.1982178 C31.1414634,72.8492079 28.8878049,74.0156436 26.5317073,74.0156436 C22.3317073,74.0156436 17.2097561,74.3337624 17.2097561,64.3660396 C17.2097561,55.9889109 17.2097561,23.4347525 17.2097561,13.3609901 L10.9609756,13.3609901 C10.9609756,13.3609901 10.0390244,22.2683168 8.91219512,33.190396 L4.40487805,22.7985149 L0.614634146,22.7985149 L8.19512195,40.2950495 C6.76097561,54.3983168 5.32682927,69.2438614 5.32682927,72.1069307 C5.32682927,77.8330693 9.52682927,83.8773267 13.3170732,83.8773267 C17.1073171,83.8773267 20.897561,83.8773267 24.6878049,83.8773267 C28.4780488,83.8773267 32.6780488,78.3632673 32.6780488,72.1069307 C32.5756098,71.7888119 32.5756098,71.0465347 32.4731707,70.1982178 Z" id="Shape" fill="#131A32" opacity="0.2"></path>
                    </g>
                    <g id="Group" opacity="0.4" transform="translate(403.000000, 23.000000)" fill="#131A32">
                        <path d="M61.8782609,59.724 C62.0869565,63.516 62.2956522,67.2026667 62.6086957,70.9946667 C62.7130435,72.364 62.4,73.312 63.6521739,73.944 C65.1130435,74.6813333 69.7043478,73.1013333 70.8521739,72.8906667 C72.626087,72.68 74.5043478,72.5746667 76.2782609,72.4693333 C77.9478261,72.364 80.1391304,72.8906667 81.7043478,72.4693333 C84.4173913,71.8373333 83.5826087,68.888 83.6869565,66.36 C83.7913043,63.832 84.626087,59.5133333 83.373913,57.196 C83.2695652,56.9853333 83.0608696,56.88 82.7478261,56.88 C78.6782609,56.88 74.2956522,58.144 70.226087,58.46 C67.6173913,58.6706667 65.0086957,58.8813333 62.4,58.9866667 C61.5652174,58.9866667 61.5652174,60.356 62.4,60.356 C65.7391304,60.2506667 68.973913,59.9346667 72.3130435,59.6186667 C74.4,59.408 76.5913043,59.1973333 78.6782609,58.8813333 C79.3043478,58.776 81.8086957,57.9333333 82.3304348,58.46 C82.6434783,58.6706667 82.4347826,60.5666667 82.4347826,60.988 C82.5391304,63.516 82.4347826,65.9386667 82.3304348,68.4666667 C82.3304348,69.3093333 82.4347826,70.5733333 81.7043478,71.2053333 C81.0782609,71.732 76.4869565,71.2053333 75.4434783,71.2053333 C73.3565217,71.3106667 71.2695652,71.5213333 69.1826087,71.8373333 C68.6608696,71.9426667 66.4695652,72.4693333 65.9478261,72.364 C62.8173913,71.6266667 63.5478261,68.572 63.4434783,66.1493333 C63.3391304,64.0426667 63.1304348,61.8306667 63.026087,59.724 C63.026087,58.9866667 61.8782609,58.8813333 61.8782609,59.724 Z" id="Shape"></path>
                        <path d="M92.4521739,58.46 C92.3478261,61.62 92.2434783,64.8853333 92.3478261,68.0453333 C92.3478261,69.4146667 92.2434783,70.152 93.3913043,70.784 C95.2695652,71.8373333 99.6521739,70.784 101.73913,70.6786667 C104.869565,70.468 108.104348,70.152 111.234783,69.7306667 C111.443478,69.7306667 111.652174,69.4146667 111.756522,69.204 C112.069565,67.0973333 112.382609,64.8853333 112.591304,62.7786667 C112.8,60.8826667 113.321739,58.144 112.8,56.3533333 C112.278261,54.352 110.921739,54.8786667 109.252174,55.0893333 C103.826087,56.0373333 98.5043478,56.9853333 93.0782609,57.7226667 C92.2434783,57.828 92.5565217,59.092 93.3913043,58.9866667 C95.6869565,58.6706667 97.9826087,58.2493333 100.382609,57.9333333 C102.26087,57.6173333 104.034783,57.3013333 105.808696,56.9853333 C108.208696,56.564 110.817391,55.3 111.443478,58.46 C111.756522,60.1453333 111.547826,66.044 110.713043,67.308 C109.252174,69.52 103.513043,69.0986667 101.113043,69.204 C99.7565217,69.3093333 98.0869565,69.52 96.8347826,69.3093333 C94.7478261,69.0986667 94.226087,68.572 93.8086957,66.4653333 C93.2869565,64.0426667 93.8086957,60.7773333 93.9130435,58.2493333 C93.7043478,57.7226667 92.4521739,57.7226667 92.4521739,58.46 Z" id="Shape"></path>
                        <path d="M101.843478,48.98 C102.052174,51.6133333 102.365217,54.2466667 102.991304,56.88 C103.2,57.7226667 104.452174,57.4066667 104.243478,56.564 C103.826087,54.036 103.408696,51.6133333 103.2,49.0853333 C103.095652,48.1373333 101.73913,48.1373333 101.843478,48.98 L101.843478,48.98 Z" id="Shape"></path>
                        <path d="M72,58.776 C72.5217391,54.7733333 72.5217391,52.6666667 76.6956522,51.9293333 C79.6173913,51.4026667 82.5391304,51.0866667 85.4608696,50.7706667 C92.8695652,49.928 100.278261,49.4013333 107.686957,48.7693333 C114.156522,48.348 120.626087,47.9266667 127.095652,47.6106667 C128.243478,47.6106667 129.391304,47.4 130.434783,47.5053333 C131.895652,47.6106667 130.852174,46.5573333 131.269565,47.716 C131.895652,49.7173333 131.269565,52.9826667 131.269565,55.1946667 C131.269565,56.0373333 132.626087,56.0373333 132.626087,55.1946667 C132.626087,52.3506667 132.626087,49.612 132.626087,46.768 C132.626087,46.452 132.313043,46.136 132,46.136 C119.686957,46.452 107.269565,47.4 94.9565217,48.5586667 C89.1130435,49.0853333 83.373913,49.612 77.6347826,50.56 C76.173913,50.7706667 73.3565217,50.7706667 72.2086957,51.9293333 C70.8521739,53.2986667 71.1652174,56.6693333 70.8521739,58.5653333 C70.7478261,59.3026667 71.8956522,59.5133333 72,58.776 L72,58.776 Z" id="Shape"></path>
                        <path d="M86.1913043,41.08 C86.6086957,43.8186667 86.8173913,46.5573333 87.2347826,49.296 C87.3391304,50.1386667 88.5913043,49.8226667 88.4869565,48.98 C88.0695652,46.2413333 87.7565217,43.5026667 87.3391304,40.764 C87.2347826,40.0266667 86.0869565,40.3426667 86.1913043,41.08 L86.1913043,41.08 Z" id="Shape"></path>
                        <path d="M69.8086957,36.4453333 C70.3304348,42.976 79.5130435,42.028 84.1043478,41.712 C89.2173913,41.2906667 98.7130435,41.08 100.8,35.076 C105.286957,21.9093333 70.8521739,22.752 69.8086957,36.4453333 C69.7043478,37.288 70.9565217,37.288 71.0608696,36.4453333 C71.6869565,29.388 81.2869565,27.808 86.8173913,27.3866667 C89.6347826,27.176 93.0782609,26.9653333 95.8956522,27.9133333 C101.426087,29.9146667 100.173913,36.024 95.6869565,38.1306667 C91.3043478,40.2373333 71.7913043,43.924 71.0608696,36.4453333 C70.8521739,35.708 69.7043478,35.708 69.8086957,36.4453333 Z" id="Shape"></path>
                        <path d="M42.1565217,37.604 C41.9478261,39.5 42.0521739,41.5013333 42.3652174,43.3973333 C42.4695652,44.24 43.826087,43.924 43.6173913,43.0813333 C43.3043478,41.2906667 43.2,39.3946667 43.4086957,37.604 C43.5130435,36.7613333 42.2608696,36.7613333 42.1565217,37.604 L42.1565217,37.604 Z" id="Shape"></path>
                        <path d="M53.9478261,42.7653333 C54.8869565,46.6626667 56.5565217,51.7186667 51.7565217,53.1933333 C48.626087,54.1413333 44.4521739,53.9306667 41.2173913,54.1413333 C39.2347826,54.352 33.2869565,55.8266667 31.6173913,54.8786667 C29.8434783,53.8253333 29.5304348,47.1893333 31.0956522,46.0306667 C32.1391304,45.2933333 35.6869565,45.3986667 36.7304348,45.188 C39.026087,44.872 41.3217391,44.6613333 43.6173913,44.3453333 C47.2695652,43.924 50.9217391,43.5026667 54.6782609,43.1866667 C55.6173913,43.0813333 55.6173913,41.712 54.6782609,41.8173333 C48.1043478,42.344 41.5304348,43.1866667 35.0608696,44.0293333 C33.7043478,44.24 30.4695652,44.0293333 29.426087,45.188 C27.6521739,47.084 29.0086957,53.1933333 29.0086957,55.616 C29.0086957,55.932 29.3217391,56.3533333 29.7391304,56.3533333 C34.226087,56.0373333 38.7130435,55.7213333 43.2,55.4053333 C46.3304348,55.1946667 52.0695652,55.616 54.8869565,54.2466667 C58.3304348,52.6666667 56.1391304,45.188 55.3043478,42.344 C54.9913043,41.6066667 53.8434783,41.9226667 53.9478261,42.7653333 Z" id="Shape"></path>
                        <path d="M59.6869565,5.688 C61.4608696,5.688 72.4173913,10.3226667 72.5217391,10.6386667 C72.626087,11.9026667 62.5043478,17.9066667 60.8347826,17.8013333 C59.2695652,17.696 56.3478261,15.5893333 54.8869565,14.9573333 C54.7826087,14.852 50.9217391,12.8506667 51.5478261,14.22 C51.5478261,14.1146667 52.3826087,13.3773333 52.3826087,13.3773333 C54.9913043,10.8493333 57.1826087,7.79466667 60,5.58266667 C60.7304348,5.056 60,3.792 59.2695652,4.31866667 C56.0347826,6.84666667 53.3217391,10.2173333 50.5043478,13.1666667 C50.1913043,13.4826667 50.1913043,14.1146667 50.6086957,14.3253333 C53.2173913,15.5893333 55.826087,16.9586667 58.4347826,18.1173333 C59.4782609,18.5386667 60.3130435,19.276 61.4608696,19.0653333 C63.2347826,18.8546667 65.5304348,16.8533333 67.0956522,15.9053333 C69.4956522,14.4306667 72,12.7453333 74.1913043,10.9546667 C74.5043478,10.6386667 74.4,10.0066667 74.0869565,9.90133333 C71.2695652,8.63733333 68.4521739,7.37333333 65.6347826,6.32 C63.9652174,5.58266667 61.6695652,4.21333333 59.7913043,4.31866667 C58.8521739,4.424 58.8521739,5.58266667 59.6869565,5.688 Z" id="Shape"></path>
                        <path d="M61.9826087,19.276 C61.9826087,18.2226667 60.4173913,18.328 60.4173913,19.3813333 C60.4173913,19.908 60.626087,20.4346667 60.7304348,20.856 C60.8347826,21.3826667 61.0434783,22.0146667 61.1478261,22.5413333 C61.3565217,23.384 62.6086957,23.068 62.4,22.2253333 C62.2956522,21.6986667 62.0869565,21.172 61.9826087,20.6453333 C61.8782609,20.3293333 61.5652174,19.4866667 61.6695652,19.1706667 C61.5652174,19.276 61.4608696,19.3813333 61.3565217,19.592 C61.3565217,19.592 61.4608696,19.592 61.4608696,19.4866667 C61.2521739,19.4866667 61.1478261,19.4866667 60.9391304,19.592 L61.0434783,19.592 C60.9391304,19.4866667 60.7304348,19.276 60.626087,19.1706667 L60.626087,19.276 C61.0434783,20.1186667 61.9826087,20.0133333 61.9826087,19.276 L61.9826087,19.276 Z" id="Shape"></path>
                        <path d="M42.8869565,28.8613333 C40.6956522,23.7 47.0608696,24.8586667 50.2956522,24.4373333 C54.7826087,23.9106667 59.1652174,23.4893333 63.6521739,23.068 C67.7217391,22.6466667 71.8956522,22.3306667 75.9652174,22.0146667 C77.9478261,21.804 80.0347826,21.3826667 82.0173913,21.488 C86.0869565,21.6986667 86.0869565,22.3306667 86.5043478,26.4386667 C86.6086957,27.2813333 87.9652174,27.2813333 87.8608696,26.4386667 C87.6521739,24.332 87.2347826,22.3306667 86.7130435,20.224 C86.6086957,19.908 86.4,19.6973333 86.0869565,19.6973333 C73.4608696,20.7506667 60.9391304,22.12 48.3130435,23.384 C46.6434783,23.4893333 42.8869565,22.8573333 41.6347826,24.016 C40.3826087,25.1746667 41.3217391,28.2293333 41.9478261,29.4933333 C42.1565217,30.2306667 43.2,29.5986667 42.8869565,28.8613333 L42.8869565,28.8613333 Z" id="Shape"></path>
                        <path d="M28.6956522,32.864 C25.1478261,32.6533333 21.4956522,32.7586667 17.9478261,32.7586667 C15.2347826,32.7586667 12,32.232 9.39130435,32.9693333 C9.1826087,33.0746667 8.97391304,33.18 8.97391304,33.3906667 C8.24347826,36.5506667 9.39130435,40.448 9.49565217,43.608 C9.49565217,44.4506667 10.8521739,44.4506667 10.8521739,43.608 C10.7478261,41.8173333 10.6434783,40.0266667 10.4347826,38.3413333 C10.3304348,37.604 9.91304348,36.024 10.226087,35.392 C10.9565217,33.9173333 12.9391304,34.128 14.1913043,34.128 C19.0956522,34.128 24,34.2333333 28.8,34.0226667 C29.5304348,34.0226667 29.5304348,32.864 28.6956522,32.864 L28.6956522,32.864 Z" id="Shape"></path>
                        <path d="M22.6434783,42.2386667 C15.3391304,43.0813333 8.24347826,43.924 1.14782609,45.9253333 C0.834782609,46.0306667 0.626086957,46.2413333 0.626086957,46.5573333 C0.730434783,49.4013333 0.834782609,52.3506667 0.939130435,55.1946667 C0.939130435,55.5106667 1.25217391,55.8266667 1.56521739,55.8266667 C8.34782609,55.8266667 16.173913,55.1946667 22.6434783,53.1933333 C23.8956522,52.772 24.1043478,52.8773333 24.5217391,51.824 C25.4608696,49.7173333 24.3130435,44.556 24.2086957,42.344 C24.2086957,41.5013333 22.8521739,41.5013333 22.8521739,42.344 C22.8521739,44.3453333 23.2695652,46.5573333 23.0608696,48.5586667 C22.7478261,51.824 20.973913,52.14 18.0521739,52.6666667 C15.3391304,53.1933333 12.626087,53.6146667 9.91304348,53.9306667 C8.13913043,54.1413333 3.96521739,55.0893333 2.60869565,53.9306667 C1.46086957,52.8773333 1.56521739,48.664 2.4,47.4 C3.54782609,45.7146667 6.99130435,45.6093333 8.86956522,45.188 C13.3565217,44.3453333 18.0521739,43.924 22.5391304,43.292 C23.373913,43.3973333 23.2695652,42.2386667 22.6434783,42.2386667 L22.6434783,42.2386667 Z" id="Shape"></path>
                        <path d="M12,55.0893333 C12.7304348,57.7226667 13.2521739,60.356 13.6695652,63.0946667 C13.773913,63.832 15.026087,63.6213333 14.9217391,62.884 C14.6086957,60.1453333 14.0869565,57.4066667 13.1478261,54.7733333 C12.8347826,54.036 11.7913043,54.352 12,55.0893333 L12,55.0893333 Z" id="Shape"></path>
                        <path d="M18.0521739,62.7786667 C15.5478261,63.2 13.0434783,63.6213333 10.5391304,64.148 C9.39130435,64.3586667 7.09565217,64.5693333 6.26086957,65.6226667 C5.53043478,66.4653333 5.94782609,68.4666667 5.94782609,69.4146667 C5.94782609,72.364 5.94782609,75.3133333 6.05217391,78.2626667 C6.05217391,78.684 6.46956522,79 6.88695652,78.8946667 C12.8347826,77.2093333 18.7826087,75.9453333 24.9391304,75.3133333 C27.1304348,75.1026667 28.2782609,75.208 28.4869565,72.8906667 C28.6956522,70.5733333 27.5478261,67.2026667 27.1304348,64.8853333 C26.8173913,63.3053333 26.9217391,62.3573333 25.5652174,61.7253333 C23.0608696,60.4613333 16.6956522,62.884 14.4,63.6213333 C13.5652174,63.9373333 13.8782609,65.2013333 14.7130435,64.8853333 C17.0086957,64.148 23.0608696,61.8306667 25.0434783,63.3053333 C26.1913043,64.148 26.1913043,67.0973333 26.4,68.4666667 C26.8173913,70.6786667 27.8608696,72.5746667 24.9391304,73.944 C22.9565217,74.892 19.3043478,74.6813333 17.1130435,74.9973333 C13.5652174,75.6293333 10.0173913,76.472 6.57391304,77.5253333 C6.88695652,77.736 7.09565217,77.9466667 7.40869565,78.1573333 C7.40869565,74.892 6.36521739,69.7306667 8.45217391,67.2026667 C10.4347826,64.6746667 15.4434783,64.5693333 18.573913,63.9373333 C19.0956522,63.832 18.7826087,62.6733333 18.0521739,62.7786667 L18.0521739,62.7786667 Z" id="Shape"></path>
                        <path d="M42.3652174,28.5453333 C39.5478261,28.6506667 27.7565217,28.5453333 29.0086957,34.128 C29.9478261,38.6573333 39.6521739,37.7093333 42.6782609,37.7093333 C45.8086957,37.7093333 54.2608696,38.0253333 54.7826087,33.2853333 C55.4086957,27.492 45.3913043,28.2293333 42.3652174,28.5453333 C41.5304348,28.5453333 41.5304348,29.8093333 42.3652174,29.8093333 C44.6608696,29.704 47.0608696,29.5986667 49.3565217,30.02 C50.2956522,30.1253333 51.2347826,30.4413333 52.0695652,30.8626667 C52.3826087,31.916 52.5913043,33.0746667 52.9043478,34.128 C51.5478261,36.8666667 44.2434783,36.2346667 41.8434783,36.1293333 C39.6521739,36.1293333 33.3913043,36.7613333 31.826087,35.076 C27.5478261,30.5466667 40.3826087,29.9146667 42.4695652,29.704 C43.0956522,29.704 43.0956522,28.5453333 42.3652174,28.5453333 Z" id="Shape"></path>
                        <path d="M120.417391,56.6693333 C120.313043,59.1973333 120.208696,61.7253333 120.208696,64.2533333 C120.208696,65.5173333 119.686957,67.624 120.313043,68.7826667 C121.46087,70.784 124.278261,70.152 126.156522,70.152 C128.869565,70.0466667 131.686957,69.9413333 134.4,69.836 C136.382609,69.7306667 140.13913,70.3626667 141.808696,69.52 C143.686957,68.572 143.269565,67.624 143.269565,65.2013333 C143.269565,62.7786667 143.791304,59.8293333 143.269565,57.4066667 C143.165217,56.88 143.269565,56.248 142.747826,55.8266667 C141.495652,54.5626667 138.469565,55.4053333 136.904348,55.4053333 C131.582609,55.616 126.26087,55.7213333 120.93913,55.8266667 C119.895652,55.8266667 119.895652,57.4066667 120.93913,57.4066667 C123.547826,57.4066667 126.26087,57.3013333 128.869565,57.3013333 C130.956522,57.3013333 133.043478,57.196 135.130435,57.0906667 C136.278261,57.0906667 140.347826,56.3533333 141.182609,57.0906667 C142.017391,57.9333333 141.913043,64.8853333 141.495652,66.044 C140.243478,69.3093333 134.504348,68.1506667 131.686957,68.256 C130.017391,68.3613333 128.347826,68.3613333 126.782609,68.4666667 C124.173913,68.572 122.504348,69.4146667 121.46087,65.728 C120.730435,63.2 121.565217,59.1973333 121.565217,56.6693333 C121.669565,55.8266667 120.417391,55.8266667 120.417391,56.6693333 Z" id="Shape"></path>
                        <path d="M101.113043,32.6533333 C105.078261,33.18 109.043478,33.3906667 113.008696,33.3906667 C114.365217,33.3906667 117.704348,34.2333333 118.434783,32.7586667 C118.747826,32.0213333 118.017391,31.4946667 117.391304,31.916 C116.869565,32.3373333 114.469565,31.916 113.634783,31.916 C112.173913,31.916 110.713043,31.916 109.252174,31.8106667 C106.53913,31.7053333 103.826087,31.6 101.113043,31.3893333 C100.382609,31.3893333 100.382609,32.548 101.113043,32.6533333 L101.113043,32.6533333 Z" id="Shape"></path>
                        <path d="M117.078261,28.3346667 C116.973913,31.4946667 117.078261,34.6546667 117.286957,37.8146667 C117.286957,38.1306667 117.6,38.552 118.017391,38.552 C125.947826,38.3413333 133.982609,38.236 141.913043,38.0253333 C142.330435,38.0253333 142.53913,37.7093333 142.643478,37.288 C143.06087,34.0226667 145.252174,26.544 140.765217,25.3853333 C138.156522,24.648 134.504348,25.596 131.686957,25.8066667 C127.095652,26.0173333 122.608696,26.228 118.017391,26.544 C117.6,26.544 117.286957,26.86 117.286957,27.2813333 C117.286957,28.124 117.182609,28.9666667 117.182609,29.8093333 C117.182609,30.7573333 118.53913,30.7573333 118.643478,29.8093333 C118.956522,26.4386667 128.973913,27.3866667 131.791304,27.2813333 C133.46087,27.176 138.26087,26.0173333 139.617391,26.86 C142.017391,28.2293333 142.852174,34.3386667 140.869565,36.1293333 C139.408696,37.3933333 135.652174,36.7613333 133.773913,36.8666667 C131.373913,36.972 128.869565,36.972 126.469565,37.0773333 C124.591304,37.0773333 120.834783,37.92 119.373913,36.656 C117.808696,35.2866667 118.53913,30.4413333 118.434783,28.44 C118.330435,27.492 117.078261,27.492 117.078261,28.3346667 L117.078261,28.3346667 Z" id="Shape"></path>
                        <path d="M130.643478,26.544 C130.956522,22.2253333 131.165217,17.696 130.956522,13.3773333 C130.956522,12.5346667 129.704348,12.5346667 129.6,13.3773333 C129.495652,17.8013333 129.495652,22.12 129.391304,26.544 C129.286957,27.3866667 130.53913,27.3866667 130.643478,26.544 L130.643478,26.544 Z" id="Shape"></path>
                        <path d="M116.13913,2.528 C116.13913,6.53066667 116.13913,10.5333333 116.13913,14.4306667 C116.13913,14.7466667 116.452174,15.168 116.869565,15.168 C125.530435,14.22 134.086957,13.7986667 142.747826,14.1146667 C143.165217,14.1146667 143.478261,13.7986667 143.478261,13.3773333 C143.269565,10.9546667 143.895652,4.31866667 142.643478,2.212 C142.017391,1.05333333 142.53913,1.36933333 141.286957,0.842666667 C138.678261,-0.316 133.878261,0.737333333 130.956522,0.842666667 C126.26087,0.948 121.565217,1.264 116.869565,1.68533333 C115.930435,1.79066667 115.930435,3.26533333 116.869565,3.26533333 C122.921739,2.844 128.973913,2.42266667 135.026087,2.31733333 C137.008696,2.31733333 138.573913,1.896 140.13913,3.16 C141.704348,4.52933333 141.391304,5.688 141.495652,7.79466667 C141.808696,11.5866667 141.913043,12.5346667 137.634783,12.4293333 C131.582609,12.4293333 125.634783,13.0613333 119.686957,13.3773333 C116.556522,13.4826667 117.391304,12.1133333 117.391304,9.26933333 C117.391304,7.05733333 117.391304,4.74 117.391304,2.528 C117.495652,1.58 116.243478,1.58 116.13913,2.528 L116.13913,2.528 Z" id="Shape"></path>
                    </g>
                    <g id="Group" opacity="0.4" transform="translate(412.000000, 123.000000)" fill="#131A32">
                        <path d="M2.74796748,3.81818182 C2.11382114,4.66666667 0.845528455,4.87878788 0.739837398,6.25757576 C0.634146341,7.42424242 1.69105691,7.84848485 2.64227642,7.95454545 C4.75609756,8.06060606 6.76422764,6.46969697 7.08130081,4.34848485 C7.18699187,3.92424242 6.8699187,3.5 6.44715447,3.5 C5.70731707,3.60606061 4.96747967,3.39393939 4.22764228,3.28787879 C3.59349593,3.18181818 3.06504065,4.13636364 3.80487805,4.45454545 C4.6504065,4.87878788 5.60162602,4.98484848 6.44715447,4.87878788 C6.23577236,4.56060606 6.02439024,4.34848485 5.81300813,4.03030303 C5.60162602,5.3030303 4.6504065,6.36363636 3.38211382,6.68181818 C3.17073171,6.68181818 2.53658537,6.78787879 2.43089431,6.68181818 C2.00813008,6.25757576 2.53658537,5.83333333 2.74796748,5.62121212 C3.17073171,5.3030303 3.59349593,4.98484848 3.91056911,4.56060606 C4.22764228,3.81818182 3.17073171,3.28787879 2.74796748,3.81818182 L2.74796748,3.81818182 Z" id="Shape"></path>
                        <path d="M4.22764228,16.8636364 C2.85365854,17.1818182 0.845528455,18.4545455 1.05691057,20.1515152 C1.26829268,21.7424242 3.17073171,22.6969697 4.6504065,22.4848485 C6.02439024,22.3787879 7.18699187,21.2121212 7.29268293,19.8333333 C7.39837398,18.5606061 6.55284553,17.0757576 5.17886179,16.8636364 C4.43902439,16.7575758 4.12195122,17.8181818 4.86178862,18.030303 C6.44715447,18.4545455 6.44715447,20.8939394 4.75609756,21.2121212 C4.01626016,21.3181818 2.95934959,21.1060606 2.53658537,20.3636364 C1.90243902,19.1969697 3.69918699,18.2424242 4.6504065,18.030303 C5.28455285,17.8181818 4.96747967,16.6515152 4.22764228,16.8636364 L4.22764228,16.8636364 Z" id="Shape"></path>
                        <path d="M5.81300813,30.2272727 C4.22764228,29.9090909 2.85365854,31.6060606 3.48780488,33.0909091 C4.12195122,34.6818182 6.02439024,35 7.39837398,34.3636364 C8.77235772,33.7272727 10.4634146,31.8181818 9.72357724,30.1212121 C8.87804878,28.2121212 6.55284553,28.8484848 5.17886179,29.6969697 C4.43902439,30.1212121 5.07317073,31.0757576 5.81300813,30.7575758 C6.44715447,30.4393939 7.6097561,29.8030303 8.24390244,30.4393939 C8.98373984,31.0757576 8.03252033,32.2424242 7.50406504,32.7727273 C6.97560976,33.1969697 6.23577236,33.5151515 5.49593496,33.3030303 C4.43902439,32.8787879 4.33333333,31.3939394 5.60162602,31.3939394 C6.34146341,31.5 6.55284553,30.3333333 5.81300813,30.2272727 L5.81300813,30.2272727 Z" id="Shape"></path>
                        <path d="M75.2520325,2.01515152 C73.8780488,2.96969697 73.2439024,4.98484848 73.6666667,6.57575758 C74.0894309,8.59090909 75.9918699,8.16666667 77.0487805,6.89393939 C78,5.62121212 79.2682927,3.60606061 78.3170732,2.01515152 C77.6829268,0.954545455 75.7804878,0.636363636 75.1463415,1.90909091 C74.8292683,2.43939394 75.6747967,3.18181818 76.097561,2.65151515 C76.3089431,2.33333333 76.6260163,2.22727273 77.0487805,2.43939394 C77.5772358,2.75757576 77.5772358,3.39393939 77.3658537,3.81818182 C77.1544715,4.66666667 76.6260163,5.51515152 76.097561,6.15151515 C75.7804878,6.46969697 75.4634146,7 75.1463415,6.57575758 C74.9349593,6.36363636 75.0406504,5.62121212 75.0406504,5.3030303 C75.1463415,4.34848485 75.5691057,3.60606061 76.097561,2.96969697 C76.3089431,2.43939394 75.7804878,1.59090909 75.2520325,2.01515152 L75.2520325,2.01515152 Z" id="Shape"></path>
                        <path d="M75.5691057,15.6969697 C74.0894309,16.0151515 73.1382114,17.6060606 73.6666667,19.0909091 C74.195122,20.469697 75.8861789,21.1060606 77.1544715,20.469697 C78.5284553,19.7272727 79.6910569,17.7121212 79.3739837,16.1212121 C79.1626016,14.7424242 77.4715447,13.6818182 76.3089431,14.6363636 C75.6747967,15.0606061 76.203252,16.2272727 76.9430894,15.6969697 C77.8943089,15.0606061 78.2113821,16.4393939 78.1056911,17.0757576 C77.8943089,17.8181818 77.3658537,18.7727273 76.7317073,19.1969697 C75.0406504,20.2575758 73.7723577,17.3939394 75.8861789,16.969697 C76.6260163,16.6515152 76.3089431,15.4848485 75.5691057,15.6969697 L75.5691057,15.6969697 Z" id="Shape"></path>
                        <path d="M12.1544715,4.56060606 C13.2113821,5.93939394 12.7886179,5.40909091 14.5853659,5.72727273 C15.0081301,5.83333333 15.4308943,5.3030303 15.9593496,5.1969697 C17.4390244,4.24242424 18.7073171,4.13636364 19.5528455,5.1969697 C19.6585366,5.3030303 19.8699187,5.51515152 19.9756098,5.62121212 C23.3577236,5.72727273 26.8455285,5.3030303 30.3333333,5.3030303 C31.9186992,5.3030303 35.5121951,4.13636364 37.097561,4.56060606 C38.5772358,4.98484848 37.6260163,5.51515152 38.5772358,5.93939394 C39,6.15151515 39.3170732,5.93939394 39.6341463,6.04545455 C40.5853659,6.25757576 43.9674797,5.3030303 45.1300813,5.3030303 C46.1869919,5.3030303 46.504065,5.62121212 47.7723577,5.51515152 C48.6178862,5.40909091 48.6178862,4.03030303 47.7723577,4.13636364 C46.0813008,4.34848485 44.2845528,2.96969697 42.5934959,3.28787879 C40.902439,3.60606061 39.5284553,5.62121212 39.3170732,3.39393939 C39.3170732,2.96969697 38.8943089,2.54545455 38.4715447,2.75757576 C33.2926829,4.45454545 28.5365854,3.07575758 23.5691057,3.81818182 C19.4471545,4.45454545 20.8211382,3.18181818 18.0731707,3.07575758 C16.4878049,2.96969697 14.6910569,5.62121212 13.1056911,3.81818182 C12.3658537,3.18181818 11.6260163,4.03030303 12.1544715,4.56060606 L12.1544715,4.56060606 Z" id="Shape"></path>
                        <path d="M12.3658537,20.469697 C12.4715447,20.7878788 12.5772358,21.2121212 12.7886179,21.530303 C13,21.9545455 13.4227642,22.1666667 13.8455285,21.8484848 C16.4878049,19.5151515 16.9105691,18.2424242 20.504065,19.3030303 C19.6585366,19.0909091 23.9918699,21 24.203252,21 C24.7317073,21.1060606 25.3658537,21.4242424 25.8943089,21.4242424 C26.7398374,21.3181818 27.3739837,20.3636364 28.1138211,20.1515152 C29.5934959,19.7272727 30.8617886,20.3636364 32.1300813,20.6818182 C33.6097561,21 34.8780488,21.6363636 36.4634146,21.4242424 C38.0487805,21.1060606 39.1056911,20.1515152 40.6910569,19.9393939 C42.2764228,19.7272727 43.0162602,20.2575758 44.495935,20.2575758 C45.8699187,20.2575758 45.8699187,19.0909091 47.7723577,19.1969697 C48.9349593,19.3030303 52.1056911,19.9393939 52.9512195,20.1515152 C53.796748,20.2575758 54.1138211,18.9848485 53.2682927,18.8787879 C52.4227642,18.7727273 51.2601626,18.8787879 50.5203252,18.6666667 C49.4634146,18.4545455 48.5121951,18.1363636 47.7723577,17.5 C47.6666667,17.3939394 47.6666667,17.3939394 47.5609756,17.3939394 C46.1869919,17.3939394 46.2926829,18.1363636 45.1300813,18.3484848 C43.2276423,18.5606061 42.0650407,17.8181818 40.2682927,17.7121212 C39.7398374,17.7121212 39.5284553,18.3484848 39.1056911,18.4545455 C32.5528455,20.1515152 35.7235772,19.8333333 31.1788618,18.7727273 C30.1219512,18.5606061 29.9105691,18.2424242 28.6422764,18.5606061 C25.8943089,19.1969697 27.6910569,21 23.8861789,18.5606061 C23.4634146,18.3484848 23.3577236,17.6060606 22.9349593,17.3939394 C21.4552846,16.6515152 20.398374,16.2272727 18.7073171,16.7575758 C18.1788618,16.8636364 13.6341463,19.7272727 13.7398374,20.1515152 C13.3170732,19.4090909 12.0487805,19.7272727 12.3658537,20.469697 L12.3658537,20.469697 Z" id="Shape"></path>
                        <path d="M13.6341463,32.030303 C14.0569106,33.0909091 14.902439,33.6212121 16.0650407,33.5151515 C16.699187,33.5151515 17.0162602,33.1969697 17.4390244,32.8787879 C18.1788618,32.3484848 18.8130081,31.8181818 19.4471545,31.1818182 C20.504065,30.0151515 21.0325203,30.0151515 21.0325203,31.1818182 C22.4065041,31.8181818 20.9268293,32.3484848 22.9349593,32.6666667 C24.097561,32.8787879 26,31.9242424 27.1626016,31.7121212 C29.699187,31.2878788 32.0243902,31.3939394 34.5609756,31.6060606 C35.4065041,31.7121212 35.4065041,30.3333333 34.5609756,30.2272727 C31.9186992,29.9090909 29.3821138,29.9090909 26.7398374,30.3333333 C25.2601626,30.5454545 24.203252,31.2878788 22.9349593,30.5454545 C22.300813,30.1212121 22.195122,29.3787879 21.6666667,29.1666667 C21.2439024,28.9545455 21.0325203,28.6363636 20.504065,28.6363636 C19.2357724,28.6363636 15.6422764,33.7272727 14.5853659,31.2878788 C14.3739837,30.6515152 13.3170732,31.2878788 13.6341463,32.030303 L13.6341463,32.030303 Z" id="Shape"></path>
                        <path d="M84.5528455,2.86363636 C87.0894309,4.03030303 88.1463415,4.34848485 90.5772358,3.71212121 C90.7886179,3.5 91,3.18181818 91.2113821,2.96969697 C93.1138211,2.75757576 95.0162602,2.54545455 97.0243902,2.33333333 C97.8699187,2.43939394 99.2439024,3.5 99.9837398,3.71212121 C100.723577,4.03030303 101.569106,4.24242424 102.414634,4.24242424 C104,4.13636364 104.95122,3.07575758 106.430894,2.65151515 C111.715447,1.06060606 109.284553,3.39393939 111.821138,3.60606061 C113.089431,3.71212121 114.04065,3.71212121 115.308943,3.5 C118.162602,2.96969697 120.276423,3.07575758 123.02439,3.71212121 C123.869919,3.92424242 124.186992,2.65151515 123.341463,2.43939394 C122.178862,2.12121212 120.910569,1.16666667 119.642276,1.16666667 C118.056911,1.06060606 116.471545,2.12121212 114.886179,2.22727273 C111.821138,2.54545455 110.02439,0.212121212 107.065041,0.954545455 C104.422764,1.59090909 103.04878,3.18181818 100.195122,2.43939394 C98.398374,2.01515152 97.0243902,0.742424242 95.2276423,0.212121212 C90.8943089,-0.954545455 90.3658537,4.24242424 85.1869919,1.90909091 C84.4471545,1.48484848 83.8130081,2.54545455 84.5528455,2.86363636 L84.5528455,2.86363636 Z" id="Shape"></path>
                        <path d="M84.4471545,18.1363636 C86.2439024,18.2424242 86.8780488,17.2878788 88.4634146,16.8636364 C91.7398374,16.1212121 91.4227642,18.030303 93.5365854,19.1969697 C96.601626,21 100.934959,16.8636364 104,16.4393939 C105.268293,16.2272727 107.382114,15.8030303 108.650407,16.1212121 C109.813008,16.4393939 110.447154,17.3939394 111.398374,17.8181818 C111.926829,18.030303 112.455285,18.2424242 113.089431,18.2424242 C114.146341,18.2424242 114.99187,17.6060606 115.837398,17.3939394 C117.105691,17.1818182 118.162602,17.5 119.430894,17.6060606 C122.601626,17.7121212 125.03252,17.1818182 128.308943,17.9242424 C129.260163,18.1363636 129.577236,16.7575758 128.731707,16.5454545 C126.195122,15.9090909 123.869919,16.2272727 121.333333,16.1212121 C119.536585,16.0151515 118.268293,15.3787879 116.577236,15.6969697 C115.626016,15.8030303 114.674797,16.6515152 113.723577,16.7575758 C110.552846,16.8636364 111.926829,15.4848485 110.130081,15.0606061 C108.544715,14.6363636 106.95935,14.7424242 105.268293,14.8484848 C103.04878,15.0606061 101.146341,15.9090909 99.0325203,16.4393939 C96.1788618,17.1818182 98.9268293,17.6060606 95.1219512,16.8636364 C88.8861789,15.6969697 95.0162602,16.6515152 92.3739837,15.4848485 C88.8861789,14 88.1463415,17.1818182 84.2357724,16.969697 C83.601626,16.8636364 83.601626,18.1363636 84.4471545,18.1363636 L84.4471545,18.1363636 Z" id="Shape"></path>
                        <path d="M75.7804878,26.1969697 C74.195122,26.1969697 72.504065,27.5757576 72.398374,29.2727273 C72.2926829,31.1818182 74.5121951,31.7121212 75.9918699,31.3939394 C77.5772358,31.0757576 78.9512195,29.5909091 78.7398374,27.8939394 C78.5284553,26.3030303 77.0487805,25.2424242 75.4634146,25.6666667 C74.6178862,25.8787879 74.9349593,27.1515152 75.7804878,26.9393939 C76.6260163,26.8333333 77.4715447,27.5757576 77.2601626,28.4242424 C77.1544715,29.2727273 76.5203252,29.8030303 75.6747967,30.0151515 C74.8292683,30.2272727 73.4552846,30.0151515 73.8780488,28.8484848 C74.195122,28 75.1463415,27.6818182 75.8861789,27.3636364 C76.5203252,27.1515152 76.4146341,26.1969697 75.7804878,26.1969697 L75.7804878,26.1969697 Z" id="Shape"></path>
                        <path d="M82.2276423,31.0757576 C83.8130081,28.9545455 85.9268293,28.2121212 88.6747967,29.0606061 C88.7804878,29.4848485 88.9918699,29.9090909 89.203252,30.2272727 C91,31.0757576 88.8861789,31.1818182 91.4227642,31.3939394 C92.0569106,31.5 92.5853659,30.8636364 93.2195122,30.8636364 C94.3821138,29.6969697 95.8617886,29.3787879 97.5528455,30.1212121 C97.6585366,30.2272727 97.7642276,30.3333333 97.8699187,30.4393939 C104.845528,30.2272727 112.455285,28.2121212 119.325203,31.1818182 C120.276423,31.6060606 121.121951,30.2272727 120.170732,29.8030303 C116.260163,27.8939394 112.666667,27.7878788 108.439024,28 C105.902439,28.2121212 103.682927,28 101.252033,28.1060606 C99.4552846,28.2121212 100.723577,28.6363636 98.0813008,28.3181818 C97.7642276,28.3181818 97.4471545,27.8939394 97.1300813,27.8939394 C95.8617886,27.7878788 95.3333333,28.2121212 94.0650407,28.4242424 C93.4308943,29.0606061 92.5853659,29.0606061 91.6341463,28.6363636 C90.3658537,29.0606061 89.6260163,28.6363636 89.3089431,27.5757576 C88.9918699,27.469697 88.7804878,26.9393939 88.3577236,26.8333333 C85.9268293,25.6666667 82.5447154,28.8484848 81.1707317,30.3333333 C80.8536585,30.7575758 81.699187,31.6060606 82.2276423,31.0757576 L82.2276423,31.0757576 Z" id="Shape"></path>
                    </g>
                    <polygon id="Shape" fill="url(#linearGradient-14)" opacity="0.4" points="253 156.89172 271.827586 217.383758 340 232 301.517241 98"></polygon>
                    <g id="Group" transform="translate(299.000000, 140.000000)">
                        <path d="M55.8918367,74.5009709 C50.1673469,75.4533981 40.4877551,76.8291262 37.2612245,77.2524272 C34.0346939,77.6757282 23.7306122,73.3368932 20.2959184,73.3368932 C16.8612245,73.3368932 8.74285714,73.0194175 6.76530612,74.5009709 C4.7877551,75.9825243 -2.60204082,82.2262136 1.87346939,85.5067961 C6.34897959,88.6815534 9.99183673,82.1203883 17.4857143,82.9669903 C24.9795918,83.8135922 28.8306122,88.2582524 35.9081633,88.0466019 C42.9857143,87.8349515 56.8285714,86.4592233 56.8285714,86.4592233 L55.8918367,74.5009709 Z" id="Shape" fill="#B7845F"></path>
                        <path d="M77.5408163,65.2941748 C68.1734694,71.0087379 57.6612245,73.7601942 51.2081633,74.7126214 C44.755102,75.5592233 34.555102,74.7126214 33.0979592,75.1359223 C31.6408163,75.5592233 27.3734694,107.624272 37.1571429,108.576699 C41.7367347,109 57.1408163,93.5495146 69.0061224,90.5864078 C82.5367347,87.2 95.8591837,83.1786408 98.1489796,81.3796117 C102.520408,78.2048544 101.583673,71.961165 98.4612245,61.2728155 C95.3387755,50.584466 83.1612245,14.392233 78.1653061,6.03203883 C73.1693878,-2.32815534 57.6612245,-0.952427184 55.5795918,10.9 C53.4979592,22.7524272 61.3040816,28.1495146 67.6530612,40.9543689 C74.2102041,53.8650485 77.5408163,65.2941748 77.5408163,65.2941748 Z" id="Shape" fill="#273356"></path>
                        <path d="M37.2612245,108.470874 C41.8408163,108.894175 57.244898,93.4436893 69.1102041,90.4805825 C82.6408163,87.0941748 95.9632653,83.0728155 98.2530612,81.2737864 C102.62449,78.0990291 101.687755,71.8553398 98.5653061,61.1669903 C97.7326531,58.3097087 96.1714286,53.4417476 94.2979592,47.938835 C94.4020408,56.5106796 93.2571429,67.8339806 87.0122449,73.6543689 C78.1653061,81.9087379 55.9959184,83.9194175 31.0163265,94.0786408 C31.3285714,101.380583 32.8897959,108.047573 37.2612245,108.470874 Z" id="Shape" fill="#131A32" opacity="0.6"></path>
                    </g>
                </g>
            </g>
        </g>
    </g>
</svg>