<?xml version="1.0" encoding="UTF-8"?>
<svg width="540px" height="456px" viewBox="0 0 540 456" version="1.1" xmlns="http://www.w3.org/2000/svg" xmlns:xlink="http://www.w3.org/1999/xlink">
    <!-- Generator: Sketch 59.1 (86144) - https://sketch.com -->
    <title>Bluvalt-secure_and_reliable</title>
    <desc>Created with Sketch.</desc>
    <defs>
        <linearGradient x1="97.4438834%" y1="37.8099273%" x2="30.219592%" y2="56.4396519%" id="linearGradient-1">
            <stop stop-color="#DDE6EF" offset="0%"></stop>
            <stop stop-color="#9FCEEF" offset="100%"></stop>
        </linearGradient>
        <linearGradient x1="49.9961973%" y1="19.1530279%" x2="49.9961973%" y2="55.8467651%" id="linearGradient-2">
            <stop stop-color="#CDE3F6" offset="0%"></stop>
            <stop stop-color="#9FCEEF" offset="100%"></stop>
        </linearGradient>
        <linearGradient x1="49.9943508%" y1="21.6468944%" x2="49.9943508%" y2="70.9509317%" id="linearGradient-3">
            <stop stop-color="#A8D2F0" offset="0%"></stop>
            <stop stop-color="#8CC6EC" offset="100%"></stop>
        </linearGradient>
        <linearGradient x1="49.9540653%" y1="48.5854904%" x2="49.6039653%" y2="49.9142236%" id="linearGradient-4">
            <stop stop-color="#CDE3F6" offset="0%"></stop>
            <stop stop-color="#9FCEEF" offset="100%"></stop>
        </linearGradient>
        <linearGradient x1="50.1747954%" y1="43.7372724%" x2="40.0810496%" y2="55.1140973%" id="linearGradient-5">
            <stop stop-color="#CDE3F6" offset="0%"></stop>
            <stop stop-color="#9FCEEF" offset="100%"></stop>
        </linearGradient>
        <linearGradient x1="49.9902116%" y1="3.92329502%" x2="49.9902116%" y2="61.8980077%" id="linearGradient-6">
            <stop stop-color="#B2D6F1" offset="0%"></stop>
            <stop stop-color="#8CC6EC" offset="100%"></stop>
        </linearGradient>
        <linearGradient x1="-6.72443182%" y1="49.9905433%" x2="98.5039945%" y2="49.9905433%" id="linearGradient-7">
            <stop stop-color="#CDE3F6" offset="0%"></stop>
            <stop stop-color="#9FCEEF" offset="100%"></stop>
        </linearGradient>
        <linearGradient x1="98.9974718%" y1="48.5599158%" x2="0.335334226%" y2="50.687074%" id="linearGradient-8">
            <stop stop-color="#B2D6F1" offset="0%"></stop>
            <stop stop-color="#96CAED" offset="100%"></stop>
        </linearGradient>
        <linearGradient x1="41.5510065%" y1="50.7611893%" x2="92.8959907%" y2="45.6719308%" id="linearGradient-9">
            <stop stop-color="#EBE2F0" offset="0%"></stop>
            <stop stop-color="#F4EFF7" offset="99.97%"></stop>
        </linearGradient>
        <linearGradient x1="49.9936342%" y1="1.26588085%" x2="49.9936342%" y2="101.438828%" id="linearGradient-10">
            <stop stop-color="#BBA6D0" offset="0%"></stop>
            <stop stop-color="#A88BC0" offset="100%"></stop>
        </linearGradient>
        <radialGradient cx="53.9380282%" cy="78.9645988%" fx="53.9380282%" fy="78.9645988%" r="67.4921103%" gradientTransform="translate(0.539380,0.789646),scale(0.797851,1.000000),translate(-0.539380,-0.789646)" id="radialGradient-11">
            <stop stop-color="#FFFFFF" offset="0%"></stop>
            <stop stop-color="#FFFFFF" offset="25%"></stop>
            <stop stop-color="#FFFFFF" stop-opacity="0" offset="100%"></stop>
        </radialGradient>
        <linearGradient x1="-0.202933333%" y1="50.4614458%" x2="73.6661333%" y2="50.4614458%" id="linearGradient-12">
            <stop stop-color="#57A6DB" offset="0%"></stop>
            <stop stop-color="#3467AD" offset="99.97%"></stop>
        </linearGradient>
        <linearGradient x1="68.3282012%" y1="24.1532078%" x2="41.1514946%" y2="63.7528546%" id="linearGradient-13">
            <stop stop-color="#57A6DB" offset="0%"></stop>
            <stop stop-color="#3467AD" offset="99.97%"></stop>
        </linearGradient>
    </defs>
    <g id="inspect" stroke="none" stroke-width="1" fill="none" fill-rule="evenodd">
        <g id="Case-Study---Bluvalt---Inspect" transform="translate(-56.000000, -7475.000000)" fill-rule="nonzero">
            <g id="Group-27" transform="translate(56.000000, 6952.000000)">
                <g id="Bluvalt-secure_and_reliable" transform="translate(0.000000, 523.000000)">
                    <path d="M493.523126,107.948697 C603.944756,236.205605 503.796983,466.871272 295.461027,455.601837 C87.1250713,444.332401 61.3064215,384.765385 28.876768,306.773737 C-3.55288545,228.782088 -15.2561488,152.132039 28.876768,116.356054 C73.0096849,80.5800679 132.151367,112.957335 214.699576,90.9551037 C297.247785,68.9528726 386.675011,-16.1939731 493.523126,107.948697 Z" id="Shape" fill="url(#linearGradient-1)"></path>
                    <g id="Group" transform="translate(0.000000, 4.000000)">
                        <path d="M62.0126619,128.185771 L95.1218753,346.503557 C95.1218753,346.682213 95.300844,346.771542 95.3903283,346.86087 C95.4798127,346.86087 95.4798127,346.86087 95.5692971,346.86087 C95.6587814,346.86087 95.8377501,346.771542 95.9272345,346.771542 L224.605745,217.781818 L401.068904,120.682213 C401.247873,120.86087 401.516326,121.039526 401.784779,121.128854 L391.13614,297.105138 C391.13614,297.283794 391.225624,297.462451 391.404593,297.551779 C391.494077,297.551779 391.583562,297.641107 391.583562,297.641107 C391.673046,297.641107 391.76253,297.641107 391.852015,297.551779 L505.139215,221.086957 C505.2287,221.086957 505.2287,220.997628 505.2287,220.997628 C505.318184,220.818972 505.318184,220.729644 505.318184,220.729644 C505.318184,220.640316 505.318184,220.640316 505.318184,220.640316 C505.318184,220.640316 505.318184,220.550988 505.318184,220.550988 L473.372267,84.1470356 C473.730205,83.7897233 473.998658,83.343083 473.998658,82.7177866 C473.998658,81.6458498 473.193299,80.8418972 472.119486,80.8418972 C471.493096,80.8418972 470.866705,81.1992095 470.508768,81.6458498 L305.678576,2.32252964 C305.589091,1.25059289 304.873216,0.535968379 303.799404,0.535968379 C302.994045,0.535968379 302.27817,0.982608696 302.009717,1.78656126 L119.551106,33.0513834 C119.372137,32.2474308 118.566778,31.4434783 117.671934,31.4434783 C116.598122,31.4434783 115.792763,32.2474308 115.792763,33.3193676 C115.792763,33.855336 116.061216,34.4806324 116.508637,34.8379447 L62.7285367,124.433992 C62.549568,124.344664 62.3705993,124.344664 62.1916306,124.344664 C61.1178183,124.344664 60.312459,125.148617 60.312459,126.220553 L7.60617065,141.227668 C7.42720193,141.58498 7.33771757,141.942292 7.15874884,142.388933 L60.5809121,127.203162 C60.6703965,127.381818 60.8493652,127.560474 61.0283339,127.73913 L9.57482658,247.885375 C9.7537953,248.332016 9.84327966,248.867984 10.0222484,249.314625 L61.9231775,128.096443 L62.0126619,128.096443 L62.0126619,128.185771 Z M224.784714,216.531225 L209.124951,77.8047431 C209.572372,77.626087 209.840825,77.3581028 210.198763,76.8221344 L400.800451,119.252964 C400.800451,119.342292 400.800451,119.520949 400.889935,119.610277 L224.784714,216.531225 Z M223.800386,216.441897 L63.9813178,126.756522 C63.9813178,126.577866 64.0708022,126.488538 64.0708022,126.309881 C64.0708022,126.220553 64.0708022,126.220553 64.0708022,126.131225 L206.798357,77.1794466 C207.06681,77.626087 207.514232,77.8940711 208.140623,77.9833992 L223.800386,216.441897 Z M392.299437,296.12253 L402.948076,121.128854 C403.127044,121.128854 403.306013,121.039526 403.484982,120.950198 L504.244372,220.640316 L392.299437,296.12253 Z M471.224643,84.3256917 C471.493096,84.4150198 471.761549,84.5043478 472.030002,84.5043478 C472.119486,84.5043478 472.208971,84.5043478 472.298455,84.5043478 L504.065403,219.121739 L404.111372,120.146245 C404.290341,119.878261 404.379825,119.610277 404.379825,119.163636 C404.379825,118.98498 404.379825,118.895652 404.290341,118.806324 L471.224643,84.3256917 Z M470.240315,82.5391304 L470.240315,82.6284585 C470.240315,82.9857708 470.329799,83.343083 470.508768,83.7003953 L403.932404,118.0917 C403.574466,117.734387 403.127044,117.466403 402.500654,117.466403 C402.232201,117.466403 401.963748,117.555731 401.695295,117.645059 L305.589091,3.30513834 L470.240315,82.5391304 Z M302.457139,3.66245059 C302.815076,4.01976285 303.262498,4.28774704 303.888888,4.28774704 C304.246826,4.28774704 304.604763,4.19841897 304.962701,3.93043478 L401.068904,118.181028 C400.97942,118.270356 400.97942,118.359684 400.97942,118.449012 L210.377732,76.0181818 C210.377732,75.7501976 210.288247,75.5715415 210.198763,75.3928854 L302.457139,3.66245059 Z M119.461621,34.0339921 C119.461621,34.0339921 119.461621,34.0339921 119.461621,34.0339921 L301.920232,2.6798419 L209.482888,74.4996047 C209.214435,74.2316206 208.767013,74.1422925 208.319591,74.1422925 C207.782685,74.1422925 207.156295,74.4102767 206.887842,74.7675889 L119.461621,34.0339921 C119.461621,34.0339921 119.461621,34.0339921 119.461621,34.0339921 C119.372137,34.1233202 119.461621,34.0339921 119.461621,34.0339921 Z M117.58245,35.284585 C117.58245,35.284585 117.58245,35.284585 117.58245,35.284585 C117.58245,35.284585 117.58245,35.284585 117.58245,35.284585 C117.58245,35.284585 117.671934,35.284585 117.671934,35.284585 C118.029872,35.284585 118.477293,35.1059289 118.835231,34.9272727 L206.619389,75.7501976 C206.619389,75.8395257 206.619389,75.9288538 206.619389,76.1075099 C206.619389,76.1968379 206.619389,76.1968379 206.619389,76.286166 L63.8918334,125.237945 C63.8023491,125.148617 63.7128647,125.059289 63.7128647,124.96996 L117.58245,35.284585 Z M63.533896,127.471146 L223.531933,217.24585 L95.8377501,345.342292 L62.8180211,128.007115 C63.0864742,127.917787 63.3549273,127.649802 63.533896,127.471146 Z" id="Shape" fill="#F4EFF7" opacity="0.6"></path>
                        <g transform="translate(287.244797, 158.813627)">
                            <ellipse id="Oval" fill="#63B7E6" cx="25.5030428" cy="2.95949569" rx="2.86349954" ry="2.85849802"></ellipse>
                            <path d="M23.2659337,3.22747988 C24.071293,3.22747988 26.9347925,3.22747988 27.7401518,3.22747988 C30.6931357,3.22747988 33.019729,5.55000953 33.019729,8.49783561 C30.78262,8.49783561 20.4919186,8.49783561 17.9863565,8.49783561 C17.9863565,5.55000953 20.3129498,3.22747988 23.2659337,3.22747988 Z" id="Shape" fill="#78BEE9"></path>
                            <path d="M23.2659337,3.22747988 C23.6238712,3.22747988 25.6820115,3.22747988 26.5768551,3.22747988 C24.3397461,3.94210439 22.6395432,6.08597791 22.4605745,8.49783561 C21.0288247,8.49783561 18.612747,8.49783561 17.9863565,8.49783561 C17.9863565,5.55000953 20.3129498,3.22747988 23.2659337,3.22747988 Z" id="Shape" fill="#63B7E6"></path>
                            <g transform="translate(10.738123, 4.656729)" id="Shape">
                                <path d="M28.9929328,38.143083 L29.2613859,38.143083 C29.2613859,38.143083 29.1719015,38.143083 28.9929328,38.143083 Z" fill="#78BEE9"></path>
                                <path d="M0.268453082,38.143083 L0.536906163,38.143083 C0.357937442,38.143083 0.268453082,38.143083 0.268453082,38.143083 Z" fill="#78BEE9"></path>
                                <path d="M2.59504646,5.89565217 C4.11628059,2.6798419 7.33771757,0.535968379 11.0065763,0.535968379 C12.4383261,0.535968379 17.3599659,0.535968379 18.7917157,0.535968379 C22.4605745,0.535968379 25.6820115,2.6798419 27.2032456,5.89565217 C23.2659337,4.91304348 19.1496532,4.46640316 14.9438882,4.46640316 C10.7381233,4.46640316 6.44287396,4.91304348 2.59504646,5.89565217 Z" fill="#78BEE9"></path>
                                <path d="M18.8812001,13.3098814 C18.4337783,14.3818182 18.0758408,15.4537549 18.0758408,16.7043478 L18.0758408,19.6521739 C18.0758408,19.6521739 18.0758408,19.741502 18.0758408,23.1359684 C18.0758408,37.2498024 27.1137612,38.143083 28.9929328,38.2324111 L0.626390524,38.2324111 C2.41607773,38.143083 11.5434825,37.1604743 11.5434825,23.1359684 C11.5434825,19.3841897 11.5434825,19.6521739 11.5434825,19.6521739 L11.5434825,16.7936759 C11.5434825,15.543083 11.2750294,14.4711462 10.7381233,13.3992095 C9.21688914,10.2727273 5.99545216,7.95019763 2.9529839,6.69960474 C2.59504646,6.61027668 2.5055621,6.16363636 2.59504646,5.89565217 L2.59504646,5.89565217 C6.53235832,4.91304348 10.6486389,4.46640316 14.8544039,4.46640316 C18.9706844,4.46640316 23.2659337,4.91304348 27.1137612,5.89565217 L27.1137612,5.89565217 C27.29273,6.25296443 27.1137612,6.61027668 26.7558238,6.69960474 C23.6238712,7.95019763 20.4024342,10.2727273 18.8812001,13.3098814 Z" fill="#78BEE9"></path>
                                <path d="M14.7649195,19.5628458 C14.7649195,19.5628458 14.7649195,19.6521739 14.7649195,23.0466403 C14.7649195,35.5525692 20.7603716,38.0537549 22.5500589,38.143083 L0.536906163,38.143083 C2.32659337,38.0537549 11.4539982,37.0711462 11.4539982,23.0466403 C11.4539982,19.2948617 11.4539982,19.5628458 11.4539982,19.5628458 L11.4539982,16.7043478 C11.4539982,15.4537549 11.1855451,14.3818182 10.6486389,13.3098814 C9.12740478,10.1833992 5.9059678,7.86086957 2.86349954,6.61027668 C2.5055621,6.52094862 2.41607773,6.0743083 2.5055621,5.80632411 L2.5055621,5.80632411 C6.44287396,4.82371542 10.5591545,4.3770751 14.7649195,4.3770751 C14.7649195,7.95019763 14.7649195,19.5628458 14.7649195,19.5628458 Z" fill="#63B7E6"></path>
                                <path d="M12.7067792,28.8529644 L12.7067792,35.9992095 C11.90142,37.3391304 10.917092,38.143083 9.7537953,38.143083 C8.32204553,38.143083 5.63751471,38.143083 5.63751471,38.143083 C7.15874884,38.143083 11.2750294,36.3565217 12.7067792,28.8529644 Z" fill="#78BEE9"></path>
                            </g>
                            <polygon id="Shape" fill="#63B7E6" points="50.6481481 49.0527763 0.447421803 49.0527763 4.47421803 42.3531716 46.5318675 42.3531716"></polygon>
                            <polygon id="Shape" fill="#78BEE9" points="47.4267111 43.7824206 3.57937442 43.7824206 4.47421803 42.3531716 46.5318675 42.3531716"></polygon>
                            <path d="M21.5657309,5.19269728 C22.0131527,5.19269728 22.8185119,5.19269728 23.7133555,5.19269728 C21.5657309,5.90732178 19.7760437,7.51522692 18.7022314,9.48044431 C16.8230598,9.7484285 14.9438882,10.0164127 13.154201,10.5523811 C14.6754351,7.33657079 17.8968721,5.19269728 21.5657309,5.19269728 Z" id="Shape" fill="#63B7E6"></path>
                        </g>
                        <path d="M539.322241,242.972332 L539.053788,230.109091 C441.247382,230.109091 402.411169,202.774704 339.772117,202.774704 C277.133065,202.774704 256.999083,217.69249 216.373184,217.69249 C175.747284,217.69249 107.381233,198.040316 62.7285367,195.271146 C39.1941499,193.752569 16.5546067,195.271146 0.447421803,196.968379 C1.96865593,218.407115 7.2482332,241.900395 15.2123413,266.197628 L536.548226,266.197628 C537.890491,258.515415 538.785335,250.743874 539.322241,242.972332 Z" id="Shape" fill="url(#linearGradient-2)"></path>
                        <path d="M539.322241,214.833992 C530.821227,213.940711 521.693822,213.404743 512.118995,213.404743 C442.410679,213.404743 395.252421,230.019763 344.514788,230.019763 C293.777156,230.019763 263.352473,207.241107 171.809972,207.241107 C107.649686,207.241107 39.2836343,217.513834 4.02679622,223.67747 C8.23256117,245.920158 15.6597631,269.592095 25.055621,293.532016 L529.836899,293.532016 C537.801007,267.894862 541.111928,241.096443 539.322241,214.833992 Z" id="Shape" fill="url(#linearGradient-3)"></path>
                        <g transform="translate(341.639375, 159.706907)">
                            <polygon id="Rectangle-path" fill="#63B7E6" points="19.3405355 52.7152269 29.3627839 52.7152269 29.3627839 85.31997 19.3405355 85.31997"></polygon>
                            <polygon id="Rectangle-path" fill="#63B7E6" points="21.6671289 50.035385 27.1256749 50.035385 27.1256749 82.6401281 21.6671289 82.6401281"></polygon>
                            <polygon id="Rectangle-path" fill="#78BEE9" points="21.6671289 56.1990214 27.1256749 56.1990214 27.1256749 82.5508 21.6671289 82.5508"></polygon>
                            <path d="M156.341092,85.31997 L137.728345,85.31997 C137.728345,46.9982309 147.034718,17.1626577 147.034718,17.1626577 C147.034718,17.1626577 156.341092,46.9089028 156.341092,85.31997 Z" id="Shape" fill="#78BEE9"></path>
                            <polygon id="Rectangle-path" fill="#63B7E6" points="116.341582 52.7152269 134.954329 52.7152269 134.954329 85.31997 116.341582 85.31997"></polygon>
                            <polygon id="Rectangle-path" fill="#63B7E6" points="72.7626988 34.9389423 77.5053699 34.9389423 77.5053699 85.2306419 72.7626988 85.2306419"></polygon>
                            <polygon id="Rectangle-path" fill="#78BEE9" points="74.2839329 34.9389423 75.8946514 34.9389423 75.8946514 85.2306419 74.2839329 85.2306419"></polygon>
                            <polygon id="Shape" fill="#63B7E6" points="75.8946514 36.4575194 74.2839329 36.4575194 74.9998078 18.6812348"></polygon>
                            <polygon id="Shape" fill="#63B7E6" points="49.4072807 36.1002072 47.8860466 36.1002072 48.6914058 28.3286657"></polygon>
                            <polygon id="Shape" fill="#63B7E6" points="87.8855557 0.011669607 87.8855557 42.3531716 92.0913207 42.3531716"></polygon>
                            <ellipse id="Oval" fill="#63B7E6" cx="71.8678552" cy="40.2986261" rx="2.68453082" ry="2.6798419"></ellipse>
                            <ellipse id="Oval" fill="#63B7E6" cx="78.1317604" cy="40.2986261" rx="2.68453082" ry="2.6798419"></ellipse>
                            <polygon id="Rectangle-path" fill="#63B7E6" points="71.8678552 37.6187842 78.0422761 37.6187842 78.0422761 45.3903257 71.8678552 45.3903257"></polygon>
                            <polygon id="Rectangle-path" fill="#63B7E6" points="71.8678552 46.9089028 78.0422761 46.9089028 78.0422761 48.5168079 71.8678552 48.5168079"></polygon>
                            <g transform="translate(116.520551, 38.601393)" id="Shape">
                                <path d="M9.12740478,25.7264822 C4.38473367,25.7264822 0.536906163,20.5454545 0.536906163,14.113834 C0.536906163,21.6173913 4.38473367,27.6023715 9.12740478,27.6023715 C13.8700759,27.6023715 17.7179034,21.5280632 17.7179034,14.113834 C17.7179034,20.6347826 13.8700759,25.7264822 9.12740478,25.7264822 Z" fill="#63B7E6"></path>
                                <path d="M9.12740478,2.50118577 L9.12740478,14.113834 L17.7179034,14.113834 C17.7179034,7.7715415 13.8700759,2.50118577 9.12740478,2.50118577 Z" fill="#78BEE9"></path>
                                <path d="M9.12740478,14.113834 L9.12740478,0.625296443 C4.38473367,0.625296443 0.536906163,6.69960474 0.536906163,14.113834 C3.31092134,14.113834 9.12740478,14.113834 9.12740478,14.113834 Z" fill="#63B7E6"></path>
                            </g>
                            <ellipse id="Oval" fill="#63B7E6" cx="147.034718" cy="36.9041597" rx="3.8478275" ry="3.84110672"></ellipse>
                            <polygon id="Rectangle-path" fill="#63B7E6" points="146.229359 22.7009977 147.840077 22.7009977 147.840077 85.4092981 146.229359 85.4092981"></polygon>
                            <polygon id="Rectangle-path" fill="#63B7E6" points="57.2819044 42.7104838 66.5882779 42.7104838 66.5882779 85.31997 57.2819044 85.31997"></polygon>
                            <polygon id="Rectangle-path" fill="#63B7E6" points="42.5169849 44.2290609 54.955311 44.2290609 54.955311 85.2306419 42.5169849 85.2306419"></polygon>
                            <polygon id="Rectangle-path" fill="#63B7E6" points="31.5998929 51.1966498 40.9062664 51.1966498 40.9062664 85.2306419 31.5998929 85.2306419"></polygon>
                            <polygon id="Rectangle-path" fill="#63B7E6" points="43.5907972 40.7452664 53.6130456 40.7452664 53.6130456 48.0701676 43.5907972 48.0701676"></polygon>
                            <polygon id="Rectangle-path" fill="#63B7E6" points="45.2015157 37.9760965 52.1812959 37.9760965 52.1812959 45.3009977 45.2015157 45.3009977"></polygon>
                            <polygon id="Rectangle-path" fill="#63B7E6" points="43.5907972 36.4575194 53.6130456 36.4575194 53.6130456 38.0654245 43.5907972 38.0654245"></polygon>
                            <path d="M107.482631,26.8100886 C104.171709,26.8100886 103.634803,13.6788633 103.634803,13.6788633 C103.634803,13.6788633 104.082225,12.9642388 107.482631,12.9642388 C110.972521,12.9642388 111.330458,13.6788633 111.330458,13.6788633 C111.330458,13.6788633 110.704068,26.8100886 107.482631,26.8100886 Z M113.657052,10.9990214 L101.218725,10.9990214 L101.218725,85.31997 L113.657052,85.31997 L113.657052,10.9990214 Z" id="Shape" fill="#63B7E6"></path>
                            <polygon id="Rectangle-path" fill="#63B7E6" points="58.7136542 41.1025787 64.8880751 41.1025787 64.8880751 42.7104838 58.7136542 42.7104838"></polygon>
                            <path d="M48.6914058,35.3855827 C47.0806873,35.3855827 45.6489375,35.921551 44.5751252,36.9934878 L52.718202,36.9934878 C51.7338741,35.921551 50.2126399,35.3855827 48.6914058,35.3855827 Z" id="Shape" fill="#63B7E6"></path>
                            <polygon id="Rectangle-path" fill="#63B7E6" points="159.025622 41.9065313 169.942714 41.9065313 169.942714 85.2306419 159.025622 85.2306419"></polygon>
                            <polygon id="Rectangle-path" fill="#63B7E6" points="4.93355349 55.8417091 15.8506455 55.8417091 15.8506455 85.31997 4.93355349 85.31997"></polygon>
                            <polygon id="Rectangle-path" fill="#78BEE9" points="7.26014686 58.9681913 13.4345677 58.9681913 13.4345677 85.31997 7.26014686 85.31997"></polygon>
                            <polygon id="Shape" fill="#63B7E6" points="6.54427198 52.7152269 14.3294113 52.7152269 15.8506455 55.8417091 5.02303785 55.8417091"></polygon>
                            <polygon id="Rectangle-path" fill="#63B7E6" points="9.58674024 65.8464522 23.6357848 65.8464522 23.6357848 85.1413139 9.58674024 85.1413139"></polygon>
                            <polygon id="Rectangle-path" fill="#63B7E6" points="11.5553962 61.290721 21.5776445 61.290721 21.5776445 85.31997 11.5553962 85.31997"></polygon>
                            <polygon id="Shape" fill="#63B7E6" points="186.944743 41.9065313 182.738978 39.5840016 181.128259 45.0330135 179.607025 39.5840016 175.311776 41.9065313 173.790542 52.0006024 173.790542 94.6994166 188.555461 94.6994166 188.555461 51.6432902"></polygon>
                            <polygon id="Shape" fill="#63B7E6" points="180.770322 66.7397328 163.768293 66.7397328 162.157575 63.6132506 182.38104 63.6132506"></polygon>
                            <polygon id="Shape" fill="#78BEE9" points="180.770322 66.7397328 167.616121 66.7397328 166.005402 63.6132506 182.38104 63.6132506"></polygon>
                            <polygon id="Rectangle-path" fill="#63B7E6" points="160.188919 38.4227368 168.779418 38.4227368 168.779418 46.1942783 160.188919 46.1942783"></polygon>
                            <polygon id="Shape" fill="#63B7E6" points="164.484168 32.2591004 160.546856 39.2266894 168.331996 39.2266894"></polygon>
                            <path d="M131.464439,85.31997 L119.831472,85.31997 L119.831472,56.7349898 C119.831472,56.7349898 121.979097,55.1270846 125.647956,55.1270846 C129.316815,55.1270846 131.464439,56.7349898 131.464439,56.7349898 L131.464439,85.31997 Z" id="Shape" fill="#78BEE9"></path>
                            <path d="M148.555952,22.6116696 C147.571624,19.0385471 147.034718,17.0733297 147.034718,17.0733297 C147.034718,17.0733297 146.497812,19.0385471 145.513484,22.6116696 L147.034718,24.7555431 L148.555952,22.6116696 Z" id="Shape" fill="#63B7E6"></path>
                            <path d="M152.40378,40.7452664 L141.665656,40.7452664 C141.486688,42.0851874 141.218235,43.4251083 141.039266,44.8543574 L153.209139,44.8543574 C152.851201,43.4251083 152.672233,42.0851874 152.40378,40.7452664 Z" id="Shape" fill="#63B7E6"></path>
                            <path d="M154.998826,59.3255036 L139.07061,59.3255036 C138.981126,60.7547526 138.802157,62.0053455 138.712673,63.4345945 L155.356764,63.4345945 C155.177795,62.0946736 155.08831,60.6654245 154.998826,59.3255036 Z" id="Shape" fill="#63B7E6"></path>
                            <g transform="translate(85.904986, 21.438735)" id="Shape">
                                <polygon fill="#63B7E6" points="1.98056959 0.10099767 6.90220942 13.232223 1.98056959 20.1104838"></polygon>
                                <polygon fill="#78BEE9" points="6.90220942 13.232223 0.0119136575 22.8796538 0.0119136575 63.8812348 11.6448805 63.8812348 11.6448805 26.006136"></polygon>
                            </g>
                            <polygon id="Rectangle-path" fill="#78BEE9" points="43.9487347 47.2662151 53.2551082 47.2662151 53.2551082 85.1413139 43.9487347 85.1413139"></polygon>
                            <polygon id="Rectangle-path" fill="#63B7E6" points="163.768293 66.7397328 180.859806 66.7397328 180.859806 85.31997 163.768293 85.31997"></polygon>
                            <polygon id="Rectangle-path" fill="#78BEE9" points="174.595901 66.7397328 180.770322 66.7397328 180.770322 85.31997 174.595901 85.31997"></polygon>
                            <polygon id="Rectangle-path" fill="#78BEE9" points="163.768293 66.7397328 169.942714 66.7397328 169.942714 85.31997 163.768293 85.31997"></polygon>
                            <polygon id="Rectangle-path" fill="#78BEE9" points="0.101398018 68.2583099 15.5821924 68.2583099 15.5821924 85.31997 0.101398018 85.31997"></polygon>
                            <polygon id="Rectangle-path" fill="#63B7E6" points="50.2126399 65.1318277 89.0488524 65.1318277 89.0488524 85.31997 50.2126399 85.31997"></polygon>
                            <polygon id="Rectangle-path" fill="#78BEE9" points="53.2551082 68.2583099 85.9168998 68.2583099 85.9168998 85.31997 53.2551082 85.31997"></polygon>
                            <g transform="translate(191.687414, 51.107322)" id="Shape">
                                <path d="M0.0894843605,43.5920949 L3.22143698,43.5920949 L3.22143698,3.30513834 L5.99545216,3.30513834 C5.9059678,2.23320158 5.81648344,1.25059289 5.72699908,0.178656126 L0.178968721,0.178656126 L0.178968721,43.5920949 L0.0894843605,43.5920949 Z" fill="#63B7E6"></path>
                                <path d="M5.9059678,3.30513834 L3.13195262,3.30513834 L3.13195262,43.5920949 L4.83215547,43.5920949 C6.53235832,30.1928854 6.89029576,16.7043478 5.9059678,3.30513834 Z" fill="#78BEE9"></path>
                            </g>
                        </g>
                        <path d="M429.703899,236.004743 C363.217019,236.004743 291.629531,259.498024 247.066319,259.498024 C202.503108,259.498024 148.096617,222.78419 121.788215,222.78419 C95.4798127,222.78419 66.0394581,235.111462 47.2477424,235.111462 C35.2568381,235.111462 17.8968721,220.997628 1.96865593,210.903557 C5.9059678,239.577866 15.7492475,271.110672 28.9034485,302.911462 C31.9459167,310.236364 34.8989006,317.382609 38.0308532,324.350198 L517.845995,324.350198 C529.389477,300.320949 536.63771,274.41581 539.053788,248.421344 C509.702918,242.61502 467.645268,236.004743 429.703899,236.004743 Z" id="Shape" fill="url(#linearGradient-4)"></path>
                        <path d="M261.741755,286.475099 C257.983411,276.827668 229.706354,290.226877 229.706354,283.348617 C229.706354,276.470356 241.070867,271.64664 259.952067,258.962055 C278.385846,246.545455 297.982921,235.558103 281.96522,235.111462 C281.96522,235.111462 281.33883,235.022134 280.712439,235.022134 C243.844882,235.022134 195.523328,277.452964 94.7639378,277.452964 C60.7598808,277.452964 36.6885878,275.398419 17.3599659,272.718577 C20.7603716,282.633992 24.6081992,292.728063 28.8139641,302.822134 C36.0621973,320.151779 42.9524931,336.588142 51.5429917,351.684585 L183.26397,351.684585 C203.666405,337.570751 264.784223,294.514625 261.741755,286.475099 Z" id="Shape" fill="url(#linearGradient-5)"></path>
                        <path d="M281.96522,235.111462 C298.072405,235.558103 278.385846,246.545455 259.952067,258.962055 C241.070867,271.64664 229.706354,276.470356 229.706354,283.348617 C229.706354,290.226877 257.983411,276.73834 261.741755,286.475099 C264.873707,294.514625 203.666405,337.481423 183.353455,351.684585 L502.096747,351.684585 C517.488057,328.548617 528.405149,303.000791 534.400601,276.559684 C496.638201,276.916996 470.598252,277.542292 441.336866,277.542292 C401.874263,277.542292 319.459167,236.094071 281.96522,235.111462 Z" id="Shape" fill="url(#linearGradient-6)"></path>
                        <path d="M33.1092134,313.094862 C41.6102277,309.879051 52.2588666,306.037945 64.0708022,300.320949 C92.079407,286.921739 90.826626,263.607115 52.7957727,263.607115 C125.99398,263.607115 142.996008,306.127273 262.547114,306.127273 C382.09822,306.127273 444.110881,259.497955 487.779249,259.497955 C509.613433,259.408696 396.863139,346.146245 250.198272,346.146245 C103.533405,346.146245 138.342821,346.146245 92.2583757,346.146245 C74.8984098,346.146245 59.328131,344.806324 46.7108362,342.662451 C76.4196439,400.457708 124.472746,442.173913 295.835296,451.464032 C428.093181,458.610277 516.772182,368.746245 535.921835,269.324111 C517.040635,263.517787 500.217575,259.497955 487.779249,259.497955 C444.200366,259.497955 382.09822,306.127273 262.547114,306.127273 C142.996008,306.127273 126.172948,263.607115 52.7957727,263.607115 C40.7153841,263.607115 28.3665423,265.750988 16.1966693,269.234783 C19.9550124,280.311462 24.1607773,291.566798 28.9034485,302.822134 C30.2457139,306.305929 31.6774636,309.700395 33.1092134,313.094862 Z" id="Shape" fill="url(#linearGradient-7)"></path>
                        <path d="M250.198272,346.146245 C396.863139,346.146245 509.613433,259.408696 487.779249,259.497955 C444.021397,259.497955 382.09822,306.127273 262.547114,306.127273 C142.996008,306.127273 126.083464,263.696443 52.7957727,263.696443 C90.826626,263.696443 92.079407,287.011067 64.0708022,300.410277 C52.2588666,306.037945 41.6102277,309.879051 33.1092134,313.18419 C37.4044627,323.456917 41.7891964,333.283004 46.7108362,342.751779 C59.328131,344.895652 74.8984098,346.235573 92.2583757,346.235573 C138.342821,346.146245 103.62289,346.146245 250.198272,346.146245 Z" id="Shape" fill="url(#linearGradient-8)"></path>
                        <g transform="translate(11.632967, 53.596838)" id="Shape">
                            <g transform="translate(139.595602, 0.000000)" fill="#78BEE9">
                                <polygon points="23.5343868 157.217391 23.5343868 145.515415 18.5232626 145.515415 18.5232626 114.339921 21.0288247 114.339921 21.0288247 102.727273 16.0177005 102.727273 16.0177005 71.7304348 21.0288247 71.7304348 21.0288247 63.4229249 16.0177005 63.4229249 16.0177005 51.0063241 7.60617065 51.0063241 7.60617065 63.4229249 2.68453082 63.4229249 2.68453082 71.7304348 7.60617065 71.7304348 7.60617065 102.727273 2.68453082 102.727273 2.68453082 114.339921 5.19009291 114.339921 5.19009291 145.515415 0.178968721 145.515415 0.178968721 157.217391 5.19009291 164.363636 5.19009291 202.596047 0.178968721 202.596047 0.178968721 214.298024 5.19009291 221.354941 5.19009291 307.913834 7.60617065 307.913834 7.60617065 308.003162 16.0177005 308.003162 16.0177005 307.913834 18.5232626 307.913834 18.5232626 221.444269 23.5343868 214.298024 23.5343868 202.596047 18.5232626 202.596047 18.5232626 164.363636"></polygon>
                                <path d="M19.4181062,46.0039526 L15.39131,46.0039526 L13.2436854,29.656917 C14.6754351,28.6743083 15.6597631,26.2624506 15.6597631,23.4039526 C15.6597631,20.8134387 14.8544039,18.5802372 13.6016228,17.4189723 L13.6016228,0.26798419 L10.2012171,0.26798419 L10.2012171,17.5083004 C8.94843605,18.5802372 8.14307681,20.8134387 8.14307681,23.4932806 C8.14307681,26.3517787 9.12740478,28.7636364 10.5591545,29.7462451 L8.41152989,46.0932806 L4.38473367,46.0932806 L4.38473367,51.0956522 L19.4181062,51.0956522 L19.4181062,46.0039526 Z"></path>
                            </g>
                            <path d="M101.027843,205.633202 L101.027843,198.129644 L97.8064061,198.129644 L97.8064061,178.03083 L99.4171246,178.03083 L99.4171246,170.616601 L96.1956876,170.616601 L96.1956876,150.696443 L99.4171246,150.696443 L99.4171246,145.336759 L96.1956876,145.336759 L96.1956876,137.297233 L96.1062032,137.297233 L96.1062032,137.297233 L98.3433122,137.297233 L98.3433122,134.081423 L95.6587814,134.081423 L94.2270317,123.63004 C95.2113596,123.004743 95.8377501,121.486166 95.8377501,119.610277 C95.8377501,117.913043 95.300844,116.483794 94.4954847,115.76917 L94.4954847,104.69249 L92.3478601,104.69249 L92.3478601,115.76917 C91.5425008,116.483794 91.0055947,117.913043 91.0055947,119.610277 C91.0055947,121.396838 91.6319852,123.004743 92.5268288,123.63004 L91.095079,134.081423 L88.5895169,134.081423 L88.5895169,137.297233 L90.7371416,137.297233 L90.7371416,137.386561 L90.826626,137.386561 L90.826626,145.426087 L87.5157046,145.426087 L87.5157046,150.785771 L90.826626,150.785771 L90.826626,170.616601 L87.5157046,170.616601 L87.5157046,178.120158 L89.2159075,178.120158 L89.2159075,198.218972 L85.9944705,198.218972 L85.9944705,205.72253 L89.2159075,210.367589 L89.2159075,234.932806 L85.9944705,234.932806 L85.9944705,242.436364 L89.2159075,247.081423 L89.2159075,308.003162 L97.8064061,308.003162 L97.8064061,247.081423 L101.027843,242.436364 L101.027843,234.932806 L97.8064061,234.932806 L97.8064061,210.367589 L101.027843,205.633202 Z" fill="#4BB0E4"></path>
                            <g transform="translate(175.389347, 129.525692)" fill="#4BB0E4">
                                <polygon points="15.1228569 93.7051383 11.8119356 93.7051383 11.8119356 73.516996 13.4226541 73.516996 13.4226541 66.0134387 10.2012171 66.0134387 10.2012171 46.2719368 13.4226541 46.2719368 13.4226541 40.912253 10.2012171 40.912253 10.2012171 32.8727273 4.92163983 32.8727273 4.92163983 40.912253 1.61071849 40.912253 1.61071849 46.2719368 4.92163983 46.2719368 4.92163983 66.0134387 1.61071849 66.0134387 1.61071849 73.516996 3.31092134 73.516996 3.31092134 93.7051383 0 93.7051383 0 101.208696 3.31092134 105.764427 3.31092134 178.388142 4.92163983 178.388142 4.92163983 178.47747 10.2012171 178.47747 10.2012171 178.388142 11.8119356 178.388142 11.8119356 105.853755 15.1228569 101.208696"></polygon>
                                <path d="M12.4383261,29.656917 L9.84327966,29.656917 L8.41152989,19.2055336 C9.39585786,18.5802372 10.0222484,17.0616601 10.0222484,15.1857708 C10.0222484,13.4885375 9.48534222,12.0592885 8.67998297,11.344664 L8.67998297,0.357312253 L6.53235832,0.357312253 L6.53235832,11.344664 C5.72699908,12.0592885 5.19009291,13.4885375 5.19009291,15.1857708 C5.19009291,16.972332 5.81648344,18.5802372 6.71132704,19.2055336 L5.27957727,29.7462451 L2.68453082,29.7462451 L2.68453082,32.9620553 L12.3488418,32.9620553 L12.3488418,29.656917 L12.4383261,29.656917 Z"></path>
                            </g>
                            <path d="M224.158323,186.33834 L224.158323,177.137549 L220.131527,177.137549 L220.131527,152.572332 L222.100183,152.572332 L222.100183,143.371542 L218.252355,143.371542 L218.252355,119.252964 L222.100183,119.252964 L222.100183,112.642688 L218.252355,112.642688 L218.252355,102.816601 L218.162871,102.816601 L218.162871,102.816601 L220.757917,102.816601 L220.757917,98.886166 L217.625965,98.886166 L215.925762,86.112253 C216.999574,85.3083004 217.804934,83.4324111 217.804934,81.1992095 C217.804934,79.2339921 217.178543,77.4474308 216.283699,76.5541502 L216.283699,62.9762846 L213.688653,62.9762846 L213.688653,76.3754941 C212.704325,77.1794466 211.98845,79.055336 211.98845,81.1098814 C211.98845,83.343083 212.793809,85.2189723 213.867622,86.0229249 L212.167419,98.7968379 L208.945982,98.7968379 L208.945982,102.727273 L211.630513,102.727273 L211.630513,102.816601 L211.719997,102.816601 L211.719997,112.642688 L207.693201,112.642688 L207.693201,119.252964 L211.719997,119.252964 L211.719997,143.371542 L207.693201,143.371542 L207.693201,152.572332 L209.661857,152.572332 L209.661857,177.137549 L205.814029,177.137549 L205.814029,186.33834 L209.661857,191.787352 L209.661857,221.890909 L205.814029,221.890909 L205.814029,231.0917 L209.661857,236.63004 L209.661857,307.913834 L211.719997,307.913834 L211.719997,307.913834 L218.34184,307.913834 L218.34184,307.913834 L220.221011,307.913834 L220.221011,236.719368 L224.158323,231.0917 L224.158323,221.890909 L220.131527,221.890909 L220.131527,191.966008 L224.158323,186.33834 Z" fill="#4BB0E4"></path>
                            <path d="M43.1314618,205.633202 L43.1314618,198.129644 L39.8205404,198.129644 L39.8205404,178.03083 L41.4312589,178.03083 L41.4312589,170.616601 L38.209822,170.616601 L38.209822,150.696443 L41.4312589,150.696443 L41.4312589,145.336759 L38.209822,145.336759 L38.209822,137.297233 L38.209822,137.297233 L38.209822,137.297233 L40.3574466,137.297233 L40.3574466,134.081423 L37.7624002,134.081423 L36.3306504,123.63004 C37.3149783,123.004743 37.9413689,121.486166 37.9413689,119.610277 C37.9413689,117.913043 37.4044627,116.394466 36.5096191,115.679842 L36.5096191,104.69249 L34.3619945,104.69249 L34.3619945,115.76917 C33.5566352,116.483794 33.019729,117.913043 33.019729,119.610277 C33.019729,121.396838 33.6461196,123.004743 34.5409632,123.63004 L33.1092134,134.081423 L30.5141669,134.081423 L30.5141669,137.297233 L32.6617916,137.297233 L32.6617916,137.386561 L32.6617916,137.386561 L32.6617916,145.426087 L29.3508703,145.426087 L29.3508703,150.785771 L32.6617916,150.785771 L32.6617916,170.616601 L29.3508703,170.616601 L29.3508703,178.120158 L31.0510731,178.120158 L31.0510731,198.218972 L27.8296361,198.218972 L27.8296361,205.72253 L31.0510731,210.278261 L31.0510731,234.932806 L27.8296361,234.932806 L27.8296361,242.436364 L31.0510731,246.992095 L31.0510731,270.485375 L39.6415717,270.485375 L39.6415717,247.081423 L42.9524931,242.436364 L42.9524931,234.932806 L39.6415717,234.932806 L39.6415717,210.367589 L43.1314618,205.633202 Z" fill="#78BEE9"></path>
                            <path d="M89.6633293,230.109091 L86.2629236,230.109091 C86.2629236,229.305138 86.2629236,228.411858 86.2629236,227.607905 C86.2629236,222.337549 84.2047833,217.513834 80.8938619,213.940711 C77.8513937,210.635573 69.5293481,205.097233 66.8448173,203.310672 L66.8448173,195.985771 L65.1446145,195.985771 L65.1446145,203.310672 C62.4600837,205.097233 54.2275225,210.635573 51.0955699,213.940711 C47.6951642,217.513834 45.7265082,222.426877 45.7265082,227.607905 C45.7265082,228.501186 45.7265082,229.305138 45.7265082,230.109091 L42.4155869,230.109091 L42.4155869,247.796047 L45.7265082,247.796047 C45.7265082,247.796047 45.7265082,247.796047 45.7265082,247.796047 L86.1734392,247.796047 C86.1734392,247.796047 86.1734392,247.796047 86.1734392,247.796047 L89.5738449,247.796047 L89.5738449,230.109091 L89.6633293,230.109091 Z" fill="#78BEE9"></path>
                            <path d="M158.118865,307.913834 L239.191696,307.913834 L239.191696,247.796047 L158.118865,247.796047 L158.118865,239.399209 L55.2118505,239.399209 L55.2118505,233.503557 L51.0955699,233.503557 L51.0955699,225.196047 L46.8898049,225.196047 C46.8898049,222.605534 46.8898049,219.836364 46.8898049,216.888538 C46.8898049,210.278261 44.3842428,204.293281 40.1784779,199.916206 C36.241166,195.717787 25.5030428,188.571542 22.5500589,186.606324 L22.5500589,178.47747 L20.849856,178.47747 L20.849856,186.78498 C17.628419,188.928854 7.2482332,195.896443 3.48989006,200.094862 C2.41607773,201.256126 1.52123413,202.506719 0.626390524,203.757312 C5.10060855,218.675099 10.7381233,233.950198 17.0915129,249.225296 C25.8609802,270.396047 34.1830257,290.137549 45.8159926,307.913834 L158.118865,307.913834 L158.118865,307.913834 Z" fill="#4BB0E4"></path>
                        </g>
                        <path d="M522.141244,314.434783 L507.644777,314.434783 L507.644777,325.064822 L487.600281,325.064822 L487.600281,335.605534 L467.555784,335.605534 L467.555784,346.235573 L407.422294,346.235573 L407.422294,335.605534 L387.288312,335.605534 L387.288312,325.064822 L367.243816,325.064822 L367.243816,314.434783 L347.199319,314.434783 L347.199319,325.064822 L327.065338,325.064822 L327.065338,335.605534 L307.020841,335.605534 L307.020841,346.235573 L246.976835,346.235573 L246.976835,335.605534 L226.932338,335.605534 L226.932338,325.064822 L206.798357,325.064822 L206.798357,314.434783 L186.75386,314.434783 L186.75386,325.064822 L166.709364,325.064822 L166.709364,335.605534 L146.575383,335.605534 L146.575383,346.235573 L86.4418923,346.235573 L86.4418923,335.605534 L66.3973955,335.605534 L66.3973955,325.064822 L46.3528988,325.064822 L46.3528988,314.434783 L33.6461196,314.434783 C46.5318675,344.895652 59.9545216,372.051383 85.9944705,394.204743 L465.318675,394.204743 C490.284811,371.783399 509.523949,344.270356 522.141244,314.434783 Z" id="Shape" fill="#865CA6"></path>
                    </g>
                    <path d="M499.478789,135.9592 C500.014806,135.243625 500.461487,134.25971 500.461487,133.365241 C500.461487,131.039623 498.585427,129.16124 496.262685,129.16124 C496.084013,129.16124 495.816004,129.16124 495.637332,129.250687 L472.856596,89.8046293 C473.660622,89.0890545 474.196639,87.9262456 474.196639,86.6739898 C474.196639,84.3483719 472.320579,82.4699882 469.997837,82.4699882 C468.925803,82.4699882 467.943104,82.8277756 467.139078,83.5433503 L388.969889,24.0612005 C389.237897,23.5245194 389.327233,22.8983915 389.327233,22.2722636 C389.327233,19.9466457 387.451173,18.0682621 385.128431,18.0682621 C383.431043,18.0682621 381.912327,19.1416242 381.286974,20.5727736 L306.869905,6.44017262 C306.780569,4.20400157 304.904508,2.41506473 302.671103,2.41506473 C300.705706,2.41506473 299.097654,3.75676736 298.650973,5.63515104 L225.841956,3.39897999 C225.484612,1.43114947 223.787223,0 221.73249,0 C219.409749,0 217.533688,1.87838368 217.533688,4.20400157 C217.533688,4.29344841 217.533688,4.38289525 217.533688,4.56178894 L120.871902,35.1526089 C120.157212,33.9003531 118.817169,33.0953315 117.209117,33.0953315 C114.886375,33.0953315 113.010314,34.9737152 113.010314,37.2993331 C113.010314,37.925461 113.188987,38.5515889 113.367659,39.0882699 L75.2210947,68.2479404 C74.6850774,67.9795998 73.9703876,67.8007062 73.2556979,67.8007062 C70.9329562,67.8007062 69.0568957,69.6790898 69.0568957,72.0047077 C69.0568957,72.5413888 69.1462319,73.2569635 69.4142406,73.7041977 L8.66561304,142.041585 C7.77225087,143.919969 6.96822492,145.798352 6.25353519,147.766183 L70.4862752,75.4931346 L24.1207786,199.287564 C24.0314424,199.287564 23.8527699,199.287564 23.7634337,199.287564 C23.1380802,199.287564 22.5127267,199.466457 21.9767094,199.645351 L0.178672434,176.120832 C0.0893362169,177.104747 0,178.088662 0,179.072577 L20.189985,200.897607 C19.6539677,201.613182 19.2072866,202.50765 19.2072866,203.491565 C19.2072866,204.833268 19.7433039,205.90663 20.7260023,206.711652 L6.25353519,239.538643 C6.52154384,240.701452 6.78955249,241.774814 7.05756114,242.937623 L22.6913991,207.516673 C22.7807353,207.516673 22.7807353,207.516673 22.8700715,207.60612 L24.7461321,297.67909 C25.3714856,299.37858 26.0861753,301.07807 26.8008651,302.77756 L24.7461321,207.427226 C25.3714856,207.248333 25.9968391,206.979992 26.4435202,206.622205 L111.044918,284.35151 C110.419564,285.067085 109.972883,286.051 109.972883,287.213809 C109.972883,287.75049 110.062219,288.376618 110.240892,288.823852 L49.8496091,353.315026 C50.1176177,353.76226 50.3856264,354.209494 50.653635,354.746175 L110.955581,290.344449 C111.670271,290.970577 112.65297,291.417811 113.81434,291.417811 C113.903677,291.417811 113.993013,291.417811 114.082349,291.417811 L147.762103,432.028246 C148.566129,432.296587 149.370155,432.564927 150.174181,432.833268 L116.226418,290.791683 C116.494427,290.612789 116.762436,290.433896 116.941108,290.255002 L283.821161,356.892899 C283.821161,357.071793 283.731825,357.340133 283.731825,357.519027 C283.731825,358.145155 283.910497,358.86073 284.178506,359.397411 L183.675262,441.867399 C184.479288,442.046293 185.283314,442.225186 186.08734,442.40408 L285.518549,360.918007 C286.143903,361.454688 287.037265,361.723029 287.930627,361.723029 L306.244552,456 C306.869905,456 307.584595,456 308.209948,456 L289.806688,361.365241 C290.521377,361.096901 291.146731,360.56022 291.593412,359.844645 L439.355515,417.806199 C439.980868,417.358964 440.516886,417.001177 441.142239,416.553943 L292.129429,358.234602 C292.129429,358.055708 292.218766,357.876814 292.218766,357.608474 C292.218766,357.071793 292.040093,356.535112 291.950757,356.177324 L443.73299,260.379757 C444.447679,261.184778 445.519714,261.810906 446.770421,261.900353 L468.925803,394.102785 C469.46182,393.566104 469.997837,393.11887 470.533855,392.582189 L448.557145,261.542566 C449.182499,261.274225 449.807852,260.826991 450.254533,260.200863 L526.994344,302.77756 C527.173016,302.151432 527.441025,301.525304 527.619697,300.899176 L451.058559,258.411926 C451.147896,258.143586 451.147896,257.875245 451.147896,257.606905 C451.147896,256.086308 450.433206,254.744606 449.182499,254.029031 L495.19065,137.390349 C495.547995,137.479796 495.816004,137.569243 496.262685,137.569243 C496.441358,137.569243 496.530694,137.569243 496.709366,137.569243 L533.515888,279.431934 C533.783896,278.358572 533.962569,277.28521 534.230577,276.211848 L498.496091,138.642605 L537,207.158886 C536.731991,205.101608 536.463983,203.133778 536.106638,201.076501 L499.478789,135.9592 Z M465.977708,84.885053 C465.799035,85.3322872 465.620363,85.9584151 465.620363,86.584543 C465.620363,88.9101608 467.496423,90.7885445 469.819165,90.7885445 C470.265846,90.7885445 470.623191,90.6990977 471.069872,90.6096508 L491.88521,126.477834 L396.02745,31.664182 L465.977708,84.885053 Z M385.307104,26.2973715 C386.11113,26.2973715 386.915156,26.029031 387.540509,25.6712436 L493.135917,130.234602 L348.679255,91.2357787 C348.679255,91.1463319 348.679255,91.1463319 348.679255,91.0568851 C348.679255,89.8046293 348.232574,88.820714 347.339211,87.9262456 L383.96706,26.1184778 C384.324405,26.2079247 384.771086,26.2973715 385.307104,26.2973715 Z M298.561637,7.33464104 C298.918982,9.21302472 300.61637,10.733621 302.671103,10.733621 C304.368491,10.733621 305.887207,9.66025893 306.51256,8.22910945 L361.007653,18.6049431 L245.138579,5.63515104 L298.561637,7.33464104 Z M225.573948,5.45625736 L381.018965,22.7194978 C381.197638,23.7034131 381.644319,24.5084347 382.359008,25.1345626 L345.73116,86.9423303 C345.373815,86.8528835 344.927134,86.7634366 344.391116,86.7634366 C343.229745,86.7634366 342.336383,87.121224 341.532357,87.9262456 L225.395275,5.63515104 C225.395275,5.5457042 225.395275,5.45625736 225.573948,5.45625736 Z M221.553818,8.13966261 C222.715189,8.13966261 223.608551,7.78187525 224.412577,6.97685367 L340.549659,89.2679482 C340.370987,89.6257356 340.370987,89.983523 340.28165,90.4307572 L171.168192,109.840722 C170.900183,109.125147 170.542838,108.499019 169.828148,108.051785 L220.57112,8.05021577 C220.928464,8.13966261 221.285809,8.13966261 221.553818,8.13966261 Z M341.085676,93.4719498 L271.314091,171.64849 C270.778074,171.290702 269.974048,171.111809 269.259358,171.111809 C268.097987,171.111809 267.025952,171.559043 266.221926,172.364064 L171.168192,112.703021 C171.257528,112.43468 171.346864,112.16634 171.346864,111.719106 L340.460323,92.3985877 C340.638995,92.8458219 340.817668,93.2036093 341.085676,93.4719498 Z M114.797039,40.3405257 C115.511728,40.8772067 116.494427,41.4138878 117.477125,41.4138878 C119.799867,41.4138878 121.675927,39.5355041 121.675927,37.2098862 C121.675927,37.1204394 121.675927,37.0309925 121.675927,36.8520989 L206.545334,9.83915261 L80.2239228,66.9956846 L114.797039,40.3405257 Z M218.248378,6.44017262 C218.516387,6.70851314 218.695059,6.97685367 218.963068,7.15574735 L168.220096,107.246763 C167.862752,107.157317 167.594743,107.157317 167.148062,107.157317 C165.718682,107.157317 164.557312,107.783444 163.753286,108.946253 L77.811845,72.0047077 C77.811845,71.9152609 77.811845,71.825814 77.811845,71.7363672 C77.811845,71.1996862 77.7225087,70.5735583 77.4545001,70.0368772 L218.248378,6.44017262 Z M26.354184,200.003138 C26.1755116,199.913692 26.0861753,199.824245 25.9075029,199.734798 L72.3623357,75.7614751 C72.7196806,75.8509219 73.0770255,75.9403688 73.6130428,75.9403688 C75.2210947,75.9403688 76.5611379,75.1353472 77.2758276,73.7936446 L163.038596,110.556297 C163.038596,110.824637 162.94926,111.003531 162.94926,111.271871 C162.94926,111.719106 163.038596,112.255787 163.217268,112.703021 L26.354184,200.003138 Z M114.618366,282.830914 C114.439694,282.830914 114.261021,282.741467 114.082349,282.741467 C113.546332,282.741467 112.920978,282.830914 112.474297,283.009808 L27.604891,205.101608 C27.8728997,204.564927 27.9622359,203.9388 27.9622359,203.312672 C27.9622359,202.686544 27.7835635,201.970969 27.5155548,201.523735 L164.199967,114.313064 C164.467975,114.581404 164.735984,114.760298 165.003993,114.939192 L114.618366,282.830914 Z M116.583763,282.920361 L166.880053,115.56532 C166.969389,115.56532 167.058726,115.56532 167.148062,115.56532 C168.309433,115.56532 169.381467,115.118086 170.185493,114.313064 L265.239228,173.884661 C265.060556,174.331895 264.971219,174.868576 264.971219,175.31581 C264.971219,175.852491 265.060556,176.478619 265.239228,176.925853 L116.583763,282.920361 Z M284.357179,355.193409 L117.83447,288.555512 C118.013143,288.108278 118.102479,287.571597 118.102479,287.034916 C118.281151,286.051 117.923806,285.245979 117.477125,284.619851 L266.311263,178.44645 C266.936616,178.983131 267.740642,179.430365 268.544668,179.519812 L286.501248,353.583366 C285.697222,353.851707 284.982532,354.477834 284.357179,355.193409 Z M442.928964,258.59082 L290.968059,354.656728 C290.342705,354.0306 289.449343,353.583366 288.555981,353.404472 L270.599401,179.251471 C271.314091,178.983131 272.118117,178.535896 272.564798,177.820322 L442.928964,256.265202 C442.839627,256.622989 442.750291,256.980777 442.750291,257.517458 C442.750291,257.964692 442.839627,258.322479 442.928964,258.59082 Z M443.822326,254.744606 L273.279488,176.210279 C273.368824,175.941938 273.368824,175.673597 273.368824,175.405257 C273.368824,174.421342 273.100815,173.61632 272.654134,172.990192 L342.42572,94.8136524 C342.961737,95.1714398 343.765763,95.3503335 344.480453,95.3503335 C344.927134,95.3503335 345.463151,95.2608866 345.820496,95.0819929 L444.179671,254.476265 C444.000998,254.565712 443.911662,254.655159 443.822326,254.744606 Z M447.395774,253.402903 C447.217102,253.402903 447.03843,253.313456 446.949093,253.313456 C446.591748,253.313456 446.234404,253.402903 445.787723,253.49235 L347.339211,94.0086308 C347.60722,93.7402903 347.875229,93.3825029 348.053901,92.9352687 L492.153219,131.934092 C492.063883,132.291879 491.974547,132.739113 491.974547,133.275794 C491.974547,134.617497 492.510564,135.690859 493.493262,136.495881 L447.395774,253.402903 Z" id="Shape" fill="url(#linearGradient-9)"></path>
                    <path d="M296.066492,455.605776 C375.170482,459.82823 438.63244,429.743248 481,384 L71,384 C104.429257,422.09005 163.06453,448.480386 296.066492,455.605776 Z" id="Shape" fill="url(#linearGradient-10)"></path>
                    <path d="M179.754872,305 C203.912047,305 216.43799,308.027605 223.953556,317.644702 C231.469122,327.261799 255,394.136242 255,394.136242 L231.469122,394.136242 C231.469122,394.136242 215.811693,374.813001 212.680207,364.483526 L208.922424,405 L130.277397,405 C130.277397,405 124.909136,321.562778 136.182484,313.815672 C147.366362,306.068566 155.687167,305 179.754872,305 Z" id="Shape" fill="#131A32"></path>
                    <path d="M296.066492,455.605776 C375.170482,459.82823 438.63244,429.743248 481,384 L71,384 C104.429257,422.09005 163.06453,448.480386 296.066492,455.605776 Z" id="Shape" fill="url(#linearGradient-10)"></path>
                    <path d="M366.692368,411 C333.963745,411 203.671808,411 176.36831,411 C149.064812,411 111,408.409091 111,401.5 C111,394.590909 149.687367,392 176.36831,392 C203.049253,392 335.119919,392 366.692368,392 C398.264817,392 443,394.85 443,401.5 C443.088801,408.236364 399.420991,411 366.692368,411 Z" id="Shape" fill="#131A32" opacity="0.1"></path>
                    <path d="M195.83434,295.543623 C195.83434,295.543623 208.834596,318.350828 199.81401,335.812595 C190.793425,353.274362 164.173855,354.076177 155.153269,334.119873 C146.132684,314.163568 150.466102,298.750886 156.6567,291 L195.83434,295.543623 Z" id="Shape" fill="#273356"></path>
                    <path d="M205,395.77576 C207.563131,388.511939 212.777778,385.084068 217.90404,385.002452 C223.030303,384.920836 232.39899,386.87962 235.84596,390.389106 C239.292929,393.898593 240,397 240,397 L205,395.77576 Z" id="Shape" fill="#CB9B70"></path>
                    <path d="M199.94851,290.637961 C202.598761,305.516696 201.450319,329 182.015146,329 C162.579973,329 148.445302,298.077329 156.131029,278 L199.94851,290.637961 Z" id="Shape" fill="#131A32"></path>
                    <path d="M203.478156,265.343859 C205.595227,282.791717 201.545178,314 186.265451,314 C170.985724,314 154.509391,294.033894 153.22074,274.607413 C151.747995,255.180931 157.546928,243.129318 173.563027,240.431196 C189.48708,237.733073 201.361085,247.896001 203.478156,265.343859 Z" id="Shape" fill="#273356"></path>
                    <path d="M135.409433,313.638727 C124.14479,321.364621 120.747517,333.492479 124.412996,353.525902 C128.078475,373.559325 144.170822,398.533727 161.067785,402.03733 C177.964749,405.540933 221.503487,398.354055 221.503487,398.354055 C221.503487,398.354055 225.258368,384.519314 212.116285,382.902266 C198.974202,381.285219 172.42183,382.992102 164.465059,377.601944 C156.508287,372.211785 146.674076,305.822997 135.409433,313.638727 Z" id="Shape" fill="#273356"></path>
                    <path d="M237.046432,391.348318 C232.562787,391.438143 227.451432,391.438143 222.160732,391.527967 C217.408068,391.617792 212.655405,391.617792 207.902742,391.707617 C195.43821,391.797441 183.780734,391.887266 177.413958,391.797441 C159.300034,391.527967 145.580081,383.623398 138.585596,363.412852 C132.667185,345.986871 131.770456,326.405097 142.889895,318.141229 C140.468727,313.919471 137.957886,311.853504 135.447045,313.649997 C124.14826,321.374917 120.74069,333.501244 124.417279,353.532141 C128.093867,373.652862 144.234988,398.53429 161.183165,402.037451 C178.131341,405.540612 221.80204,398.354641 221.80204,398.354641 C221.80204,398.354641 221.891713,398.085167 221.981386,397.725868 L240.992039,398.354641 C241.081712,398.264816 240.454002,395.031129 237.046432,391.348318 Z" id="Shape" fill="#131A32" opacity="0.5"></path>
                    <path d="M173.522654,287.568026 C176.791393,281.797266 162.832995,265.372794 169.105439,243 C157.620681,247.261485 153.380155,258.447882 154.616975,275.49382 C154.70532,277.269439 154.970353,278.956276 155.32373,280.731895 C153.556844,285.703627 153.115122,291.119264 153.733532,296.623681 C149.404662,305.14665 147.637776,318.552571 155.147041,335.154605 C159.917633,345.719535 169.547161,350.336143 179,349.98102 C164.511536,344.654164 160.88942,310.207163 173.522654,287.568026 Z" id="Shape" fill="#131A32" opacity="0.5"></path>
                    <path d="M163.189634,278.461769 C163.649596,284.678635 166.409373,291.916181 171.192985,297.297946 C176.068589,302.586922 182.324082,304.906649 185.451828,305 C188.579575,305.092227 198.974732,293.679173 200.170635,286.16326 C201.366538,278.647347 201.182553,269.739598 200.170635,261.388583 C199.158717,253.130357 191.063373,247.563014 182.140097,248.026959 C173.124828,248.398115 166.68535,253.87267 164.753507,260.089536 C162.821664,266.213614 162.821664,272.152113 163.189634,278.461769 Z" id="Shape" fill="#CB9B70"></path>
                    <path d="M184.946685,263.814007 C190.113269,263.991621 196.66376,269.32004 201,276.06937 C201,272.073056 200.723219,267.899128 200.261917,263.814007 C199.247052,255.910186 191.128134,250.581767 182.178872,251.025802 C173.13735,251.38103 166.67912,256.620642 164.741651,262.570709 C162.896442,268.076742 162.804182,273.40516 163.173224,279 C172.122485,268.43197 184.946685,263.814007 184.946685,263.814007 Z" id="Shape" fill="#131A32"></path>
                    <path d="M163.648181,261.785151 C163.131337,263.513777 162.700633,265.333382 162.442211,267.062008 C161.839225,271.2471 161.925366,275.432193 162.269929,279.890227 C162.700633,285.985905 165.284856,293.082367 169.764176,298.359223 C172.003836,300.906671 174.588059,302.726276 177,304 C170.884006,293.446288 168.385923,277.79768 172.865243,264.423579 C175.621748,255.871433 165.112574,256.781236 163.648181,261.785151 Z" id="Shape" fill="#131A32" opacity="0.15"></path>
                    <path d="M165,261.241951 C167.792793,262.809401 174.402402,261.851515 176.915916,259.239098 C179.15015,255.146312 187.249249,249.050673 196,246.177014 C195.162162,245.393289 194.231231,244.609564 193.393393,244 C176.45045,246.264095 166.582583,256.45252 165,261.241951 Z" id="Shape" fill="#131A32"></path>
                    <g id="Group" transform="translate(300.000000, 237.000000)">
                        <path d="M77.6370861,45.2756906 C86.3735099,49.6342541 99.0728477,48.1220994 106.998675,54.6154696 C114.834437,61.1977901 110.511258,78.2762431 110.511258,78.2762431 L77.6370861,67.6911602 L77.6370861,45.2756906 Z" id="Shape" fill="#F26D6D"></path>
                        <path d="M106.998675,54.6154696 C104.116556,52.3027624 100.69404,50.9685083 97.0013245,50.0790055 C101.504636,54.3486188 104.206623,62.798895 103.125828,75.9635359 L110.511258,78.2762431 C110.421192,78.3651934 114.834437,61.1088398 106.998675,54.6154696 Z" id="Shape" fill="#131A32" opacity="0.1"></path>
                        <path d="M73.2238411,59.8635359 C84.5721854,60.219337 107.719205,55.4160221 115.554967,70.2707182 C123.300662,85.0364641 113.843709,109.675691 113.843709,109.675691 L72.413245,84.5027624 L73.2238411,59.8635359 Z" id="Shape" fill="#F26D6D"></path>
                        <path d="M111.592053,81.1226519 C107.178808,76.8530387 107.35894,68.3138122 102.855629,60.7530387 C92.9483444,58.0845304 80.5192053,60.0414365 73.1337748,59.6856354 L72.413245,84.3248619 L113.753642,109.49779 C113.753642,109.49779 119.878146,93.4867403 118.166887,79.6104972 C116.635762,82.101105 114.384106,83.8801105 111.592053,81.1226519 Z" id="Shape" fill="#131A32" opacity="0.1"></path>
                        <path d="M53.7695364,17.701105 C60.794702,36.6475138 76.8264901,38.2486188 85.3827815,45.8983425 C93.9390728,53.5480663 93.5788079,66.8906077 93.5788079,66.8906077 L48.1854305,66.8906077 L53.7695364,17.701105 Z" id="Shape" fill="#F26D6D"></path>
                        <path d="M43.5019868,84.5027624 L70.0715232,73.4729282 C70.0715232,73.4729282 65.4781457,62.8878453 62.3258278,51.2353591 C60.2543046,43.4077348 61.6953642,34.8685083 59.2635762,25.0839779 C56.9218543,15.2994475 50.1668874,-1.60110497 27.8304636,2.22375691 C5.49403974,6.04861878 5.22384106,25.0839779 6.75496689,31.7552486 C8.28609272,38.4265193 13.2397351,38.960221 14.2304636,43.0519337 C15.0410596,47.1436464 12.3390728,52.0359116 15.2211921,57.4618785 C17.0225166,61.0198895 19.4543046,56.661326 21.5258278,60.3082873 C23.6874172,63.9552486 26.7496689,72.6723757 34.3152318,71.8718232 C36.2066225,71.6939227 37.8278146,71.3381215 39.2688742,70.8044199 C40.5298013,75.1629834 43.5019868,84.5027624 43.5019868,84.5027624 Z" id="Shape" fill="#996F4D"></path>
                        <path d="M47.1046358,41.9845304 C49.5364238,45.5425414 55.8410596,41.8955801 53.8596026,32.7337017 C51.7880795,22.7712707 44.2225166,18.7685083 40.8900662,27.8414365 C37.9178808,35.8469613 44.6728477,38.4265193 47.1046358,41.9845304 Z" id="Shape" fill="#996F4D"></path>
                        <path d="M32.2437086,68.1359116 C34.7655629,64.9337017 37.6476821,61.0198895 34.4953642,59.3298343 C31.5231788,57.8176796 26.4794702,58.3513812 22.6066225,62.4430939 C22.2463576,61.7314917 21.5258278,60.4861878 21.2556291,59.8635359 C21.2556291,59.8635359 24.1377483,56.9281768 29.2715232,53.9928177 C34.4953642,50.9685083 38.3682119,53.1922652 41.5205298,51.6801105 C44.6728477,50.1679558 46.4741722,46.6099448 42.8715232,39.8497238 C39.2688742,33.0005525 35.1258278,36.380663 30.3523179,30.4209945 C25.3986755,24.2834254 33.594702,23.2160221 33.594702,23.2160221 L38.3682119,21.7038674 C38.3682119,21.7038674 43.592053,29.8872928 47.3748344,37.981768 C50.9774834,45.6314917 50.797351,48.3 50.797351,55.060221 C50.797351,61.9093923 48.2754967,64.8447514 46.384106,66.979558 C44.402649,69.1143646 42.0609272,71.160221 34.4953642,71.8718232 C32.3337748,72.0497238 30.6225166,71.5160221 29.0913907,70.5375691 C30.0821192,70.0038674 31.2529801,69.2922652 32.2437086,68.1359116 Z" id="Shape" fill="#131A32"></path>
                        <path d="M24.7682119,1.06740331 C8.19602649,3.91381215 6.93509934,19.7469613 6.03443709,23.3049724 C5.04370861,26.8629834 -1.0807947,29.3535912 0.540397351,32.4668508 C2.1615894,35.5801105 4.77350993,38.3375691 9.09668874,36.7364641 C13.3298013,35.1353591 20.8953642,26.8629834 33.6847682,28.1972376 C46.4741722,29.620442 51.5178808,37.6259669 54.1298013,45.2756906 C56.7417219,52.9254144 54.6701987,68.8475138 66.018543,74.6292818 C77.3668874,80.4110497 85.9231788,66.7127072 101.504636,74.6292818 C101.504636,74.6292818 97.0013245,63.421547 89.7059603,59.5077348 C82.410596,55.5939227 72.2331126,62.3541436 67.189404,51.5911602 C62.1456954,40.8281768 61.0649007,19.658011 55.3907285,12.3640884 C49.6264901,5.07016575 41.2503311,-1.77900552 24.7682119,1.06740331 Z" id="Shape" fill="#F26D6D"></path>
                        <path d="M10.7178808,24.1055249 C12.2490066,20.8143646 15.1311258,14.6767956 31.7033113,11.8303867 L45.1231788,8.09447514 C45.1231788,8.09447514 30.7125828,10.318232 25.5788079,6.22651934 C23.3271523,4.35856354 23.597351,2.49060773 24.4980132,0.978453039 C8.10596026,3.91381215 6.93509934,19.658011 5.94437086,23.1270718 C4.95364238,26.6850829 -1.17086093,29.1756906 0.450331126,32.2889503 C0.990728477,33.4453039 1.8013245,34.4237569 2.70198675,35.4022099 C-0.0900662252,31.7552486 9.00662252,27.9303867 10.7178808,24.1055249 Z" id="Shape" fill="#131A32" opacity="0.1"></path>
                        <path d="M67.2794702,63.5104972 C59.7139073,71.9607735 48.6357616,76.5861878 38.1880795,77.7425414 C38.1880795,77.7425414 39.8092715,89.2171271 42.4211921,90.5513812 C45.0331126,91.7966851 65.9284768,83.3464088 71.602649,73.9176796 L67.2794702,63.5104972 Z" id="Shape" fill="#EAE6F2"></path>
                        <path d="M101.594702,74.6292818 C88.1748344,68.2248619 67.3695364,70.8933702 50.9774834,78.2762431 C50.9774834,78.2762431 28.2807947,86.9933702 23.5072848,94.4651934 C18.7337748,101.937017 19.8145695,127.376796 9.99735099,145.878453 L115.284768,145.878453 L101.594702,74.6292818 Z" id="Shape" fill="#EAE6F2"></path>
                        <path d="M7.02516556,23.6607735 L52.9589404,11.2966851 C54.5801325,10.8519337 55.4807947,9.25082873 55.1205298,7.64972376 L54.7602649,6.22651934 C54.3099338,4.62541436 52.6887417,3.82486188 51.0675497,4.18066298 L5.04370861,16.6337017 C3.42251656,17.078453 2.5218543,18.679558 2.88211921,20.280663 L3.24238411,21.7038674 C3.78278146,23.3049724 5.49403974,24.1055249 7.02516556,23.6607735 Z" id="Shape" fill="#131A32"></path>
                        <path d="M54.2198675,45.2756906 C56.8317881,52.9254144 54.7602649,68.8475138 66.1086093,74.6292818 C77.4569536,80.4110497 86.013245,66.7127072 101.594702,74.6292818 C101.594702,74.6292818 97.0913907,63.421547 89.7960265,59.5077348 C82.5006623,55.5939227 77.7271523,61.1977901 68.1801325,58.8850829 C58.6331126,56.5723757 54.2198675,45.2756906 54.2198675,45.2756906 Z" id="Shape" fill="#F26D6D"></path>
                        <path d="M76.015894,66.001105 C69.981457,66.979558 62.9562914,67.4243094 57.192053,61.9983425 C58.5430464,67.1574586 60.8847682,71.9607735 66.1086093,74.718232 C77.4569536,80.5 86.013245,66.8016575 101.594702,74.718232 C101.594702,74.718232 100.423841,72.0497238 98.4423841,68.7585635 C92.2278146,64.7558011 82.9509934,64.8447514 76.015894,66.001105 Z" id="Shape" fill="#131A32" opacity="0.1"></path>
                        <path d="M67.3695364,51.5022099 C66.9192053,50.5237569 66.5589404,49.4563536 66.1086093,48.3 C63.6768212,46.698895 61.605298,44.9198895 60.0741722,43.0519337 C52.6887417,33.4453039 49.5364238,19.4801105 36.1165563,18.2348066 C22.6966887,16.9895028 13.5099338,35.0464088 9.27682119,36.6475138 C13.5099338,34.9574586 21.0754967,26.7740331 33.8649007,28.1082873 C46.6543046,29.5314917 51.6980132,37.5370166 54.3099338,45.1867403 C54.3099338,45.1867403 58.813245,56.3944751 68.2701987,58.7071823 C74.6649007,60.3082873 78.9880795,58.1734807 83.4013245,57.9066298 C77.2768212,57.9066298 70.9721854,59.3298343 67.3695364,51.5022099 Z" id="Shape" fill="#131A32" opacity="0.1"></path>
                        <path d="M89.7960265,59.5077348 C91.0569536,60.1303867 92.1377483,61.0198895 93.218543,61.9093923 C92.5880795,57.3729282 90.6066225,50.5237569 85.4728477,45.8983425 C81.4198675,42.2513812 75.7456954,40.0276243 70.0715232,36.6475138 C73.4940397,42.3403315 75.9258278,49.8121547 76.4662252,57.9955801 C80.8794702,58.3513812 85.6529801,57.2839779 89.7960265,59.5077348 Z" id="Shape" fill="#131A32" opacity="0.1"></path>
                        <g transform="translate(9.006623, 27.574586)" fill="#131A32" id="Shape">
                            <path d="M57.6423841,47.321547 L39.2688742,54.8823204 C39.989404,56.661326 41.0701987,58.0845304 42.5112583,58.7961326 C49.1761589,62.3541436 64.1271523,53.1922652 68.0900662,49.901105 C68.9006623,49.1895028 69.8913907,48.1220994 70.7019868,46.9657459 C66.2887417,48.4779006 62.2357616,49.4563536 57.6423841,47.321547 Z" opacity="0.1"></path>
                            <path d="M57.1019868,47.0546961 C45.7536424,41.2729282 47.8251656,25.3508287 45.213245,17.701105 C42.6013245,10.0513812 37.5576159,1.95690608 24.7682119,0.622651934 C11.9788079,-0.800552486 4.41324503,7.4718232 0.18013245,9.16187845 C0.810596026,9.87348066 1.53112583,10.6740331 2.1615894,11.2077348 C9.63708609,10.1403315 13.9602649,3.3801105 23.5072848,5.07016575 C34.3152318,6.93812155 38.0980132,10.1403315 39.0887417,21.7928177 C40.1695364,33.4453039 37.197351,36.0248619 37.197351,36.0248619 C37.197351,36.0248619 36.386755,48.2110497 39.2688742,54.9712707 L57.6423841,47.4104972 C57.4622517,47.2325967 57.2821192,47.2325967 57.1019868,47.0546961 Z" opacity="0.15"></path>
                        </g>
                        <path d="M45.1231788,99.4464088 C46.2039735,105.583978 44.6728477,113.589503 45.1231788,114.567956 C45.5735099,115.724309 50.5271523,115.635359 51.9682119,114.834807 C53.4092715,114.034254 52.2384106,102.203867 51.9682119,98.8237569 C51.6980132,95.3546961 48.9059603,93.2198895 46.2940397,89.0392265 C44.6728477,86.5486188 43.0516556,76.8530387 42.5112583,77.1198895 C41.0701987,77.3867403 39.6291391,77.5646409 38.2781457,77.7425414 C38.2781457,77.7425414 38.6384106,80.5889503 39.4490066,83.5243094 C33.1443709,86.7265193 26.1192053,90.818232 23.6874172,94.5541436 C23.3271523,95.0878453 22.9668874,95.8883978 22.6066225,96.6889503 C24.4980132,95.3546961 26.9298013,94.1983425 30.2622517,93.3088398 C36.8370861,91.5298343 44.0423841,93.3088398 45.1231788,99.4464088 Z" id="Shape" fill="#131A32" opacity="0.1"></path>
                        <path d="M34.6754967,109.675691 C31.1629139,109.675691 26.389404,152.193923 26.389404,152.193923 L46.2940397,152.193923 C46.2940397,152.193923 41.9708609,140.986188 39.1788079,130.845856 C36.2966887,120.883425 38.1880795,109.675691 34.6754967,109.675691 Z" id="Shape" fill="#131A32" opacity="0.1"></path>
                        <path d="M51.8781457,145.878453 C73.1337748,142.409392 83.1311258,126.309392 84.2119205,118.748619 C85.3827815,111.276796 80.9695364,96.6 83.2211921,88.9502762 L110.060927,140.096685 L51.8781457,145.878453 Z" id="Shape" fill="#131A32" opacity="0.1"></path>
                        <path d="M81.5099338,90.1066298 C85.9231788,106.473481 105.827815,136.093923 101.594702,138.673481 C97.3615894,141.253039 60.7046358,140.096685 52.8688742,140.363536 C45.0331126,140.630387 40.0794702,160.021547 40.0794702,160.021547 C40.0794702,160.021547 131.136424,164.913812 135.189404,150.681768 C139.242384,136.449724 115.104636,81.1226519 101.594702,74.8071823 C88.0847682,68.4027624 77.186755,73.739779 81.5099338,90.1066298 Z" id="Shape" fill="#EAE6F2"></path>
                        <path d="M53.7695364,160.733149 C53.7695364,154.061878 49.8066225,145.522652 48.0953642,145.255801 C46.384106,144.98895 39.8092715,144.277348 36.0264901,142.943094 C32.2437086,141.51989 25.3986755,137.695028 19.4543046,142.943094 C13.5099338,148.19116 12.0688742,160.822099 12.0688742,160.822099 L53.7695364,160.822099 L53.7695364,160.733149 Z" id="Shape" fill="#996F4D"></path>
                        <path d="M53.7695364,160.733149 C53.7695364,154.061878 49.8066225,145.522652 48.0953642,145.255801 C47.3748344,145.077901 45.3933775,144.9 43.0516556,144.544199 C44.9430464,152.994475 38.9986755,157.175138 20.1748344,155.218232 C17.9231788,154.951381 15.6715232,154.773481 13.4198675,154.50663 C12.4291391,158.064641 12.0688742,160.91105 12.0688742,160.91105 L53.7695364,160.733149 Z" id="Shape" fill="#131A32" opacity="0.1"></path>
                    </g>
                    <g id="Group" transform="translate(176.000000, 263.000000)">
                        <polygon id="Shape" fill="url(#radialGradient-11)" opacity="0.4" points="164.395368 57.3707006 61.1640714 131.474522 0.0989259494 131.474522 0.0989259494 0.354140127 164.662807 0.177070064"></polygon>
                        <path d="M148.081614,131.474522 L18.8196275,131.474522 C17.7498731,131.474522 16.9475573,132.271338 16.9475573,133.333758 L16.9475573,135.989809 C16.9475573,137.583439 18.1956041,138.82293 19.8002357,138.82293 L146.922714,138.82293 C148.973076,138.82293 150.666854,137.140764 150.666854,135.104459 L150.666854,133.864968 C150.488562,132.625478 149.507953,131.474522 148.081614,131.474522 Z" id="Shape" fill="url(#linearGradient-12)"></path>
                        <path d="M148.081614,131.474522 L18.8196275,131.474522 C17.7498731,131.474522 16.9475573,132.271338 16.9475573,133.333758 L16.9475573,135.989809 C16.9475573,137.583439 18.1956041,138.82293 19.8002357,138.82293 L146.922714,138.82293 C148.973076,138.82293 150.666854,137.140764 150.666854,135.104459 L150.666854,133.864968 C150.488562,132.625478 149.507953,131.474522 148.081614,131.474522 Z" id="Shape" fill="#131A32" opacity="0.1"></path>
                        <path d="M148.081614,131.474522 L51.2688435,131.474522 L51.2688435,138.82293 L146.922714,138.82293 C148.973076,138.82293 150.666854,137.140764 150.666854,135.104459 L150.666854,133.864968 C150.488562,132.625478 149.507953,131.474522 148.081614,131.474522 Z" id="Shape" fill="#131A32" opacity="0.15"></path>
                        <path d="M163.058175,55.511465 L70.881007,55.511465 C69.543814,55.511465 68.4740596,56.4853503 68.206621,57.7248408 L52.7843288,131.563057 L147.635883,131.563057 C149.418807,131.563057 151.112585,130.500637 152.004047,128.995541 L165.821708,58.8757962 C166.178292,57.1050955 164.841099,55.511465 163.058175,55.511465 Z" id="Shape" fill="url(#linearGradient-13)"></path>
                        <path d="M163.058175,55.511465 L70.881007,55.511465 C69.543814,55.511465 68.4740596,56.4853503 68.206621,57.7248408 L52.7843288,131.563057 L147.635883,131.563057 C149.418807,131.563057 151.112585,130.500637 152.004047,128.995541 L165.821708,58.8757962 C166.178292,57.1050955 164.841099,55.511465 163.058175,55.511465 Z" id="Shape" fill="#131A32" opacity="0.1"></path>
                    </g>
                    <path d="M181.791098,277 C182.749519,277 182.823244,288.225324 184.297739,288.663813 C185.698509,289.102302 189.45847,289.716187 187.394177,291.031654 C185.329885,292.347122 181.053851,292.43482 180.242879,290.593165 C179.431907,288.751511 180.832677,277 181.791098,277 Z" id="Shape" fill="#131A32" opacity="0.1"></path>
                </g>
            </g>
        </g>
    </g>
</svg>