<?xml version="1.0" encoding="UTF-8"?>
<svg width="566px" height="443px" viewBox="0 0 566 443" version="1.1" xmlns="http://www.w3.org/2000/svg" xmlns:xlink="http://www.w3.org/1999/xlink">
    <!-- Generator: Sketch 59.1 (86144) - https://sketch.com -->
    <title>Bluvalt-one_stop_shop</title>
    <desc>Created with Sketch.</desc>
    <defs>
        <linearGradient x1="61.7288844%" y1="38.976122%" x2="34.0680552%" y2="66.5474191%" id="linearGradient-1">
            <stop stop-color="#DDE6EF" offset="0%"></stop>
            <stop stop-color="#9FCEEF" offset="100%"></stop>
        </linearGradient>
        <linearGradient x1="98.3828937%" y1="0.462375758%" x2="1.24050075%" y2="99.9966386%" id="linearGradient-2">
            <stop stop-color="#6DC38D" offset="0%"></stop>
            <stop stop-color="#016F80" offset="100%"></stop>
        </linearGradient>
        <linearGradient x1="98.3371429%" y1="0.482352514%" x2="1.25382653%" y2="99.9586526%" id="linearGradient-3">
            <stop stop-color="#6DC38D" offset="0%"></stop>
            <stop stop-color="#016F80" offset="100%"></stop>
        </linearGradient>
        <linearGradient x1="97.37264%" y1="3.40952025%" x2="2.22716%" y2="97.000573%" id="linearGradient-4">
            <stop stop-color="#6DC38D" offset="0%"></stop>
            <stop stop-color="#016F80" offset="100%"></stop>
        </linearGradient>
        <linearGradient x1="91.821973%" y1="19.0984049%" x2="14.6411946%" y2="66.2016815%" id="linearGradient-5">
            <stop stop-color="#018D75" offset="0%"></stop>
            <stop stop-color="#016F80" offset="100%"></stop>
        </linearGradient>
        <linearGradient x1="59.9659768%" y1="23.7733753%" x2="51.5473308%" y2="47.8405327%" id="linearGradient-6">
            <stop stop-color="#018D75" offset="0%"></stop>
            <stop stop-color="#016F80" offset="100%"></stop>
        </linearGradient>
        <linearGradient x1="12.2246242%" y1="9.17946415%" x2="59.4336816%" y2="52.8882273%" id="linearGradient-7">
            <stop stop-color="#018D75" offset="0%"></stop>
            <stop stop-color="#016F80" offset="100%"></stop>
        </linearGradient>
        <linearGradient x1="-0.173511294%" y1="50.2854839%" x2="73.7676591%" y2="50.2854839%" id="linearGradient-8">
            <stop stop-color="#57A6DB" offset="0%"></stop>
            <stop stop-color="#3467AD" offset="99.97%"></stop>
        </linearGradient>
        <radialGradient cx="55.6309951%" cy="75.9094925%" fx="55.6309951%" fy="75.9094925%" r="62.8759912%" gradientTransform="translate(0.556310,0.759095),scale(0.867925,1.000000),translate(-0.556310,-0.759095)" id="radialGradient-9">
            <stop stop-color="#FFFFFF" offset="0%"></stop>
            <stop stop-color="#FFFFFF" stop-opacity="0" offset="100%"></stop>
        </radialGradient>
        <linearGradient x1="69.81432%" y1="17.9930458%" x2="40.4872659%" y2="67.1508281%" id="linearGradient-10">
            <stop stop-color="#57A6DB" offset="0%"></stop>
            <stop stop-color="#3467AD" offset="99.97%"></stop>
        </linearGradient>
    </defs>
    <g id="inspect" stroke="none" stroke-width="1" fill="none" fill-rule="evenodd">
        <g id="Case-Study---Bluvalt---Inspect" transform="translate(-109.000000, -6952.000000)" fill-rule="nonzero">
            <g id="Group-27" transform="translate(56.000000, 6952.000000)">
                <g id="Bluvalt-one_stop_shop" transform="translate(53.000000, 0.000000)">
                    <path d="M0.199508031,234.084018 C-6.73321097,361.271809 168.317944,431.081649 321.704352,441.861749 C475.09076,452.641849 515.213871,384.657671 514.953894,330.670235 C514.693917,276.6828 463.218478,261.295077 478.557119,224.694899 C494.502373,186.703741 574.748595,182.096117 565.216107,117.8502 C555.683618,53.6042821 437.134123,31.1747195 317.024766,41.3462653 C196.91541,51.6047474 7.04556805,106.809291 0.199508031,234.084018 Z" id="Shape" fill="url(#linearGradient-1)"></path>
                    <g id="Group" transform="translate(72.000000, 0.000000)">
                        <g opacity="0.6" transform="translate(0.000000, 41.626556)" id="Shape">
                            <g>
                                <path d="M134.317834,137.367635 L4.07812546,137.367635 C2.16921567,137.367635 0.694149014,135.806639 0.694149014,133.898755 L0.694149014,3.81576763 C0.694149014,1.90788382 2.2559843,0.433609959 4.07812546,0.433609959 L134.317834,0.433609959 C136.226744,0.433609959 137.701811,1.99460581 137.701811,3.81576763 L137.701811,133.985477 C137.788579,135.893361 136.226744,137.367635 134.317834,137.367635 Z" fill="url(#linearGradient-2)"></path>
                                <g opacity="0.15" transform="translate(46.855058, 28.618257)" fill="#131A32">
                                    <path d="M42.3430899,0.346887967 L2.34275292,0.346887967 C1.04122352,0.346887967 0.0867686267,1.38755187 0.0867686267,2.60165975 L0.0867686267,77.3560166 C0.0867686267,78.6568465 1.12799215,79.6107884 2.34275292,79.6107884 L42.3430899,79.6107884 C43.6446193,79.6107884 44.5990741,78.5701245 44.5990741,77.3560166 L44.5990741,2.60165975 C44.5990741,1.30082988 43.6446193,0.346887967 42.3430899,0.346887967 Z"></path>
                                </g>
                                <path d="M121.736383,33.4746888 L98.3088541,33.4746888 C97.0073247,33.4746888 96.0528698,34.5153527 96.0528698,35.7294606 L96.0528698,101.378008 C96.0528698,102.678838 97.0940933,103.63278 98.3088541,103.63278 L121.736383,103.63278 C123.037913,103.63278 123.992368,102.592116 123.992368,101.378008 L123.992368,35.7294606 C124.079136,34.5153527 123.037913,33.4746888 121.736383,33.4746888 Z" fill="#131A32" opacity="0.15"></path>
                                <path d="M40.0871056,33.4746888 L16.6595763,33.4746888 C15.3580469,33.4746888 14.403592,34.5153527 14.403592,35.7294606 L14.403592,101.378008 C14.403592,102.678838 15.4448156,103.63278 16.6595763,103.63278 L40.0871056,103.63278 C41.388635,103.63278 42.3430899,102.592116 42.3430899,101.378008 L42.3430899,35.7294606 C42.3430899,34.5153527 41.3018663,33.4746888 40.0871056,33.4746888 Z" fill="#131A32" opacity="0.15"></path>
                                <g transform="translate(53.796549, 69.377593)" fill="#131A32" opacity="0.15">
                                    <path d="M28.5468782,0.693775934 L2.2559843,0.693775934 C0.954454894,0.693775934 0,1.73443983 0,2.94854772 L0,2.94854772 C0,4.24937759 1.04122352,5.2033195 2.2559843,5.2033195 L28.5468782,5.2033195 C29.8484076,5.2033195 30.8028625,4.1626556 30.8028625,2.94854772 L30.8028625,2.94854772 C30.8028625,1.64771784 29.8484076,0.693775934 28.5468782,0.693775934 Z"></path>
                                    <path d="M28.5468782,12.0543568 L2.2559843,12.0543568 C0.954454894,12.0543568 0,13.0950207 0,14.3091286 L0,14.3091286 C0,15.6099585 1.04122352,16.5639004 2.2559843,16.5639004 L28.5468782,16.5639004 C29.8484076,16.5639004 30.8028625,15.5232365 30.8028625,14.3091286 L30.8028625,14.3091286 C30.8028625,13.0950207 29.8484076,12.0543568 28.5468782,12.0543568 Z"></path>
                                    <path d="M28.5468782,23.5016598 L2.2559843,23.5016598 C0.954454894,23.5016598 0,24.5423237 0,25.7564315 L0,25.7564315 C0,27.0572614 1.04122352,28.0112033 2.2559843,28.0112033 L28.5468782,28.0112033 C29.8484076,28.0112033 30.8028625,26.9705394 30.8028625,25.7564315 L30.8028625,25.7564315 C30.8028625,24.5423237 29.8484076,23.5016598 28.5468782,23.5016598 Z"></path>
                                </g>
                                <path d="M69.2413641,38.0709544 C62.9072544,38.0709544 57.7879054,43.1875519 57.7879054,49.5182573 C57.7879054,55.8489627 62.9072544,60.9655602 69.2413641,60.9655602 C75.5754739,60.9655602 80.6948229,55.8489627 80.6948229,49.5182573 C80.6948229,43.1875519 75.4887053,38.0709544 69.2413641,38.0709544 Z M75.315168,47.5236515 L69.1545955,53.6809129 C68.807521,54.0278008 68.2869092,54.2012448 67.7662975,54.2012448 C67.2456857,54.2012448 66.8118426,54.0278008 66.3779995,53.6809129 L63.5146348,50.8190871 C62.7337171,50.0385892 62.7337171,48.9112033 63.5146348,48.1307054 C64.2955524,47.3502075 65.4235446,47.3502075 66.2044622,48.1307054 L67.6795289,49.6049793 L72.538572,44.7485477 C73.3194896,43.9680498 74.4474817,43.9680498 75.2283994,44.7485477 C76.0960857,45.5290456 76.0960857,46.7431535 75.315168,47.5236515 Z" fill="#131A32" opacity="0.4"></path>
                            </g>
                            <path d="M134.317834,137.367635 L4.07812546,137.367635 C2.16921567,137.367635 0.694149014,135.806639 0.694149014,133.898755 L0.694149014,3.81576763 C0.694149014,1.90788382 2.2559843,0.433609959 4.07812546,0.433609959 L134.317834,0.433609959 C136.226744,0.433609959 137.701811,1.99460581 137.701811,3.81576763 L137.701811,133.985477 C137.788579,135.893361 136.226744,137.367635 134.317834,137.367635 Z" fill="#FFFFFF" opacity="0.3"></path>
                        </g>
                        <g opacity="0.8" transform="translate(91.107058, 25.149378)" id="Shape">
                            <g>
                                <path d="M165.901614,170.23527 L4.33843134,170.23527 C1.99567842,170.23527 0.0867686267,168.327386 0.0867686267,165.985892 L0.0867686267,4.50954357 C0.0867686267,2.16804979 1.99567842,0.260165975 4.33843134,0.260165975 L165.901614,0.260165975 C168.244367,0.260165975 170.153277,2.16804979 170.153277,4.50954357 L170.153277,165.985892 C170.153277,168.327386 168.244367,170.23527 165.901614,170.23527 Z" fill="url(#linearGradient-3)"></path>
                                <g opacity="0.15" transform="translate(27.765961, 54.634855)" fill="#131A32">
                                    <path d="M31.844086,0.52033195 L3.47074507,0.52033195 C1.90890979,0.52033195 0.607380387,1.82116183 0.607380387,3.38215768 L0.607380387,20.379668 C0.607380387,21.9406639 1.90890979,23.2414938 3.47074507,23.2414938 L31.844086,23.2414938 C33.4059213,23.2414938 34.7074507,21.9406639 34.7074507,20.379668 L34.7074507,3.38215768 C34.7074507,1.82116183 33.4059213,0.52033195 31.844086,0.52033195 Z"></path>
                                </g>
                                <path d="M139.00334,58.0170124 L139.00334,58.0170124 L139.00334,75.0145228 L110.629999,75.0145228 L110.629999,58.0170124 L139.00334,58.0170124 L139.00334,58.0170124 Z M139.00334,55.1551867 L110.629999,55.1551867 C109.068164,55.1551867 107.766634,56.4560166 107.766634,58.0170124 L107.766634,75.0145228 C107.766634,76.5755187 109.068164,77.8763485 110.629999,77.8763485 L139.00334,77.8763485 C140.565175,77.8763485 141.866705,76.5755187 141.866705,75.0145228 L141.866705,58.0170124 C141.779936,56.4560166 140.565175,55.1551867 139.00334,55.1551867 L139.00334,55.1551867 Z" fill="#131A32" opacity="0.15"></path>
                                <g opacity="0.15" transform="translate(67.679529, 54.634855)" fill="#131A32">
                                    <path d="M31.5837801,0.52033195 L3.21043919,0.52033195 C1.64860391,0.52033195 0.347074507,1.82116183 0.347074507,3.38215768 L0.347074507,20.379668 C0.347074507,21.9406639 1.64860391,23.2414938 3.21043919,23.2414938 L31.5837801,23.2414938 C33.1456154,23.2414938 34.4471448,21.9406639 34.4471448,20.379668 L34.4471448,3.38215768 C34.4471448,1.82116183 33.1456154,0.52033195 31.5837801,0.52033195 Z"></path>
                                </g>
                                <path d="M59.6100466,86.2883817 L59.6100466,86.2883817 L59.6100466,103.285892 L31.2367056,103.285892 L31.2367056,86.2883817 L59.6100466,86.2883817 L59.6100466,86.2883817 Z M59.6100466,83.513278 L31.2367056,83.513278 C29.6748703,83.513278 28.3733409,84.8141079 28.3733409,86.3751037 L28.3733409,103.372614 C28.3733409,104.93361 29.6748703,106.23444 31.2367056,106.23444 L59.6100466,106.23444 C61.1718819,106.23444 62.4734113,104.93361 62.4734113,103.372614 L62.4734113,86.3751037 C62.4734113,84.7273859 61.1718819,83.513278 59.6100466,83.513278 L59.6100466,83.513278 Z" fill="#131A32" opacity="0.15"></path>
                                <path d="M139.00334,86.2883817 L139.00334,86.2883817 L139.00334,103.285892 L110.629999,103.285892 L110.629999,86.2883817 L139.00334,86.2883817 L139.00334,86.2883817 Z M139.00334,83.513278 L110.629999,83.513278 C109.068164,83.513278 107.766634,84.8141079 107.766634,86.3751037 L107.766634,103.372614 C107.766634,104.93361 109.068164,106.23444 110.629999,106.23444 L139.00334,106.23444 C140.565175,106.23444 141.866705,104.93361 141.866705,103.372614 L141.866705,86.3751037 C141.779936,84.7273859 140.565175,83.513278 139.00334,83.513278 L139.00334,83.513278 Z" fill="#131A32" opacity="0.15"></path>
                                <path d="M99.263309,86.2883817 L99.263309,103.285892 L70.889968,103.285892 L70.889968,86.2883817 L99.263309,86.2883817 L99.263309,86.2883817 L99.263309,86.2883817 Z M99.263309,83.513278 L70.889968,83.513278 C69.3281328,83.513278 68.0266034,84.8141079 68.0266034,86.3751037 L68.0266034,103.372614 C68.0266034,104.93361 69.3281328,106.23444 70.889968,106.23444 L99.263309,106.23444 C100.825144,106.23444 102.126674,104.93361 102.126674,103.372614 L102.126674,86.3751037 C102.126674,84.7273859 100.825144,83.513278 99.263309,83.513278 L99.263309,83.513278 Z" fill="#131A32" opacity="0.15"></path>
                                <path d="M59.6100466,114.646473 L59.6100466,114.646473 L59.6100466,131.643983 L31.2367056,131.643983 L31.2367056,114.646473 L59.6100466,114.646473 L59.6100466,114.646473 Z M59.6100466,111.784647 L31.2367056,111.784647 C29.6748703,111.784647 28.3733409,113.085477 28.3733409,114.646473 L28.3733409,131.643983 C28.3733409,133.204979 29.6748703,134.505809 31.2367056,134.505809 L59.6100466,134.505809 C61.1718819,134.505809 62.4734113,133.204979 62.4734113,131.643983 L62.4734113,114.646473 C62.4734113,113.085477 61.1718819,111.784647 59.6100466,111.784647 L59.6100466,111.784647 Z" fill="#131A32" opacity="0.15"></path>
                                <path d="M139.00334,114.646473 L139.00334,114.646473 L139.00334,131.643983 L110.629999,131.643983 L110.629999,114.646473 L139.00334,114.646473 L139.00334,114.646473 Z M139.00334,111.784647 L110.629999,111.784647 C109.068164,111.784647 107.766634,113.085477 107.766634,114.646473 L107.766634,131.643983 C107.766634,133.204979 109.068164,134.505809 110.629999,134.505809 L139.00334,134.505809 C140.565175,134.505809 141.866705,133.204979 141.866705,131.643983 L141.866705,114.646473 C141.779936,113.085477 140.565175,111.784647 139.00334,111.784647 L139.00334,111.784647 Z" fill="#131A32" opacity="0.15"></path>
                                <g opacity="0.15" transform="translate(67.679529, 111.004149)" fill="#131A32">
                                    <path d="M31.5837801,0.780497925 L3.21043919,0.780497925 C1.64860391,0.780497925 0.347074507,2.0813278 0.347074507,3.64232365 L0.347074507,20.639834 C0.347074507,22.2008299 1.64860391,23.5016598 3.21043919,23.5016598 L31.5837801,23.5016598 C33.1456154,23.5016598 34.4471448,22.2008299 34.4471448,20.639834 L34.4471448,3.64232365 C34.4471448,2.0813278 33.1456154,0.780497925 31.5837801,0.780497925 Z"></path>
                                </g>
                                <g transform="translate(70.282588, 146.560166)" fill="#131A32">
                                    <path d="M3.47074507,0.52033195 L3.47074507,0.52033195 C1.90890979,0.52033195 0.607380387,1.82116183 0.607380387,3.38215768 L0.607380387,3.38215768 C0.607380387,4.94315353 1.90890979,6.2439834 3.47074507,6.2439834 L3.47074507,6.2439834 C5.03258035,6.2439834 6.33410975,4.94315353 6.33410975,3.38215768 L6.33410975,3.38215768 C6.33410975,1.82116183 5.03258035,0.52033195 3.47074507,0.52033195 Z" opacity="0.4"></path>
                                    <path d="M14.8374352,0.52033195 L14.8374352,0.52033195 C13.2755999,0.52033195 11.9740705,1.82116183 11.9740705,3.38215768 L11.9740705,3.38215768 C11.9740705,4.94315353 13.2755999,6.2439834 14.8374352,6.2439834 L14.8374352,6.2439834 C16.3992705,6.2439834 17.7007999,4.94315353 17.7007999,3.38215768 L17.7007999,3.38215768 C17.7007999,1.82116183 16.3992705,0.52033195 14.8374352,0.52033195 Z" opacity="0.15"></path>
                                    <path d="M26.2041253,0.52033195 L26.2041253,0.52033195 C24.64229,0.52033195 23.3407606,1.82116183 23.3407606,3.38215768 L23.3407606,3.38215768 C23.3407606,4.94315353 24.64229,6.2439834 26.2041253,6.2439834 L26.2041253,6.2439834 C27.7659606,6.2439834 29.06749,4.94315353 29.06749,3.38215768 L29.06749,3.38215768 C28.9807213,1.82116183 27.7659606,0.52033195 26.2041253,0.52033195 Z" opacity="0.15"></path>
                                </g>
                                <g opacity="0.4" transform="translate(70.282588, 15.609959)" fill="#131A32">
                                    <path d="M27.8527292,17.3443983 L26.9850429,16.3904564 C27.0718115,15.5232365 27.0718115,14.5692946 26.9850429,13.7020747 L27.8527292,12.7481328 C28.3733409,12.2278008 29.2410272,11.5340249 28.9807213,10.840249 L27.8527292,7.97842324 C27.5924233,7.2846473 26.3776625,7.45809129 25.6835135,7.37136929 L24.4687527,7.2846473 C23.948141,6.59087137 23.253992,5.98381743 22.559843,5.37676349 L22.559843,4.1626556 C22.559843,3.46887967 22.6466116,2.25477178 21.9524626,1.99460581 L19.0890979,0.780497925 C18.3949489,0.52033195 17.7007999,1.38755187 17.1801881,1.90788382 L16.2257332,2.77510373 C15.3580469,2.68838174 14.403592,2.68838174 13.5359058,2.77510373 L12.6682195,1.90788382 C12.1476077,1.38755187 11.4534587,0.52033195 10.7593097,0.780497925 L7.89594503,1.90788382 C7.20179602,2.16804979 7.37533327,3.38215768 7.28856465,4.07593361 L7.20179602,5.29004149 C6.50764701,5.81037344 5.90026662,6.50414938 5.29288623,7.19792531 L4.07812546,7.19792531 C3.38397644,7.19792531 2.16921567,7.11120332 1.90890979,7.80497925 L0.694149014,10.666805 C0.433843134,11.3605809 1.3015294,12.0543568 1.82214116,12.5746888 L2.68982743,13.5286307 C2.6030588,14.3958506 2.6030588,15.3497925 2.68982743,16.2170124 L1.82214116,17.1709544 C1.3015294,17.6912863 0.433843134,18.3850622 0.694149014,19.0788382 L1.82214116,21.9406639 C2.08244704,22.6344398 3.29720782,22.4609959 3.99135683,22.5477178 L5.2061176,22.5477178 C5.72672937,23.2414938 6.42087838,23.8485477 7.11502739,24.4556017 L7.11502739,25.6697095 C7.11502739,26.3634855 7.02825877,27.5775934 7.72240778,27.8377593 L10.5857725,29.0518672 C11.2799215,29.3120332 11.9740705,28.4448133 12.4946823,27.9244813 L13.4491371,27.0572614 C14.3168234,27.1439834 15.2712783,27.1439834 16.1389646,27.0572614 L17.0934195,27.9244813 C17.6140312,28.4448133 18.3081802,29.3120332 19.0023293,29.0518672 L21.8656939,27.9244813 C22.559843,27.6643154 22.3863057,26.4502075 22.4730743,25.7564315 L22.4730743,24.5423237 C23.1672233,24.0219917 23.7746037,23.3282158 24.3819841,22.6344398 L25.5967449,22.6344398 C26.2908939,22.6344398 27.5056547,22.7211618 27.7659606,22.0273859 L28.9807213,19.1655602 C29.2410272,18.6452282 28.2865723,17.9514523 27.8527292,17.3443983 Z M14.8374352,21.8539419 C11.2799215,21.8539419 8.32978817,18.8186722 8.32978817,15.1763485 C8.32978817,11.5340249 11.1931528,8.49875519 14.8374352,8.49875519 C18.3949489,8.49875519 21.3450822,11.5340249 21.3450822,15.1763485 C21.3450822,18.8186722 18.4817175,21.8539419 14.8374352,21.8539419 Z"></path>
                                </g>
                            </g>
                            <path d="M165.901614,170.23527 L4.33843134,170.23527 C1.99567842,170.23527 0.0867686267,168.327386 0.0867686267,165.985892 L0.0867686267,4.50954357 C0.0867686267,2.16804979 1.99567842,0.260165975 4.33843134,0.260165975 L165.901614,0.260165975 C168.244367,0.260165975 170.153277,2.16804979 170.153277,4.50954357 L170.153277,165.985892 C170.153277,168.327386 168.244367,170.23527 165.901614,170.23527 Z" fill="#FFFFFF" opacity="0.3"></path>
                        </g>
                        <g transform="translate(220.392312, 0.000000)">
                            <path d="M212.149292,208.479668 L5.63996074,208.479668 C2.77659606,208.479668 0.433843134,206.138174 0.433843134,203.276349 L0.433843134,5.55020747 C0.433843134,2.68838174 2.77659606,0.346887967 5.63996074,0.346887967 L212.149292,0.346887967 C215.012657,0.346887967 217.35541,2.68838174 217.35541,5.55020747 L217.35541,203.276349 C217.35541,206.138174 215.012657,208.479668 212.149292,208.479668 Z" id="Shape" fill="url(#linearGradient-4)" opacity="0.8"></path>
                            <path d="M167.897293,159.915353 L49.8919604,159.915353 C44.165231,159.915353 39.4797252,164.59834 39.4797252,170.321992 L39.4797252,170.321992 C39.4797252,176.045643 44.165231,180.728631 49.8919604,180.728631 L167.897293,180.728631 C173.624022,180.728631 178.309528,176.045643 178.309528,170.321992 L178.309528,170.321992 C178.309528,164.59834 173.624022,159.915353 167.897293,159.915353 Z" id="Shape" fill="#131A32" opacity="0.25"></path>
                            <g opacity="0.4" transform="translate(85.033254, 26.569728)" fill="#131A32" id="Shape">
                                <path d="M1.3015294,0.693775934 C0.607380387,0.693775934 0,1.30082988 0,1.99460581 C0,2.68838174 0.607380387,3.29543568 1.3015294,3.29543568 L5.46642348,3.29543568 L9.97839208,24.3688797 C10.1519293,25.1493776 10.6725411,25.8431535 11.3666901,25.8431535 L33.0588468,25.8431535 C33.7529958,25.8431535 34.3603762,25.2360996 34.3603762,24.5423237 C34.3603762,23.8485477 33.7529958,23.2414938 33.0588468,23.2414938 L12.4079136,23.2414938 L11.8873019,20.639834 L34.7942193,20.639834 C35.4015997,20.639834 35.9222115,20.2062241 36.0957487,19.5991701 L39.1326507,6.59087137 C39.3061879,5.81037344 38.6120389,5.02987552 37.8311213,5.02987552 L8.59009405,5.02987552 L7.89594503,1.73443983 C7.80917641,1.12738589 7.20179602,0.693775934 6.59441563,0.693775934 L1.3015294,0.693775934 Z M15.6183528,26.7103734 C13.2755999,26.7103734 11.2799215,28.7049793 11.2799215,31.046473 C11.2799215,33.3879668 13.2755999,35.3825726 15.6183528,35.3825726 C17.9611057,35.3825726 19.9567842,33.3879668 19.9567842,31.046473 C19.9567842,28.7049793 18.0478744,26.7103734 15.6183528,26.7103734 Z M28.6336468,26.7103734 C26.2908939,26.7103734 24.2952155,28.7049793 24.2952155,31.046473 C24.2952155,33.3879668 26.2908939,35.3825726 28.6336468,35.3825726 C30.9763997,35.3825726 32.9720782,33.3879668 32.9720782,31.046473 C32.9720782,28.7049793 31.0631684,26.7103734 28.6336468,26.7103734 Z"></path>
                            </g>
                            <g transform="translate(39.045882, 86.721992)" fill="#131A32" id="Shape" opacity="0.15">
                                <path d="M54.2303917,0.346887967 L17.7875685,0.346887967 C15.8786587,0.346887967 14.3168234,1.90788382 14.3168234,3.81576763 L14.3168234,3.81576763 C14.3168234,5.72365145 15.8786587,7.2846473 17.7875685,7.2846473 L54.2303917,7.2846473 C56.1393015,7.2846473 57.7011368,5.72365145 57.7011368,3.81576763 L57.7011368,3.81576763 C57.7011368,1.90788382 56.1393015,0.346887967 54.2303917,0.346887967 Z"></path>
                                <path d="M3.9045882,0.346887967 L3.9045882,0.346887967 C1.99567842,0.346887967 0.433843134,1.90788382 0.433843134,3.81576763 L0.433843134,3.81576763 C0.433843134,5.72365145 1.99567842,7.2846473 3.9045882,7.2846473 L3.9045882,7.2846473 C5.81349799,7.2846473 7.37533327,5.72365145 7.37533327,3.81576763 L7.37533327,3.81576763 C7.37533327,1.90788382 5.81349799,0.346887967 3.9045882,0.346887967 Z"></path>
                                <path d="M54.2303917,21.160166 L17.7875685,21.160166 C15.8786587,21.160166 14.3168234,22.7211618 14.3168234,24.6290456 L14.3168234,24.6290456 C14.3168234,26.5369295 15.8786587,28.0979253 17.7875685,28.0979253 L54.2303917,28.0979253 C56.1393015,28.0979253 57.7011368,26.5369295 57.7011368,24.6290456 L57.7011368,24.6290456 C57.7011368,22.7211618 56.1393015,21.160166 54.2303917,21.160166 Z"></path>
                                <path d="M3.9045882,21.160166 L3.9045882,21.160166 C1.99567842,21.160166 0.433843134,22.7211618 0.433843134,24.6290456 L0.433843134,24.6290456 C0.433843134,26.5369295 1.99567842,28.0979253 3.9045882,28.0979253 L3.9045882,28.0979253 C5.81349799,28.0979253 7.37533327,26.5369295 7.37533327,24.6290456 L7.37533327,24.6290456 C7.37533327,22.7211618 5.81349799,21.160166 3.9045882,21.160166 Z"></path>
                                <path d="M45.553529,41.973444 L17.7875685,41.973444 C15.8786587,41.973444 14.3168234,43.5344398 14.3168234,45.4423237 L14.3168234,45.4423237 C14.3168234,47.3502075 15.8786587,48.9112033 17.7875685,48.9112033 L45.553529,48.9112033 C47.4624388,48.9112033 49.0242741,47.3502075 49.0242741,45.4423237 L49.0242741,45.4423237 C49.0242741,43.5344398 47.4624388,41.973444 45.553529,41.973444 Z"></path>
                                <path d="M3.9045882,41.973444 L3.9045882,41.973444 C1.99567842,41.973444 0.433843134,43.5344398 0.433843134,45.4423237 L0.433843134,45.4423237 C0.433843134,47.3502075 1.99567842,48.9112033 3.9045882,48.9112033 L3.9045882,48.9112033 C5.81349799,48.9112033 7.37533327,47.3502075 7.37533327,45.4423237 L7.37533327,45.4423237 C7.37533327,43.5344398 5.81349799,41.973444 3.9045882,41.973444 Z"></path>
                            </g>
                            <g opacity="0.25" transform="translate(111.931528, 81.518672)" fill="#131A32">
                                <g transform="translate(0.000000, 41.626556)" id="Shape">
                                    <path d="M59.4365093,17.6912863 L5.63996074,17.6912863 C2.77659606,17.6912863 0.433843134,15.3497925 0.433843134,12.4879668 L0.433843134,5.55020747 C0.433843134,2.68838174 2.77659606,0.346887967 5.63996074,0.346887967 L59.4365093,0.346887967 C62.299874,0.346887967 64.6426269,2.68838174 64.6426269,5.55020747 L64.6426269,12.4879668 C64.6426269,15.3497925 62.299874,17.6912863 59.4365093,17.6912863 Z M5.63996074,3.81576763 C4.68550584,3.81576763 3.9045882,4.59626556 3.9045882,5.55020747 L3.9045882,12.4879668 C3.9045882,13.4419087 4.68550584,14.2224066 5.63996074,14.2224066 L59.4365093,14.2224066 C60.3909642,14.2224066 61.1718819,13.4419087 61.1718819,12.4879668 L61.1718819,5.55020747 C61.1718819,4.59626556 60.3909642,3.81576763 59.4365093,3.81576763 L5.63996074,3.81576763 Z"></path>
                                    <path d="M38.6120389,7.2846473 L9.11070581,7.2846473 C8.15625091,7.2846473 7.37533327,8.06514523 7.37533327,9.01908714 L7.37533327,9.01908714 C7.37533327,9.97302905 8.15625091,10.753527 9.11070581,10.753527 L38.6120389,10.753527 C39.5664938,10.753527 40.3474114,9.97302905 40.3474114,9.01908714 L40.3474114,9.01908714 C40.3474114,8.06514523 39.5664938,7.2846473 38.6120389,7.2846473 Z"></path>
                                    <path d="M55.9657642,7.2846473 L55.9657642,7.2846473 C55.0113094,7.2846473 54.2303917,8.06514523 54.2303917,9.01908714 L54.2303917,9.01908714 C54.2303917,9.97302905 55.0113094,10.753527 55.9657642,10.753527 L55.9657642,10.753527 C56.9202191,10.753527 57.7011368,9.97302905 57.7011368,9.01908714 L57.7011368,9.01908714 C57.7011368,8.06514523 56.9202191,7.2846473 55.9657642,7.2846473 Z"></path>
                                    <path d="M49.0242741,7.2846473 L49.0242741,7.2846473 C48.0698192,7.2846473 47.2889016,8.06514523 47.2889016,9.01908714 L47.2889016,9.01908714 C47.2889016,9.97302905 48.0698192,10.753527 49.0242741,10.753527 L49.0242741,10.753527 C49.978729,10.753527 50.7596466,9.97302905 50.7596466,9.01908714 L50.7596466,9.01908714 C50.7596466,8.06514523 49.978729,7.2846473 49.0242741,7.2846473 Z"></path>
                                </g>
                                <g transform="translate(0.000000, 20.813278)" id="Shape">
                                    <path d="M59.4365093,17.6912863 L5.63996074,17.6912863 C2.77659606,17.6912863 0.433843134,15.3497925 0.433843134,12.4879668 L0.433843134,5.55020747 C0.433843134,2.68838174 2.77659606,0.346887967 5.63996074,0.346887967 L59.4365093,0.346887967 C62.299874,0.346887967 64.6426269,2.68838174 64.6426269,5.55020747 L64.6426269,12.4879668 C64.6426269,15.3497925 62.299874,17.6912863 59.4365093,17.6912863 Z M5.63996074,3.81576763 C4.68550584,3.81576763 3.9045882,4.59626556 3.9045882,5.55020747 L3.9045882,12.4879668 C3.9045882,13.4419087 4.68550584,14.2224066 5.63996074,14.2224066 L59.4365093,14.2224066 C60.3909642,14.2224066 61.1718819,13.4419087 61.1718819,12.4879668 L61.1718819,5.55020747 C61.1718819,4.59626556 60.3909642,3.81576763 59.4365093,3.81576763 L5.63996074,3.81576763 Z"></path>
                                    <path d="M38.6120389,7.2846473 L9.11070581,7.2846473 C8.15625091,7.2846473 7.37533327,8.06514523 7.37533327,9.01908714 L7.37533327,9.01908714 C7.37533327,9.97302905 8.15625091,10.753527 9.11070581,10.753527 L38.6120389,10.753527 C39.5664938,10.753527 40.3474114,9.97302905 40.3474114,9.01908714 L40.3474114,9.01908714 C40.3474114,8.06514523 39.5664938,7.2846473 38.6120389,7.2846473 Z"></path>
                                    <path d="M55.9657642,7.2846473 L55.9657642,7.2846473 C55.0113094,7.2846473 54.2303917,8.06514523 54.2303917,9.01908714 L54.2303917,9.01908714 C54.2303917,9.97302905 55.0113094,10.753527 55.9657642,10.753527 L55.9657642,10.753527 C56.9202191,10.753527 57.7011368,9.97302905 57.7011368,9.01908714 L57.7011368,9.01908714 C57.7011368,8.06514523 56.9202191,7.2846473 55.9657642,7.2846473 Z"></path>
                                    <path d="M49.0242741,7.2846473 L49.0242741,7.2846473 C48.0698192,7.2846473 47.2889016,8.06514523 47.2889016,9.01908714 L47.2889016,9.01908714 C47.2889016,9.97302905 48.0698192,10.753527 49.0242741,10.753527 L49.0242741,10.753527 C49.978729,10.753527 50.7596466,9.97302905 50.7596466,9.01908714 L50.7596466,9.01908714 C50.7596466,8.06514523 49.978729,7.2846473 49.0242741,7.2846473 Z"></path>
                                </g>
                                <g id="Shape">
                                    <path d="M59.4365093,17.6912863 L5.63996074,17.6912863 C2.77659606,17.6912863 0.433843134,15.3497925 0.433843134,12.4879668 L0.433843134,5.55020747 C0.433843134,2.68838174 2.77659606,0.346887967 5.63996074,0.346887967 L59.4365093,0.346887967 C62.299874,0.346887967 64.6426269,2.68838174 64.6426269,5.55020747 L64.6426269,12.4879668 C64.6426269,15.3497925 62.299874,17.6912863 59.4365093,17.6912863 Z M5.63996074,3.81576763 C4.68550584,3.81576763 3.9045882,4.59626556 3.9045882,5.55020747 L3.9045882,12.4879668 C3.9045882,13.4419087 4.68550584,14.2224066 5.63996074,14.2224066 L59.4365093,14.2224066 C60.3909642,14.2224066 61.1718819,13.4419087 61.1718819,12.4879668 L61.1718819,5.55020747 C61.1718819,4.59626556 60.3909642,3.81576763 59.4365093,3.81576763 L5.63996074,3.81576763 Z"></path>
                                    <path d="M38.6120389,7.2846473 L9.11070581,7.2846473 C8.15625091,7.2846473 7.37533327,8.06514523 7.37533327,9.01908714 L7.37533327,9.01908714 C7.37533327,9.97302905 8.15625091,10.753527 9.11070581,10.753527 L38.6120389,10.753527 C39.5664938,10.753527 40.3474114,9.97302905 40.3474114,9.01908714 L40.3474114,9.01908714 C40.3474114,8.06514523 39.5664938,7.2846473 38.6120389,7.2846473 Z"></path>
                                    <path d="M55.9657642,7.2846473 L55.9657642,7.2846473 C55.0113094,7.2846473 54.2303917,8.06514523 54.2303917,9.01908714 L54.2303917,9.01908714 C54.2303917,9.97302905 55.0113094,10.753527 55.9657642,10.753527 L55.9657642,10.753527 C56.9202191,10.753527 57.7011368,9.97302905 57.7011368,9.01908714 L57.7011368,9.01908714 C57.7011368,8.06514523 56.9202191,7.2846473 55.9657642,7.2846473 Z"></path>
                                    <path d="M49.0242741,7.2846473 L49.0242741,7.2846473 C48.0698192,7.2846473 47.2889016,8.06514523 47.2889016,9.01908714 L47.2889016,9.01908714 C47.2889016,9.97302905 48.0698192,10.753527 49.0242741,10.753527 L49.0242741,10.753527 C49.978729,10.753527 50.7596466,9.97302905 50.7596466,9.01908714 L50.7596466,9.01908714 C50.7596466,8.06514523 49.978729,7.2846473 49.0242741,7.2846473 Z"></path>
                                </g>
                                <rect id="Rectangle-path" x="30.8028625" y="15.9568465" width="3.47074507" height="6.93775934"></rect>
                                <polygon id="Rectangle-path" points="30.8028625 36.7701245 34.2736076 36.7701245 34.2736076 43.7078838 30.8028625 43.7078838"></polygon>
                            </g>
                        </g>
                    </g>
                    <path d="M430,401 C430,393.193548 380.914539,390 346.199778,390 C318.150943,390 183.793563,390 118,390 C134.534961,398.25 152.195339,405.612903 170.54828,412 C238.332963,412 323.604883,412 346.199778,412 C382.126526,412 430,408.806452 430,401 Z" id="Shape" fill="#131A32" opacity="0.1"></path>
                    <g id="Group" transform="translate(295.000000, 252.000000)">
                        <path d="M42.8258427,41.6438356 C41.9606742,29.8082192 40.0573034,19.1123288 46.8921348,10.4328767 C53.7269663,1.75342466 62.1191011,7.80273973 59.4370787,16.1315068 C56.7550562,24.5479452 47.4977528,34.1917808 47.1516854,41.1178082 L42.8258427,41.6438356 Z" id="Shape" fill="#018D75"></path>
                        <path d="M24.2247191,41.6438356 C9.9494382,40.9424658 -4.15280899,33.8410959 2.07640449,29.1068493 C8.30561798,24.460274 23.1,37.6986301 30.3674157,39.1013699 L24.2247191,41.6438356 Z" id="Shape" fill="#018D75"></path>
                        <path d="M47.2382022,40.2410959 C47.2382022,40.2410959 48.3629213,23.6712329 59.2640449,19.1123288 C70.1651685,14.5534247 71.7224719,25.5123288 65.8393258,30.4219178 C59.9561798,35.2438356 53.3808989,39.1890411 51.0449438,41.4684932 L47.2382022,40.2410959 Z" id="Shape" fill="url(#linearGradient-5)"></path>
                        <path d="M42.2202247,40.5041096 C43.7775281,34.2794521 45.1617978,17.709589 41.9606742,9.90684932 C38.7595506,2.10410959 29.5022472,1.40273973 30.8,17.2712329 C32.1842697,33.139726 38.7595506,40.8547945 38.7595506,40.8547945 L42.2202247,40.5041096 Z" id="Shape" fill="url(#linearGradient-6)"></path>
                        <path d="M37.0292135,39.0136986 C32.4438202,25.9506849 21.9752809,2.71780822 9.43033708,12.1863014 C-3.11460674,21.6547945 31.5786517,42.6082192 31.5786517,42.6082192 L37.0292135,39.0136986 Z" id="Shape" fill="url(#linearGradient-7)"></path>
                        <path d="M39.9707865,39.8027397 C39.2786517,21.3917808 30.6269663,-1.84109589 24.0516854,0.701369863 C17.4764045,3.24383562 24.2247191,18.7616438 35.3853933,40.0657534 L39.9707865,39.8027397 Z" id="Shape" fill="#018D75"></path>
                        <path d="M52.8617978,39.1013699 C55.3707865,34.9808219 62.8977528,29.9835616 69.8191011,28.8438356 C76.7404494,27.7917808 79.5955056,34.7178082 73.2797753,35.5945205 C66.9640449,36.4712329 63.9359551,36.2958904 60.1292135,39.539726 L52.8617978,39.1013699 Z" id="Shape" fill="#75B876"></path>
                        <path d="M39.0191011,39.4520548 C38.4134831,32.7013699 28.5505618,19.6383562 21.1966292,24.109589 C13.7561798,28.5808219 30.6269663,34.8931507 34.0876404,40.9424658 L39.0191011,39.4520548 Z" id="Shape" fill="#75B876"></path>
                        <path d="M43.258427,40.1534247 C41.7876404,33.2273973 44.8157303,20.2520548 51.9101124,23.5835616 C58.7449438,26.8273973 48.8820225,33.6657534 47.2382022,40.2410959 L43.258427,40.1534247 Z" id="Shape" fill="#75B876"></path>
                        <polygon id="Shape" fill="#BAB8AF" points="68.088764 41.9068493 64.4550562 38.2246575 17.2168539 38.2246575 13.5831461 41.9068493 20.8505618 63.8246575 60.8213483 63.8246575"></polygon>
                        <polygon id="Shape" fill="#131A32" opacity="0.1" points="40.8359551 38.2246575 20.8505618 63.8246575 60.8213483 63.8246575"></polygon>
                        <polygon id="Shape" fill="#131A32" opacity="0.2" points="40.8359551 38.2246575 20.8505618 63.8246575 13.5831461 41.9068493 17.2168539 38.2246575"></polygon>
                        <polygon id="Shape" fill="#131A32" opacity="0.1" points="60.8213483 63.8246575 64.3685393 53.0410959 17.3033708 53.0410959 20.8505618 63.8246575"></polygon>
                    </g>
                    <g id="Group" transform="translate(291.000000, 315.000000)">
                        <path d="M91.9351351,75.372449 L0.259459459,75.372449 L0.259459459,0.693877551 L91.9351351,0.693877551 C93.9243243,0.693877551 95.5675676,2.34183673 95.5675676,4.33673469 L95.5675676,71.7295918 C95.5675676,73.7244898 93.9243243,75.372449 91.9351351,75.372449 Z" id="Shape" fill="#C7BCA9"></path>
                        <polygon id="Shape" fill="#131A32" opacity="0.1" points="73.772973 75.372449 0.259459459 75.372449 0.259459459 0.693877551 14.7891892 0.693877551"></polygon>
                        <polygon id="Shape" fill="#9B9384" points="86.4864865 84.4795918 75.5891892 84.4795918 73.772973 75.372449 88.3027027 75.372449"></polygon>
                        <polygon id="Shape" fill="#131A32" opacity="0.1" points="75.5891892 84.4795918 73.772973 75.372449 85.6216216 75.372449"></polygon>
                    </g>
                    <g id="Group" transform="translate(57.000000, 234.000000)">
                        <path d="M174.290728,0.521465969 L14.9218543,0.521465969 C6.85364238,0.521465969 0.347019868,7.03979058 0.347019868,15.1225131 L0.347019868,80.8272251 C0.347019868,84.3905759 3.29668874,87.3455497 6.85364238,87.3455497 L182.35894,87.3455497 C185.915894,87.3455497 188.865563,84.3905759 188.865563,80.8272251 L188.865563,15.1225131 C188.865563,7.03979058 182.35894,0.521465969 174.290728,0.521465969 Z" id="Shape" fill="#543179"></path>
                        <path d="M174.290728,0.521465969 L34.4417219,0.521465969 C26.3735099,0.521465969 19.8668874,7.03979058 19.8668874,15.1225131 L19.8668874,87.3455497 L188.865563,87.3455497 L188.865563,15.1225131 C188.865563,7.03979058 182.35894,0.521465969 174.290728,0.521465969 Z" id="Shape" fill="#8761A9"></path>
                        <path d="M174.290728,0.521465969 L34.4417219,0.521465969 C26.3735099,0.521465969 19.8668874,7.03979058 19.8668874,15.1225131 L19.8668874,87.3455497 L188.865563,87.3455497 L188.865563,15.1225131 C188.865563,7.03979058 182.35894,0.521465969 174.290728,0.521465969 Z" id="Shape" fill="#543179" opacity="0.25"></path>
                        <path d="M80.5086093,0.521465969 L32.7933775,0.521465969 C28.5423841,17.208377 26.2,37.0240838 28.889404,54.2324607 C31.0582781,68.0513089 37.5649007,79.4366492 43.5509934,87.3455497 L80.5086093,87.3455497 L80.5086093,0.521465969 Z" id="Shape" fill="#543179" opacity="0.5"></path>
                        <path d="M256.013907,165.478534 L165.007947,165.478534 C161.450993,165.478534 158.501325,162.52356 158.501325,158.960209 L158.501325,71.5277487 C158.501325,63.4450262 165.007947,56.9267016 173.076159,56.9267016 L246.904636,56.9267016 C254.972848,56.9267016 261.47947,63.4450262 261.47947,71.5277487 L261.47947,160.003141 C261.47947,163.045026 258.963576,165.478534 256.013907,165.478534 Z" id="Shape" fill="#543179"></path>
                        <path d="M256.013907,165.478534 L230.074172,165.478534 C227.037748,165.478534 224.608609,163.045026 224.608609,160.003141 L224.608609,71.5277487 C224.608609,63.4450262 231.115232,56.9267016 239.183444,56.9267016 L246.991391,56.9267016 C255.059603,56.9267016 261.566225,63.4450262 261.566225,71.5277487 L261.566225,160.003141 C261.47947,163.045026 258.963576,165.478534 256.013907,165.478534 Z" id="Shape" fill="#8761A9"></path>
                        <path d="M206.216556,165.478534 L93.5218543,165.478534 L93.5218543,87.3455497 L206.129801,87.3455497 C209.686755,87.3455497 212.636424,90.3005236 212.636424,93.8638743 L212.636424,158.960209 C212.723179,162.52356 209.77351,165.478534 206.216556,165.478534 Z" id="Shape" fill="#8761A9"></path>
                        <path d="M206.216556,165.478534 L93.5218543,165.478534 L93.5218543,87.3455497 L206.129801,87.3455497 C209.686755,87.3455497 212.636424,90.3005236 212.636424,93.8638743 L212.636424,158.960209 C212.723179,162.52356 209.77351,165.478534 206.216556,165.478534 Z" id="Shape" fill="#543179" opacity="0.25"></path>
                        <path d="M206.216556,87.3455497 L104.366225,87.3455497 L104.366225,99.686911 C132.301325,102.641885 156.245695,119.67644 145.921854,165.565445 L206.216556,165.565445 C209.77351,165.565445 212.723179,162.610471 212.723179,159.04712 L212.723179,93.9507853 C212.723179,90.2136126 209.77351,87.3455497 206.216556,87.3455497 Z" id="Shape" fill="#543179" opacity="0.5"></path>
                    </g>
                    <path d="M176.378656,211 C182.065612,214.790262 188.786561,222.543071 187.924901,233.310861 C187.149407,244.078652 175,257 175,257 L176.378656,211 Z" id="Shape" fill="#F26D6D"></path>
                    <path d="M174.181399,183 C181.692864,199.55303 185.491767,213.231061 177.721285,229 L157,206.69697 L174.181399,183 Z" id="Shape" fill="#F26D6D"></path>
                    <path d="M169.58463,189 L169.58463,189 L157,206.886256 L174.198994,226 C176.38033,211.796209 173.863404,200.485782 169.58463,189 Z" id="Shape" fill="#131A32" opacity="0.1"></path>
                    <path d="M141.712613,164 C141.003953,169.935484 128.248062,174.408602 125.147672,187.483871 C122.047281,200.55914 126.210663,212 126.210663,212 L155,202.537634 L141.712613,164 Z" id="Shape" fill="#F26D6D"></path>
                    <path d="M168.835631,209 L146.880401,194.336883 C146.880401,194.336883 154.832689,182.970798 152.931054,180.454642 C148.782035,174.901745 131.1487,163.015076 143.077132,146.269623 C155.17844,129.263877 168.749193,140.109378 172.638899,144.013759 C176.528605,147.918139 176.874356,151.388699 179.20818,153.818091 C181.628442,156.16072 185.950337,156.247484 188.457037,159.891572 C191.050174,163.53566 185.604586,163.709188 187.160468,166.745928 C188.716351,169.782669 193.29756,175.595857 189.58073,180.367878 C185.863899,185.139898 181.196252,186.26783 181.196252,186.26783 C181.196252,186.26783 168.662755,189.911918 168.835631,209 Z" id="Shape" fill="#E0B18B"></path>
                    <path d="M178,149 L178,149.1 C178,149 178,149 178,149 Z" id="Shape" fill="#75B876"></path>
                    <path d="M178,149 L178,149.1 C178,149 178,149 178,149 Z" id="Shape" fill="#131A32" opacity="0.15"></path>
                    <path d="M178,148 C178,148.2 178,148.4 178,148.5 C178,148.3 178,148.2 178,148 Z" id="Shape" fill="#75B876"></path>
                    <path d="M178,148 C178,148.2 178,148.4 178,148.5 C178,148.3 178,148.2 178,148 Z" id="Shape" fill="#131A32" opacity="0.15"></path>
                    <path d="M177.2,149 C177.1,149.1 177.1,149.1 177,149.2 C177.1,149.1 177.2,149.1 177.2,149 Z" id="Shape" fill="#75B876"></path>
                    <path d="M177.2,149 C177.1,149.1 177.1,149.1 177,149.2 C177.1,149.1 177.2,149.1 177.2,149 Z" id="Shape" fill="#131A32" opacity="0.15"></path>
                    <g id="Group" transform="translate(176.000000, 215.000000)" fill="#131A32" opacity="0.1">
                        <path d="M10.1538462,6.27096774 L10.0692308,6.27096774 L10.1538462,6.27096774 Z" id="Shape"></path>
                        <path d="M10.1538462,6.27096774 L10.1538462,6.27096774 C8.96923077,3.83225806 7.44615385,1.74193548 5.75384615,0 C5.33076923,4.52903226 4.06153846,9.14516129 1.69230769,13.9354839 L0.676923077,12.8032258 L0.423076923,20.7290323 L0.253846154,26.3032258 L2.03076923,24.8225806 C8.63076923,18.6387097 10.4923077,12.8032258 10.1538462,6.27096774 Z" id="Shape"></path>
                    </g>
                    <path d="M268,399 L317.854384,399 C319.481933,399 320.509859,397.342621 319.738914,396.016717 C318.111366,393.033434 314.684948,388.641379 308.431734,386.321048 C298.409461,382.674814 268,384.415062 268,384.415062 L268,399 Z" id="Shape" fill="#131A32"></path>
                    <path d="M305,386.454545 C297.024719,385.363636 285.982022,385.545455 279.67191,391 L266,389.818182 L266,378 L303.597753,378 L305,386.454545 Z" id="Shape" fill="#EAE6F2"></path>
                    <path d="M166.634615,205.433815 C170.528846,208.210234 178.403846,216.713014 180.826923,230.074527 C183.25,243.43604 179.528846,266.341491 182.125,270.679644 C184.634615,275.017798 197.096154,274.323693 200.817308,275.017798 C204.625,275.711902 208,280.050056 208,283 L163,283 L163,205 L166.634615,205.433815 Z" id="Shape" fill="#EAE6F2"></path>
                    <path d="M166.721154,210.431138 C170.615385,213.190419 174.25,220.778443 176.586538,234.057485 C178.923077,247.336527 176.759615,266.134132 179.269231,270.445509 C181.778846,274.756886 197.009615,273.291018 200.817308,274.067066 C204.625,274.756886 208,279.068263 208,282 L163,282 L163,210 L166.721154,210.431138 Z" id="Shape" fill="#131A32" opacity="0.1"></path>
                    <path d="M234,399 L288.836928,399 C290.477718,399 291.514007,397.342621 290.73679,396.016717 C289.096,393.033434 285.641706,388.641379 279.337618,386.321048 C269.233806,382.674814 234,384.415062 234,384.415062 L234,399 Z" id="Shape" fill="#131A32"></path>
                    <path d="M155.512605,169.73913 C153.747899,177.369565 156.268908,180.167391 154,185 C161.647059,182.71087 161.142857,173.554348 161.983193,169.315217 C162.823529,165.076087 166.605042,151.934783 174,147.61087 C173.663866,147.102174 173.327731,146.593478 172.907563,146 C171.563025,146.593478 169.966387,147.441304 168.285714,148.713043 C163.831933,152.273913 157.361345,161.93913 155.512605,169.73913 Z" id="Shape" fill="#131A32" opacity="0.1"></path>
                    <g id="Group" opacity="0.1" transform="translate(136.000000, 167.000000)" fill="#131A32">
                        <path d="M10.0636364,26.7234043 C10.0636364,26.7234043 6.87272727,21.8723404 6.38181818,15.6595745 C5.97272727,10.7234043 5.56363636,5.19148936 4.41818182,-2.84217094e-14 C3.6,1.19148936 2.45454545,2.46808511 1.14545455,3.74468085 C0.981818182,3.91489362 0.9,4 0.736363636,4.17021277 C1.14545455,13.4468085 -0.490909091,17.9574468 3.35454545,30.6382979 L6.3,39.3191489 L8.1,38.7234043 L17.8363636,35.2340426 L14.0727273,23.5744681 C12.8454545,25.0212766 11.5363636,25.8723404 10.0636364,26.7234043 Z" id="Shape"></path>
                    </g>
                    <path d="M145.272325,175 C134.278812,183.066327 130.334575,191.566327 131.089854,203.27551 C131.257694,205.704082 132.348653,207.612245 134.110972,209 L154,201.97449 L145.272325,175 Z" id="Shape" fill="#131A32" opacity="0.1"></path>
                    <path d="M128.021161,299.417019 C107.486642,295.852889 96.9161303,290.202439 99.3421494,263.080278 C101.768169,235.958118 113.378403,211.096138 125.075281,201.620768 C136.685515,192.145397 143.097137,195.796457 146.043018,194.144787 C148.988898,192.493117 165.537814,205.445688 169.869991,208.922888 C169.869991,208.922888 173.249089,222.223178 173.768951,244.216468 C174.288812,266.209758 173.768951,289.680859 173.768951,289.680859 C173.768951,289.680859 148.55568,302.894219 128.021161,299.417019 Z" id="Shape" fill="#EAE6F2"></path>
                    <path d="M162.925094,175.210367 C163.714699,178.338432 158.099731,179.862361 153.713038,174.167679 C148.887675,167.991756 150.642353,161.896039 157.83653,164.703277 C164.241102,167.109481 162.223223,172.082302 162.925094,175.210367 Z" id="Shape" fill="#E0B18B"></path>
                    <path d="M291.74757,396.949153 C290.109229,393.898305 286.660091,389.40678 280.365412,387.033898 C277.519873,385.932203 272.60485,385.338983 267,385 C273.984506,388.305085 278.899528,393.728814 280.451641,400 L289.850544,400 C291.402656,400 292.523626,398.305085 291.74757,396.949153 Z" id="Shape" fill="#36374B"></path>
                    <path d="M187.816327,176.880508 C184.455782,177.230252 178.884354,175.481532 179.061224,172.596144 C179.238095,169.973064 183.571429,168.661524 187.993197,167.787164 C187.639456,167.175112 187.285714,166.56306 187.020408,166.12588 C187.020408,166.12588 183.482993,166.475624 179.238095,168.661524 C174.904762,170.847424 174.993197,174.782044 172.693878,176.268456 C170.306122,177.754868 165.707483,173.99512 162.52381,168.574088 C159.340136,163.153056 163.496599,161.841516 161.462585,155.983304 C159.340136,149.95022 155.095238,154.934072 155.095238,154.934072 L152,157.469716 C152,157.469716 155.44898,164.552032 159.428571,170.672552 C163.231293,176.443328 166.061224,180.55282 170.748299,183.525644 C175.52381,186.498468 178.619048,186.148724 181.006803,185.711544 C183.306122,185.3618 185.782313,184.662312 189.585034,179.765896 C190.646259,178.36692 191,176.967944 191,175.481532 C190.115646,176.18102 189.054422,176.793072 187.816327,176.880508 Z" id="Shape" fill="#131A32"></path>
                    <path d="M167.323073,138.346641 C169.706332,138.961111 175.749594,137.732172 176.856107,140.980081 C177.877503,144.22799 173.281219,143.964646 168.770052,147.651462 C164.258884,151.338277 157.704923,161.345348 155.91748,169.42123 C154.04492,177.497111 156.85376,180.393895 154.215152,185.572993 C151.576545,190.752091 149.533752,192.332155 146.639795,194 C146.639795,194 143.320257,188.996465 142.809559,182.588428 C142.29886,176.180391 141.788162,168.718979 139.660253,162.310942 C137.532344,155.902906 135.7449,149.933776 145.703515,140.014486 C155.662131,130.182978 164.939815,137.732172 167.323073,138.346641 Z" id="Shape" fill="#F26D6D"></path>
                    <path d="M158.697254,207.122382 C165.439933,210.160928 170.168565,208.598247 170.168565,208.598247 C170.168565,208.598247 171.394507,202.781602 170.869104,201.392552 C170.3437,200.003503 167.016144,201.218921 159.923195,197.399035 C152.830247,193.579148 151.254036,185.418481 149.239989,188.80429 C147.663778,191.495574 146,193.752779 146,193.752779 C146,193.752779 151.954574,204.083836 158.697254,207.122382 Z" id="Shape" fill="#EAE6F2"></path>
                    <path d="M211.521547,278.032912 C216.563171,278.032912 221.865569,274.768267 227.42874,275.013115 C233.078835,275.176347 236.468893,280.073316 235.947345,284.888669 C235.425798,289.622405 231.079571,288.969476 231.079571,288.969476 L211,288.969476 L211.521547,278.032912 Z" id="Shape" fill="#E0B18B"></path>
                    <path d="M211.521547,278.032912 C216.563171,278.032912 221.865569,274.768267 227.42874,275.013115 C233.078835,275.176347 236.468893,280.073316 235.947345,284.888669 C235.425798,289.622405 231.079571,288.969476 231.079571,288.969476 L211,288.969476 L211.521547,278.032912 Z" id="Shape" fill="#131A32" opacity="0.1"></path>
                    <path d="M119,289.086711 C122.825798,322.990553 139.433238,321.343051 163.605323,321.343051 C189.951157,321.343051 209.775746,321.343051 209.775746,321.343051 C209.775746,321.343051 224.296387,351.691759 228.817784,369.29401 C233.339181,386.89626 226.296236,397.735085 232.556632,400.596534 C238.817028,403.457984 249.511872,390.277973 266.032362,386.89626 C282.552852,383.514547 297.247393,385.508891 305.159838,386.462707 C307.942237,385.162048 307.942237,376.837831 302.55134,366.259139 C297.160443,355.680447 291.421747,350.30439 281.335553,328.886873 C271.249359,307.469356 269.94511,289 246.555574,289 C223.166038,289 125.347346,289.086711 119,289.086711 Z" id="Shape" fill="#EAE6F2"></path>
                    <path d="M231.2,399.2 C231.1,399.1 231.1,399.1 231,399 C231.1,399 231.1,399.1 231.2,399.2 Z" id="Shape" fill="#8AD6F1"></path>
                    <path d="M230,395.2 C230,395.1 230,395.1 230,395 C230,395 230,395.1 230,395.2 Z" id="Shape" fill="#8AD6F1"></path>
                    <path d="M232.2,399.2 C232.1,399.1 232.1,399.1 232,399 C232.1,399.1 232.2,399.1 232.2,399.2 Z" id="Shape" fill="#8AD6F1"></path>
                    <path d="M230.044444,395.075 L230.044444,395.075 C229.944444,394.975 230.044444,394.975 230.044444,395.075 Z" id="Shape" fill="#8AD6F1"></path>
                    <path d="M230.075,397.3 C230.075,397.2 230.075,397.1 230.075,397 C229.975,397.2 229.975,397.3 230.075,397.3 Z" id="Shape" fill="#8AD6F1"></path>
                    <path d="M230.1,398.3 C230.1,398.2 230,398.1 230,398 C230.1,398.1 230.1,398.2 230.1,398.3 Z" id="Shape" fill="#8AD6F1"></path>
                    <path d="M231.1,399.2 C231.1,399.1 231,399 231,399 C231,399 231,399.1 231.1,399.2 Z" id="Shape" fill="#8AD6F1"></path>
                    <path d="M230,396.2 C230,396.1 230,396 230,396 C230,396 230,396.1 230,396.2 Z" id="Shape" fill="#8AD6F1"></path>
                    <path d="M231.1,399.2 C231,399.1 231,399.1 231,399 C231,399 231,399.1 231.1,399.2 Z" id="Shape" fill="#8AD6F1"></path>
                    <path d="M229.4,371 C229.3,370.375 229.2,369.625 229,369 C229.1,369.75 229.3,370.375 229.4,371 Z" id="Shape" fill="#8AD6F1"></path>
                    <path d="M230.1,397.3 C230.1,397.2 230.1,397.1 230,397 C230.1,397.2 230.1,397.3 230.1,397.3 Z" id="Shape" fill="#8AD6F1"></path>
                    <path d="M226,360 C225.375,358.666667 224.75,357.333333 224,356 C224.75,357.422222 225.375,358.755556 226,360 Z" id="Shape" fill="#8AD6F1"></path>
                    <path d="M232.2,400.1 C232.1,400.1 232.1,400 232,400 C232.1,400 232.1,400 232.2,400.1 Z" id="Shape" fill="#8AD6F1"></path>
                    <path d="M213,327 C212.636364,326.25 212.272727,325.583333 212,325 C212.272727,325.583333 212.545455,326.25 213,327 Z" id="Shape" fill="#8AD6F1"></path>
                    <path d="M222,349 C221.333333,347.695652 220.666667,346.304348 220,345 C220.666667,346.391304 221.333333,347.695652 222,349 Z" id="Shape" fill="#8AD6F1"></path>
                    <path d="M220,342 C219,339.5 217.916667,337.166667 217,335 C218,337.166667 219,339.583333 220,342 Z" id="Shape" fill="#8AD6F1"></path>
                    <path d="M225,356 C224.294118,354.695652 223.705882,353.304348 223,352 C223.705882,353.391304 224.411765,354.695652 225,356 Z" id="Shape" fill="#8AD6F1"></path>
                    <path d="M232.3,399.3 C232.2,399.2 232.1,399.1 232,399 C232.1,399.2 232.2,399.2 232.3,399.3 Z" id="Shape" fill="#131A32" opacity="0.1"></path>
                    <path d="M231.2,399.3 C231.1,399.2 231.1,399.1 231,399 C231,399.1 231.1,399.2 231.2,399.3 Z" id="Shape" fill="#131A32" opacity="0.1"></path>
                    <path d="M233.6,400.3 C233.4,400.2 233.2,400.1 233,400 C233.2,400.1 233.4,400.2 233.6,400.3 Z" id="Shape" fill="#131A32" opacity="0.1"></path>
                    <path d="M231.2,399.3 C231.1,399.2 231,399.1 231,399 C231.1,399.1 231.1,399.2 231.2,399.3 Z" id="Shape" fill="#131A32" opacity="0.1"></path>
                    <path d="M232.4,400.3 C232.3,400.2 232.2,400.1 232,400 C232.2,400.1 232.3,400.2 232.4,400.3 Z" id="Shape" fill="#131A32" opacity="0.1"></path>
                    <path d="M164,321 C163.333333,321 162.666667,321 162,321 C162.592593,321 163.333333,321 164,321 Z" id="Shape" fill="#131A32" opacity="0.1"></path>
                    <path d="M229,372 C231.022587,382.319392 229.337098,390.015209 229.421372,395 C229.337098,390.015209 231.022587,382.319392 229,372 Z" id="Shape" fill="#131A32" opacity="0.1"></path>
                    <path d="M229.3,372 C229.2,371.333333 229.1,370.666667 229,370 C229.1,370.666667 229.2,371.333333 229.3,372 Z" id="Shape" fill="#131A32" opacity="0.1"></path>
                    <path d="M230,395.7 C230,395.5 230,395.2 230,395 C230,395.2 230,395.4 230,395.7 Z" id="Shape" fill="#131A32" opacity="0.1"></path>
                    <path d="M230,395.6 C230,395.4 230,395.2 230,395 C230,395.3 230,395.5 230,395.6 Z" id="Shape" fill="#131A32" opacity="0.1"></path>
                    <path d="M231.1,398.3 C231,398.2 231,398.1 231,398 C231,398.1 231,398.2 231.1,398.3 Z" id="Shape" fill="#131A32" opacity="0.1"></path>
                    <path d="M230.1,398.4 C230.1,398.3 230,398.2 230,398 C230,398.2 230.1,398.3 230.1,398.4 Z" id="Shape" fill="#131A32" opacity="0.1"></path>
                    <path d="M230.1,397.4 C230.1,397.3 230,397.1 230,397 C230.1,397.1 230.1,397.2 230.1,397.4 Z" id="Shape" fill="#131A32" opacity="0.1"></path>
                    <path d="M230.1,396.5 C230.1,396.3 230.1,396.2 230,396 C230.1,396.2 230.1,396.3 230.1,396.5 Z" id="Shape" fill="#131A32" opacity="0.1"></path>
                    <path d="M235.030214,338.416741 C225.373618,316.444095 218.303611,304.372167 211.319823,303.416835 C204.336035,302.461502 201.318349,314.01234 190.540899,312.796462 C179.763449,311.580585 189.420044,289 189.420044,289 L147,289 L147,320.873364 C151.742078,321.394454 157.087693,321.307606 162.778187,321.307606 C163.554164,321.307606 164.33014,321.307606 165.106116,321.307606 C191.230656,321.307606 210.888725,321.307606 210.888725,321.307606 C210.888725,321.307606 211.406043,322.349787 212.268239,324.260452 C212.526898,324.86839 212.871776,325.563178 213.216654,326.344813 C214.25129,328.68972 215.630803,331.729414 217.096536,335.116502 C218.131172,337.37456 219.165807,339.893164 220.200442,342.411768 C220.459101,343.019707 220.71776,343.714494 220.976419,344.322433 C221.493736,345.625159 222.011054,346.927885 222.528371,348.317459 C223.045689,349.620185 223.563007,351.00976 224.080324,352.312486 C224.597642,353.615212 225.114959,355.004786 225.546057,356.307512 C225.977155,357.610238 226.494473,358.912964 226.925571,360.21569 C228.046426,363.429081 228.994842,366.468775 229.684598,369.247924 C229.770818,369.682166 229.943257,370.203257 230.029477,370.637499 C230.115696,371.071741 230.201916,371.505983 230.288136,371.940225 L230.288136,371.940225 L230.288136,371.940225 C232.357406,382.101488 230.633014,389.830996 230.719234,394.781355 L230.719234,394.868203 C230.719234,395.0419 230.719234,395.302445 230.719234,395.476142 C230.719234,395.56299 230.719234,395.56299 230.719234,395.649839 C230.719234,395.823535 230.719234,395.997232 230.719234,396.170929 C230.719234,396.257777 230.719234,396.344626 230.719234,396.344626 C230.719234,396.518323 230.719234,396.605171 230.805453,396.778868 C230.805453,396.865716 230.805453,396.952565 230.805453,397.039413 C230.805453,397.126261 230.891673,397.299958 230.891673,397.386807 C230.891673,397.473655 230.891673,397.560503 230.977892,397.647352 C230.977892,397.7342 231.064112,397.907897 231.064112,397.994745 C231.064112,398.081594 231.150332,398.168442 231.150332,398.255291 C231.150332,398.342139 231.236551,398.428987 231.236551,398.515836 C231.236551,398.602684 231.322771,398.689533 231.322771,398.689533 C231.40899,398.776381 231.40899,398.863229 231.49521,398.950078 C231.49521,399.036926 231.58143,399.123775 231.58143,399.123775 C231.667649,399.210623 231.667649,399.297471 231.753869,399.38432 C231.840088,399.471168 231.840088,399.471168 231.926308,399.558017 C232.012528,399.644865 232.098747,399.731713 232.184967,399.818562 C232.271186,399.90541 232.271186,399.90541 232.357406,399.992259 C232.443626,400.079107 232.529845,400.165956 232.702284,400.252804 C232.788504,400.252804 232.788504,400.339652 232.874724,400.339652 C233.047163,400.426501 233.219602,400.513349 233.392041,400.600198 C239.254974,403.292498 249.084009,391.654812 264,387.572937 C262.103169,386.617605 260.033898,385.401727 257.792189,383.925304 C250.808401,379.322339 242.876197,356.133815 235.030214,338.416741 Z" id="Shape" fill="#131A32" opacity="0.1"></path>
                    <path d="M224.621403,290.975615 C239.154092,290.975615 246.119463,316.400918 257.728416,342.427495 C269.337369,368.539969 280.000407,367.251524 284.901965,364.760532 C289.889515,362.269539 276.64671,347.40948 270.025307,330.917392 C265.725695,320.094459 268.649431,313.652237 273.98095,309.615111 C268.821415,297.503733 263.23192,289 247.495339,289 C241.561874,289 230.812844,289 218,289 L218,290.889718 L224.621403,290.889718 L224.621403,290.975615 Z" id="Shape" fill="#131A32" opacity="0.05"></path>
                    <path d="M190,281.542065 C196.805575,281.712478 201.802073,275.833222 211.708923,276.003635 C221.529627,276.174048 229.799693,285.546776 228.938227,287.847355 C228.076762,290.147934 190.430733,291 190.430733,291 L190,281.542065 Z" id="Shape" fill="#E0B18B"></path>
                    <path d="M275.167351,285 L192,285 L192,291 L274.294661,291 C275.778234,291 277,289.645161 277,288 L277,287.032258 C277,285.870968 276.214579,285 275.167351,285 Z" id="Shape" fill="url(#linearGradient-8)"></path>
                    <path d="M275.167351,285 L192,285 L192,291 L274.294661,291 C275.778234,291 277,289.645161 277,288 L277,287.032258 C277,285.870968 276.214579,285 275.167351,285 Z" id="Shape" fill="#131A32" opacity="0.1"></path>
                    <path d="M275.2,285 L232,285 L232,291 L274.342857,291 C275.8,291 277,289.645161 277,288 L277,287.032258 C277,285.870968 276.228571,285 275.2,285 Z" id="Shape" fill="#131A32" opacity="0.15"></path>
                    <path d="M173.826793,289.601193 C173.826793,289.601193 174,280.737767 174,268.919866 C169.150203,269.267451 151.050068,268.050903 145.161028,261.881263 C139.271989,255.711623 145.594046,242.503381 142.909337,230.164102 C140.138024,217.824823 135.028417,216 135.028417,216 L110,293.946009 C114.67659,296.639796 120.738836,298.20393 128.013532,299.420478 C148.625169,302.896331 173.826793,289.601193 173.826793,289.601193 Z" id="Shape" fill="#131A32" opacity="0.1"></path>
                    <path d="M145.4,194 C145.4,194 145.3,194.1 145,194.2 C145.2,194.1 145.3,194.1 145.4,194 Z" id="Shape" fill="#131A32" opacity="0.1"></path>
                    <path d="M125,201 C113.26936,210.404526 101.538721,235.080622 99,262 C101.538721,235.080622 113.356902,210.577086 125,201 Z" id="Shape" fill="#131A32" opacity="0.1"></path>
                    <path d="M126.403471,298.094742 C116.759219,296.180059 109.56833,294.073909 105,289 C109.822126,294.839782 117.35141,297.328869 127.418655,299.339285 C132.832972,300.392361 138.501085,300.105158 144,299.052083 C139.093275,299.530754 133.425163,299.435019 126.403471,298.094742 Z" id="Shape" fill="#131A32" opacity="0.1"></path>
                    <path d="M99.3801192,263 C98.1028736,277.064309 100.061317,285.051447 105,290 C100.146467,284.790997 98.1880233,276.543408 99.3801192,263 Z" id="Shape" fill="#131A32" opacity="0.1"></path>
                    <path d="M171.342857,180.541195 C166.8,185.56103 163.371429,192.831136 161.485714,197.677873 C161.057143,198.803008 160.628571,199.841595 160.371429,200.707084 C160.114286,201.486024 159.942857,202.005317 159.771429,202.438061 C159.685714,202.697708 159.6,202.870806 159.6,202.870806 C157.371429,201.399475 155.228571,200.18779 153.085714,198.024068 C152.142857,197.072031 151.2,195.860346 150.257143,194.389016 C149.571429,193.350429 148.885714,192.138745 148.114286,190.667414 C148.114286,190.580865 148.2,190.580865 148.2,190.494316 C148.2,190.580865 148.114286,190.580865 148.114286,190.667414 C147.342857,191.879098 146.657143,192.917685 146.4,193.26388 L146.4,193.26388 C146.4,193.350429 146.314286,193.350429 146.314286,193.350429 L146.314286,193.436978 C146.142857,193.523527 146.057143,193.610076 145.885714,193.610076 L145.8,193.610076 C145.628571,193.696624 145.457143,193.696624 145.285714,193.783173 L145.2,193.783173 C144.857143,193.869722 144.428571,193.869722 144,193.956271 C145.714286,196.466189 149.4,201.74567 152.485714,204.428685 C156.6,208.063738 160.285714,210.833302 160.457143,215.939686 C160.628571,220.959521 160.114286,227.96998 160.885714,228.74892 C161.657143,229.52786 166.542857,228.316176 167.314286,227.537236 C168.085714,226.758296 167.657143,219.574739 166.971429,213.949062 C166.885714,213.256671 166.8,212.56428 166.628571,211.958438 C167.914286,210.746754 169.2,209.361971 169.885714,208.150287 C169.885714,208.150287 171.085714,202.351512 170.571429,200.96673 C170.4,200.447437 169.8,200.274339 168.857143,200.101241 C171.6,187.984399 180.428571,185.387932 180.428571,185.387932 C180.428571,185.387932 183.085714,184.78209 186,182.44527 C182.057143,178.896766 175.971429,175.52136 171.342857,180.541195 Z" id="Shape" fill="#131A32" opacity="0.05"></path>
                    <g id="Group" opacity="0.1" transform="translate(137.000000, 139.000000)" fill="#131A32">
                        <path d="M14.4160714,3.5 C10.5107143,6.0375 8.51464286,9.45 5.30357143,10.15 C3.39428571,10.5 3.65464286,7.9625 4.17535714,5.775 C-0.684642857,11.9 -0.424285714,16.45 0.8775,20.825 L26.4792857,0.6125 C26.5660714,0.525 18.4082143,0.9625 14.4160714,3.5 Z" id="Shape"></path>
                    </g>
                    <path d="M167.307235,138.912775 L140.698033,164.356971 C139.747704,165.228347 138.279015,165.228347 137.41508,164.269833 L136.637538,163.398456 C135.773603,162.439942 135.773603,160.958602 136.723931,160.087225 L163.333133,134.643029 C164.283462,133.771653 165.752152,133.771653 166.616087,134.730167 L167.393628,135.601544 C168.257563,136.560058 168.17117,138.041398 167.307235,138.912775 Z" id="Shape" fill="#131A32"></path>
                    <path d="M151.11013,188.606365 C151.80281,187.648241 152.49549,186.428811 153.274755,185.035176 C153.621095,184.338358 153.88085,183.728643 154.05402,183.031826 L154.05402,183.031826 C153.101585,175.366834 148.079654,169.530988 148.252824,165.262982 C148.425994,160.036851 153.015,160.38526 155.006455,157.510888 C156.997911,154.636516 155.26621,152.371859 158.210101,149.410385 C161.153991,146.536013 166.955187,145.577889 169.379568,143.051926 C171.717363,140.525963 166.695432,138 166.695432,138 L143.230893,155.768844 C143.230893,155.768844 142.711383,159.514238 143.230893,166.308208 C143.663818,172.318258 148.166239,176.324958 147.733314,190 C148.079654,189.477387 148.425994,188.954774 148.772334,188.345059 C149.465014,187.125628 150.157695,187.474037 151.11013,188.606365 Z" id="Shape" fill="#131A32" opacity="0.1"></path>
                    <g id="Group" transform="translate(40.000000, 291.000000)">
                        <path d="M134.614013,105.111111 C134.527389,105.460317 134.440764,105.809524 134.267516,106.15873 C134.440764,105.809524 134.527389,105.460317 134.614013,105.111111 Z" id="Shape" fill="#543179"></path>
                        <path d="M134.700637,103.97619 L134.700637,103.97619 C134.700637,104.325397 134.700637,104.761905 134.614013,105.111111 C134.700637,104.761905 134.700637,104.412698 134.700637,103.97619 Z" id="Shape" fill="#543179"></path>
                        <path d="M87.143949,105.111111 C87.0573248,104.761905 87.0573248,104.325397 87.0573248,103.97619 L87.0573248,13.2698413 C87.0573248,6.1984127 92.7745223,0.436507937 99.7910828,0.436507937 L15.0726115,0.436507937 C7.01656051,0.436507937 0.519745223,6.98412698 0.519745223,15.1031746 L0.519745223,46.3571429 C22.7821656,69.7539683 52.8407643,89.3968254 87.143949,105.111111 Z" id="Shape" fill="#543179"></path>
                        <path d="M134.267516,106.15873 C134.440764,105.809524 134.527389,105.460317 134.614013,105.111111 C134.700637,104.761905 134.700637,104.412698 134.700637,103.97619 L134.700637,15.1031746 C134.700637,6.98412698 128.203822,0.436507937 120.147771,0.436507937 L99.7910828,0.436507937 C92.7745223,0.436507937 87.0573248,6.1984127 87.0573248,13.2698413 L87.0573248,103.97619 C87.0573248,104.412698 87.143949,104.761905 87.143949,105.111111 C90.3490446,106.595238 93.6407643,108.079365 96.9324841,109.47619 L129.243312,109.47619 C131.495541,109.47619 133.487898,108.079365 134.267516,106.15873 Z" id="Shape" fill="#8761A9"></path>
                        <path d="M87.143949,22.5238095 C93.6407643,20.8650794 109.146497,16.9365079 121.880255,0.523809524 L68.1732484,0.523809524 C70.8585987,13.1825397 81.166879,20.952381 87.143949,22.5238095 Z" id="Shape" fill="#131A32" opacity="0.1"></path>
                    </g>
                    <path d="M137.612114,222.062902 C136.145551,233.918094 131.141983,245.859819 131.659593,257.71501 C132.177204,269.570202 146.756565,272.5989 166.425762,275.021859 C186.09496,277.444818 195.239411,273.637311 197.137316,279.088968 C198.431342,282.723407 198,288.175064 197.568658,291.290297 C197.396121,292.761379 196.102095,293.79979 194.635532,293.626721 C189.631964,293.107516 178.158266,292.155639 169.962767,293.107516 C156.591164,294.578598 147.360444,300.376392 126.828562,296.915022 C106.296681,293.453653 96.8934243,288.780804 99.3952082,261.78212 C101.896992,234.783436 113.456959,210.207711 125.016926,200.60241 C136.404356,190.997109 139.078676,210.207711 137.612114,222.062902 Z" id="Shape" fill="#EAE6F2"></path>
                    <g id="Group" transform="translate(99.000000, 193.000000)">
                        <path d="M46.173913,0.695081967 L46.173913,0.695081967 L46.0869565,0.695081967 C46.0869565,0.695081967 46.0869565,0.695081967 46.173913,0.695081967 L46.173913,0.695081967 Z" id="Shape" fill="#131A32" opacity="0.05"></path>
                        <path d="M75.2173913,90.3606557 C74.173913,90.3606557 73.1304348,90.2737705 72,90.2737705 C52.3478261,90.1868852 35.4782609,97.2245902 21.9130435,86.9721311 C8.34782609,76.6327869 12.3478261,53 20.8695652,30.5836066 C24.8695652,20.0704918 30.8695652,12.8590164 36.173913,8.08032787 C39.9130435,4.69180328 43.2173913,2.60655738 45.2173913,1.47704918 C45.1304348,1.30327869 44.9565217,1.1295082 44.8695652,0.955737705 L44.8695652,0.955737705 C41.3043478,1.1295082 35.3913043,0.43442623 26.173913,7.90655738 C14.6086957,17.5508197 2.86956522,42.2262295 0.347826087,69.3344262 C-0.869565217,82.8885246 1.13043478,91.0557377 6.08695652,96.3557377 C10.7826087,100.960656 18.0869565,102.872131 28.0869565,104.609836 C35.3043478,105.82623 41.1304348,105.913115 46.2608696,105.478689 C55.7391304,104.609836 62.7826087,101.829508 71.5652174,100.786885 C79.826087,99.8311475 91.3043478,100.786885 96.4347826,101.308197 C97.9130435,101.481967 99.2173913,100.439344 99.3913043,98.9622951 C99.5652174,97.5721311 99.7391304,95.747541 99.826087,93.9229508 C94.2608696,92.4459016 85.4782609,90.7081967 75.2173913,90.3606557 Z" id="Shape" fill="#131A32" opacity="0.05"></path>
                        <path d="M46.7826087,0.521311475 L46.7826087,0.521311475 L46.6956522,0.521311475 C46.6956522,0.608196721 46.6956522,0.608196721 46.7826087,0.521311475 C46.6956522,0.521311475 46.7826087,0.521311475 46.7826087,0.521311475 Z" id="Shape" fill="#131A32" opacity="0.05"></path>
                        <path d="M46.2608696,0.695081967 C46.4347826,0.695081967 46.5217391,0.608196721 46.6956522,0.608196721 C46.5217391,0.608196721 46.3478261,0.695081967 46.2608696,0.695081967 Z" id="Shape" fill="#9E1F63"></path>
                    </g>
                    <polygon id="Shape" fill="url(#radialGradient-9)" opacity="0.4" points="303.74062 228.796992 232.238173 285 198 284.913534 203.187602 193.172932 304 193"></polygon>
                    <path d="M304.167491,229 L264.189627,229 C263.500353,229 262.897239,229.345146 262.638762,229.949153 L233,285 L274.959526,285 C276.251914,285 277.544302,284.309707 278.147416,283.101695 L305.804516,231.674884 C306.40763,230.466872 305.546038,229 304.167491,229 Z" id="Shape" fill="url(#linearGradient-10)"></path>
                    <path d="M304.167491,229 L264.189627,229 C263.500353,229 262.897239,229.345146 262.638762,229.949153 L233,285 L274.959526,285 C276.251914,285 277.544302,284.309707 278.147416,283.101695 L305.804516,231.674884 C306.40763,230.466872 305.546038,229 304.167491,229 Z" id="Shape" fill="#131A32" opacity="0.1"></path>
                </g>
            </g>
        </g>
    </g>
</svg>