<?xml version="1.0" encoding="UTF-8"?>
<svg width="91px" height="105px" viewBox="0 0 91 105" version="1.1" xmlns="http://www.w3.org/2000/svg" xmlns:xlink="http://www.w3.org/1999/xlink">
    <!-- Generator: Sketch 59.1 (86144) - https://sketch.com -->
    <title>Certification</title>
    <desc>Created with Sketch.</desc>
    <g id="inspect" stroke="none" stroke-width="1" fill="none" fill-rule="evenodd">
        <g id="Case-Study---Bluvalt---Inspect" transform="translate(-446.000000, -8501.000000)" fill="#131A32" fill-rule="nonzero">
            <g id="Group-30" transform="translate(169.000000, 8099.000000)">
                <g id="Group-28">
                    <g id="Group-25" transform="translate(0.000000, 401.000000)">
                        <path d="M332.768113,1 C332.927723,1.00724814 333.08557,1.03647905 333.237191,1.08686622 L333.237191,1.08686622 L333.39355,1.08686622 C333.58073,1.17196118 333.751317,1.28960791 333.897374,1.4343311 L333.897374,1.4343311 L353.007943,20.5448995 C353.152666,20.6909562 353.270313,20.861544 353.355407,21.0487236 L353.355407,21.0487236 L353.355407,21.2050828 C353.404256,21.3511353 353.433467,21.5030344 353.442274,21.6567871 L353.442274,21.6567871 L353.442274,43.929286 C353.431198,44.3172594 353.290525,44.6903507 353.042689,44.9890539 C361.453615,47.1775958 367.328604,54.7658259 367.340917,63.4568123 C367.35371,69.1766641 364.803826,74.6015425 360.391571,78.2414429 C360.403183,78.3569735 360.403183,78.4733772 360.391571,78.5889078 L360.391571,78.5889078 L360.391571,103.554259 C360.394673,104.194726 360.045143,104.784953 359.482043,105.090117 C358.918943,105.395281 358.233614,105.36588 357.698718,105.013612 L357.698718,105.013612 L348.230301,98.7071244 L338.761883,104.996239 C338.229589,105.346794 337.548076,105.377739 336.986203,105.076866 C336.424331,104.775992 336.072316,104.19161 336.06903,103.554259 L336.06903,103.554259 L336.06903,98.2033003 L278.737324,98.2033003 C277.777827,98.2033003 277,97.4254737 277,96.4659759 L277,96.4659759 L277,2.7373244 C277,1.77782663 277.777827,1 278.737324,1 L278.737324,1 Z M356.899549,80.4478449 C351.450112,83.2610219 344.975742,83.2610219 339.526305,80.4478449 L339.526305,80.4478449 L339.526305,100.305463 L347.257399,95.0934896 C347.841204,94.7039823 348.602024,94.7039823 349.185829,95.0934896 L349.185829,95.0934896 L356.916923,100.305463 Z M330.857056,4.38778258 L280.474649,4.38778258 L280.474649,94.7286515 L336.06903,94.7286515 L336.06903,78.5541613 C336.058553,78.4443802 336.058553,78.3338509 336.06903,78.2240697 C329.828155,73.0976753 327.483706,64.6014759 330.212441,56.9999995 C332.941176,49.3985231 340.153899,44.333103 348.230301,44.3462438 C348.855737,44.3462438 349.463801,44.4331101 350.071864,44.4331101 C350.012305,44.2712729 349.977174,44.10147 349.967625,43.929286 L349.967625,43.929286 L349.967625,23.498351 L332.594381,23.498351 C331.634883,23.498351 330.857056,22.7205244 330.857056,21.7610266 L330.857056,21.7610266 L330.857056,4.38778258 Z M303.059866,80.8300563 C304.019364,80.8300563 304.79719,81.6078829 304.79719,82.5673807 C304.79719,83.5268785 304.019364,84.3047051 303.059866,84.3047051 L303.059866,84.3047051 L296.110568,84.3047051 C295.151071,84.3047051 294.373244,83.5268785 294.373244,82.5673807 C294.373244,81.6078829 295.151071,80.8300563 296.110568,80.8300563 L296.110568,80.8300563 Z M289.161271,80.8300563 C290.120769,80.8300563 290.898595,81.6078829 290.898595,82.5673807 C290.898595,83.5268785 290.120769,84.3047051 289.161271,84.3047051 C288.201773,84.3047051 287.423946,83.5268785 287.423946,82.5673807 C287.423946,81.6078829 288.201773,80.8300563 289.161271,80.8300563 Z M348.230301,47.8208926 C339.594821,47.8208926 332.594381,54.8213323 332.594381,63.4568123 C332.594381,72.0922922 339.594821,79.0927319 348.230301,79.0927319 C356.86578,79.0927319 363.86622,72.0922922 363.86622,63.4568123 C363.86622,54.8213323 356.86578,47.8208926 348.230301,47.8208926 Z M306.534515,73.8807587 C307.494013,73.8807587 308.271839,74.6585853 308.271839,75.6180831 C308.271839,76.5775809 307.494013,77.3554075 306.534515,77.3554075 L306.534515,77.3554075 L289.161271,77.3554075 C288.201773,77.3554075 287.423946,76.5775809 287.423946,75.6180831 C287.423946,74.6585853 288.201773,73.8807587 289.161271,73.8807587 L289.161271,73.8807587 Z M316.958461,73.8807587 C317.917959,73.8807587 318.695786,74.6585853 318.695786,75.6180831 C318.695786,76.5775809 317.917959,77.3554075 316.958461,77.3554075 L316.958461,77.3554075 L313.483812,77.3554075 C312.524315,77.3554075 311.746488,76.5775809 311.746488,75.6180831 C311.746488,74.6585853 312.524315,73.8807587 313.483812,73.8807587 L313.483812,73.8807587 Z M348.230301,51.2955415 C354.946785,51.2955415 360.391571,56.7403279 360.391571,63.4568123 C360.391571,70.1732967 354.946785,75.6180831 348.230301,75.6180831 C341.513816,75.6180831 336.06903,70.1732967 336.06903,63.4568123 C336.06903,56.7403279 341.513816,51.2955415 348.230301,51.2955415 Z M348.230301,54.7701903 C343.432812,54.7701903 339.543678,58.6593234 339.543678,63.4568123 C339.543678,68.2543011 343.432812,72.1434343 348.230301,72.1434343 C353.027789,72.1434343 356.916923,68.2543011 356.916923,63.4568123 C356.916923,58.6593234 353.027789,54.7701903 348.230301,54.7701903 Z M296.110568,56.5075147 C297.070066,56.5075147 297.847893,57.2853413 297.847893,58.2448391 C297.847893,59.2043368 297.070066,59.9821635 296.110568,59.9821635 L296.110568,59.9821635 L289.161271,59.9821635 C288.201773,59.9821635 287.423946,59.2043368 287.423946,58.2448391 C287.423946,57.2853413 288.201773,56.5075147 289.161271,56.5075147 L289.161271,56.5075147 Z M306.534515,56.5075147 C307.494013,56.5075147 308.271839,57.2853413 308.271839,58.2448391 C308.271839,59.2043368 307.494013,59.9821635 306.534515,59.9821635 L306.534515,59.9821635 L303.059866,59.9821635 C302.100368,59.9821635 301.322542,59.2043368 301.322542,58.2448391 C301.322542,57.2853413 302.100368,56.5075147 303.059866,56.5075147 L303.059866,56.5075147 Z M320.43311,49.558217 C321.392608,49.558217 322.170434,50.3360437 322.170434,51.2955415 C322.170434,52.2550392 321.392608,53.0328659 320.43311,53.0328659 L320.43311,53.0328659 L313.483812,53.0328659 C312.524315,53.0328659 311.746488,52.2550392 311.746488,51.2955415 C311.746488,50.3360437 312.524315,49.558217 313.483812,49.558217 L313.483812,49.558217 Z M306.534515,49.558217 C307.494013,49.558217 308.271839,50.3360437 308.271839,51.2955415 C308.271839,52.2550392 307.494013,53.0328659 306.534515,53.0328659 L306.534515,53.0328659 L289.161271,53.0328659 C288.201773,53.0328659 287.423946,52.2550392 287.423946,51.2955415 C287.423946,50.3360437 288.201773,49.558217 289.161271,49.558217 L289.161271,49.558217 Z M292.63592,42.6089194 C293.595417,42.6089194 294.373244,43.3867461 294.373244,44.3462438 C294.373244,45.3057416 293.595417,46.0835682 292.63592,46.0835682 L292.63592,46.0835682 L289.161271,46.0835682 C288.201773,46.0835682 287.423946,45.3057416 287.423946,44.3462438 C287.423946,43.3867461 288.201773,42.6089194 289.161271,42.6089194 L289.161271,42.6089194 Z M306.534515,42.6089194 C307.494013,42.6089194 308.271839,43.3867461 308.271839,44.3462438 C308.271839,45.3057416 307.494013,46.0835682 306.534515,46.0835682 L306.534515,46.0835682 L299.585217,46.0835682 C298.625719,46.0835682 297.847893,45.3057416 297.847893,44.3462438 C297.847893,43.3867461 298.625719,42.6089194 299.585217,42.6089194 L299.585217,42.6089194 Z M313.483812,42.6089194 C314.44331,42.6089194 315.221137,43.3867461 315.221137,44.3462438 C315.221137,45.3057416 314.44331,46.0835682 313.483812,46.0835682 C312.524315,46.0835682 311.746488,45.3057416 311.746488,44.3462438 C311.746488,43.3867461 312.524315,42.6089194 313.483812,42.6089194 Z M313.483812,35.6596218 C314.44331,35.6596218 315.221137,36.4374485 315.221137,37.3969462 C315.221137,38.356444 314.44331,39.1342706 313.483812,39.1342706 L313.483812,39.1342706 L289.161271,39.1342706 C288.201773,39.1342706 287.423946,38.356444 287.423946,37.3969462 C287.423946,36.4374485 288.201773,35.6596218 289.161271,35.6596218 L289.161271,35.6596218 Z M330.857056,35.6596218 C331.816554,35.6596218 332.594381,36.4374485 332.594381,37.3969462 C332.594381,38.356444 331.816554,39.1342706 330.857056,39.1342706 L330.857056,39.1342706 L320.43311,39.1342706 C319.473612,39.1342706 318.695786,38.356444 318.695786,37.3969462 C318.695786,36.4374485 319.473612,35.6596218 320.43311,35.6596218 L320.43311,35.6596218 Z M289.161271,28.7103242 C290.120769,28.7103242 290.898595,29.4881508 290.898595,30.4476486 C290.898595,31.4071464 290.120769,32.184973 289.161271,32.184973 C288.201773,32.184973 287.423946,31.4071464 287.423946,30.4476486 C287.423946,29.4881508 288.201773,28.7103242 289.161271,28.7103242 Z M299.585217,28.7103242 C300.544715,28.7103242 301.322542,29.4881508 301.322542,30.4476486 C301.322542,31.4071464 300.544715,32.184973 299.585217,32.184973 L299.585217,32.184973 L296.110568,32.184973 C295.151071,32.184973 294.373244,31.4071464 294.373244,30.4476486 C294.373244,29.4881508 295.151071,28.7103242 296.110568,28.7103242 L296.110568,28.7103242 Z M323.907759,28.7103242 C324.867257,28.7103242 325.645083,29.4881508 325.645083,30.4476486 C325.645083,31.4071464 324.867257,32.184973 323.907759,32.184973 L323.907759,32.184973 L306.534515,32.184973 C305.575017,32.184973 304.79719,31.4071464 304.79719,30.4476486 C304.79719,29.4881508 305.575017,28.7103242 306.534515,28.7103242 L306.534515,28.7103242 Z M306.534515,21.7610266 C307.494013,21.7610266 308.271839,22.5388532 308.271839,23.498351 C308.271839,24.4578488 307.494013,25.2356754 306.534515,25.2356754 L306.534515,25.2356754 L289.161271,25.2356754 C288.201773,25.2356754 287.423946,24.4578488 287.423946,23.498351 C287.423946,22.5388532 288.201773,21.7610266 289.161271,21.7610266 L289.161271,21.7610266 Z M316.958461,21.7610266 C317.917959,21.7610266 318.695786,22.5388532 318.695786,23.498351 C318.695786,24.4578488 317.917959,25.2356754 316.958461,25.2356754 L316.958461,25.2356754 L313.483812,25.2356754 C312.524315,25.2356754 311.746488,24.4578488 311.746488,23.498351 C311.746488,22.5388532 312.524315,21.7610266 313.483812,21.7610266 L313.483812,21.7610266 Z M334.331705,6.83740999 L334.331705,20.0237022 L347.517997,20.0237022 L334.331705,6.83740999 Z M296.110568,14.811729 C297.070066,14.811729 297.847893,15.5895556 297.847893,16.5490534 C297.847893,17.5085512 297.070066,18.2863778 296.110568,18.2863778 L296.110568,18.2863778 L289.161271,18.2863778 C288.201773,18.2863778 287.423946,17.5085512 287.423946,16.5490534 C287.423946,15.5895556 288.201773,14.811729 289.161271,14.811729 L289.161271,14.811729 Z M306.534515,14.811729 C307.494013,14.811729 308.271839,15.5895556 308.271839,16.5490534 C308.271839,17.5085512 307.494013,18.2863778 306.534515,18.2863778 L306.534515,18.2863778 L303.059866,18.2863778 C302.100368,18.2863778 301.322542,17.5085512 301.322542,16.5490534 C301.322542,15.5895556 302.100368,14.811729 303.059866,14.811729 L303.059866,14.811729 Z" id="Certification"></path>
                    </g>
                </g>
            </g>
        </g>
    </g>
</svg>