<?xml version="1.0" encoding="UTF-8"?>
<svg width="273px" height="175px" viewBox="0 0 273 175" version="1.1" xmlns="http://www.w3.org/2000/svg" xmlns:xlink="http://www.w3.org/1999/xlink">
    <!-- Generator: Sketch 59.1 (86144) - https://sketch.com -->
    <title>Developers</title>
    <desc>Created with Sketch.</desc>
    <defs>
        <linearGradient x1="49.9961934%" y1="-0.736424504%" x2="49.9961934%" y2="100.324468%" id="linearGradient-1">
            <stop stop-color="#D5CBE5" offset="0%"></stop>
            <stop stop-color="#A48DC2" offset="100%"></stop>
        </linearGradient>
    </defs>
    <g id="inspect" stroke="none" stroke-width="1" fill="none" fill-rule="evenodd">
        <g id="Case-Study---Bluvalt---Inspect" transform="translate(-998.000000, -8128.000000)" fill-rule="nonzero">
            <g id="Group-30" transform="translate(169.000000, 8099.000000)">
                <g id="Group-28">
                    <g id="Group-26">
                        <g id="Developers" transform="translate(829.000000, 29.000000)">
                            <path d="M178.44334,64.5292062 C161.501183,59.6700792 146.535072,69.6798808 122.903518,62.1644311 C99.271964,54.6489813 97.7656347,20.6998809 55.7827776,25.0730952 C13.7999206,29.4463095 0,74.5066136 0,115.112718 C0,155.718822 13.4597817,174.442658 53.4503967,174.442658 C93.4410117,174.442658 107.192341,158.245568 127.665463,158.245568 C148.138584,158.245568 158.780072,174.442658 183.205284,169.664517 C207.630496,164.886375 212.748776,142.340026 212.748776,118.854246 C212.748776,95.3684654 195.385496,69.4045303 178.44334,64.5292062 Z" id="Shape" fill="url(#linearGradient-1)"></path>
                            <path d="M246.195767,136.055555 L45.3518517,136.055555 L45.3518517,9.71825394 C45.3518517,4.3510105 49.7028622,0 55.0701057,0 L236.477513,0 C241.844756,0 246.195767,4.3510105 246.195767,9.71825394 L246.195767,136.055555 Z M51.8306877,129.576719 L239.716931,129.576719 L239.716931,9.71825394 C239.716931,7.92917279 238.266594,6.47883596 236.477513,6.47883596 L55.0701057,6.47883596 C53.2810245,6.47883596 51.8306877,7.92917279 51.8306877,9.71825394 L51.8306877,129.576719 Z" id="Shape" fill="#131A32"></path>
                            <path d="M229.998677,123.097883 L61.5489416,123.097883 C59.7598605,123.097883 58.3095237,121.647546 58.3095237,119.858465 L58.3095237,16.1970899 C58.3095237,14.4080088 59.7598605,12.9576719 61.5489416,12.9576719 L229.998677,12.9576719 C231.787758,12.9576719 233.238095,14.4080088 233.238095,16.1970899 L233.238095,119.858465 C233.238095,121.647546 231.787758,123.097883 229.998677,123.097883 Z M64.7883596,116.619047 L226.759259,116.619047 L226.759259,19.4365079 L64.7883596,19.4365079 L64.7883596,116.619047 Z" id="Shape" fill="#131A32"></path>
                            <path d="M74.5066136,123.097883 L61.5489416,123.097883 C59.7598605,123.097883 58.3095237,121.647546 58.3095237,119.858465 L58.3095237,16.1970899 C58.3095237,14.4080088 59.7598605,12.9576719 61.5489416,12.9576719 L74.5066136,12.9576719 C76.2956947,12.9576719 77.7460316,14.4080088 77.7460316,16.1970899 L77.7460316,119.858465 C77.7460316,121.647546 76.2956947,123.097883 74.5066136,123.097883 Z M64.7883596,116.619047 L71.2671956,116.619047 L71.2671956,19.4365079 L64.7883596,19.4365079 L64.7883596,116.619047 Z" id="Shape" fill="#131A32"></path>
                            <path d="M262.392857,149.013227 L29.1547618,149.013227 C23.7875184,149.013227 19.4365079,144.662217 19.4365079,139.294973 L19.4365079,132.816137 C19.4365079,131.027056 20.8868447,129.576719 22.6759259,129.576719 L268.871692,129.576719 C270.660774,129.576719 272.11111,131.027056 272.11111,132.816137 L272.11111,139.294973 C272.11111,144.662217 267.7601,149.013227 262.392857,149.013227 L262.392857,149.013227 Z M25.9153439,136.055555 L25.9153439,139.294973 C25.9153439,141.084054 27.3656807,142.534391 29.1547618,142.534391 L262.392857,142.534391 C264.181938,142.534391 265.632274,141.084054 265.632274,139.294973 L265.632274,136.055555 L25.9153439,136.055555 Z" id="Shape" fill="#131A32"></path>
                            <rect id="Rectangle-path" fill="#131A32" x="90.7037035" y="32.3941798" width="19.4365079" height="6.47883596" rx="2"></rect>
                            <rect id="Rectangle-path" fill="#131A32" x="103.661375" y="45.3518517" width="38.8730158" height="6.47883596" rx="2"></rect>
                            <rect id="Rectangle-path" fill="#131A32" x="136.055555" y="32.3941798" width="51.8306877" height="6.47883596" rx="2"></rect>
                            <rect id="Rectangle-path" fill="#131A32" x="90.7037035" y="58.3095237" width="6.47883596" height="6.47883596" rx="2"></rect>
                            <rect id="Rectangle-path" fill="#131A32" x="194.365079" y="71.2671956" width="6.47883596" height="6.47883596" rx="2"></rect>
                            <rect id="Rectangle-path" fill="#131A32" x="194.365079" y="32.3941798" width="6.47883596" height="6.47883596" rx="2"></rect>
                            <rect id="Rectangle-path" fill="#131A32" x="103.661375" y="58.3095237" width="12.9576719" height="6.47883596" rx="2"></rect>
                            <rect id="Rectangle-path" fill="#131A32" x="123.097883" y="58.3095237" width="51.8306877" height="6.47883596" rx="2"></rect>
                            <rect id="Rectangle-path" fill="#131A32" x="90.7037035" y="71.2671956" width="51.8306877" height="6.47883596" rx="2"></rect>
                            <rect id="Rectangle-path" fill="#131A32" x="149.013227" y="71.2671956" width="38.8730158" height="6.47883596" rx="2"></rect>
                            <rect id="Rectangle-path" fill="#131A32" x="90.7037035" y="97.1825394" width="64.7883596" height="6.47883596" rx="2"></rect>
                            <rect id="Rectangle-path" fill="#131A32" x="181.407407" y="58.3095237" width="25.9153439" height="6.47883596" rx="2"></rect>
                            <rect id="Rectangle-path" fill="#131A32" x="149.013227" y="45.3518517" width="25.9153439" height="6.47883596" rx="2"></rect>
                            <rect id="Rectangle-path" fill="#131A32" x="181.407407" y="45.3518517" width="12.9576719" height="6.47883596" rx="2"></rect>
                            <rect id="Rectangle-path" fill="#131A32" x="103.661375" y="84.2248675" width="12.9576719" height="6.47883596" rx="2"></rect>
                            <rect id="Rectangle-path" fill="#131A32" x="123.097883" y="84.2248675" width="19.4365079" height="6.47883596" rx="2"></rect>
                            <rect id="Rectangle-path" fill="#131A32" x="161.970899" y="97.1825394" width="32.3941798" height="6.47883596" rx="2"></rect>
                            <rect id="Rectangle-path" fill="#131A32" x="200.843915" y="97.1825394" width="6.47883596" height="6.47883596" rx="2"></rect>
                            <rect id="Rectangle-path" fill="#131A32" x="161.970899" y="84.2248675" width="25.9153439" height="6.47883596" rx="2"></rect>
                            <rect id="Rectangle-path" fill="#131A32" x="149.013227" y="84.2248675" width="6.47883596" height="6.47883596" rx="2"></rect>
                            <rect id="Rectangle-path" fill="#131A32" x="116.619047" y="32.3941798" width="12.9576719" height="6.47883596" rx="2"></rect>
                        </g>
                    </g>
                </g>
            </g>
        </g>
    </g>
</svg>