<?xml version="1.0" encoding="UTF-8"?>
<svg width="368px" height="32px" viewBox="0 0 368 32" version="1.1" xmlns="http://www.w3.org/2000/svg" xmlns:xlink="http://www.w3.org/1999/xlink">
    <!-- Generator: Sketch 58 (84663) - https://sketch.com -->
    <title>GothamRounded</title>
    <desc>Created with Sketch.</desc>
    <g id="inspect" stroke="none" stroke-width="1" fill="none" fill-rule="evenodd">
        <g id="Case-Study---Bluvalt---inspect" transform="translate(-171.000000, -4994.000000)" fill="#484848" fill-rule="nonzero">
            <g id="Type" transform="translate(167.000000, 4642.000000)">
                <g id="Group-21" transform="translate(3.000000, 294.000000)">
                    <g id="Group-20" transform="translate(1.000000, 56.000000)">
                        <g id="Group-12" transform="translate(0.000000, 2.000000)">
                            <path d="M15.724,31.504 C19.9765,31.504 23.408875,30.0980714 25.9081486,28.4912959 L26.182,28.312 C27.4,27.556 27.988,26.506 27.988,25.036 L27.988,17.182 C27.988,15.712 26.854,14.578 25.384,14.578 L17.194,14.578 C15.934,14.578 14.884,15.586 14.884,16.846 C14.884,18.106 15.934,19.072 17.194,19.072 L22.99,19.072 L22.99,24.574 C21.184,25.918 18.664,26.8 15.892,26.8 C9.9861,26.8 6.02956,22.4951633 5.89931586,16.6010568 L5.896,16.216 C5.896,10.588 10.012,5.842 15.43,5.842 C18.622,5.842 20.68,6.766 22.57,8.152 C22.99,8.446 23.494,8.74 24.166,8.74 C25.594,8.74 26.728,7.564 26.728,6.178 C26.728,5.17 26.182,4.456 25.678,4.078 C22.99,2.146 20.05,1.096 15.64,1.096 C6.888775,1.096 0.635900312,7.89478938 0.480945824,15.9919018 L0.478,16.384 C0.478,24.952 6.526,31.504 15.724,31.504 Z M44.662,31.504 C51.4026769,31.504 56.3924956,26.4142959 56.5444331,20.2440084 L56.548,19.87 C56.548,13.528 51.55,8.362 44.746,8.362 C38.0466769,8.362 33.0574944,13.4517041 32.9055668,19.6620828 L32.902,20.038 C32.902,26.338 37.9,31.504 44.662,31.504 Z M44.746,27.052 C40.88025,27.052 38.1017422,23.9513464 37.9876489,20.1946561 L37.984,19.87 C37.984,16.006 40.588,12.814 44.662,12.814 C48.568875,12.814 51.3482396,15.9146536 51.4623507,19.7107732 L51.466,20.038 C51.466,23.86 48.862,27.052 44.746,27.052 Z M69.148,31.378 C70.492,31.378 71.542,31.168 72.634,30.79 C73.348,30.496 73.978,29.74 73.978,28.816 C73.978,27.64 72.97,26.716 71.836,26.716 C71.668,26.716 71.164,26.842 70.576,26.842 C68.854,26.842 67.846,26.044 67.846,24.07 L67.846,13.192 L71.836,13.192 C73.054,13.192 74.062,12.226 74.062,11.008 C74.062,9.79 73.054,8.824 71.836,8.824 L67.846,8.824 L67.846,5.044 C67.846,3.658 66.712,2.524 65.326,2.524 C63.898,2.524 62.764,3.658 62.764,5.044 L62.764,8.824 L61.924,8.824 C60.706,8.824 59.74,9.79 59.74,11.008 C59.74,12.226 60.706,13.192 61.924,13.192 L62.764,13.192 L62.764,24.868 C62.764,29.74 65.41,31.378 69.148,31.378 Z M78.976,28.69 C78.976,30.118 80.11,31.21 81.496,31.21 C82.924,31.21 84.058,30.118 84.058,28.69 L84.058,18.484 C84.058,15.04 86.116,12.982 89.056,12.982 C92.08,12.982 93.802,14.956 93.802,18.4 L93.802,28.69 C93.802,30.118 94.936,31.21 96.364,31.21 C97.792,31.21 98.884,30.118 98.884,28.69 L98.884,16.846 C98.884,11.722 95.986,8.362 90.988,8.362 C87.544,8.362 85.486,10.168 84.058,12.226 L84.058,2.65 C84.058,1.264 82.924,0.13 81.496,0.13 C80.068,0.13 78.976,1.264 78.976,2.65 L78.976,28.69 Z M111.4,31.462 C114.802,31.462 117.112,30.034 118.624,28.228 L118.624,29.068 C118.624,30.202 119.632,31.21 121.102,31.21 C122.488,31.21 123.58,30.16 123.58,28.774 L123.58,17.854 C123.58,14.956 122.824,12.604 121.186,11.008 C119.632,9.412 117.154,8.53 113.836,8.53 C110.938,8.53 108.796,9.034 106.696,9.832 C105.94,10.126 105.31,10.924 105.31,11.848 C105.31,13.024 106.276,13.948 107.452,13.948 C107.704,13.948 107.956,13.906 108.25,13.822 C109.636,13.276 111.232,12.94 113.164,12.94 C116.734,12.94 118.666,14.62 118.666,17.77 L118.666,18.316 C116.944,17.77 115.18,17.392 112.702,17.392 C107.384333,17.392 103.685021,19.6576955 103.549833,24.2685056 L103.546,24.616 C103.546,29.068 107.242,31.462 111.4,31.462 Z M112.828,27.766 C110.392,27.766 108.502,26.548 108.502,24.406 L108.502,24.322 C108.502,22.012 110.434,20.626 113.71,20.626 C115.726,20.626 117.448,21.004 118.75,21.508 L118.75,23.02 C118.75,25.834 116.188,27.766 112.828,27.766 Z M129.67,28.69 C129.67,30.118 130.804,31.21 132.19,31.21 C133.618,31.21 134.752,30.118 134.752,28.69 L134.752,18.484 C134.752,15.082 136.684,12.982 139.498,12.982 C142.312,12.982 143.992,14.914 143.992,18.358 L143.992,28.69 C143.992,30.118 145.126,31.21 146.554,31.21 C147.94,31.21 149.074,30.118 149.074,28.69 L149.074,18.484 C149.074,14.914 151.048,12.982 153.82,12.982 C156.676,12.982 158.314,14.872 158.314,18.4 L158.314,28.69 C158.314,30.118 159.448,31.21 160.876,31.21 C162.304,31.21 163.396,30.118 163.396,28.69 L163.396,16.846 C163.396,11.428 160.456,8.362 155.626,8.362 C152.266,8.362 149.914,9.916 148.15,12.268 C146.974,9.916 144.706,8.362 141.514,8.362 C138.112,8.362 136.18,10.21 134.752,12.184 L134.752,11.134 C134.752,9.706 133.618,8.572 132.19,8.572 C130.762,8.572 129.67,9.706 129.67,11.134 L129.67,28.69 Z M182.758,28.648 C182.758,30.076 183.892,31.21 185.362,31.21 C186.79,31.21 187.924,30.076 187.924,28.648 L187.924,20.752 L194.434,20.752 L201.574,29.866 C202.162,30.664 202.918,31.21 204.094,31.21 C205.354,31.21 206.572,30.244 206.572,28.816 C206.572,28.0905455 206.294314,27.5733554 205.865163,27.011988 L200.104,19.744 C203.962273,18.5536818 206.65728,15.7989721 206.777787,11.2838661 L206.782,10.882 C206.782,8.32 205.9,6.136 204.346,4.54 C202.456,2.692 199.558,1.6 195.862,1.6 L185.362,1.6 C183.892,1.6 182.758,2.734 182.758,4.204 L182.758,28.648 Z M187.924,16.174 L187.924,6.304 L195.442,6.304 C199.173,6.304 201.423119,7.94497619 201.528152,10.9534325 L201.532,11.26 C201.532,14.242 199.18,16.174 195.484,16.174 L187.924,16.174 Z M223.078,31.504 C229.818677,31.504 234.808496,26.4142959 234.960433,20.2440084 L234.964,19.87 C234.964,13.528 229.966,8.362 223.162,8.362 C216.462677,8.362 211.473494,13.4517041 211.321567,19.6620828 L211.318,20.038 C211.318,26.338 216.316,31.504 223.078,31.504 Z M223.162,27.052 C219.29625,27.052 216.517742,23.9513464 216.403649,20.1946561 L216.4,19.87 C216.4,16.006 219.004,12.814 223.078,12.814 C226.984875,12.814 229.76424,15.9146536 229.878351,19.7107732 L229.882,20.038 C229.882,23.86 227.278,27.052 223.162,27.052 Z M259.828,11.134 C259.828,9.706 258.652,8.572 257.266,8.572 C255.838,8.572 254.704,9.706 254.704,11.134 L254.704,21.34 C254.704,24.784 252.646,26.8 249.706,26.8 C246.682,26.8 244.96,24.868 244.96,21.424 L244.96,11.134 C244.96,9.706 243.826,8.572 242.398,8.572 C241.012,8.572 239.878,9.706 239.878,11.134 L239.878,22.936 C239.878,28.102 242.776,31.462 247.774,31.462 C251.218,31.462 253.276,29.656 254.704,27.556 L254.704,28.69 C254.704,30.118 255.88,31.21 257.266,31.21 C258.694,31.21 259.828,30.076 259.828,28.69 L259.828,11.134 Z M266.17,28.69 C266.17,30.118 267.304,31.21 268.69,31.21 C270.118,31.21 271.252,30.118 271.252,28.69 L271.252,18.484 C271.252,15.04 273.31,12.982 276.25,12.982 C279.274,12.982 280.996,14.956 280.996,18.4 L280.996,28.69 C280.996,30.118 282.13,31.21 283.558,31.21 C284.986,31.21 286.078,30.118 286.078,28.69 L286.078,16.846 C286.078,11.722 283.18,8.362 278.182,8.362 C274.738,8.362 272.68,10.168 271.252,12.226 L271.252,11.134 C271.252,9.706 270.118,8.572 268.69,8.572 C267.262,8.572 266.17,9.706 266.17,11.134 L266.17,28.69 Z M314.008,2.65 C314.008,1.222 312.874,0.13 311.446,0.13 C310.06,0.13 308.926,1.222 308.926,2.65 L308.926,12.268 C307.33,10.168 305.02,8.362 301.366,8.362 C296.159355,8.362 291.237302,12.3869527 291.079881,19.51685 L291.076,19.954 C291.076,27.304 296.158,31.462 301.366,31.462 C304.978,31.462 307.288,29.614 308.926,27.304 L308.926,28.69 C308.926,30.118 310.06,31.21 311.488,31.21 C312.874,31.21 314.008,30.118 314.008,28.69 L314.008,2.65 Z M302.584,12.772 C305.913617,12.772 308.881148,15.4675292 309.005919,19.5985625 L309.01,19.954 C309.01,24.196 305.986,27.052 302.584,27.052 C299.213277,27.052 296.325335,24.3564708 296.203969,20.2254375 L296.2,19.87 C296.2,15.46 299.098,12.772 302.584,12.772 Z M324.214,18.358 C324.676,14.914 326.86,12.52 329.968,12.52 C333.328,12.52 335.26,15.082 335.596,18.358 L324.214,18.358 Z M338.536,28.564 C338.914,28.186 339.208,27.64 339.208,27.01 C339.208,25.834 338.326,24.952 337.192,24.952 C336.604,24.952 336.268,25.12 335.89,25.414 C334.462,26.59 332.782,27.346 330.64,27.346 C327.364,27.346 324.802,25.33 324.256,21.718 L338.158,21.718 C339.46,21.718 340.552,20.71 340.552,19.282 C340.552,14.158 337.066,8.362 330.01,8.362 C323.768667,8.362 319.317132,13.4059788 319.177386,19.6108734 L319.174,19.996 C319.174,26.842 324.13,31.504 330.556,31.504 C334,31.504 336.52,30.37 338.536,28.564 Z M367.558,2.65 C367.558,1.222 366.424,0.13 364.996,0.13 C363.61,0.13 362.476,1.222 362.476,2.65 L362.476,12.268 C360.88,10.168 358.57,8.362 354.916,8.362 C349.709355,8.362 344.787302,12.3869527 344.629881,19.51685 L344.626,19.954 C344.626,27.304 349.708,31.462 354.916,31.462 C358.528,31.462 360.838,29.614 362.476,27.304 L362.476,28.69 C362.476,30.118 363.61,31.21 365.038,31.21 C366.424,31.21 367.558,30.118 367.558,28.69 L367.558,2.65 Z M356.134,12.772 C359.463617,12.772 362.431148,15.4675292 362.555919,19.5985625 L362.56,19.954 C362.56,24.196 359.536,27.052 356.134,27.052 C352.763277,27.052 349.875335,24.3564708 349.753969,20.2254375 L349.75,19.87 C349.75,15.46 352.648,12.772 356.134,12.772 Z" id="GothamRounded"></path>
                        </g>
                    </g>
                </g>
            </g>
        </g>
    </g>
</svg>