<?xml version="1.0" encoding="UTF-8"?>
<svg width="468px" height="40px" viewBox="0 0 468 40" version="1.1" xmlns="http://www.w3.org/2000/svg" xmlns:xlink="http://www.w3.org/1999/xlink">
    <!-- Generator: Sketch 58 (84663) - https://sketch.com -->
    <title>GothamRounded</title>
    <desc>Created with Sketch.</desc>
    <g id="inspect" stroke="none" stroke-width="1" fill="none" fill-rule="evenodd">
        <g id="Case-Study---Bluvalt---inspect" transform="translate(-167.000000, -4814.000000)" fill="#484848" fill-rule="nonzero">
            <g id="Type" transform="translate(167.000000, 4642.000000)">
                <g id="Group-19">
                    <g id="Group-16" transform="translate(0.000000, 62.000000)">
                        <path d="M20.313,149.636 C25.878,149.636 30.277,147.781 33.298,145.926 C35.259,144.76 36.16,143.117 36.16,140.732 L36.16,131.722 C36.16,129.443 34.358,127.641 32.079,127.641 L22.751,127.641 C20.79,127.641 19.2,129.231 19.2,131.192 C19.2,133.153 20.79,134.69 22.751,134.69 L28.263,134.69 L28.263,139.99 C26.196,141.474 23.546,142.216 20.578,142.216 C14.1071077,142.216 9.48595929,137.386113 9.34530168,130.761817 L9.342,130.344 C9.342,124.037 14.059,118.79 19.995,118.79 C23.35308,118.79 25.6854192,119.669206 27.8360557,121.146273 L28.104,121.334 C28.687,121.758 29.429,122.182 30.595,122.182 C32.821,122.182 34.623,120.38 34.623,118.154 C34.623,116.564 33.722,115.451 32.927,114.868 C29.588,112.536 25.878,111.264 20.26,111.264 C9.14353191,111.264 0.984129131,119.720169 0.811782905,130.11405 L0.809,130.556 C0.809,141.527 8.759,149.636 20.313,149.636 Z M57.095,149.636 C65.833962,149.636 72.3512551,143.17766 72.5148496,135.1582 L72.518,134.743 C72.518,126.581 65.999,120.062 57.201,120.062 C48.462038,120.062 41.9447449,126.52034 41.7811504,134.5398 L41.778,134.955 C41.778,143.117 48.297,149.636 57.095,149.636 Z M57.201,142.693 C52.8346154,142.693 49.8447215,139.175301 49.7313404,135.089947 L49.728,134.743 C49.728,130.556 52.484,127.005 57.095,127.005 C61.4613846,127.005 64.4512785,130.522699 64.5646596,134.608053 L64.568,134.955 C64.568,139.142 61.812,142.693 57.201,142.693 Z M87.941,149.477 C89.69,149.477 91.068,149.265 92.552,148.682 C93.665,148.258 94.619,147.092 94.619,145.661 C94.619,143.806 93.082,142.322 91.28,142.322 L91.101125,142.330281 C90.8725625,142.345188 90.52475,142.375 90.326,142.375 C88.524,142.375 87.729,141.474 87.729,139.619 L87.729,127.482 L91.28,127.482 C93.188,127.482 94.725,125.945 94.725,124.037 C94.725,122.129 93.188,120.592 91.28,120.592 L87.729,120.592 L87.729,117.041 C87.729,114.815 85.927,113.013 83.701,113.013 C81.475,113.013 79.673,114.815 79.673,117.041 L79.673,120.592 L79.408,120.592 C77.5,120.592 75.963,122.129 75.963,124.037 C75.963,125.945 77.5,127.482 79.408,127.482 L79.673,127.482 L79.673,140.944 C79.673,147.516 83.012,149.477 87.941,149.477 Z M100.343,145.29 C100.343,147.516 102.145,149.318 104.371,149.318 C106.597,149.318 108.399,147.516 108.399,145.29 L108.399,133.153 C108.399,129.337 110.36,127.376 113.434,127.376 C116.508,127.376 118.31,129.337 118.31,133.153 L118.31,145.29 C118.31,147.516 120.112,149.318 122.338,149.318 C124.564,149.318 126.366,147.516 126.366,145.29 L126.366,130.609 C126.366,124.09 122.815,120.062 116.72,120.062 C112.639,120.062 110.254,122.235 108.399,124.62 L108.399,114.02 C108.399,111.794 106.597,109.992 104.371,109.992 C102.145,109.992 100.343,111.794 100.343,114.02 L100.343,145.29 Z M141.418,149.53 C145.34,149.53 148.043,148.099 150.004,145.926 L150.004,145.979 C150.004,147.675 151.541,149.318 153.873,149.318 C156.046,149.318 157.795,147.622 157.795,145.449 L157.795,132.517 C157.795,128.701 156.841,125.574 154.721,123.454 C152.707,121.44 149.527,120.274 145.128,120.274 C141.365,120.274 138.609,120.804 136.065,121.758 C134.793,122.235 133.892,123.454 133.892,124.885 C133.892,126.74 135.376,128.171 137.231,128.171 C137.549,128.171 137.828061,128.132061 138.201688,128.020808 L138.397,127.959 C139.934,127.482 141.736,127.164 143.962,127.164 C147.99,127.164 150.057,129.019 150.057,132.358 L150.057,132.835 C148.043,132.146 145.976,131.669 143.114,131.669 C136.493344,131.669 131.821197,134.437933 131.669791,140.429723 L131.666,140.838 C131.666,146.456 136.065,149.53 141.418,149.53 Z M143.856,143.965 C141.259,143.965 139.457,142.693 139.457,140.52 L139.457,140.414 C139.457,137.87 141.577,136.492 145.022,136.492 C146.983,136.492 148.785,136.916 150.163,137.552 L150.163,138.983 C150.163,141.898 147.619,143.965 143.856,143.965 Z M164.738,145.29 C164.738,147.516 166.54,149.318 168.766,149.318 C170.992,149.318 172.794,147.516 172.794,145.29 L172.794,133.153 C172.794,129.337 174.649,127.376 177.67,127.376 C180.691,127.376 182.387,129.337 182.387,133.153 L182.387,145.29 C182.387,147.516 184.189,149.318 186.415,149.318 C188.641,149.318 190.443,147.516 190.443,145.29 L190.443,133.153 C190.443,129.337 192.298,127.376 195.319,127.376 C198.34,127.376 200.036,129.337 200.036,133.153 L200.036,145.29 C200.036,147.516 201.838,149.318 204.064,149.318 C206.29,149.318 208.092,147.516 208.092,145.29 L208.092,130.503 C208.092,123.666 204.488,120.062 198.499,120.062 C194.63,120.062 191.662,121.652 189.171,124.567 C187.687,121.705 184.878,120.062 181.168,120.062 C177.087,120.062 174.649,122.235 172.794,124.62 L172.794,124.302 C172.794,122.076 170.992,120.274 168.766,120.274 C166.54,120.274 164.738,122.076 164.738,124.302 L164.738,145.29 Z M231.836,145.237 C231.836,147.516 233.638,149.318 235.917,149.318 C238.196,149.318 239.998,147.516 239.998,145.237 L239.998,137.128 L246.517,137.128 L254.467,147.198 C255.421,148.417 256.64,149.318 258.495,149.318 C260.456,149.318 262.364,147.834 262.364,145.555 C262.364,144.283 261.834,143.435 261.039,142.428 L255.368,135.538 C259.779146,133.721646 262.665852,130.228408 262.784216,124.610481 L262.788,124.143 C262.788,120.645 261.675,117.73 259.608,115.663 C257.17,113.225 253.513,111.9 248.796,111.9 L235.917,111.9 C233.638,111.9 231.836,113.702 231.836,115.981 L231.836,145.237 Z M239.998,129.92 L239.998,119.267 L248.107,119.267 C251.991659,119.267 254.408388,120.988022 254.516233,124.331129 L254.52,124.673 C254.52,127.8 252.241,129.92 248.266,129.92 L239.998,129.92 Z M283.246,149.636 C291.984962,149.636 298.502255,143.17766 298.66585,135.1582 L298.669,134.743 C298.669,126.581 292.15,120.062 283.352,120.062 C274.613038,120.062 268.095745,126.52034 267.93215,134.5398 L267.929,134.955 C267.929,143.117 274.448,149.636 283.246,149.636 Z M283.352,142.693 C278.985615,142.693 275.995722,139.175301 275.88234,135.089947 L275.879,134.743 C275.879,130.556 278.635,127.005 283.246,127.005 C287.612385,127.005 290.602278,130.522699 290.71566,134.608053 L290.719,134.955 C290.719,139.142 287.963,142.693 283.352,142.693 Z M330.31,124.302 C330.31,122.076 328.508,120.274 326.282,120.274 C324.056,120.274 322.254,122.076 322.254,124.302 L322.254,136.439 C322.254,140.255 320.293,142.216 317.219,142.216 C314.145,142.216 312.343,140.255 312.343,136.439 L312.343,124.302 C312.343,122.076 310.541,120.274 308.315,120.274 C306.089,120.274 304.287,122.076 304.287,124.302 L304.287,138.983 C304.287,145.502 307.838,149.53 313.933,149.53 C318.014,149.53 320.399,147.357 322.254,144.972 L322.254,145.29 C322.254,147.516 324.056,149.318 326.282,149.318 C328.508,149.318 330.31,147.516 330.31,145.29 L330.31,124.302 Z M337.518,145.29 C337.518,147.516 339.32,149.318 341.546,149.318 C343.772,149.318 345.574,147.516 345.574,145.29 L345.574,133.153 C345.574,129.337 347.535,127.376 350.609,127.376 C353.683,127.376 355.485,129.337 355.485,133.153 L355.485,145.29 C355.485,147.516 357.287,149.318 359.513,149.318 C361.739,149.318 363.541,147.516 363.541,145.29 L363.541,130.609 C363.541,124.09 359.99,120.062 353.895,120.062 C349.814,120.062 347.429,122.235 345.574,124.62 L345.574,124.302 C345.574,122.076 343.772,120.274 341.546,120.274 C339.32,120.274 337.518,122.076 337.518,124.302 L337.518,145.29 Z M399.104,114.02 C399.104,111.794 397.302,109.992 395.076,109.992 C392.85,109.992 391.048,111.794 391.048,114.02 L391.048,124.302 C389.14,122.023 386.49,120.062 382.197,120.062 C375.558205,120.062 369.43499,125.114673 369.268476,134.355542 L369.265,134.849 C369.265,144.336 375.572,149.53 382.197,149.53 C386.384,149.53 389.087,147.569 391.048,144.919 L391.048,145.29 C391.048,147.516 392.85,149.318 395.076,149.318 C397.302,149.318 399.104,147.516 399.104,145.29 L399.104,114.02 Z M384.264,126.899 C387.95174,126.899 391.028666,129.902171 391.150268,134.4619 L391.154,134.849 C391.154,139.566 388.027,142.693 384.264,142.693 C380.57626,142.693 377.448433,139.689829 377.324795,135.1301 L377.321,134.743 C377.321,129.973 380.501,126.899 384.264,126.899 Z M412.831,132.57 C413.467,128.913 415.64,126.528 418.979,126.528 C422.371,126.528 424.491,128.966 424.968,132.57 L412.831,132.57 Z M429.632,146.191 C430.215,145.661 430.692,144.866 430.692,143.806 C430.692,142.004 429.367,140.626 427.565,140.626 C426.717,140.626 426.187,140.838 425.604,141.262 C423.961,142.481 422.106,143.17 419.88,143.17 C416.276,143.17 413.732,141.262 412.937,137.605 L428.89,137.605 C431.01,137.605 432.653,136.068 432.653,133.736 C432.653,127.853 428.466,120.062 418.979,120.062 C410.819789,120.062 405.086458,126.565419 404.936993,134.529663 L404.934,134.955 C404.934,143.647 411.241,149.636 419.774,149.636 C423.908,149.636 427.141,148.311 429.632,146.191 Z M467.368,114.02 C467.368,111.794 465.566,109.992 463.34,109.992 C461.114,109.992 459.312,111.794 459.312,114.02 L459.312,124.302 C457.404,122.023 454.754,120.062 450.461,120.062 C443.822205,120.062 437.69899,125.114673 437.532476,134.355542 L437.529,134.849 C437.529,144.336 443.836,149.53 450.461,149.53 C454.648,149.53 457.351,147.569 459.312,144.919 L459.312,145.29 C459.312,147.516 461.114,149.318 463.34,149.318 C465.566,149.318 467.368,147.516 467.368,145.29 L467.368,114.02 Z M452.528,126.899 C456.21574,126.899 459.292666,129.902171 459.414268,134.4619 L459.418,134.849 C459.418,139.566 456.291,142.693 452.528,142.693 C448.84026,142.693 445.712433,139.689829 445.588795,135.1301 L445.585,134.743 C445.585,129.973 448.765,126.899 452.528,126.899 Z" id="GothamRounded"></path>
                    </g>
                </g>
            </g>
        </g>
    </g>
</svg>