<?xml version="1.0" encoding="UTF-8"?>
<svg width="125px" height="105px" viewBox="0 0 125 105" version="1.1" xmlns="http://www.w3.org/2000/svg" xmlns:xlink="http://www.w3.org/1999/xlink">
    <!-- Generator: Sketch 59.1 (86144) - https://sketch.com -->
    <title>Icon</title>
    <desc>Created with Sketch.</desc>
    <g id="inspect" stroke="none" stroke-width="1" fill="none" fill-rule="evenodd">
        <g id="Case-Study---Bluvalt---Inspect" transform="translate(-667.000000, -8501.000000)" fill="#131A32" fill-rule="nonzero">
            <g id="Group-30" transform="translate(169.000000, 8099.000000)">
                <g id="Group-28">
                    <g id="Group-25" transform="translate(0.000000, 401.000000)">
                        <path d="M622.361893,63.1899113 L622.361893,43.1315415 C622.384588,42.9584431 622.384588,42.7831224 622.361893,42.6100239 L622.361893,42.4495569 C622.324539,42.338689 622.277557,42.2313016 622.221484,42.128623 L622.101134,41.9480977 L621.90055,41.7073973 L621.720025,41.5669887 L621.559558,41.4265801 L602.303523,31.8587377 L602.303523,13.0439868 C602.326218,12.8708884 602.326218,12.6955677 602.303523,12.5224692 L602.303523,12.3620023 C602.266169,12.2511343 602.219187,12.1437469 602.163114,12.0410683 L602.042764,11.860543 L601.84218,11.6198426 L601.661655,11.479434 L601.501188,11.3390254 L581.442818,1.3098405 C580.88055,1.0304423 580.219892,1.0304423 579.657623,1.3098405 L570.210131,5.78285696 L561.083573,1.20954865 C560.521304,0.930150451 559.860647,0.930150451 559.298378,1.20954865 L550.151761,5.78285696 L541.025203,1.20954865 C540.462934,0.930150451 539.802277,0.930150451 539.240008,1.20954865 L519.181639,11.2387335 L519.021172,11.3791421 L518.840646,11.5195507 L518.640063,11.7602512 L518.519712,11.9407765 C518.46364,12.043455 518.416658,12.1508424 518.379304,12.2617104 L518.379304,12.4221774 C518.236719,12.6090421 518.128089,12.819514 518.05837,13.0439868 L518.05837,31.8587377 L499.10321,41.3463466 L498.942743,41.4867552 L498.762218,41.6271638 L498.561634,41.8678642 L498.441284,42.0483896 C498.385212,42.1510681 498.33823,42.2584555 498.300876,42.3693235 L498.300876,42.5297904 C498.16742,42.7120042 498.065698,42.915449 498,43.1315415 L498,63.1899113 C498.002289,63.9452257 498.428688,64.6352167 499.10321,64.9751062 L505.541947,68.2045038 L499.10321,71.4339013 L498.942743,71.5743099 L498.762218,71.7147185 L498.561634,71.9554189 L498.441284,72.1359442 C498.385212,72.2386228 498.33823,72.3460102 498.300876,72.4568782 L498.300876,72.6173451 C498.16742,72.7995589 498.065698,73.0030037 498,73.2190962 L498,93.277466 C498.002289,94.0327804 498.428688,94.7227714 499.10321,95.0626609 L519.16158,105.091846 C519.667072,105.34264 520.260757,105.34264 520.76625,105.091846 L540.122577,95.5240034 L559.27832,105.111904 C559.783812,105.362699 560.377497,105.362699 560.882989,105.111904 L580.239316,95.5240034 L599.395059,105.111904 C599.900552,105.362699 600.494237,105.362699 600.999729,105.111904 L621.058099,95.0827193 C621.817487,94.7996196 622.331902,94.0873532 622.361893,93.277466 L622.361893,73.2190962 C622.384588,73.0459978 622.384588,72.8706771 622.361893,72.6975786 L622.361893,72.5371116 C622.324539,72.4262437 622.277557,72.3188563 622.221484,72.2161777 L622.101134,72.0356524 L621.90055,71.794952 L621.720025,71.6545434 L621.559558,71.5141348 L614.819946,68.2045038 L621.258682,64.9751062 C621.933205,64.6352167 622.359603,63.9452257 622.361893,63.1899113 Z M618.350219,61.9462924 L610.326871,65.9579663 L602.303523,61.9462924 L602.303523,54.4043453 L618.350219,46.3809974 L618.350219,61.9462924 Z M615.862981,73.2190962 L600.297686,81.0017437 L584.732391,73.2190962 L600.297686,65.4364487 L615.862981,73.2190962 Z M618.350219,92.0338471 L602.303523,100.057195 L602.303523,84.4919 L618.350219,76.4685521 L618.350219,92.0338471 Z M578.233479,92.0338471 L562.186783,100.057195 L562.186783,84.4919 L578.233479,76.4685521 L578.233479,92.0338471 Z M538.11674,92.0338471 L522.070044,100.057195 L522.070044,84.4919 L538.11674,76.4685521 L538.11674,92.0338471 Z M504.498912,73.2190962 L520.064207,65.4364487 L535.629502,73.2190962 L520.064207,81.0017437 L504.498912,73.2190962 Z M504.498912,43.1315415 L520.064207,35.348894 L525.600317,38.1169491 L519.16158,41.3463466 L519.001113,41.4867552 L518.820588,41.6271638 L518.620004,41.8678642 L518.499654,42.0483896 C518.443581,42.1510681 518.396599,42.2584555 518.359245,42.3693235 L518.359245,42.5297904 C518.22579,42.7120042 518.124068,42.915449 518.05837,43.1315415 L518.05837,49.9112705 L504.498912,43.1315415 Z M524.557282,13.0439868 L540.122577,5.26133935 L545.658687,8.02939438 L539.21995,11.2587919 L539.059483,11.3992005 L538.878958,11.5396091 L538.678374,11.7803095 L538.558024,11.9608349 C538.501951,12.0635134 538.454969,12.1709008 538.417615,12.2817688 L538.417615,12.4422357 C538.28416,12.6244495 538.182437,12.8278943 538.11674,13.0439868 L538.11674,19.8237158 L524.557282,13.0439868 L524.557282,13.0439868 Z M560.180946,5.26133935 L575.746241,13.0439868 L560.180946,20.8266343 L544.615651,13.0439868 L560.180946,5.26133935 Z M580.239316,5.26133935 L595.804611,13.0439868 L582.245153,19.8237158 L582.245153,13.0439868 C582.267849,12.8708884 582.267849,12.6955677 582.245153,12.5224692 L582.245153,12.3620023 C582.207799,12.2511343 582.160817,12.1437469 582.104745,12.0410683 L581.984394,11.860543 L581.783811,11.6198426 L581.603285,11.479434 L581.442818,11.3390254 L574.703206,8.02939438 L580.239316,5.26133935 Z M615.862981,43.1315415 L602.303523,49.9112705 L602.303523,43.1315415 C602.326218,42.9584431 602.326218,42.7831224 602.303523,42.6100239 L602.303523,42.4495569 C602.266169,42.338689 602.219187,42.2313016 602.163114,42.128623 L602.042764,41.9480977 L601.84218,41.7073973 L601.661655,41.5669887 L601.501188,41.4265801 L594.761576,38.1169491 L600.297686,35.348894 L615.862981,43.1315415 Z M502.011674,76.4685521 L518.05837,84.4919 L518.05837,100.057195 L502.011674,92.0338471 L502.011674,76.4685521 Z M598.291849,61.9462924 L582.245153,69.9696403 L582.245153,54.4043453 L598.291849,46.3809974 L598.291849,61.9462924 Z M560.180946,81.0017437 L544.615651,73.2190962 L560.180946,65.4364487 L575.746241,73.2190962 L560.180946,81.0017437 Z M524.557282,43.1315415 L540.122577,35.348894 L555.687872,43.1315415 L540.122577,50.914189 L524.557282,43.1315415 Z M542.128414,16.2934427 L558.175109,24.3167907 L558.175109,39.8820856 L542.128414,31.8587377 L542.128414,16.2934427 Z M578.233479,16.2934427 L578.233479,31.8587377 L562.186783,39.8820856 L562.186783,24.3167907 L578.233479,16.2934427 Z M595.804611,43.1315415 L580.239316,50.914189 L564.674021,43.1315415 L580.239316,35.348894 L595.804611,43.1315415 Z M542.128414,54.4043453 L558.175109,46.3809974 L558.175109,61.9462924 L542.128414,69.9696403 L542.128414,54.4043453 Z M562.186783,46.3809974 L578.233479,54.4043453 L578.233479,69.9696403 L562.186783,61.9462924 L562.186783,46.3809974 Z M522.070044,46.3809974 L538.11674,54.4043453 L538.11674,69.9696403 L522.070044,61.9462924 L522.070044,46.3809974 Z M598.291849,31.8587377 L590.268501,35.8704117 L582.245153,31.8587377 L582.245153,24.3167907 L598.291849,16.2934427 L598.291849,31.8587377 Z M538.11674,31.8587377 L530.093392,35.8704117 L522.070044,31.8587377 L522.070044,16.2934427 L538.11674,24.3167907 L538.11674,31.8587377 Z M502.011674,46.3809974 L518.05837,54.4043453 L518.05837,61.9462924 L510.035022,65.9579663 L502.011674,61.9462924 L502.011674,46.3809974 Z M558.175109,84.4919 L558.175109,100.057195 L542.128414,92.0338471 L542.128414,76.4685521 L558.175109,84.4919 Z M598.291849,84.4919 L598.291849,100.057195 L582.245153,92.0338471 L582.245153,76.4685521 L598.291849,84.4919 Z" id="Icon"></path>
                    </g>
                </g>
            </g>
        </g>
    </g>
</svg>