<?xml version="1.0" encoding="UTF-8"?>
<svg width="147px" height="105px" viewBox="0 0 147 105" version="1.1" xmlns="http://www.w3.org/2000/svg" xmlns:xlink="http://www.w3.org/1999/xlink">
    <!-- Generator: Sketch 59.1 (86144) - https://sketch.com -->
    <title>Laptops</title>
    <desc>Created with Sketch.</desc>
    <g id="inspect" stroke="none" stroke-width="1" fill="none" fill-rule="evenodd">
        <g id="Case-Study---Bluvalt---Inspect" transform="translate(-169.000000, -8500.000000)" fill="#131A32" fill-rule="nonzero">
            <g id="Group-30" transform="translate(169.000000, 8099.000000)">
                <g id="Group-28">
                    <g id="Group-25" transform="translate(0.000000, 401.000000)">
                        <path d="M109.789474,27.4473684 C113.831811,27.4473684 117.108772,30.7243299 117.108772,34.7666667 L117.108772,34.7666667 L117.108772,93.3210527 L129.917544,93.3210527 C130.928128,93.3210527 131.747368,94.140293 131.747368,95.1508772 L131.747368,95.1508772 L131.747368,96.9807018 C131.747368,101.023039 128.470407,104.3 124.42807,104.3 L124.42807,104.3 L7.31929825,104.3 C3.27696145,104.3 -1.42108547e-14,101.023039 -1.42108547e-14,96.9807018 L-1.42108547e-14,96.9807018 L-1.42108547e-14,95.1508772 C-1.42108547e-14,94.140293 0.819240362,93.3210527 1.82982456,93.3210527 L1.82982456,93.3210527 L14.6385965,93.3210527 L14.6385965,34.7666667 C14.6385965,30.7243299 17.9155579,27.4473684 21.9578947,27.4473684 L21.9578947,27.4473684 Z M128.087719,96.9807018 L3.65964912,96.9807018 C3.65964912,99.0018702 5.29812985,100.640351 7.31929825,100.640351 L7.31929825,100.640351 L124.42807,100.640351 C126.449239,100.640351 128.087719,99.0018702 128.087719,96.9807018 L128.087719,96.9807018 Z M109.789474,31.1070176 L21.9578947,31.1070176 C19.9367263,31.1070176 18.2982456,32.7454983 18.2982456,34.7666667 L18.2982456,34.7666667 L18.2982456,93.3210527 L113.449123,93.3210527 L113.449123,34.7666667 C113.449123,32.7454983 111.810642,31.1070176 109.789474,31.1070176 L109.789474,31.1070176 Z M107.959649,34.7666667 C108.970233,34.7666667 109.789474,35.585907 109.789474,36.5964912 L109.789474,36.5964912 L109.789474,87.831579 C109.789474,88.8421632 108.970233,89.6614036 107.959649,89.6614036 L107.959649,89.6614036 L23.7877193,89.6614036 C22.7771351,89.6614036 21.9578947,88.8421632 21.9578947,87.831579 L21.9578947,87.831579 L21.9578947,36.5964912 C21.9578947,35.585907 22.7771351,34.7666667 23.7877193,34.7666667 L23.7877193,34.7666667 Z M106.129825,38.4263158 L25.6175439,38.4263158 L25.6175439,86.0017544 L106.129825,86.0017544 L106.129825,38.4263158 Z M128.087719,2.66453526e-13 C132.130056,2.66453526e-13 135.407018,3.27696145 135.407018,7.31929825 L135.407018,7.31929825 L135.407018,51.2350878 L144.55614,51.2350878 C145.566725,51.2350878 146.385965,52.0543281 146.385965,53.0649123 C146.385965,58.1178333 142.289763,62.2140351 137.236842,62.2140351 L137.236842,62.2140351 L122.598246,62.2140351 C121.587661,62.2140351 120.768421,61.3947948 120.768421,60.3842106 C120.768421,59.3736264 121.587661,58.554386 122.598246,58.554386 L122.598246,58.554386 L137.236842,58.554386 C139.564244,58.5556061 141.639445,57.0890327 142.415246,54.8947369 L142.415246,54.8947369 L122.598246,54.8947369 C121.587661,54.8947369 120.768421,54.0754965 120.768421,53.0649123 C120.768421,52.0543281 121.587661,51.2350878 122.598246,51.2350878 L122.598246,51.2350878 L131.747368,51.2350878 L131.747368,7.31929825 C131.747368,5.29812985 130.108888,3.65964913 128.087719,3.65964913 L128.087719,3.65964913 L62.2140351,3.65964913 C60.1928667,3.65964913 58.554386,5.29812985 58.554386,7.31929825 L58.554386,7.31929825 L58.554386,21.9578948 C58.554386,22.968479 57.7351456,23.7877193 56.7245614,23.7877193 C55.7139772,23.7877193 54.8947369,22.968479 54.8947369,21.9578948 L54.8947369,21.9578948 L54.8947369,7.31929825 C54.8947369,3.27696145 58.1716983,2.66453526e-13 62.2140351,2.66453526e-13 L62.2140351,2.66453526e-13 Z M56.7245614,42.0859649 C57.7351456,42.0859649 58.554386,42.9052053 58.554386,43.9157895 L58.554386,43.9157895 L58.554386,51.2350878 L100.640351,51.2350878 C101.650935,51.2350878 102.470175,52.0543281 102.470175,53.0649123 C102.470175,54.0754965 101.650935,54.8947369 100.640351,54.8947369 L100.640351,54.8947369 L47.8865088,54.8947369 C48.6623092,57.0890327 50.7375105,58.5556061 53.0649123,58.554386 L53.0649123,58.554386 L100.640351,58.554386 C101.650935,58.554386 102.470175,59.3736264 102.470175,60.3842106 C102.470175,61.3947948 101.650935,62.2140351 100.640351,62.2140351 L100.640351,62.2140351 L53.0649123,62.2140351 C48.0119913,62.2140351 43.9157895,58.1178333 43.9157895,53.0649123 C43.9157895,52.0543281 44.7350299,51.2350878 45.7456141,51.2350878 L45.7456141,51.2350878 L54.8947369,51.2350878 L54.8947369,43.9157895 C54.8947369,42.9052053 55.7139772,42.0859649 56.7245614,42.0859649 Z M126.257895,7.31929825 C127.268479,7.31929825 128.087719,8.13853861 128.087719,9.14912281 L128.087719,9.14912281 L128.087719,45.7456141 C128.087719,46.7561983 127.268479,47.5754386 126.257895,47.5754386 L126.257895,47.5754386 L122.213983,47.5754386 C121.203398,47.5754386 120.384158,46.7561983 120.384158,45.7456141 C120.384158,44.7350299 121.203398,43.9157895 122.213983,43.9157895 L122.213983,43.9157895 L124.42807,43.9157895 L124.42807,10.9789474 L65.8736843,10.9789474 L65.8736843,21.9578947 C65.8736843,22.968479 65.0544439,23.7877193 64.0438597,23.7877193 C63.0332755,23.7877193 62.2140351,22.968479 62.2140351,21.9578947 L62.2140351,21.9578947 L62.2140351,9.14912281 C62.2140351,8.13853861 63.0332755,7.31929825 64.0438597,7.31929825 L64.0438597,7.31929825 Z M64.0438597,42.0859649 C65.0544439,42.0859649 65.8736843,42.9052053 65.8736843,43.9157895 L65.8736843,43.9157895 L100.640351,43.9157895 C101.650935,43.9157895 102.470175,44.7350299 102.470175,45.7456141 C102.470175,46.7561983 101.650935,47.5754386 100.640351,47.5754386 L100.640351,47.5754386 L64.0438597,47.5754386 C63.0332755,47.5754386 62.2140351,46.7561983 62.2140351,45.7456141 L62.2140351,45.7456141 L62.2140351,43.9157895 C62.2140351,42.9052053 63.0332755,42.0859649 64.0438597,42.0859649 Z" id="Laptops"></path>
                    </g>
                </g>
            </g>
        </g>
    </g>
</svg>