<?xml version="1.0" encoding="UTF-8"?>
<svg width="404px" height="26px" viewBox="0 0 404 26" version="1.1" xmlns="http://www.w3.org/2000/svg" xmlns:xlink="http://www.w3.org/1999/xlink">
    <!-- Generator: Sketch 58 (84663) - https://sketch.com -->
    <title>light-alpha</title>
    <desc>Created with Sketch.</desc>
    <g id="inspect" stroke="none" stroke-width="1" fill="none" fill-rule="evenodd">
        <g id="Case-Study---Bluvalt---inspect" transform="translate(-959.000000, -5227.000000)" fill="#484848" fill-rule="nonzero">
            <g id="Type" transform="translate(167.000000, 4642.000000)">
                <g id="Group-22" transform="translate(3.000000, 531.000000)">
                    <g id="Group-18" transform="translate(788.000000, 54.000000)">
                        <path d="M6.944,21.336 C9.66,21.336 11.424,19.992 12.404,18.62 L12.404,20.412 C12.404,20.832 12.684,21.112 13.076,21.112 C13.468,21.112 13.748,20.832 13.748,20.412 L13.748,12.096 C13.748,10.332 13.244,9.016 12.292,8.064 C11.256,7.028 9.716,6.496 7.784,6.496 C5.964,6.496 4.536,6.916 3.08,7.56 C2.94,7.616 2.688,7.84 2.688,8.176 C2.688,8.512 2.996,8.82 3.332,8.82 C3.395,8.82 3.47375,8.80425 3.5564375,8.77275 L3.64,8.736 C4.816,8.176 6.132,7.784 7.7,7.784 C10.64,7.784 12.404,9.268 12.404,12.152 L12.404,12.768 C11.032,12.404 9.66,12.152 7.672,12.152 C4.06614634,12.152 1.55297561,13.7510482 1.43252698,16.5851336 L1.428,16.856 C1.428,19.824 4.284,21.336 6.944,21.336 Z M7.028,20.048 C4.844,20.048 2.884,18.844 2.884,16.772 L2.884,16.716 C2.884,14.728 4.564,13.384 7.588,13.384 C9.632,13.384 11.228,13.72 12.432,14.028 L12.432,15.652 C12.432,18.256 9.94,20.048 7.028,20.048 Z M18.676,20.412 C18.676,20.804 18.984,21.112 19.376,21.112 C19.768,21.112 20.048,20.804 20.048,20.412 L20.048,17.92 C21.224,19.712 23.072,21.336 25.928,21.336 C29.3017143,21.336 32.7291662,18.6222507 32.867657,14.1422888 L32.872,13.804 C32.872,9.156 29.372,6.384 25.928,6.384 C23.1,6.384 21.28,8.036 20.048,9.912 L20.048,1.148 C20.048,0.728 19.74,0.448 19.348,0.448 C18.956,0.448 18.676,0.728 18.676,1.148 L18.676,20.412 Z M25.788,20.02 C22.8874545,20.02 20.093876,17.6667273 19.9683934,14.1362104 L19.964,13.832 C19.964,10.192 22.82,7.7 25.788,7.7 C28.7159091,7.7 31.2694339,9.99978926 31.3839908,13.606277 L31.388,13.916 C31.388,17.752 28.896,20.02 25.788,20.02 Z M43.456,21.336 C45.892,21.336 47.544,20.328 48.972,18.872 C49.084,18.76 49.14,18.592 49.14,18.452 C49.14,18.116 48.804,17.78 48.468,17.78 C48.272,17.78 48.132,17.892 48.02,18.004 C46.872,19.152 45.388,20.048 43.54,20.048 C40.3384545,20.048 37.7787107,17.4273099 37.6640124,14.0937095 L37.66,13.804 C37.66,10.388 40.18,7.672 43.428,7.672 C45.36,7.672 46.704,8.596 47.852,9.688 C47.964,9.8 48.16,9.856 48.328,9.856 C48.72,9.856 49.028,9.548 49.028,9.156 C49.028,8.96 48.944,8.764 48.832,8.652 C47.544,7.448 45.92,6.384 43.456,6.384 C39.44976,6.384 36.3040384,9.7185088 36.179812,13.6204219 L36.176,13.916 C36.176,17.92 39.34,21.336 43.456,21.336 Z M66.136,1.148 C66.136,0.728 65.828,0.448 65.436,0.448 C65.044,0.448 64.764,0.728 64.764,1.148 L64.764,9.8 C63.588,8.008 61.74,6.384 58.884,6.384 C55.5102857,6.384 52.0828338,9.09774927 51.944343,13.5777112 L51.94,13.916 C51.94,18.564 55.44,21.336 58.884,21.336 C61.712,21.336 63.532,19.684 64.764,17.808 L64.764,20.412 C64.764,20.832 65.072,21.112 65.464,21.112 C65.856,21.112 66.136,20.832 66.136,20.412 L66.136,1.148 Z M59.024,7.7 C61.9245455,7.7 64.718124,10.0532727 64.8436066,13.5837896 L64.848,13.888 C64.848,17.528 61.992,20.02 59.024,20.02 C56.0960909,20.02 53.5425661,17.7202107 53.4280092,14.113723 L53.424,13.804 C53.424,9.968 55.916,7.7 59.024,7.7 Z M71.82,13.188 C72.072,10.024 74.256,7.644 77.084,7.644 C80.36,7.644 82.012,10.304 82.208,13.188 L71.82,13.188 Z M82.936,19.012 C83.104,18.844 83.16,18.676 83.16,18.536 C83.16,18.172 82.852,17.892 82.488,17.892 C82.292,17.892 82.152,17.976 82.04,18.088 C80.892,19.208 79.464,20.048 77.42,20.048 C74.62,20.048 72.072,17.976 71.82,14.42 L83.02,14.42 C83.356,14.42 83.692,14.112 83.692,13.776 C83.692,9.688 81.144,6.384 77.14,6.384 C73.3548571,6.384 70.4832536,9.55451895 70.3676218,13.5793562 L70.364,13.888 C70.364,18.34 73.612,21.336 77.364,21.336 C79.94,21.336 81.536,20.412 82.936,19.012 Z M88.536,20.412 C88.536,20.804 88.844,21.112 89.236,21.112 C89.628,21.112 89.908,20.804 89.908,20.412 L89.908,7.98 L94.36,7.98 C94.696,7.98 95.004,7.7 95.004,7.364 C95.004,7 94.724,6.72 94.36,6.72 L89.908,6.72 L89.908,5.348 C89.908,2.912 90.832,1.736 92.792,1.736 C93.324,1.736 93.8,1.82 94.248,1.904 C94.668,1.988 95.032,1.708 95.032,1.316 C95.032,1.008 94.808,0.728 94.5,0.672 C94.024,0.56 93.492,0.476 92.792,0.476 C91.532,0.476 90.524,0.868 89.796,1.596 C88.984,2.408 88.536,3.696 88.536,5.32 L88.536,6.72 L86.996,6.72 C86.66,6.72 86.352,7 86.352,7.336 C86.352,7.7 86.632,7.98 86.996,7.98 L88.536,7.98 L88.536,20.412 Z M103.824,25.536 C105.924,25.536 107.772,24.864 109.004,23.632 C110.152,22.484 110.824,20.86 110.824,18.788 L110.824,7.308 C110.824,6.916 110.516,6.608 110.124,6.608 C109.732,6.608 109.452,6.916 109.452,7.308 L109.452,9.576 C108.276,7.896 106.344,6.384 103.488,6.384 C100.11575,6.384 96.7703455,8.93432118 96.6324173,12.9046567 L96.628,13.216 C96.628,17.304 100.044,19.936 103.488,19.936 C106.316,19.936 108.22,18.396 109.452,16.632 L109.452,18.704 C109.452,22.372 107.128,24.248 103.852,24.248 C101.864,24.248 99.988,23.632 98.364,22.428 C98.252,22.372 98.14,22.316 97.972,22.316 C97.608,22.316 97.272,22.652 97.272,22.96 C97.272,23.212 97.384,23.436 97.58,23.576 C99.428,24.864 101.556,25.536 103.824,25.536 Z M103.628,18.62 C100.759707,18.62 98.2378751,16.4879358 98.1165652,13.3938425 L98.112,13.104 C98.112,9.772 100.632,7.7 103.628,7.7 C106.526977,7.7 109.399241,9.73017415 109.531266,12.9034084 L109.536,13.188 C109.536,16.436 106.596,18.62 103.628,18.62 Z M116.032,20.412 C116.032,20.832 116.34,21.112 116.732,21.112 C117.124,21.112 117.404,20.832 117.404,20.412 L117.404,12.74 C117.404,9.772 119.56,7.644 122.36,7.644 C125.244,7.644 126.896,9.576 126.896,12.516 L126.896,20.412 C126.896,20.832 127.204,21.112 127.596,21.112 C127.988,21.112 128.268,20.832 128.268,20.412 L128.268,12.264 C128.268,8.848 126.168,6.384 122.556,6.384 C119.952,6.384 118.356,7.7 117.404,9.38 L117.404,1.148 C117.404,0.756 117.096,0.448 116.704,0.448 C116.312,0.448 116.032,0.756 116.032,1.148 L116.032,20.412 Z M133.224,2.296 C133.224,2.772 133.588,3.136 134.064,3.136 C134.54,3.136 134.932,2.772 134.932,2.296 L134.932,1.82 C134.932,1.344 134.54,0.98 134.064,0.98 C133.588,0.98 133.224,1.344 133.224,1.82 L133.224,2.296 Z M133.392,20.412 C133.392,20.832 133.7,21.112 134.092,21.112 C134.484,21.112 134.764,20.832 134.764,20.412 L134.764,7.308 C134.764,6.888 134.456,6.608 134.064,6.608 C133.672,6.608 133.392,6.916 133.392,7.308 L133.392,20.412 Z M140.196,2.296 C140.196,2.772 140.56,3.136 141.036,3.136 C141.512,3.136 141.904,2.772 141.904,2.296 L141.904,1.82 C141.904,1.344 141.512,0.98 141.036,0.98 C140.56,0.98 140.196,1.344 140.196,1.82 L140.196,2.296 Z M138.684,25.564 C140.532,25.564 141.736,24.5 141.736,22.26 L141.736,7.308 C141.736,6.888 141.428,6.608 141.036,6.608 C140.644,6.608 140.364,6.916 140.364,7.308 L140.364,22.344 C140.364,23.688 139.664,24.332 138.656,24.332 C138.488,24.332 138.264,24.304 138.04,24.304 C137.704,24.304 137.424,24.584 137.424,24.92 C137.424,25.256 137.676,25.48 138.012,25.536 C138.208,25.564 138.432,25.564 138.684,25.564 Z M147.14,20.412 C147.14,20.832 147.448,21.112 147.84,21.112 C148.232,21.112 148.512,20.832 148.512,20.412 L148.512,17.528 L151.984,14.028 L157.472,20.804 C157.668,21.028 157.808,21.112 158.06,21.112 C158.452,21.112 158.732,20.86 158.732,20.468 C158.732,20.272 158.676,20.132 158.536,19.964 L152.936,13.048 L158.172,7.728 C158.34,7.56 158.396,7.448 158.396,7.252 C158.396,6.888 158.116,6.608 157.752,6.608 C157.556,6.608 157.416,6.664 157.276,6.804 L148.512,15.876 L148.512,1.148 C148.512,0.756 148.204,0.448 147.812,0.448 C147.42,0.448 147.14,0.756 147.14,1.148 L147.14,20.412 Z M163.016,20.412 C163.016,20.832 163.324,21.112 163.716,21.112 C164.108,21.112 164.388,20.832 164.388,20.412 L164.388,1.148 C164.388,0.756 164.08,0.448 163.688,0.448 C163.296,0.448 163.016,0.756 163.016,1.148 L163.016,20.412 Z M169.792,20.412 C169.792,20.832 170.1,21.112 170.492,21.112 C170.884,21.112 171.164,20.832 171.164,20.412 L171.164,12.768 C171.164,9.884 173.18,7.644 175.728,7.644 C178.276,7.644 179.9,9.464 179.9,12.432 L179.9,20.412 C179.9,20.832 180.208,21.112 180.6,21.112 C180.992,21.112 181.272,20.832 181.272,20.412 L181.272,12.684 C181.272,9.492 183.372,7.644 185.78,7.644 C188.412,7.644 190.008,9.436 190.008,12.516 L190.008,20.412 C190.008,20.832 190.316,21.112 190.708,21.112 C191.1,21.112 191.38,20.832 191.38,20.412 L191.38,12.348 C191.38,8.764 189.28,6.384 185.892,6.384 C183.204,6.384 181.664,7.868 180.74,9.464 C179.956,7.812 178.416,6.384 175.924,6.384 C173.376,6.384 172.088,7.784 171.164,9.268 L171.164,7.308 C171.164,6.888 170.856,6.608 170.464,6.608 C170.072,6.608 169.792,6.916 169.792,7.308 L169.792,20.412 Z M196.42,20.412 C196.42,20.832 196.728,21.112 197.12,21.112 C197.512,21.112 197.792,20.832 197.792,20.412 L197.792,12.74 C197.792,9.772 199.948,7.644 202.748,7.644 C205.632,7.644 207.284,9.576 207.284,12.516 L207.284,20.412 C207.284,20.832 207.592,21.112 207.984,21.112 C208.376,21.112 208.656,20.832 208.656,20.412 L208.656,12.264 C208.656,8.848 206.556,6.384 202.944,6.384 C200.34,6.384 198.744,7.7 197.792,9.38 L197.792,7.308 C197.792,6.888 197.484,6.608 197.092,6.608 C196.7,6.608 196.42,6.916 196.42,7.308 L196.42,20.412 Z M219.912,21.336 C224.08288,21.336 227.151221,18.0014912 227.272286,14.0995781 L227.276,13.804 C227.276,9.8 224.196,6.384 219.968,6.384 C215.79712,6.384 212.728779,9.7185088 212.607714,13.6204219 L212.604,13.916 C212.604,17.92 215.684,21.336 219.912,21.336 Z M219.968,20.048 C216.739091,20.048 214.205467,17.4273099 214.09197,14.0937095 L214.088,13.804 C214.088,10.444 216.524,7.672 219.912,7.672 C223.140909,7.672 225.674533,10.2926901 225.78803,13.6262905 L225.792,13.916 C225.792,17.276 223.356,20.048 219.968,20.048 Z M231.504,24.892 C231.504,25.312 231.812,25.592 232.204,25.592 C232.596,25.592 232.876,25.312 232.876,24.892 L232.876,17.92 C234.052,19.712 235.9,21.336 238.756,21.336 C242.129714,21.336 245.557166,18.6222507 245.695657,14.1422888 L245.7,13.804 C245.7,9.156 242.2,6.384 238.756,6.384 C235.928,6.384 234.108,8.036 232.876,9.912 L232.876,7.308 C232.876,6.888 232.568,6.608 232.176,6.608 C231.784,6.608 231.504,6.888 231.504,7.308 L231.504,24.892 Z M238.616,20.02 C235.715455,20.02 232.921876,17.6667273 232.796393,14.1362104 L232.792,13.832 C232.792,10.192 235.648,7.7 238.616,7.7 C241.543909,7.7 244.097434,9.99978926 244.211991,13.606277 L244.216,13.916 C244.216,17.752 241.724,20.02 238.616,20.02 Z M263.256,7.308 C263.256,6.916 262.948,6.608 262.556,6.608 C262.164,6.608 261.884,6.916 261.884,7.308 L261.884,9.8 C260.708,8.008 258.86,6.384 256.004,6.384 C252.630286,6.384 249.202834,9.09774927 249.064343,13.5777112 L249.06,13.916 C249.06,18.564 252.56,21.336 256.004,21.336 C258.832,21.336 260.652,19.684 261.884,17.808 L261.884,24.892 C261.884,25.312 262.192,25.592 262.584,25.592 C262.976,25.592 263.256,25.312 263.256,24.892 L263.256,7.308 Z M256.144,7.7 C259.044545,7.7 261.838124,10.0532727 261.963607,13.5837896 L261.968,13.888 C261.968,17.528 259.112,20.02 256.144,20.02 C253.216091,20.02 250.662566,17.7202107 250.548009,14.113723 L250.544,13.804 C250.544,9.968 253.036,7.7 256.144,7.7 Z M268.464,20.412 C268.464,20.832 268.772,21.112 269.164,21.112 C269.556,21.112 269.836,20.804 269.836,20.412 L269.836,15.148 C269.836,10.556 272.552,8.288 275.576,8.008 C276.024,7.98 276.304,7.644 276.304,7.252 C276.304,6.832 275.996,6.496 275.576,6.496 C273.56,6.496 271.068,8.008 269.836,10.78 L269.836,7.308 C269.836,6.888 269.528,6.608 269.136,6.608 C268.744,6.608 268.464,6.916 268.464,7.308 L268.464,20.412 Z M284.284,21.28 C286.9496,21.28 289.086743,19.7474743 289.206689,17.3241208 L289.212,17.052 C289.212,14.6847273 287.087034,13.799989 284.926128,13.167581 L284.087299,12.9260142 C282.206706,12.3741023 280.532,11.761931 280.532,10.276 L280.532,10.22 C280.532,8.792 281.82,7.728 283.78,7.728 C285.046462,7.728 286.312923,8.10972781 287.469271,8.74104688 L287.756,8.904 C287.84,8.96 287.98,9.016 288.148,9.016 C288.512,9.016 288.82,8.708 288.82,8.344 C288.82,8.036 288.624,7.84 288.456,7.728 C287.084,6.944 285.376,6.44 283.836,6.44 C281.145529,6.44 279.246374,7.9962526 279.136986,10.1871087 L279.132,10.444 C279.132,12.7671765 281.273467,13.554083 283.41288,14.1842134 L284.454418,14.4852245 C286.266857,15.0174286 287.812,15.66 287.812,17.22 L287.812,17.276 C287.812,18.928 286.3,19.992 284.368,19.992 C282.66,19.992 281.092,19.432 279.608,18.368 C279.496,18.284 279.328,18.228 279.16,18.228 C278.796,18.228 278.488,18.536 278.488,18.9 C278.488,19.124 278.628,19.348 278.74,19.432 C280.196,20.524 282.352,21.28 284.284,21.28 Z M298.06,21.252 C298.872,21.252 299.516,21.084 300.076,20.888 C300.356,20.776 300.524,20.58 300.524,20.3 C300.524,19.964 300.216,19.684 299.908,19.684 C299.712,19.684 299.264,19.964 298.284,19.964 C296.632,19.964 295.428,19.236 295.428,17.192 L295.428,7.98 L299.908,7.98 C300.244,7.98 300.552,7.7 300.552,7.364 C300.552,7.028 300.244,6.72 299.908,6.72 L295.428,6.72 L295.428,2.744 C295.428,2.352 295.12,2.044 294.728,2.044 C294.336,2.044 294.056,2.352 294.056,2.744 L294.056,6.72 L292.516,6.72 C292.18,6.72 291.872,7 291.872,7.336 C291.872,7.672 292.18,7.98 292.516,7.98 L294.056,7.98 L294.056,17.332 C294.056,20.048 295.848,21.252 298.06,21.252 Z M316.456,7.308 C316.456,6.888 316.148,6.608 315.756,6.608 C315.364,6.608 315.084,6.888 315.084,7.308 L315.084,14.98 C315.084,17.948 312.928,20.076 310.128,20.076 C307.244,20.076 305.592,18.144 305.592,15.204 L305.592,7.308 C305.592,6.888 305.284,6.608 304.892,6.608 C304.5,6.608 304.22,6.888 304.22,7.308 L304.22,15.456 C304.22,18.872 306.32,21.336 309.932,21.336 C312.536,21.336 314.132,20.02 315.084,18.34 L315.084,20.412 C315.084,20.832 315.392,21.112 315.784,21.112 C316.176,21.112 316.456,20.804 316.456,20.412 L316.456,7.308 Z M328.02,20.608 L333.788,7.672 C333.844,7.532 333.872,7.448 333.872,7.308 C333.872,6.916 333.564,6.608 333.172,6.608 C332.848444,6.608 332.65763,6.78498765 332.54056,7.02097119 L327.208,19.46 L322,7.168 C321.86,6.86 321.692,6.608 321.272,6.608 C320.852,6.608 320.544,6.916 320.544,7.308 C320.544,7.448 320.6,7.588 320.656,7.728 L326.396,20.608 C326.564,20.972 326.788,21.196 327.18,21.196 L327.236,21.196 C327.628,21.196 327.852,20.972 328.02,20.608 Z M342.104,21.196 L342.16,21.196 C342.524,21.196 342.776,20.972 342.916,20.552 L347.004,8.876 L351.064,20.552 C351.204,20.972 351.456,21.196 351.82,21.196 L351.876,21.196 C352.212,21.196 352.492,20.972 352.632,20.58 L357.308,7.728 C357.364,7.588 357.42,7.42 357.42,7.252 C357.42,6.916 357.112,6.608 356.72,6.608 C356.371556,6.608 356.177975,6.80711111 356.080263,7.04801097 L351.876,19.264 L347.732,7.14 C347.62,6.832 347.424,6.608 347.032,6.608 L346.976,6.608 C346.612,6.608 346.416,6.832 346.304,7.14 L342.16,19.264 L338.016,7.196 C337.904,6.86 337.68,6.608 337.288,6.608 C336.896,6.608 336.56,6.916 336.56,7.28 C336.56,7.42 336.616,7.588 336.672,7.728 L341.348,20.58 C341.488,20.972 341.768,21.196 342.104,21.196 Z M360.64,20.468 C360.64,20.804 360.92,21.112 361.256,21.112 C361.508,21.112 361.676,20.972 361.844,20.776 L366.716,14.644 L371.616,20.832 C371.756,21 371.924,21.112 372.176,21.112 C372.54,21.112 372.848,20.832 372.848,20.468 C372.848,20.272 372.764,20.132 372.652,19.992 L367.612,13.692 L372.456,7.7 C372.568,7.56 372.624,7.42 372.624,7.252 C372.624,6.916 372.344,6.608 372.008,6.608 C371.756,6.608 371.588,6.748 371.42,6.944 L366.772,12.768 L362.096,6.888 C361.956,6.72 361.788,6.608 361.536,6.608 C361.172,6.608 360.864,6.888 360.864,7.252 C360.864,7.448 360.948,7.588 361.06,7.728 L365.876,13.72 L360.808,20.02 C360.696,20.16 360.64,20.3 360.64,20.468 Z M378.784,25.564 C380.828,25.564 382.284,24.5 383.544,21.504 L389.34,7.672 C389.396,7.532 389.424,7.448 389.424,7.308 C389.424,6.916 389.116,6.608 388.724,6.608 C388.36,6.608 388.164,6.832 388.052,7.112 L383.068,19.488 L377.356,7.168 C377.216,6.86 377.048,6.608 376.628,6.608 C376.208,6.608 375.9,6.916 375.9,7.308 C375.9,7.448 375.956,7.588 376.012,7.728 L382.396,20.916 L382.312,21.112 C381.388,23.24 380.436,24.276 378.868,24.276 C378.0868,24.276 377.60044,24.18528 377.184388,24.044664 L377.048,23.996 C376.88,23.94 376.74,23.884 376.6,23.884 C376.236,23.884 375.956,24.164 375.956,24.528 C375.956,24.836 376.124,25.032 376.348,25.116 C377.104,25.396 377.832,25.564 378.784,25.564 Z M393.12,21 C392.784,21 392.476,20.72 392.476,20.44 L392.476,20.412 C392.476,20.188 392.56,20.02 392.728,19.824 L402.696,7.952 L393.288,7.952 C392.952,7.952 392.672,7.672 392.672,7.336 C392.672,7 392.952,6.72 393.288,6.72 L404.012,6.72 C404.348,6.72 404.656,7 404.656,7.28 L404.656,7.308 C404.656,7.532 404.572,7.7 404.404,7.896 L394.436,19.768 L404.236,19.768 C404.572,19.768 404.852,20.048 404.852,20.384 C404.852,20.72 404.572,21 404.236,21 L393.12,21 Z" id="light-alpha"></path>
                    </g>
                </g>
            </g>
        </g>
    </g>
</svg>