<?xml version="1.0" encoding="UTF-8"?>
<svg width="282px" height="21px" viewBox="0 0 282 21" version="1.1" xmlns="http://www.w3.org/2000/svg" xmlns:xlink="http://www.w3.org/1999/xlink">
    <!-- Generator: Sketch 58 (84663) - https://sketch.com -->
    <title>light-numbers</title>
    <desc>Created with Sketch.</desc>
    <g id="inspect" stroke="none" stroke-width="1" fill="none" fill-rule="evenodd">
        <g id="Case-Study---Bluvalt---inspect" transform="translate(-959.000000, -5288.000000)" fill="#484848" fill-rule="nonzero">
            <g id="Type" transform="translate(167.000000, 4642.000000)">
                <g id="Group-22" transform="translate(3.000000, 531.000000)">
                    <g id="Group-18" transform="translate(788.000000, 54.000000)">
                        <path d="M9.912,81.336 C14.8085614,81.336 17.9484223,76.7685786 18.0570857,71.4837786 L18.06,71.144 C18.06,65.74 14.952,61.064 9.968,61.064 C5.0714386,61.064 1.93157772,65.6314214 1.82291426,70.9162214 L1.82,71.256 C1.82,76.66 4.928,81.336 9.912,81.336 Z M9.968,80.02 C5.98607692,80.02 3.43162574,75.8991849 3.33485022,71.461384 L3.332,71.144 C3.332,66.58 5.852,62.38 9.912,62.38 C13.8939231,62.38 16.4483743,66.4738817 16.5451498,70.9370621 L16.548,71.256 C16.548,75.792 14.028,80.02 9.968,80.02 Z M24.752,80.384 C24.752,80.776 25.088,81.112 25.48,81.112 C25.872,81.112 26.18,80.776 26.18,80.384 L26.18,61.904 C26.18,61.54 25.928,61.204 25.48,61.204 L25.424,61.204 C25.116,61.204 24.836,61.288 24.528,61.4 L21.112,62.66 C20.804,62.772 20.58,62.94 20.58,63.276 C20.58,63.612 20.86,63.892 21.196,63.892 C21.28,63.892 21.364,63.87625 21.4598125,63.84475 L24.752,62.716 L24.752,80.384 Z M30.352,80.328 C30.352,80.72 30.66,81 31.052,81 L43.26,81 C43.652,81 43.96,80.692 43.96,80.3 C43.96,79.908 43.652,79.6 43.26,79.6 L32.76,79.6 L38.752,74.168 L39.3563939,73.6121294 C42.2700161,70.9018398 43.5673097,69.1900976 43.6479742,66.7939576 L43.652,66.496 C43.652,63.444 41.16,61.12 37.828,61.12 C34.524,61.12 32.732,62.576 31.08,64.984 C30.996,65.096 30.968,65.236 30.968,65.348 C30.968,65.712 31.276,65.992 31.64,65.992 C31.892,65.992 32.06,65.88 32.2,65.684 C33.712,63.584 35.308,62.408 37.688,62.408 C40.04,62.408 42.112,64.06 42.112,66.608 C42.112,68.68 41.02,70.36 37.772,73.3 L30.688,79.712 C30.464,79.908 30.352,80.076 30.352,80.328 Z M54.348,81.336 C57.659,81.336 60.5956157,79.1431777 60.727388,75.8551597 L60.732,75.568 C60.732,71.984 57.512,70.248 53.788,70.024 L60.284,62.604 C60.424,62.436 60.536,62.212 60.536,62.016 C60.536,61.652 60.256,61.4 59.892,61.4 L48.748,61.4 C48.356,61.4 48.048,61.708 48.048,62.1 C48.048,62.492 48.356,62.772 48.748,62.772 L58.436,62.772 L51.996,70.192 C51.828,70.388 51.744,70.556 51.744,70.724 C51.744,71.088 52.052,71.368 52.416,71.368 L53.116,71.368 C56.5558,71.368 59.090605,72.805345 59.2151954,75.4205144 L59.22,75.68 C59.22,78.256 57.008,80.02 54.376,80.02 C51.912,80.02 50.036,78.984 48.496,77.136 C48.384,76.996 48.16,76.856 47.908,76.856 C47.516,76.856 47.18,77.192 47.18,77.584 C47.18,77.78 47.292,77.976 47.376,78.088 C48.944,79.992 51.296,81.336 54.348,81.336 Z M75.18,80.412 C75.18,80.804 75.488,81.112 75.88,81.112 C76.272,81.112 76.58,80.804 76.58,80.412 L76.58,76.212 L79.24,76.212 C79.576,76.212 79.884,75.932 79.884,75.596 C79.884,75.26 79.576,74.952 79.24,74.952 L76.58,74.952 L76.58,61.96 C76.58,61.484 76.244,61.148 75.768,61.148 C75.474,61.148 75.2871875,61.2551875 75.1325312,61.4320469 L64.26,74.868 C64.092,75.092 64.036,75.288 64.036,75.456 C64.036,75.904 64.344,76.212 64.792,76.212 L75.18,76.212 L75.18,80.412 Z M65.828,74.952 L75.18,63.36 L75.18,74.952 L65.828,74.952 Z M89.768,81.336 C93.6301739,81.336 96.4741059,78.7635992 96.5959299,75.2702371 L96.6,74.98 C96.6,71.48 93.66,69.072 89.88,69.072 C88.06,69.072 86.8,69.52 85.54,70.136 L86.016,62.8 L95.144,62.8 C95.536,62.8 95.844,62.492 95.844,62.1 C95.844,61.708 95.536,61.4 95.144,61.4 L85.428,61.4 C85.036,61.4 84.7,61.652 84.672,62.184 L84.196,70.248 C84.168,70.668 84.28,71.032 84.56,71.228 C84.784,71.368 85.036,71.48 85.372,71.48 C85.848,71.48 87.164,70.388 89.712,70.388 C92.7927368,70.388 94.9709197,72.1665623 95.0834274,74.8190373 L95.088,75.092 C95.088,77.92 92.932,80.02 89.824,80.02 C87.864,80.02 85.96,79.04 84.308,77.472 C84.168,77.332 83.916,77.22 83.692,77.22 C83.3,77.22 82.992,77.556 82.992,77.892 C82.992,78.144 83.076,78.312 83.3,78.536 C84.896,80.076 87.276,81.336 89.768,81.336 Z M107.52,81.336 C111.301787,81.336 114.252118,78.7075238 114.375952,75.1306047 L114.38,74.84 C114.38,71.34 111.188,68.904 107.632,68.904 C104.44,68.904 102.62,70.64 101.5,72.544 C101.36,66.552 103.936,62.38 107.912,62.38 C109.62,62.38 110.992,62.996 112.392,64.144 C112.532,64.256 112.672,64.312 112.84,64.312 C113.232,64.312 113.568,63.976 113.568,63.584 C113.568,63.332 113.456,63.164 113.26,62.996 C111.692,61.764 110.096,61.064 108.024,61.064 C103.237474,61.064 100.153596,65.6043952 100.046863,71.3661833 L100.044,71.732 C100.044,75.792 100.912,77.752 102.536,79.376 C103.712,80.552 105.504,81.336 107.52,81.336 Z M107.632,80.02 C104.5471,80.02 102.20749,77.99707 102.092438,75.3007173 L102.088,75.036 C102.088,72.628 104.328,70.192 107.548,70.192 C110.574211,70.192 112.750958,72.1032909 112.863428,74.6852101 L112.868,74.952 C112.868,77.724 110.796,80.02 107.632,80.02 Z M120.26,80.44 C120.26,80.832 120.596,81.112 120.988,81.112 C121.324,81.112 121.576,80.86 121.688,80.608 L130.368,62.604 C130.452,62.436 130.536,62.212 130.536,62.044 C130.536,61.652 130.228,61.4 129.836,61.4 L118.02,61.4 C117.628,61.4 117.32,61.708 117.32,62.1 C117.32,62.492 117.628,62.8 118.02,62.8 L128.8,62.8 L120.372,80.02 C120.316,80.132 120.26,80.328 120.26,80.44 Z M140.504,81.28 C144.530522,81.28 147.645985,79.1095369 147.779537,75.9744234 L147.784,75.708 C147.784,73.412 145.908,71.676 143.444,70.864 C145.309379,70.1070345 146.992043,68.7236147 147.105871,66.5373255 L147.112,66.244 C147.112,63.192 143.892,61.12 140.504,61.12 C137.193,61.12 134.04245,63.0988884 133.900954,66.0374405 L133.896,66.3 C133.896,68.624 135.632,70.08 137.564,70.864 C135.182133,71.6489333 133.34972,73.2972933 133.230206,75.4802801 L133.224,75.764 C133.224,79.012 136.388,81.28 140.504,81.28 Z M140.504,70.332 C137.8112,70.332 135.541166,68.7994743 135.413648,66.5044604 L135.408,66.244 C135.408,64.032 137.648,62.436 140.504,62.436 C143.2784,62.436 145.471497,63.9421029 145.594552,66.0559314 L145.6,66.3 C145.6,68.708 143.276,70.332 140.504,70.332 Z M140.504,79.964 C136.987053,79.964 134.850482,78.1323463 134.740466,75.9940198 L134.736,75.764 C134.736,73.328 137.312,71.564 140.504,71.564 C143.612,71.564 146.135994,73.2363795 146.266684,75.5731002 L146.272,75.82 C146.272,78.032 144.116,79.964 140.504,79.964 Z M157.388,81.336 C161.87193,81.336 165.247787,77.0658664 165.364858,71.0745931 L165.368,70.696 C165.368,66.776 164.416,64.564 162.904,63.052 C161.728,61.876 160.02,61.064 157.92,61.064 C153.918979,61.064 151.151732,63.9070457 151.035788,67.4143438 L151.032,67.7 C151.032,71.06 153.86,73.692 157.808,73.692 C160.888,73.692 162.792,71.928 163.912,69.912 C164.136,75.792 161.364,80.02 157.416,80.02 C155.736,80.02 154.252,79.348 152.74,78.06 C152.572,77.92 152.376,77.864 152.208,77.864 C151.816,77.864 151.508,78.2 151.508,78.592 C151.508,78.844 151.62,79.012 151.816,79.18 C153.3,80.384 155.092,81.336 157.388,81.336 Z M157.864,72.404 C154.837789,72.404 152.661042,70.4927091 152.548572,67.8590956 L152.544,67.588 C152.544,64.872 154.532,62.38 157.752,62.38 C160.9188,62.38 163.207223,64.4827825 163.319664,67.1571758 L163.324,67.42 C163.324,69.884 161.196,72.404 157.864,72.404 Z M169.736,73.412 L179.368,73.412 C179.76,73.412 180.096,73.076 180.096,72.684 C180.096,72.292 179.76,71.956 179.368,71.956 L169.736,71.956 C169.344,71.956 169.008,72.292 169.008,72.684 C169.008,73.076 169.344,73.412 169.736,73.412 Z M183.792,80.636 C183.792,80.832 183.96,81 184.156,81 L197.652,81 C198.016,81 198.324,80.72 198.324,80.356 C198.324,79.992 198.016,79.684 197.652,79.684 L187.74,79.684 L187.74,72.46 L195.524,72.46 C195.888,72.46 196.196,72.152 196.196,71.788 C196.196,71.424 195.888,71.116 195.524,71.116 L187.74,71.116 L187.74,67.784 C187.74,65.992 188.216,64.564 189.14,63.64 C189.924,62.856 190.96,62.436 192.304,62.436 C194.516,62.436 195.748,63.388 196.868,64.676 C197.008,64.816 197.176,64.928 197.428,64.928 C197.82,64.928 198.128,64.648 198.128,64.256 C198.128,64.06 198.044,63.864 197.932,63.724 C196.7,62.268 195.076,61.12 192.332,61.12 C190.624,61.12 189.168,61.708 188.132,62.744 C186.956,63.92 186.312,65.712 186.312,67.812 L186.312,71.116 L184.464,71.116 C184.1,71.116 183.792,71.424 183.792,71.788 C183.792,72.152 184.1,72.46 184.464,72.46 L186.312,72.46 L186.312,79.74 L184.128,80.244 C183.904,80.3 183.792,80.44 183.792,80.636 Z M203.952,80.3 C203.896,80.692 204.092,81.112 204.568,81.112 C204.932,81.112 205.212,80.86 205.268,80.496 L206.08,75.764 L211.876,75.764 L211.092,80.3 C211.036,80.692 211.232,81.112 211.708,81.112 C212.072,81.112 212.352,80.86 212.408,80.496 L213.22,75.764 L216.496,75.764 C216.86,75.764 217.168,75.456 217.168,75.092 C217.168,74.728 216.86,74.448 216.496,74.448 L213.444,74.448 L214.592,67.84 L217.616,67.84 C217.98,67.84 218.288,67.532 218.288,67.168 C218.288,66.804 217.98,66.524 217.616,66.524 L214.816,66.524 L215.572,62.1 C215.628,61.708 215.432,61.288 214.956,61.288 C214.592,61.288 214.312,61.54 214.256,61.904 L213.472,66.524 L207.676,66.524 L208.432,62.1 C208.488,61.708 208.292,61.288 207.816,61.288 C207.452,61.288 207.172,61.54 207.116,61.904 L206.332,66.524 L203.028,66.524 C202.664,66.524 202.356,66.832 202.356,67.196 C202.356,67.56 202.664,67.84 203.028,67.84 L206.108,67.84 L204.96,74.448 L201.908,74.448 C201.544,74.448 201.236,74.756 201.236,75.12 C201.236,75.484 201.544,75.764 201.908,75.764 L204.736,75.764 L203.952,80.3 Z M206.304,74.448 L207.452,67.84 L213.248,67.84 L212.1,74.448 L206.304,74.448 Z M237.188,81.252 C237.608,81.252 237.916,80.944 237.916,80.524 C237.916,80.26 237.833714,80.1194286 237.669143,79.9435918 L234.528,76.716 C235.508,75.4 236.376,73.832 237.188,72.068 C237.244,71.956 237.272,71.788 237.272,71.704 C237.272,71.312 236.964,71.004 236.572,71.004 C236.223556,71.004 236.029975,71.2252346 235.951929,71.3727243 L235.928,71.424 C235.228,73.048 234.444,74.504 233.576,75.736 L228.424,70.444 C231.323355,69.4414194 233.121357,67.914385 233.23434,65.6091291 L233.24,65.32 C233.24,62.968 231.28,61.064 228.732,61.064 C225.955333,61.064 223.946182,62.8901574 223.836705,65.3073899 L223.832,65.572 C223.832,67.196 224.532,68.4 226.016,70.052 C222.92375,71.19125 221.066535,73.0399883 220.953479,75.5473025 L220.948,75.848 C220.948,79.04 223.524,81.28 226.968,81.28 C229.6,81.28 231.756,80.048 233.604,77.892 L236.516,80.916 C236.712,81.112 236.88,81.252 237.188,81.252 Z M227.556,69.548 L227.146694,69.1039861 C225.799194,67.6105069 225.330632,66.7279965 225.290819,65.6686267 L225.288,65.46 C225.288,63.696 226.688,62.296 228.676,62.296 C230.379172,62.296 231.690811,63.5489084 231.779244,65.1978512 L231.784,65.432 C231.784,67.28 230.356,68.652 227.556,69.548 Z M226.996,80.02 C224.387059,80.02 222.516678,78.2791073 222.408913,76.0005859 L222.404,75.736 C222.404,73.832 223.776,72.012 226.884,70.948 L232.68,76.94 C231.056,78.844 229.18,80.02 226.996,80.02 Z M244.524,69.128 C244.496,69.464 244.748,69.744 245.084,69.744 C245.42,69.744 245.672,69.464 245.644,69.128 L245.42,66.076 L247.968,67.812 C248.136,67.924 248.248,67.98 248.416,67.98 C248.724,67.98 248.976,67.7 248.976,67.392 C248.976,67.1225 248.825938,66.981625 248.657117,66.8943437 L245.7,65.488 L248.584,64.116 C248.78,64.032 248.976,63.892 248.976,63.584 C248.976,63.276 248.724,62.996 248.416,62.996 C248.248,62.996 248.136,63.052 247.968,63.164 L245.42,64.9 L245.644,61.848 C245.672,61.512 245.42,61.232 245.084,61.232 C244.748,61.232 244.496,61.512 244.524,61.848 L244.748,64.9 L242.2,63.164 C242.032,63.052 241.948,62.996 241.752,62.996 C241.444,63.024 241.192,63.276 241.192,63.584 C241.192,63.836 241.36,64.004 241.584,64.116 L244.468,65.488 L241.584,66.86 C241.388,66.944 241.192,67.14 241.192,67.392 C241.192,67.7 241.444,67.98 241.752,67.98 C241.92,67.98 242.032,67.924 242.2,67.812 L244.748,66.076 L244.524,69.128 Z M257.992,75.988 C258.216,75.988 258.412,75.82 258.44,75.484 L258.664,72.376 C261.8308,71.9938 264.46525,70.22749 264.594993,66.9213576 L264.6,66.608 C264.6,63.612 262.22,61.148 258.524,61.148 C255.696,61.148 253.792,62.408 252.308,64.172 C252.196,64.312 252.14,64.48 252.14,64.648 C252.14,65.012 252.42,65.264 252.784,65.264 C252.970667,65.264 253.137889,65.1862222 253.269463,65.0630741 L253.344,64.984 C254.716,63.416 256.34,62.436 258.468,62.436 C261.2424,62.436 263.012731,64.2591771 263.111628,66.468128 L263.116,66.72 C263.116,69.436 260.96,70.976 257.824,71.172 C257.404,71.2 257.152,71.508 257.18,71.872 L257.488,75.484 C257.516,75.82 257.712,75.988 257.936,75.988 L257.992,75.988 Z M257.04,79.432 L257.04,80.188 C257.04,80.72 257.432,81.112 257.964,81.112 C258.496,81.112 258.888,80.72 258.888,80.188 L258.888,79.432 C258.888,78.9 258.496,78.508 257.964,78.508 C257.432,78.508 257.04,78.9 257.04,79.432 Z M269.164,75.54 C269.164,75.764 269.36,75.96 269.584,75.96 C269.808,75.96 270.004,75.764 270.004,75.54 L270.452,62.016 C270.452,61.624 270.144,61.316 269.752,61.316 L269.416,61.316 C269.024,61.316 268.716,61.624 268.716,62.016 L269.164,75.54 Z M268.66,79.432 L268.66,80.188 C268.66,80.72 269.052,81.112 269.584,81.112 C270.116,81.112 270.508,80.72 270.508,80.188 L270.508,79.432 C270.508,78.9 270.116,78.508 269.584,78.508 C269.052,78.508 268.66,78.9 268.66,79.432 Z M274.764,66.3 C274.764,66.58 274.988,66.72 275.184,66.72 C275.436,66.72 276.136,66.328 276.64,65.824 C277.144,65.32 277.396,64.48 277.396,62.912 L277.396,62.212 C277.396,61.708 276.976,61.288 276.472,61.288 C275.968,61.288 275.548,61.708 275.548,62.212 L275.548,62.8 C275.548,63.36 275.884,63.668 276.304,63.78 C276.388,64.76 275.996,65.376 274.988,65.936 C274.848,66.02 274.764,66.16 274.764,66.3 Z M279.804,66.3 C279.804,66.16 279.888,66.02 280.028,65.936 C281.036,65.376 281.428,64.76 281.344,63.78 C280.924,63.668 280.588,63.36 280.588,62.8 L280.588,62.212 C280.588,61.708 281.008,61.288 281.512,61.288 C282.016,61.288 282.436,61.708 282.436,62.212 L282.436,62.912 C282.436,64.48 282.184,65.32 281.68,65.824 C281.176,66.328 280.476,66.72 280.224,66.72 C280.028,66.72 279.804,66.58 279.804,66.3 Z" id="light-numbers"></path>
                    </g>
                </g>
            </g>
        </g>
    </g>
</svg>