<?xml version="1.0" encoding="UTF-8"?>
<svg width="89px" height="105px" viewBox="0 0 89 105" version="1.1" xmlns="http://www.w3.org/2000/svg" xmlns:xlink="http://www.w3.org/1999/xlink">
    <!-- Generator: Sketch 59.1 (86144) - https://sketch.com -->
    <title>Public IPS</title>
    <desc>Created with Sketch.</desc>
    <g id="inspect" stroke="none" stroke-width="1" fill="none" fill-rule="evenodd">
        <g id="Case-Study---Bluvalt---Inspect" transform="translate(-963.000000, -8501.000000)" fill="#131A32" fill-rule="nonzero">
            <g id="Group-30" transform="translate(169.000000, 8099.000000)">
                <g id="Group-28">
                    <g id="Group-25" transform="translate(0.000000, 401.000000)">
                        <path d="M826.366407,18.43266 C830.575865,6.43509755 842.829578,-0.772610167 855.360998,1.37786752 C867.892418,3.5283452 877.042042,14.4090126 877.01073,27.1235736 C877.00815,30.6526858 876.589143,34.1691661 875.762399,37.6000748 C885.86387,53.7593267 884.483646,74.5711012 872.336686,89.2548506 C860.189726,103.9386 840.005423,109.194921 822.239294,102.301026 C804.473164,95.4071311 793.117216,77.9120631 794.053856,58.8783078 C794.990495,39.8445524 808.009263,23.5489498 826.366407,18.43266 Z M819.982535,84.1201651 C823.680124,94.1858232 829.763764,101.170157 836.716495,102.086654 L836.716495,102.086654 L836.716495,86.3798026 C831.069413,86.2825653 825.453158,85.5241853 819.982535,84.1201651 Z M856.610786,84.1201651 C851.140163,85.5241853 845.523908,86.2825653 839.876827,86.3798026 L839.876827,86.3798026 L839.876827,102.070852 C846.829558,101.154356 852.913197,94.2806331 856.610786,84.1201651 Z M877.800813,72.5059442 C872.958745,77.4929142 866.903655,81.1357698 860.229366,83.0772554 C858.293937,89.7295557 854.668193,95.7670172 849.70546,100.601298 C863.261842,96.6618966 873.861412,86.0623265 877.800813,72.5059442 Z M798.792508,72.5059442 C802.731909,86.0623265 813.331479,96.6618966 826.887861,100.601298 C821.900891,95.7592294 818.258036,89.704139 816.31655,83.0298504 C809.66425,81.0944207 803.626788,77.4686774 798.792508,72.5059442 Z M836.716495,62.677311 L816.174335,62.677311 C816.274005,68.7405489 817.166471,74.7646935 818.829014,80.5963946 C824.651935,82.245527 830.665251,83.1273384 836.716495,83.2194704 L836.716495,83.2194704 L836.716495,62.677311 Z M840.240265,62.677311 L839.876827,62.677311 L839.876827,83.2194704 C845.949968,83.1276974 851.984902,82.2405196 857.827514,80.580593 C859.362612,75.1813128 860.232872,69.61483 860.418986,64.0046505 C857.785283,66.6984205 854.907611,69.1423256 851.822883,71.3050179 C851.288287,71.6663648 850.587692,71.6663648 850.053096,71.3050179 C846.491604,68.7774485 843.202933,65.8859602 840.240265,62.677311 L840.240265,62.677311 Z M813.014003,62.677311 L797.322953,62.677311 C798.23945,69.6300419 805.113172,75.7136814 815.27364,79.4112701 C813.86962,73.9406473 813.11124,68.3243926 813.014003,62.677311 L813.014003,62.677311 Z M879.286169,62.677311 L863.579318,62.677311 C863.482081,68.3243926 862.723701,73.9406473 861.319681,79.4112701 C871.385339,75.7136814 878.369673,69.6300419 879.286169,62.677311 L879.286169,62.677311 Z M855.741077,4.71292538 C845.208595,2.42987305 834.509761,7.80077967 830.048194,17.6109736 L830.048194,17.6109736 L830.1114,17.6267752 C829.858574,18.195635 829.621549,18.7802965 829.368722,19.364958 L829.368722,19.364958 L829.210706,19.7916028 C829.068491,20.2340493 828.942077,20.6764958 828.815664,21.1189423 C828.510473,22.2539581 828.293866,23.4109562 828.167796,24.5795061 C828.073432,25.4242505 828.025581,26.2735751 828.025581,27.1235736 C828.031529,30.2357053 828.392025,33.3370277 829.100094,36.3675453 C829.342386,37.3577827 829.616281,38.3796235 829.92178,39.4330675 C831.477577,44.3331403 833.768609,48.968484 836.716495,53.1805127 C837.743603,54.6658688 838.818115,56.0722166 839.876827,57.3679529 C840.498359,58.1158981 841.114624,58.8322401 841.725621,59.5169788 C842.752729,60.6705 843.779837,61.7292113 844.743738,62.677311 C846.690191,64.5952792 848.759307,66.3846423 850.93799,68.0340741 C853.105802,66.3778514 855.164308,64.5832563 857.100637,62.6615093 C858.064539,61.7134097 859.075845,60.6546984 860.118755,59.5011771 L860.118755,59.5011771 L860.371581,59.2167472 C861.367086,58.0948293 862.36259,56.893903 863.358095,55.5981668 C865.556072,52.7485716 867.476798,49.6955171 869.094098,46.4806084 C869.547079,45.5851809 869.973724,44.6634173 870.374033,43.7153177 C871.128677,41.8783706 871.762101,39.9939333 872.270232,38.0741247 C872.449317,37.389386 872.617869,36.7099146 872.775885,36.0357104 C872.933902,35.3615062 873.070849,34.6767675 873.186728,33.9814945 C873.58249,31.7062473 873.783373,29.4013776 873.787191,27.0919702 C873.788183,16.3148885 866.273558,6.9959777 855.741077,4.71292538 Z M871.796182,48.3136011 C869.757624,52.3127333 867.277067,56.0706702 864.401005,59.5169788 L864.401005,59.5169788 L879.254566,59.5169788 C878.71731,55.3611419 876.031027,51.4739333 871.796182,48.3136011 Z M826.729845,39.875514 C824.051378,40.2924192 821.401949,40.8782492 818.797411,41.6294984 C817.148279,47.4524187 816.266467,53.4657351 816.174335,59.5169788 L816.174335,59.5169788 L836.716495,59.5169788 L836.716495,58.6004824 C832.207077,53.0640053 828.815444,46.7046942 826.729845,39.875514 Z M815.289442,42.7830197 C805.223784,46.4806084 798.23945,52.5642479 797.322953,59.5169788 L797.322953,59.5169788 L813.014003,59.5169788 C813.116406,53.8692737 813.880091,48.2530094 815.289442,42.7830197 Z M874.498266,41.8033167 C874.066782,43.0642999 873.587112,44.3082774 873.060315,45.5325087 C874.736889,46.7557918 876.278351,48.1542314 877.658598,49.7041472 C876.883206,46.9676544 875.824012,44.3196681 874.498266,41.8033167 Z M825.305,22.131 L824.8626,22.2818572 C812.25901,26.654668 802.536796,36.8616445 798.792508,49.6883456 C803.61584,44.6910837 809.654274,41.0320863 816.31655,39.0696293 C818.092012,33.2325476 821.098738,27.8441498 825.133877,23.2679682 C825.181282,22.8729267 825.307695,22.4778852 825.307695,22.0986453 L825.305,22.131 Z M844.712135,15.0669062 C849.536305,12.3552745 855.45095,12.4701806 860.16616,15.3671377 C864.218848,17.8305227 866.765002,22.163139 866.945072,26.9023503 L866.945072,26.9023503 L866.945072,27.4712101 C866.912413,28.1014058 866.843828,28.729225 866.739651,29.3516078 C866.652516,29.9323886 866.531158,30.5075168 866.376212,31.0739888 C865.798306,33.2016791 864.578952,35.0996778 862.884045,36.5097602 C861.999969,37.2116375 860.958944,37.688774 859.850126,37.9003064 C859.089139,38.0574365 858.304072,38.0574365 857.543084,37.9003064 C857.360834,37.8526457 857.181457,37.7946117 857.005827,37.7264881 C856.813048,37.6731879 856.623171,37.6098957 856.436968,37.5368682 C855.677434,37.2054666 855.033811,36.6553616 854.588173,35.9567021 C854.509165,35.8302888 854.414355,35.7196772 854.414355,35.5932639 C853.790099,36.2076906 853.089013,36.7388164 852.328536,37.17343 C851.824905,37.4544746 851.295828,37.6872683 850.74837,37.8687031 C850.005861,38.0965716 849.233811,38.2137103 848.457129,38.2163396 C847.107334,38.2285113 845.787288,37.8197941 844.680532,37.0470167 C844.26748,36.755971 843.890819,36.4164453 843.558614,36.0357104 C842.502274,34.8033227 841.895083,33.2491349 841.836233,31.627047 C841.754457,29.3663541 842.427113,27.142699 843.748234,25.3063825 C844.426233,24.3390922 845.259091,23.4902178 846.213293,22.7939184 C847.012301,22.2122232 847.897348,21.7590363 848.836369,21.4507772 L848.836369,21.4507772 L849.278815,21.2927606 C851.259275,20.689259 853.406141,21.0083878 855.12543,22.161852 C855.658654,22.549981 856.127847,23.0191738 856.515976,23.5523981 L856.515976,23.5523981 L856.816207,22.7149101 L856.816207,22.5884968 C857.013415,22.068432 857.46952,21.6903451 858.017134,21.5929922 C858.286237,21.5205334 858.569717,21.5205334 858.83882,21.5929922 C859.25091,21.7191122 859.59361,22.0080721 859.787532,22.3929336 C859.981455,22.7777951 860.009773,23.2251641 859.865928,23.6314065 L859.865928,23.6314065 L859.660506,24.1844646 L859.12325,25.7646307 C858.680803,27.0761686 858.111944,28.735343 857.764307,29.9836742 C857.679318,30.3958071 857.568488,30.8021856 857.432472,31.2004021 C857.369266,31.4216254 857.274456,31.6586503 857.274456,31.8956752 C857.007621,32.7173091 857.007621,33.6023071 857.274456,34.423941 C857.492216,34.7198263 857.825344,34.9093643 858.190952,34.9453958 C858.338128,34.9588311 858.486222,34.9588311 858.633398,34.9453958 C859.462123,34.9431941 860.263056,34.6463449 860.893036,34.1079077 C862.418907,32.7400411 863.395986,30.8644979 863.642525,28.8301529 C863.750015,28.2086122 863.81338,27.5802431 863.832145,26.9497553 L863.832145,26.9497553 L863.832145,26.8391437 C863.836063,26.1672271 863.75105,25.4977463 863.579318,24.8481344 C862.805623,22.0425392 861.021418,19.6223239 858.570192,18.0534201 C854.971093,15.876689 850.497753,15.7329672 846.766351,17.6741802 L846.766351,17.6741802 L846.229095,17.9112051 C845.849855,18.0850234 845.502218,18.3062467 845.154582,18.5116683 L845.154582,18.5116683 L844.506713,18.8751065 C843.861191,19.2868732 843.24358,19.740843 842.657919,20.2340493 L842.657919,20.2340493 L842.199671,20.6606942 C841.330608,21.4404687 840.551484,22.3149959 839.876827,23.2679682 C838.494075,25.2245685 837.619798,27.4944292 837.332759,29.8730626 C837.076146,31.8745484 837.287091,33.908276 837.949024,35.8144871 C838.364379,36.9631774 838.973675,38.032118 839.750413,38.9748194 L839.750413,38.9748194 L839.876827,39.1170343 C840.223859,39.5271696 840.604411,39.9077219 841.014546,40.2547539 C847.066583,45.3428888 855.820703,42.0561433 855.915513,42.0561433 C856.138454,41.9781784 856.376036,41.9511805 856.610786,41.977135 C857.329966,42.0552018 857.904293,42.611671 858.005031,43.3280272 C858.105768,44.0443834 857.707188,44.7376678 857.037431,45.0110539 C854.629483,45.8518887 852.097968,46.2844894 849.547443,46.2909884 C846.096472,46.3593921 842.712026,45.3363161 839.876827,43.3676811 C839.576595,43.1464579 839.276364,42.9410363 838.976132,42.6882097 C838.118941,41.9623118 837.359407,41.1284177 836.716495,40.2073489 C836.44208,39.810188 836.188899,39.3987683 835.958015,38.9748194 C835.414145,38.0004227 834.984653,36.9664617 834.67808,35.8934955 C834.094112,33.8134925 833.927629,31.6384716 834.188229,29.4938227 C834.498827,26.9519336 835.361755,24.508768 836.716495,22.3356702 C837.163065,21.5293928 837.670174,20.7581645 838.233454,20.0286277 C838.687981,19.475025 839.173335,18.9474672 839.687207,18.4484616 C840.240265,18.0060151 840.730116,17.5793703 841.267373,17.1843287 L841.267373,17.1843287 L841.551803,16.9789071 C842.548072,16.2515302 843.605467,15.6118062 844.712135,15.0669062 Z M824.837,28.521 L824.486335,29.0346536 C822.595631,31.8484801 821.056351,34.8841786 819.903527,38.0741247 C821.820795,37.5684715 823.806537,37.1470939 825.860753,36.8099918 C825.255786,34.0515349 824.911899,31.242242 824.833645,28.4193098 L824.837,28.521 Z M851.285626,24.0422496 C850.365145,24.0626191 849.466119,24.3241538 848.678352,24.8007294 C847.732031,25.3564443 846.917871,26.1112947 846.292301,27.0129619 C845.371102,28.2764254 844.898371,29.8114128 844.94916,31.3742204 L844.94916,31.3742204 L845.012367,31.3584187 C844.974658,32.5477598 845.539749,33.6757985 846.514885,34.3577557 C847.49002,35.0397129 848.743469,35.1834638 849.847675,34.7399742 C851.331335,34.2534283 852.610298,33.2858649 853.482057,31.9904852 C853.576867,31.8482702 853.640074,31.7060553 853.734884,31.5638403 C854.000189,31.1337488 854.222486,30.6785704 854.398553,30.2048975 C854.557402,29.7802529 854.673848,29.3409339 854.74619,28.8933596 C854.789446,28.4783734 854.789446,28.0600146 854.74619,27.6450284 L854.74619,27.6450284 L854.74619,27.5186151 C854.713844,26.3877402 854.174122,25.3315105 853.276635,24.6427128 C852.960781,24.4224819 852.607338,24.2618263 852.233726,24.1686629 C851.924498,24.0856548 851.605799,24.0431616 851.285626,24.0422496 Z M824.833645,28.4193098 L824.837,28.521 L824.896852,28.4351114 L824.896852,28.4351114 L824.833645,28.4193098 Z M825.307695,22.0986453 L825.305,22.131 L825.3551,22.114447 L825.3551,22.114447 L825.307695,22.0986453 Z" id="Public-IPS"></path>
                    </g>
                </g>
            </g>
        </g>
    </g>
</svg>