<?xml version="1.0" encoding="UTF-8"?>
<svg width="255px" height="233px" viewBox="0 0 255 233" version="1.1" xmlns="http://www.w3.org/2000/svg" xmlns:xlink="http://www.w3.org/1999/xlink">
    <!-- Generator: Sketch 59.1 (86144) - https://sketch.com -->
    <title>Shop</title>
    <desc>Created with Sketch.</desc>
    <defs>
        <linearGradient x1="93.0827876%" y1="13.6740823%" x2="20.7284213%" y2="98.1195159%" id="linearGradient-1">
            <stop stop-color="#CFDDD8" offset="0%"></stop>
            <stop stop-color="#92B9AD" offset="100%"></stop>
        </linearGradient>
    </defs>
    <g id="inspect" stroke="none" stroke-width="1" fill="none" fill-rule="evenodd">
        <g id="Case-Study---Bluvalt---Inspect" transform="translate(-169.000000, -8099.000000)" fill-rule="nonzero">
            <g id="Group-30" transform="translate(169.000000, 8099.000000)">
                <g id="Group-28">
                    <g id="Group-26">
                        <g id="Shop" transform="translate(0.000000, 0.000000)">
                            <path d="M248.358313,195.709525 C229.313143,220.345288 204.828996,202.232303 187.025522,206.668494 C169.222049,211.104685 161.666941,232.812211 113.765455,232.496593 C65.8639684,232.180975 42.5340733,176.088586 50.1766252,142.720717 C57.819177,109.352847 76.9343009,94.7467329 92.901463,87.4349086 C108.868625,80.1230843 118.644796,83.4896796 137.130327,66.3936876 C155.615859,49.2976955 166.721169,25.7665967 195.507531,26.2575585 C224.293893,26.7485203 246.591956,54.5580008 249.145303,81.7362445 C251.69865,108.914488 233.073209,115.963297 236.448524,136.96945 C239.823838,157.975602 267.385993,171.091296 248.358313,195.709525 Z" id="Shape" fill="url(#linearGradient-1)"></path>
                            <path d="M118.575567,48.75 L26.3486008,48.75 C24.6364015,48.7773288 23.1552065,47.5683819 22.8471974,45.8916952 C21.7657217,39.9688082 23.2364638,33.8662617 26.8997832,29.0763102 C30.5631026,24.2863588 36.0812654,21.2506045 42.1049162,20.7113798 C46.6014238,9.47900301 56.9283447,1.60904027 68.9953304,0.218673492 C81.0623161,-1.17169328 92.9224397,4.14186221 99.8780727,14.0547152 L100.630874,14.0547152 C108.515191,14.0751033 115.848456,18.0832154 120.096933,24.6941981 C124.34541,31.3051808 124.92645,39.6123828 121.639295,46.7455605 C121.079052,47.9348477 119.894611,48.7095852 118.575567,48.75 Z M29.5698919,41.7792008 L116.177106,41.7792008 C117.78099,36.5586188 116.611851,30.8845827 113.072887,26.7138817 C109.533923,22.5431807 104.109411,20.4465412 98.6700885,21.1470254 C97.2552714,21.3304956 95.8701154,20.6411296 95.1686851,19.4044431 C89.8867893,10.6547934 79.9335523,5.81012731 69.7521914,7.03314856 C59.5708304,8.25616982 51.0612823,15.3186513 48.022288,25.0678358 C47.5534304,26.5849131 46.1139571,27.5950352 44.5208846,27.5248769 L44.0832091,27.5248769 C36.1500679,27.5429155 29.6939761,33.8837969 29.5698919,41.7792008 L29.5698919,41.7792008 Z" id="Shape" fill="#131A32"></path>
                            <path d="M185.871711,80.625 L59.7532895,80.625 C57.8184761,80.625 56.25,79.0859788 56.25,77.1875 L56.25,63.4375 C56.25,61.5390212 57.8184761,60 59.7532895,60 L185.871711,60 C187.806524,60 189.375,61.5390212 189.375,63.4375 L189.375,77.1875 C189.375,79.0859788 187.806524,80.625 185.871711,80.625 Z M63.2565789,73.75 L182.368421,73.75 L182.368421,66.875 L63.2565789,66.875 L63.2565789,73.75 Z" id="Shape" fill="#131A32"></path>
                            <path d="M95.8125,189.375 L67.3125,189.375 C65.3449856,189.375 63.75,187.801001 63.75,185.859375 L63.75,136.640625 C63.75,134.698999 65.3449856,133.125 67.3125,133.125 L95.8125,133.125 C97.7800144,133.125 99.375,134.698999 99.375,136.640625 L99.375,185.859375 C99.375,187.801001 97.7800144,189.375 95.8125,189.375 Z M70.875,182.34375 L92.25,182.34375 L92.25,140.15625 L70.875,140.15625 L70.875,182.34375 Z" id="Shape" fill="#131A32"></path>
                            <path d="M178.380682,174.375 L108.494318,174.375 C106.56446,174.375 105,172.835979 105,170.9375 L105,136.5625 C105,134.664021 106.56446,133.125 108.494318,133.125 L178.380682,133.125 C180.31054,133.125 181.875,134.664021 181.875,136.5625 L181.875,170.9375 C181.875,172.835979 180.31054,174.375 178.380682,174.375 Z M111.988636,167.5 L174.886364,167.5 L174.886364,140 L111.988636,140 L111.988636,167.5 Z" id="Shape" fill="#131A32"></path>
                            <path d="M143.4375,174.375 L108.481067,174.375 C107.071778,174.369181 105.803875,173.531737 105.265364,172.251042 C104.726852,170.970347 105.023068,169.496912 106.016638,168.514062 L140.973071,134.139062 C141.625621,133.493521 142.511894,133.128838 143.4375,133.125 L178.393933,133.125 C179.803222,133.130819 181.071125,133.968263 181.609636,135.248958 C182.148148,136.529653 181.851932,138.003088 180.858362,138.985937 L145.901929,173.360937 C145.249379,174.006479 144.363106,174.371162 143.4375,174.375 Z M116.923045,167.5 L141.986808,167.5 L169.951955,140 L144.888192,140 L116.923045,167.5 Z" id="Shape" fill="#131A32"></path>
                            <path d="M58.125,123.75 C47.7696609,123.75 39.375,115.22619 39.375,104.711538 C39.375,102.799784 40.901302,101.25 42.7840909,101.25 L73.4659091,101.25 C75.348698,101.25 76.875,102.799784 76.875,104.711538 C76.875,115.22619 68.4803391,123.75 58.125,123.75 Z M46.6875,108.173077 C48.1917156,113.312868 52.8443135,116.837367 58.125,116.837367 C63.4056865,116.837367 68.0582844,113.312868 69.5625,108.173077 L46.6875,108.173077 Z" id="Shape" fill="#131A32"></path>
                            <path d="M90,123.75 C79.6446609,123.75 71.25,115.22619 71.25,104.711538 C71.25,102.799784 72.776302,101.25 74.6590909,101.25 L105.340909,101.25 C107.223698,101.25 108.75,102.799784 108.75,104.711538 C108.75,115.22619 100.355339,123.75 90,123.75 Z M78.5625,108.173077 C80.0667156,113.312868 84.7193135,116.837367 90,116.837367 C95.2806865,116.837367 99.9332844,113.312868 101.4375,108.173077 L78.5625,108.173077 Z" id="Shape" fill="#131A32"></path>
                            <path d="M121.875,123.75 C111.519661,123.75 103.125,115.22619 103.125,104.711538 C103.125,102.799784 104.651302,101.25 106.534091,101.25 L137.215909,101.25 C139.098698,101.25 140.625,102.799784 140.625,104.711538 C140.625,115.22619 132.230339,123.75 121.875,123.75 Z M110.4375,108.173077 C111.941716,113.312868 116.594313,116.837367 121.875,116.837367 C127.155687,116.837367 131.808284,113.312868 133.3125,108.173077 L110.4375,108.173077 Z" id="Shape" fill="#131A32"></path>
                            <path d="M153.75,123.75 C143.394661,123.75 135,115.22619 135,104.711538 C135,102.799784 136.526302,101.25 138.409091,101.25 L169.090909,101.25 C170.973698,101.25 172.5,102.799784 172.5,104.711538 C172.5,115.22619 164.105339,123.75 153.75,123.75 Z M142.3125,108.173077 C143.816716,113.312868 148.469313,116.837367 153.75,116.837367 C159.030687,116.837367 163.683284,113.312868 165.1875,108.173077 L142.3125,108.173077 Z" id="Shape" fill="#131A32"></path>
                            <path d="M183.75,123.75 C173.394661,123.75 165,115.22619 165,104.711538 C165,102.799784 166.526302,101.25 168.409091,101.25 L199.090909,101.25 C200.973698,101.25 202.5,102.799784 202.5,104.711538 C202.5,115.22619 194.105339,123.75 183.75,123.75 Z M172.3125,108.173077 C173.816716,113.312868 178.469313,116.837367 183.75,116.837367 C189.030687,116.837367 193.683284,113.312868 195.1875,108.173077 L172.3125,108.173077 Z" id="Shape" fill="#131A32"></path>
                            <path d="M73.9922685,108.75 L42.8491192,108.75 C41.6103994,108.755046 40.4635324,108.078043 39.8420393,106.974873 C39.2205463,105.871703 39.2192402,104.510662 39.8386148,103.40623 L55.4101894,74.9062754 C56.0307719,73.7996428 57.1795191,73.1199552 58.4206939,73.125 L80.9129683,73.125 C81.9803657,73.1245041 82.988261,73.6311581 83.6442818,74.4980189 C84.3003026,75.3648797 84.5310202,76.4949194 84.2695077,77.5603337 L77.3488079,106.060288 C76.9604389,107.642524 75.5774487,108.75075 73.9922685,108.75 Z M48.7663176,101.624983 L71.258592,101.624983 L76.4491169,80.2500169 L60.4449986,80.2500169 L48.7663176,101.624983 Z" id="Shape" fill="#131A32"></path>
                            <path d="M138.897488,108.75 L106.727512,108.75 C105.696765,108.757952 104.712704,108.322138 104.027891,107.554303 C103.343079,106.786468 103.024191,105.76137 103.15307,104.742102 L106.727512,76.2422793 C106.953965,74.450428 108.489935,73.1109532 110.301954,73.125 L135.323046,73.125 C137.135065,73.1109532 138.671035,74.450428 138.897488,76.2422793 L142.47193,104.742102 C142.600809,105.76137 142.281921,106.786468 141.597109,107.554303 C140.912296,108.322138 139.928235,108.757952 138.897488,108.75 Z M110.784503,101.624934 L134.840497,101.624934 L132.159665,80.250067 L113.465335,80.250067 L110.784503,101.624934 Z" id="Shape" fill="#131A32"></path>
                            <path d="M105.602798,108.75 L74.6867824,108.75 C73.6271697,108.750413 72.6266252,108.243761 71.9753889,107.376904 C71.3241526,106.510048 71.0951176,105.380013 71.3547229,104.314604 L78.2249487,75.8147807 C78.6104852,74.2325529 79.983389,73.1243316 81.5570082,73.125 L109.037911,73.125 C110.028481,73.1170483 110.974184,73.5528616 111.632303,74.3206966 C112.290421,75.0885316 112.59688,76.1136304 112.473024,77.1328975 L109.037911,105.632721 C108.820285,107.424572 107.344186,108.764047 105.602798,108.75 Z M79.0837269,101.624933 L102.562724,101.624933 L105.139058,80.2500657 L84.2363962,80.2500657 L79.0837269,101.624933 Z" id="Shape" fill="#131A32"></path>
                            <path d="M169.063218,108.75 L138.147202,108.75 C136.405814,108.764047 134.929715,107.424572 134.712089,105.632721 L131.276976,77.1328975 C131.15312,76.1136304 131.459579,75.0885316 132.117697,74.3206966 C132.775816,73.5528616 133.721519,73.1170483 134.712089,73.125 L162.192992,73.125 C163.766611,73.1243316 165.139515,74.2325529 165.525051,75.8147807 L172.395277,104.314604 C172.654882,105.380013 172.425847,106.510048 171.774611,107.376904 C171.123375,108.243761 170.12283,108.750413 169.063218,108.75 Z M141.187276,101.624933 L164.666273,101.624933 L159.513604,80.2500657 L138.610942,80.2500657 L141.187276,101.624933 Z" id="Shape" fill="#131A32"></path>
                            <path d="M200.900881,108.75 L169.757732,108.75 C168.172551,108.75075 166.789561,107.642524 166.401192,106.060288 L159.480492,77.5603337 C159.21898,76.4949194 159.449697,75.3648797 160.105718,74.4980189 C160.761739,73.6311581 161.769634,73.1245041 162.837032,73.125 L185.329306,73.125 C186.570481,73.1199552 187.719228,73.7996428 188.339811,74.9062754 L203.911385,103.40623 C204.53076,104.510662 204.529454,105.871703 203.907961,106.974873 C203.286468,108.078043 202.139601,108.755046 200.900881,108.75 Z M172.456804,101.624983 L194.949079,101.624983 L183.270398,80.2500169 L167.231676,80.2500169 L172.456804,101.624983 Z" id="Shape" fill="#131A32"></path>
                            <path d="M191.517857,187.5 L52.2321429,187.5 C50.3090085,187.5 48.75,185.943917 48.75,184.02439 L48.75,119.72561 C48.75,117.806083 50.3090085,116.25 52.2321429,116.25 C54.1552773,116.25 55.7142857,117.806083 55.7142857,119.72561 L55.7142857,180.54878 L188.035714,180.54878 L188.035714,119.72561 C188.035714,117.806083 189.594723,116.25 191.517857,116.25 C193.440992,116.25 195,117.806083 195,119.72561 L195,184.02439 C195,185.943917 193.440992,187.5 191.517857,187.5 Z" id="Shape" fill="#131A32"></path>
                            <path d="M52.734375,187.5 L3.515625,187.5 C1.57399893,187.5 0,185.950216 0,184.038462 C0.00208113467,175.902644 3.63764538,168.179335 9.94134908,162.919286 C16.2450528,157.659238 24.5790634,155.394683 32.7304688,156.726923 C35.6147633,148.255053 43.6596302,142.533486 52.734375,142.5 C54.6760011,142.5 56.25,144.049784 56.25,145.961538 L56.25,180.576923 C56.2483495,180.899128 56.2010176,181.219529 56.109375,181.528846 C56.1990285,182.362528 56.245963,183.200129 56.25,184.038462 C56.25,185.950216 54.6760011,187.5 52.734375,187.5 Z M7.33007813,180.576923 L48.9375,180.576923 C48.9360348,180.107083 49.0317278,179.641868 49.21875,179.209615 L49.21875,149.786538 C43.719372,151.193749 39.6204518,155.721287 38.8300781,161.261538 C38.6900325,162.268079 38.1079739,163.163228 37.2381681,163.70974 C36.3683624,164.256252 35.2986345,164.398945 34.3125,164.1 C28.495644,162.347945 22.1937802,163.153692 17.0243236,166.310441 C11.8548671,169.467191 8.32113317,174.66759 7.33007813,180.576923 L7.33007813,180.576923 Z" id="Shape" fill="#131A32"></path>
                            <path d="M234.642857,189.375 L192.857143,189.375 C190.934008,189.375 189.375,187.807997 189.375,185.875 L189.375,140.375 C189.375,138.442003 190.934008,136.875 192.857143,136.875 C208.242218,136.875 220.714286,149.411027 220.714286,164.875 C220.714286,164.98 220.714286,165.0675 220.714286,165.1725 C230.765373,166.880156 238.123165,175.629062 238.125,185.875 C238.125,187.807997 236.565992,189.375 234.642857,189.375 Z M196.339286,182.375 L230.725446,182.375 C229.143476,176.216367 223.629861,171.903613 217.301786,171.875 L216.970982,171.875 C215.952932,171.885823 214.981163,171.448274 214.311446,170.677516 C213.64173,169.906758 213.341157,168.880005 213.488839,167.8675 C215.212373,156.576592 207.557616,146.000255 196.339286,144.1725 L196.339286,182.375 Z" id="Shape" fill="#131A32"></path>
                        </g>
                    </g>
                </g>
            </g>
        </g>
    </g>
</svg>