<?xml version="1.0" encoding="UTF-8"?>
<svg width="246px" height="227px" viewBox="0 0 246 227" version="1.1" xmlns="http://www.w3.org/2000/svg" xmlns:xlink="http://www.w3.org/1999/xlink">
    <!-- Generator: Sketch 59.1 (86144) - https://sketch.com -->
    <title>Tower</title>
    <desc>Created with Sketch.</desc>
    <defs>
        <linearGradient x1="30.0600577%" y1="9.17593954%" x2="59.6989314%" y2="90.5208311%" id="linearGradient-1">
            <stop stop-color="#CFDCE9" offset="0%"></stop>
            <stop stop-color="#9FCEEF" offset="100%"></stop>
        </linearGradient>
    </defs>
    <g id="inspect" stroke="none" stroke-width="1" fill="none" fill-rule="evenodd">
        <g id="Case-Study---Bluvalt---Inspect" transform="translate(-588.000000, -8102.000000)" fill-rule="nonzero">
            <g id="Group-30" transform="translate(169.000000, 8099.000000)">
                <g id="Group-28">
                    <g id="Group-26">
                        <g id="Tower" transform="translate(419.616935, 3.000000)">
                            <path d="M213.71371,170.925554 C213.71371,207.975185 146.995965,226.5 88.8720336,226.5 C30.7481026,226.5 1.8266129,196.167066 1.8266129,137.839604 C1.8266129,79.5121419 18.0226471,31.0524194 82.9059434,31.0524194 C147.78924,31.0524194 153.70575,88.8491795 170.199263,111.370844 C186.692775,133.892508 213.71371,133.859339 213.71371,170.925554 Z" id="Shape" fill="url(#linearGradient-1)"></path>
                            <path d="M62.2681012,67.5846774 L4.3470041,67.5846774 C3.08485274,67.5532438 1.95142261,66.8064305 1.42785997,65.661246 C-0.791758927,60.8429007 -0.404430035,55.2306769 2.45622438,50.7607021 C5.31687879,46.2907273 10.2592456,43.5749246 15.5782875,43.5502024 C19.6947353,38.0273566 26.1743836,34.7522684 33.0766599,34.7056452 C41.8053867,34.6746281 49.7048401,39.8549665 53.131345,47.857335 C57.0851241,48.3978809 60.6450725,50.52684 62.9843737,53.7497506 C65.323675,56.9726612 66.2387588,61.0090596 65.5170921,64.9214713 C65.2161309,66.4716791 63.8521427,67.5897364 62.2681012,67.5846774 Z M6.70540868,61.0088851 L59.052095,61.0088851 C58.4217289,57.1282204 55.0631311,54.2745654 51.1192796,54.2687157 L50.9048791,54.2687157 C49.4041384,54.3349027 48.0480946,53.3819584 47.6064112,51.950755 C45.8202888,46.2319105 40.829492,42.0932024 34.8630264,41.3830738 C28.8965608,40.6729451 23.0684808,43.5239908 19.9817422,48.6628675 C19.3209656,49.8295516 18.0160909,50.4798961 16.6832742,50.3068112 C16.2878606,50.2816464 15.8912394,50.2816464 15.4958258,50.3068112 C12.8205904,50.3438422 10.2982127,51.5562392 8.60329662,53.6197495 C6.90838059,55.6832599 6.21383289,58.3873748 6.70540868,61.0088851 Z" id="Shape" fill="#131A32"></path>
                            <path d="M50.7606112,54.7983871 C48.9553715,54.7983871 47.4919355,53.3074072 47.4919355,51.4681904 L47.4919355,3.33019672 C47.4919355,1.49097986 48.9553715,0 50.7606112,0 L168.432937,0 C170.238177,0 171.701613,1.49097986 171.701613,3.33019672 L171.701613,47.5885112 C171.701613,49.4277281 170.238177,50.9187079 168.432937,50.9187079 C166.627697,50.9187079 165.164261,49.4277281 165.164261,47.5885112 L165.164261,6.66039345 L54.0292869,6.66039345 L54.0292869,51.4681904 C54.0292869,53.3074072 52.565851,54.7983871 50.7606112,54.7983871 Z" id="Shape" fill="#131A32"></path>
                            <path d="M168.432937,206.407258 L50.7606112,206.407258 C48.9553715,206.407258 47.4919355,204.922054 47.4919355,203.089961 L47.4919355,65.4221357 C47.4919355,63.5900432 48.9553715,62.1048387 50.7606112,62.1048387 C52.565851,62.1048387 54.0292869,63.5900432 54.0292869,65.4221357 L54.0292869,199.772664 L165.164261,199.772664 L165.164261,107.850364 C165.164261,106.018272 166.627697,104.533067 168.432937,104.533067 C170.238177,104.533067 171.701613,106.018272 171.701613,107.850364 L171.701613,203.089961 C171.701613,204.922054 170.238177,206.407258 168.432937,206.407258 Z" id="Shape" fill="#131A32"></path>
                            <path d="M50.7645832,105.943548 C49.3866588,105.946275 48.1552687,105.072826 47.6867237,103.760356 C47.2181787,102.447886 47.6132848,100.978768 48.6742913,100.088296 L166.253213,0.846844539 C167.14264,0.0378523009 168.397369,-0.214346483 169.524397,0.189341237 C170.651425,0.593028958 171.470662,1.58809709 171.660216,2.783567 C171.84977,3.97903691 171.379352,5.18388201 170.433797,5.92469882 L52.8548752,105.166151 C52.2695295,105.66528 51.529743,105.940411 50.7645832,105.943548 Z" id="Shape" fill="#131A32"></path>
                            <path d="M50.8149101,188.141129 C49.4157959,188.143836 48.1654694,187.276742 47.6897192,185.973822 C47.2139689,184.670901 47.6151509,183.212473 48.6924736,182.328481 L142.809268,104.662389 C144.228536,103.732402 146.12832,104.017213 147.205999,105.321536 C148.283678,106.625859 148.189403,108.526269 146.987815,109.719716 L52.8710205,187.385808 C52.2919808,187.861191 51.5669471,188.127533 50.8149101,188.141129 Z" id="Shape" fill="#131A32"></path>
                            <path d="M130.080933,204.580645 L90.9392281,204.580645 C89.1377809,204.580645 87.6774194,203.126774 87.6774194,201.333333 L87.6774194,178.602151 C87.6774194,176.80871 89.1377809,175.354839 90.9392281,175.354839 L130.080933,175.354839 C131.88238,175.354839 133.342742,176.80871 133.342742,178.602151 L133.342742,201.333333 C133.342742,203.126774 131.88238,204.580645 130.080933,204.580645 Z M94.2010369,198.086022 L126.819124,198.086022 L126.819124,181.849462 L94.2010369,181.849462 L94.2010369,198.086022 Z" id="Shape" fill="#131A32"></path>
                            <path d="M110.053427,204.580645 L90.8739919,204.580645 C89.1085736,204.580645 87.6774194,203.126774 87.6774194,201.333333 L87.6774194,178.602151 C87.6774194,176.80871 89.1085736,175.354839 90.8739919,175.354839 L110.053427,175.354839 C111.818846,175.354839 113.25,176.80871 113.25,178.602151 L113.25,201.333333 C113.25,203.126774 111.818846,204.580645 110.053427,204.580645 Z M94.0705645,198.086022 L106.856855,198.086022 L106.856855,181.849462 L94.0705645,181.849462 L94.0705645,198.086022 Z" id="Shape" fill="#131A32"></path>
                            <path d="M241.026358,111.423387 L109.982317,111.423387 C108.682719,111.423387 107.502661,110.651617 106.963328,109.448333 C102.523399,99.593009 103.31688,88.1157628 109.069054,78.9901789 C114.821229,69.864595 124.741341,64.3451756 135.394908,64.3428216 C136.025247,64.3428216 136.672173,64.3428216 137.319099,64.3428216 C146.764589,49.939199 163.347108,42.1397629 180.247843,44.1516791 C197.148578,46.1635953 211.514561,57.6472374 217.438431,73.8804765 C225.729006,74.3483218 233.422354,78.4188872 238.560865,85.0563983 C243.699376,91.6939093 245.787595,100.258377 244.294165,108.570531 C244.041513,110.209328 242.656407,111.418551 241.026358,111.423387 Z M112.188501,104.671065 L238.090308,104.671065 C238.090308,104.232164 238.090308,103.810144 238.090308,103.371243 C238.072037,90.8395025 228.093908,80.6851533 215.779645,80.6665602 L215.099543,80.6665602 C213.577599,80.7791723 212.189095,79.7829893 211.781973,78.2863666 C207.257033,63.4937555 194.620527,52.7823496 179.506113,50.9275512 C164.3917,49.0727528 149.615321,56.4201267 141.764644,69.6940368 C141.10004,70.8920442 139.787609,71.5598492 138.447073,71.3821174 C137.380129,71.2387817 136.305226,71.16548 135.22903,71.1626669 C121.707162,71.2642847 110.782927,82.4190832 110.72866,96.18002 C110.720221,99.0742999 111.208611,101.947847 112.171913,104.671065 L112.188501,104.671065 Z" id="Shape" fill="#131A32"></path>
                        </g>
                    </g>
                </g>
            </g>
        </g>
    </g>
</svg>