<?xml version="1.0" encoding="UTF-8" standalone="no"?>
<svg width="48px" height="41px" viewBox="0 0 48 41" version="1.1" xmlns="http://www.w3.org/2000/svg" xmlns:xlink="http://www.w3.org/1999/xlink">
    <!-- Generator: Sketch 3.8.3 (29802) - http://www.bohemiancoding.com/sketch -->
    <title>Fill 1</title>
    <desc>Created with Sketch.</desc>
    <defs></defs>
    <g id="Page-1" stroke="none" stroke-width="1" fill="none" fill-rule="evenodd">
        <g id="Home" transform="translate(-913.000000, -2603.000000)" fill="#3D96FF">
            <g id="Contact" transform="translate(319.000000, 2480.000000)">
                <g id="Networks" transform="translate(0.000000, 122.000000)">
                    <g id="Page-1" transform="translate(594.000000, 1.000000)">
                        <path d="M15.7061739,23.7641217 C13.8341739,23.7641217 12.315913,25.8646435 12.315913,28.457687 C12.315913,31.0512522 13.8341739,33.1528174 15.7061739,33.1528174 C17.5802609,33.1528174 19.0985217,31.0512522 19.0985217,28.457687 C19.0985217,25.8646435 17.5802609,23.7641217 15.7061739,23.7641217 M24.0733043,38.3863826 L23.9266957,38.3863826 C14.0866957,38.3863826 6.42495652,37.2114261 6.42495652,27.6489913 C6.42495652,25.3596 7.23313043,23.2324696 9.1526087,21.4684696 C12.3566087,18.5279478 17.775913,20.0848174 23.9266957,20.0848174 C23.9501739,20.0848174 23.9752174,20.0842957 23.9997391,20.0832522 C24.0253043,20.0842957 24.0498261,20.0848174 24.0733043,20.0848174 C30.224087,20.0848174 35.6444348,18.5279478 38.8473913,21.4684696 C40.7668696,23.2324696 41.5750435,25.3596 41.5750435,27.6489913 C41.5750435,37.2114261 33.9127826,38.3863826 24.0733043,38.3863826 M44.1013043,11.5470783 C44.4873913,10.5943826 44.5066957,5.18133913 42.4473913,-5.2173913e-05 C42.4473913,-5.2173913e-05 37.722,0.518034783 30.5726087,5.42394783 C29.0736522,5.0102087 26.5364348,4.80307826 23.9997391,4.80307826 C21.4635652,4.80307826 18.9273913,5.0102087 17.4273913,5.42394783 C10.278,0.518034783 5.55365217,-5.2173913e-05 5.55365217,-5.2173913e-05 C3.49434783,5.18133913 3.5126087,10.5943826 3.89869565,11.5470783 C1.47834783,14.1750783 -0.000260869565,17.3310783 -0.000260869565,21.6437739 C-0.000260869565,40.3903826 15.5522609,40.6909043 19.4783478,40.6909043 C20.3668696,40.6909043 22.1329565,40.6929913 23.9997391,40.6956 C25.8665217,40.6929913 27.6336522,40.6909043 28.5211304,40.6909043 C32.4477391,40.6909043 47.9997391,40.3903826 47.9997391,21.6437739 C47.9997391,17.3310783 46.5216522,14.1750783 44.1013043,11.5470783 M32.2938261,23.7641217 C30.4207826,23.7641217 28.9014783,25.8646435 28.9014783,28.457687 C28.9014783,31.0512522 30.4207826,33.1528174 32.2938261,33.1528174 C34.1658261,33.1528174 35.684087,31.0512522 35.684087,28.457687 C35.684087,25.8646435 34.1658261,23.7641217 32.2938261,23.7641217" id="Fill-1"></path>
                    </g>
                </g>
            </g>
        </g>
    </g>
</svg>