<svg width="43" height="43" viewBox="0 0 43 43" xmlns="http://www.w3.org/2000/svg">
  <title>
    Instagram
  </title>
  <path class="path" d="M10.4 0C4.7 0 0 4.7 0 10.4v22.2C0 38.3 4.7 43 10.4 43h22.2C38.3 43 43
     38.3 43 32.6V10.4C43 4.7 38.3 0 32.6 0H10.4zm0 3.7h22.2c3.7 0 6.7 3 6.7
     6.7v22.2c0 3.7-3 6.7-6.7 6.7H10.4c-3.7 0-6.7-3-6.7-6.7V10.4c0-3.7 3-6.7
     6.7-6.7zm23.4 3.7a2.5 2.5 0 1 0 0 4.9 2.5 2.5 0 0 0 0-5zM21.5 11c-5.7
     0-10.4 4.7-10.4 10.4s4.7 10.4 10.4 10.4 10.4-4.7 10.4-10.4-4.7-10.4-10.4-10.4zm0
     3.6c3.8 0 6.8 3 6.8 6.8s-3 6.8-6.8 6.8-6.8-3-6.8-6.8 3-6.8 6.8-6.8z"
     fill="#000" fill-rule="nonzero"/>
</svg>
