<?xml version="1.0" encoding="UTF-8" standalone="no"?>
<svg width="43px" height="43px" viewBox="0 0 43 43" version="1.1" xmlns="http://www.w3.org/2000/svg" xmlns:xlink="http://www.w3.org/1999/xlink">
    <!-- Generator: Sketch 3.8.3 (29802) - http://www.bohemiancoding.com/sketch -->
    <title>Page 1</title>
    <desc>Created with Sketch.</desc>
    <defs></defs>
    <g id="Page-1" stroke="none" stroke-width="1" fill="none" fill-rule="evenodd">
        <g id="Home" transform="translate(-473.000000, -2602.000000)" fill="#3D96FF">
            <g id="Contact" transform="translate(319.000000, 2480.000000)">
                <g id="Networks" transform="translate(0.000000, 122.000000)">
                    <g id="Page-1" transform="translate(154.000000, 0.000000)">
                        <path d="M0.241755556,42.3971878 L9.43515556,42.3971878 L9.43515556,12.8222656 L0.241755556,12.8222656 L0.241755556,42.3971878 Z M9.73663333,4.59684333 C9.73663333,7.13623222 7.86183333,9.19306556 4.77682222,9.19306556 C1.8748,9.19306556 0,7.13623222 0,4.59684333 C0,1.99582111 1.93547778,0.000143333333 4.89817778,0.000143333333 C7.86183333,0.000143333333 9.67691111,1.99582111 9.73663333,4.59684333 L9.73663333,4.59684333 Z" id="Fill-1"></path>
                        <path d="M14.9361933,22.2568 C14.9361933,18.5678778 14.8157933,15.4838222 14.6953933,12.8221222 L22.6776267,12.8221222 L23.1023711,16.9348333 L23.2834489,16.9348333 C24.4927044,14.9988778 27.45636,12.1561 32.4161711,12.1561 C38.4638822,12.1561 42.9999044,16.2090889 42.9999044,24.9175444 L42.9999044,42.3970444 L33.8065044,42.3970444 L33.8065044,26.0068778 C33.8065044,22.1961222 32.4758933,19.5965333 29.1491267,19.5965333 C26.60926,19.5965333 25.0985267,21.3499778 24.4329822,23.0432222 C24.1902711,23.6476111 24.1295933,24.4947111 24.1295933,25.3418111 L24.1295933,42.3970444 L14.9361933,42.3970444 L14.9361933,22.2568 Z" id="Fill-3"></path>
                    </g>
                </g>
            </g>
        </g>
    </g>
</svg>