<?xml version="1.0" encoding="UTF-8" standalone="no"?>
<svg width="52px" height="35px" viewBox="0 0 52 35" version="1.1" xmlns="http://www.w3.org/2000/svg" xmlns:xlink="http://www.w3.org/1999/xlink">
    <!-- Generator: Sketch 3.8.3 (29802) - http://www.bohemiancoding.com/sketch -->
    <title>Shape</title>
    <desc>Created with Sketch.</desc>
    <defs></defs>
    <g id="Page-1" stroke="none" stroke-width="1" fill="none" fill-rule="evenodd">
        <g id="Home" transform="translate(-319.000000, -2606.000000)" fill="#3D96FF">
            <g id="Contact" transform="translate(319.000000, 2480.000000)">
                <g id="Networks" transform="translate(0.000000, 122.000000)">
                    <path d="M49.066013,4 L2.82850362,4 C1.26889208,4 0,5.26889208 0,6.82741069 L0,36.1714964 C0,37.7311079 1.26889208,39 2.82850362,39 L49.0671059,39 C50.6267175,39 51.8956095,37.7311079 51.8956095,36.1714964 L51.8956095,6.82741069 C51.8945166,5.26889208 50.6256245,4 49.066013,4 L49.066013,4 Z M26.1385211,28.2532163 C25.6051711,28.7854734 25.261991,28.7865663 24.7461279,28.2707032 L3.63508619,6.1858606 L48.1676243,6.1858606 L26.1385211,28.2532163 L26.1385211,28.2532163 Z M16.8999813,23.224644 L2.1858606,35.8611042 L2.1858606,7.83290657 L16.8999813,23.224644 L16.8999813,23.224644 Z M18.4115039,24.8072071 L23.1832376,29.7986198 C23.8783412,30.4915376 24.6554147,30.8369036 25.4335811,30.8369036 C26.2117474,30.8369036 26.9910067,30.4904447 27.6850175,29.7964339 L33.3048651,24.1689358 C33.3638833,24.2716712 33.4283662,24.3733138 33.5223582,24.4552835 L47.5796278,36.8141394 L4.43073945,36.8141394 L18.4115039,24.8072071 L18.4115039,24.8072071 Z M49.4223083,35.5244816 L34.9639333,22.8137022 C34.9049151,22.7612416 34.8338746,22.73829 34.7682988,22.7011304 L49.7075631,7.7367287 L49.7075631,35.957282 C49.6485448,35.7977142 49.5600175,35.6457969 49.4223083,35.5244816 L49.4223083,35.5244816 Z" id="Shape"></path>
                </g>
            </g>
        </g>
    </g>
</svg>