<?xml version="1.0" encoding="UTF-8" standalone="no"?>
<svg width="48px" height="39px" viewBox="0 0 48 39" version="1.1" xmlns="http://www.w3.org/2000/svg" xmlns:xlink="http://www.w3.org/1999/xlink">
    <!-- Generator: Sketch 3.8.3 (29802) - http://www.bohemiancoding.com/sketch -->
    <title>Page 1</title>
    <desc>Created with Sketch.</desc>
    <defs></defs>
    <g id="Page-1" stroke="none" stroke-width="1" fill="none" fill-rule="evenodd">
        <g id="Home" transform="translate(-618.000000, -2604.000000)" fill="#3D96FF">
            <g id="Contact" transform="translate(319.000000, 2480.000000)">
                <g id="Networks" transform="translate(0.000000, 122.000000)">
                    <g id="Page-1" transform="translate(299.000000, 2.000000)">
                        <path d="M48,4.59516498 C46.2328696,5.3750714 44.3358261,5.90158611 42.3433043,6.13888121 C44.3775652,4.92592423 45.9386087,3.00471668 46.6742609,0.716402717 C44.7709565,1.83901102 42.6631304,2.6552646 40.4206957,3.09454611 C38.6238261,1.18943517 36.0641739,-0.000155773585 33.2321739,-0.000155773585 C27.7935652,-0.000155773585 23.3843478,4.38798611 23.3843478,9.8000797 C23.3843478,10.5685627 23.4709565,11.3162759 23.6394783,12.0333537 C15.4554783,11.6252269 8.19704348,7.72309857 3.34121739,1.79331743 C2.4933913,3.24149253 2.00765217,4.92488574 2.00765217,6.72095517 C2.00765217,10.1209733 3.74608696,13.120134 6.38817391,14.8782986 C4.77495652,14.8274125 3.25565217,14.3870925 1.92782609,13.6528797 C1.92678261,13.6933808 1.92678261,13.7344012 1.92678261,13.7759408 C1.92678261,18.5244389 5.32226087,22.4857612 9.82643478,23.3856133 C9.00104348,23.6099272 8.13078261,23.7303922 7.23182609,23.7303922 C6.59791304,23.7303922 5.98173913,23.668602 5.37965217,23.554368 C6.63286957,27.4476691 10.2709565,30.2817099 14.5789565,30.3601159 C11.208,32.989574 6.96313043,34.5561371 2.34886957,34.5561371 C1.55426087,34.5561371 0.770608696,34.509405 0,34.4180178 C4.35756522,37.1996148 9.53269565,38.8227755 15.096,38.8227755 C33.2086957,38.8227755 43.1149565,23.8877235 43.1149565,10.9361884 C43.1149565,10.5124842 43.1055652,10.0892993 43.0862609,9.6681914 C45.0104348,8.28699894 46.6794783,6.56102762 48,4.59516498" id="Fill-1"></path>
                    </g>
                </g>
            </g>
        </g>
    </g>
</svg>